# Tiled2Unity generated file. Do not modify by hand.
# Wavefront file for 'Map_mesh_0012.obj'

# Vertices (Count = 12)
v 0 -1.92 0
v -0.32 -1.92 0
v -0.32 -1.6 0
v 0 -1.6 0
v -7.04 -6.4 0
v -7.36 -6.4 0
v -7.36 -6.08 0
v -7.04 -6.08 0
v -2.88 -7.04 0
v -3.2 -7.04 0
v -3.2 -6.72 0
v -2.88 -6.72 0

# Texture cooridinates (Count = 8)
vt 0.5 0.6666666
vt 0.6666667 0.6666666
vt 0.6666667 1
vt 0.5 1
vt 0.8333333 0.6666666
vt 1 0.6666666
vt 1 1
vt 0.8333333 1

# Normal
vn 0 0 -1

# Mesh description
g Map_mesh_0012

# Faces
f 1/1/1 2/2/1 3/3/1 4/4/1
f 5/5/1 6/6/1 7/7/1 8/8/1
f 9/5/1 10/6/1 11/7/1 12/8/1

