# Tiled2Unity generated file. Do not modify by hand.
# Wavefront file for 'Map_mesh_0006.obj'

# Vertices (Count = 352)
v -11.84 -0.32 0
v -12.16 -0.32 0
v -12.16 0 0
v -11.84 0 0
v -12.16 -0.32 0
v -12.48 -0.32 0
v -12.48 0 0
v -12.16 0 0
v -12.48 -0.32 0
v -12.8 -0.32 0
v -12.8 0 0
v -12.48 0 0
v -12.8 -0.32 0
v -13.12 -0.32 0
v -13.12 0 0
v -12.8 0 0
v -13.12 -0.32 0
v -13.44 -0.32 0
v -13.44 0 0
v -13.12 0 0
v -13.44 -0.32 0
v -13.76 -0.32 0
v -13.76 0 0
v -13.44 0 0
v -13.76 -0.32 0
v -14.08 -0.32 0
v -14.08 0 0
v -13.76 0 0
v -14.08 -0.32 0
v -14.4 -0.32 0
v -14.4 0 0
v -14.08 0 0
v -14.4 -0.32 0
v -14.72 -0.32 0
v -14.72 0 0
v -14.4 0 0
v -14.72 -0.32 0
v -15.04 -0.32 0
v -15.04 0 0
v -14.72 0 0
v -15.04 -0.32 0
v -15.36 -0.32 0
v -15.36 0 0
v -15.04 0 0
v -15.36 -0.32 0
v -15.68 -0.32 0
v -15.68 0 0
v -15.36 0 0
v -15.68 -0.32 0
v -16 -0.32 0
v -16 0 0
v -15.68 0 0
v -16 -0.32 0
v -16.32 -0.32 0
v -16.32 0 0
v -16 0 0
v -16.32 -0.32 0
v -16.64 -0.32 0
v -16.64 0 0
v -16.32 0 0
v -16.64 -0.32 0
v -16.96 -0.32 0
v -16.96 0 0
v -16.64 0 0
v -16.96 -0.32 0
v -17.28 -0.32 0
v -17.28 0 0
v -16.96 0 0
v -17.28 -0.32 0
v -17.6 -0.32 0
v -17.6 0 0
v -17.28 0 0
v -17.6 -0.32 0
v -17.92 -0.32 0
v -17.92 0 0
v -17.6 0 0
v -17.92 -0.32 0
v -18.24 -0.32 0
v -18.24 0 0
v -17.92 0 0
v -18.24 -0.32 0
v -18.56 -0.32 0
v -18.56 0 0
v -18.24 0 0
v -18.56 -0.32 0
v -18.88 -0.32 0
v -18.88 0 0
v -18.56 0 0
v -11.84 -0.64 0
v -12.16 -0.64 0
v -12.16 -0.32 0
v -11.84 -0.32 0
v -12.16 -0.64 0
v -12.48 -0.64 0
v -12.48 -0.32 0
v -12.16 -0.32 0
v -12.48 -0.64 0
v -12.8 -0.64 0
v -12.8 -0.32 0
v -12.48 -0.32 0
v -12.8 -0.64 0
v -13.12 -0.64 0
v -13.12 -0.32 0
v -12.8 -0.32 0
v -13.12 -0.64 0
v -13.44 -0.64 0
v -13.44 -0.32 0
v -13.12 -0.32 0
v -13.44 -0.64 0
v -13.76 -0.64 0
v -13.76 -0.32 0
v -13.44 -0.32 0
v -13.76 -0.64 0
v -14.08 -0.64 0
v -14.08 -0.32 0
v -13.76 -0.32 0
v -14.08 -0.64 0
v -14.4 -0.64 0
v -14.4 -0.32 0
v -14.08 -0.32 0
v -14.4 -0.64 0
v -14.72 -0.64 0
v -14.72 -0.32 0
v -14.4 -0.32 0
v -14.72 -0.64 0
v -15.04 -0.64 0
v -15.04 -0.32 0
v -14.72 -0.32 0
v -15.04 -0.64 0
v -15.36 -0.64 0
v -15.36 -0.32 0
v -15.04 -0.32 0
v -15.36 -0.64 0
v -15.68 -0.64 0
v -15.68 -0.32 0
v -15.36 -0.32 0
v -15.68 -0.64 0
v -16 -0.64 0
v -16 -0.32 0
v -15.68 -0.32 0
v -16 -0.64 0
v -16.32 -0.64 0
v -16.32 -0.32 0
v -16 -0.32 0
v -16.32 -0.64 0
v -16.64 -0.64 0
v -16.64 -0.32 0
v -16.32 -0.32 0
v -16.64 -0.64 0
v -16.96 -0.64 0
v -16.96 -0.32 0
v -16.64 -0.32 0
v -16.96 -0.64 0
v -17.28 -0.64 0
v -17.28 -0.32 0
v -16.96 -0.32 0
v -17.28 -0.64 0
v -17.6 -0.64 0
v -17.6 -0.32 0
v -17.28 -0.32 0
v -17.6 -0.64 0
v -17.92 -0.64 0
v -17.92 -0.32 0
v -17.6 -0.32 0
v -17.92 -0.64 0
v -18.24 -0.64 0
v -18.24 -0.32 0
v -17.92 -0.32 0
v -18.24 -0.64 0
v -18.56 -0.64 0
v -18.56 -0.32 0
v -18.24 -0.32 0
v -18.56 -0.64 0
v -18.88 -0.64 0
v -18.88 -0.32 0
v -18.56 -0.32 0
v -11.84 -0.96 0
v -12.16 -0.96 0
v -12.16 -0.64 0
v -11.84 -0.64 0
v -12.16 -0.96 0
v -12.48 -0.96 0
v -12.48 -0.64 0
v -12.16 -0.64 0
v -12.48 -0.96 0
v -12.8 -0.96 0
v -12.8 -0.64 0
v -12.48 -0.64 0
v -12.8 -0.96 0
v -13.12 -0.96 0
v -13.12 -0.64 0
v -12.8 -0.64 0
v -13.12 -0.96 0
v -13.44 -0.96 0
v -13.44 -0.64 0
v -13.12 -0.64 0
v -13.44 -0.96 0
v -13.76 -0.96 0
v -13.76 -0.64 0
v -13.44 -0.64 0
v -13.76 -0.96 0
v -14.08 -0.96 0
v -14.08 -0.64 0
v -13.76 -0.64 0
v -14.08 -0.96 0
v -14.4 -0.96 0
v -14.4 -0.64 0
v -14.08 -0.64 0
v -14.4 -0.96 0
v -14.72 -0.96 0
v -14.72 -0.64 0
v -14.4 -0.64 0
v -14.72 -0.96 0
v -15.04 -0.96 0
v -15.04 -0.64 0
v -14.72 -0.64 0
v -15.04 -0.96 0
v -15.36 -0.96 0
v -15.36 -0.64 0
v -15.04 -0.64 0
v -15.36 -0.96 0
v -15.68 -0.96 0
v -15.68 -0.64 0
v -15.36 -0.64 0
v -15.68 -0.96 0
v -16 -0.96 0
v -16 -0.64 0
v -15.68 -0.64 0
v -16 -0.96 0
v -16.32 -0.96 0
v -16.32 -0.64 0
v -16 -0.64 0
v -16.32 -0.96 0
v -16.64 -0.96 0
v -16.64 -0.64 0
v -16.32 -0.64 0
v -16.64 -0.96 0
v -16.96 -0.96 0
v -16.96 -0.64 0
v -16.64 -0.64 0
v -16.96 -0.96 0
v -17.28 -0.96 0
v -17.28 -0.64 0
v -16.96 -0.64 0
v -17.28 -0.96 0
v -17.6 -0.96 0
v -17.6 -0.64 0
v -17.28 -0.64 0
v -17.6 -0.96 0
v -17.92 -0.96 0
v -17.92 -0.64 0
v -17.6 -0.64 0
v -17.92 -0.96 0
v -18.24 -0.96 0
v -18.24 -0.64 0
v -17.92 -0.64 0
v -18.24 -0.96 0
v -18.56 -0.96 0
v -18.56 -0.64 0
v -18.24 -0.64 0
v -18.56 -0.96 0
v -18.88 -0.96 0
v -18.88 -0.64 0
v -18.56 -0.64 0
v -11.84 -1.28 0
v -12.16 -1.28 0
v -12.16 -0.96 0
v -11.84 -0.96 0
v -12.16 -1.28 0
v -12.48 -1.28 0
v -12.48 -0.96 0
v -12.16 -0.96 0
v -12.48 -1.28 0
v -12.8 -1.28 0
v -12.8 -0.96 0
v -12.48 -0.96 0
v -12.8 -1.28 0
v -13.12 -1.28 0
v -13.12 -0.96 0
v -12.8 -0.96 0
v -13.12 -1.28 0
v -13.44 -1.28 0
v -13.44 -0.96 0
v -13.12 -0.96 0
v -13.44 -1.28 0
v -13.76 -1.28 0
v -13.76 -0.96 0
v -13.44 -0.96 0
v -13.76 -1.28 0
v -14.08 -1.28 0
v -14.08 -0.96 0
v -13.76 -0.96 0
v -14.08 -1.28 0
v -14.4 -1.28 0
v -14.4 -0.96 0
v -14.08 -0.96 0
v -14.4 -1.28 0
v -14.72 -1.28 0
v -14.72 -0.96 0
v -14.4 -0.96 0
v -14.72 -1.28 0
v -15.04 -1.28 0
v -15.04 -0.96 0
v -14.72 -0.96 0
v -15.04 -1.28 0
v -15.36 -1.28 0
v -15.36 -0.96 0
v -15.04 -0.96 0
v -15.36 -1.28 0
v -15.68 -1.28 0
v -15.68 -0.96 0
v -15.36 -0.96 0
v -15.68 -1.28 0
v -16 -1.28 0
v -16 -0.96 0
v -15.68 -0.96 0
v -16 -1.28 0
v -16.32 -1.28 0
v -16.32 -0.96 0
v -16 -0.96 0
v -16.32 -1.28 0
v -16.64 -1.28 0
v -16.64 -0.96 0
v -16.32 -0.96 0
v -16.64 -1.28 0
v -16.96 -1.28 0
v -16.96 -0.96 0
v -16.64 -0.96 0
v -16.96 -1.28 0
v -17.28 -1.28 0
v -17.28 -0.96 0
v -16.96 -0.96 0
v -17.28 -1.28 0
v -17.6 -1.28 0
v -17.6 -0.96 0
v -17.28 -0.96 0
v -17.6 -1.28 0
v -17.92 -1.28 0
v -17.92 -0.96 0
v -17.6 -0.96 0
v -17.92 -1.28 0
v -18.24 -1.28 0
v -18.24 -0.96 0
v -17.92 -0.96 0
v -18.24 -1.28 0
v -18.56 -1.28 0
v -18.56 -0.96 0
v -18.24 -0.96 0
v -18.56 -1.28 0
v -18.88 -1.28 0
v -18.88 -0.96 0
v -18.56 -0.96 0

# Texture cooridinates (Count = 33)
vt 0.1666667 0.8
vt 0.25 0.8
vt 0.25 0.8666667
vt 0.1666667 0.8666667
vt 0.6666667 0.8666667
vt 0.75 0.8666667
vt 0.75 0.9333333
vt 0.6666667 0.9333333
vt 0.8333333 0.8666667
vt 0.8333333 0.9333333
vt 0.9166667 0.8666667
vt 0.9166667 0.9333333
vt 1 0.8666667
vt 1 0.9333333
vt 0.1666667 0.7333333
vt 0.25 0.7333333
vt 0.6666667 0.8
vt 0.75 0.8
vt 0.8333333 0.8
vt 0.9166667 0.8
vt 1 0.8
vt 0.6666667 0.7333333
vt 0.75 0.7333333
vt 0.8333333 0.7333333
vt 0.9166667 0.7333333
vt 1 0.7333333
vt 0.1666667 0.6666666
vt 0.25 0.6666666
vt 0.6666667 0.6666666
vt 0.75 0.6666666
vt 0.8333333 0.6666666
vt 0.9166667 0.6666666
vt 1 0.6666666

# Normal
vn 0 0 -1

# Mesh description
g Map_mesh_0006

# Faces
f 1/1/1 2/2/1 3/3/1 4/4/1
f 5/5/1 6/6/1 7/7/1 8/8/1
f 9/6/1 10/9/1 11/10/1 12/7/1
f 13/9/1 14/11/1 15/12/1 16/10/1
f 17/11/1 18/13/1 19/14/1 20/12/1
f 21/1/1 22/2/1 23/3/1 24/4/1
f 25/1/1 26/2/1 27/3/1 28/4/1
f 29/1/1 30/2/1 31/3/1 32/4/1
f 33/1/1 34/2/1 35/3/1 36/4/1
f 37/5/1 38/6/1 39/7/1 40/8/1
f 41/6/1 42/9/1 43/10/1 44/7/1
f 45/9/1 46/11/1 47/12/1 48/10/1
f 49/11/1 50/13/1 51/14/1 52/12/1
f 53/1/1 54/2/1 55/3/1 56/4/1
f 57/1/1 58/2/1 59/3/1 60/4/1
f 61/1/1 62/2/1 63/3/1 64/4/1
f 65/1/1 66/2/1 67/3/1 68/4/1
f 69/5/1 70/6/1 71/7/1 72/8/1
f 73/6/1 74/9/1 75/10/1 76/7/1
f 77/9/1 78/11/1 79/12/1 80/10/1
f 81/11/1 82/13/1 83/14/1 84/12/1
f 85/1/1 86/2/1 87/3/1 88/4/1
f 89/15/1 90/16/1 91/2/1 92/1/1
f 93/17/1 94/18/1 95/6/1 96/5/1
f 97/18/1 98/19/1 99/9/1 100/6/1
f 101/19/1 102/20/1 103/11/1 104/9/1
f 105/20/1 106/21/1 107/13/1 108/11/1
f 109/15/1 110/16/1 111/2/1 112/1/1
f 113/15/1 114/16/1 115/2/1 116/1/1
f 117/15/1 118/16/1 119/2/1 120/1/1
f 121/15/1 122/16/1 123/2/1 124/1/1
f 125/17/1 126/18/1 127/6/1 128/5/1
f 129/18/1 130/19/1 131/9/1 132/6/1
f 133/19/1 134/20/1 135/11/1 136/9/1
f 137/20/1 138/21/1 139/13/1 140/11/1
f 141/15/1 142/16/1 143/2/1 144/1/1
f 145/15/1 146/16/1 147/2/1 148/1/1
f 149/15/1 150/16/1 151/2/1 152/1/1
f 153/15/1 154/16/1 155/2/1 156/1/1
f 157/17/1 158/18/1 159/6/1 160/5/1
f 161/18/1 162/19/1 163/9/1 164/6/1
f 165/19/1 166/20/1 167/11/1 168/9/1
f 169/20/1 170/21/1 171/13/1 172/11/1
f 173/15/1 174/16/1 175/2/1 176/1/1
f 177/15/1 178/16/1 179/2/1 180/1/1
f 181/22/1 182/23/1 183/18/1 184/17/1
f 185/23/1 186/24/1 187/19/1 188/18/1
f 189/24/1 190/25/1 191/20/1 192/19/1
f 193/25/1 194/26/1 195/21/1 196/20/1
f 197/15/1 198/16/1 199/2/1 200/1/1
f 201/15/1 202/16/1 203/2/1 204/1/1
f 205/15/1 206/16/1 207/2/1 208/1/1
f 209/15/1 210/16/1 211/2/1 212/1/1
f 213/22/1 214/23/1 215/18/1 216/17/1
f 217/23/1 218/24/1 219/19/1 220/18/1
f 221/24/1 222/25/1 223/20/1 224/19/1
f 225/25/1 226/26/1 227/21/1 228/20/1
f 229/15/1 230/16/1 231/2/1 232/1/1
f 233/15/1 234/16/1 235/2/1 236/1/1
f 237/15/1 238/16/1 239/2/1 240/1/1
f 241/15/1 242/16/1 243/2/1 244/1/1
f 245/22/1 246/23/1 247/18/1 248/17/1
f 249/23/1 250/24/1 251/19/1 252/18/1
f 253/24/1 254/25/1 255/20/1 256/19/1
f 257/25/1 258/26/1 259/21/1 260/20/1
f 261/15/1 262/16/1 263/2/1 264/1/1
f 265/27/1 266/28/1 267/16/1 268/15/1
f 269/29/1 270/30/1 271/23/1 272/22/1
f 273/30/1 274/31/1 275/24/1 276/23/1
f 277/31/1 278/32/1 279/25/1 280/24/1
f 281/32/1 282/33/1 283/26/1 284/25/1
f 285/27/1 286/28/1 287/16/1 288/15/1
f 289/27/1 290/28/1 291/16/1 292/15/1
f 293/27/1 294/28/1 295/16/1 296/15/1
f 297/27/1 298/28/1 299/16/1 300/15/1
f 301/29/1 302/30/1 303/23/1 304/22/1
f 305/30/1 306/31/1 307/24/1 308/23/1
f 309/31/1 310/32/1 311/25/1 312/24/1
f 313/32/1 314/33/1 315/26/1 316/25/1
f 317/27/1 318/28/1 319/16/1 320/15/1
f 321/27/1 322/28/1 323/16/1 324/15/1
f 325/27/1 326/28/1 327/16/1 328/15/1
f 329/27/1 330/28/1 331/16/1 332/15/1
f 333/29/1 334/30/1 335/23/1 336/22/1
f 337/30/1 338/31/1 339/24/1 340/23/1
f 341/31/1 342/32/1 343/25/1 344/24/1
f 345/32/1 346/33/1 347/26/1 348/25/1
f 349/27/1 350/28/1 351/16/1 352/15/1

