# Tiled2Unity generated file. Do not modify by hand.
# Wavefront file for 'Map_mesh_0003.obj'

# Vertices (Count = 840)
v 0 -4.48 0
v -0.32 -4.48 0
v -0.32 -4.16 0
v 0 -4.16 0
v -0.32 -4.48 0
v -0.64 -4.48 0
v -0.64 -4.16 0
v -0.32 -4.16 0
v -0.64 -4.48 0
v -0.96 -4.48 0
v -0.96 -4.16 0
v -0.64 -4.16 0
v -0.96 -4.48 0
v -1.28 -4.48 0
v -1.28 -4.16 0
v -0.96 -4.16 0
v -1.28 -4.48 0
v -1.6 -4.48 0
v -1.6 -4.16 0
v -1.28 -4.16 0
v -1.6 -4.48 0
v -1.92 -4.48 0
v -1.92 -4.16 0
v -1.6 -4.16 0
v -1.92 -4.48 0
v -2.24 -4.48 0
v -2.24 -4.16 0
v -1.92 -4.16 0
v -2.24 -4.48 0
v -2.56 -4.48 0
v -2.56 -4.16 0
v -2.24 -4.16 0
v -2.56 -4.48 0
v -2.88 -4.48 0
v -2.88 -4.16 0
v -2.56 -4.16 0
v -2.88 -4.48 0
v -3.2 -4.48 0
v -3.2 -4.16 0
v -2.88 -4.16 0
v -3.2 -4.48 0
v -3.52 -4.48 0
v -3.52 -4.16 0
v -3.2 -4.16 0
v -3.52 -4.48 0
v -3.84 -4.48 0
v -3.84 -4.16 0
v -3.52 -4.16 0
v -3.84 -4.48 0
v -4.16 -4.48 0
v -4.16 -4.16 0
v -3.84 -4.16 0
v -4.16 -4.48 0
v -4.48 -4.48 0
v -4.48 -4.16 0
v -4.16 -4.16 0
v -4.48 -4.48 0
v -4.8 -4.48 0
v -4.8 -4.16 0
v -4.48 -4.16 0
v -4.8 -4.48 0
v -5.12 -4.48 0
v -5.12 -4.16 0
v -4.8 -4.16 0
v -5.12 -4.48 0
v -5.44 -4.48 0
v -5.44 -4.16 0
v -5.12 -4.16 0
v -5.44 -4.48 0
v -5.76 -4.48 0
v -5.76 -4.16 0
v -5.44 -4.16 0
v -5.76 -4.48 0
v -6.08 -4.48 0
v -6.08 -4.16 0
v -5.76 -4.16 0
v -6.08 -4.48 0
v -6.4 -4.48 0
v -6.4 -4.16 0
v -6.08 -4.16 0
v 0 -4.8 0
v -0.32 -4.8 0
v -0.32 -4.48 0
v 0 -4.48 0
v -0.32 -4.8 0
v -0.64 -4.8 0
v -0.64 -4.48 0
v -0.32 -4.48 0
v -0.64 -4.8 0
v -0.96 -4.8 0
v -0.96 -4.48 0
v -0.64 -4.48 0
v -0.96 -4.8 0
v -1.28 -4.8 0
v -1.28 -4.48 0
v -0.96 -4.48 0
v -1.28 -4.8 0
v -1.6 -4.8 0
v -1.6 -4.48 0
v -1.28 -4.48 0
v -1.6 -4.8 0
v -1.92 -4.8 0
v -1.92 -4.48 0
v -1.6 -4.48 0
v -1.92 -4.8 0
v -2.24 -4.8 0
v -2.24 -4.48 0
v -1.92 -4.48 0
v -2.24 -4.8 0
v -2.56 -4.8 0
v -2.56 -4.48 0
v -2.24 -4.48 0
v -2.56 -4.8 0
v -2.88 -4.8 0
v -2.88 -4.48 0
v -2.56 -4.48 0
v -2.88 -4.8 0
v -3.2 -4.8 0
v -3.2 -4.48 0
v -2.88 -4.48 0
v -3.2 -4.8 0
v -3.52 -4.8 0
v -3.52 -4.48 0
v -3.2 -4.48 0
v -3.52 -4.8 0
v -3.84 -4.8 0
v -3.84 -4.48 0
v -3.52 -4.48 0
v -3.84 -4.8 0
v -4.16 -4.8 0
v -4.16 -4.48 0
v -3.84 -4.48 0
v -4.16 -4.8 0
v -4.48 -4.8 0
v -4.48 -4.48 0
v -4.16 -4.48 0
v -4.48 -4.8 0
v -4.8 -4.8 0
v -4.8 -4.48 0
v -4.48 -4.48 0
v -4.8 -4.8 0
v -5.12 -4.8 0
v -5.12 -4.48 0
v -4.8 -4.48 0
v -5.12 -4.8 0
v -5.44 -4.8 0
v -5.44 -4.48 0
v -5.12 -4.48 0
v -5.44 -4.8 0
v -5.76 -4.8 0
v -5.76 -4.48 0
v -5.44 -4.48 0
v -5.76 -4.8 0
v -6.08 -4.8 0
v -6.08 -4.48 0
v -5.76 -4.48 0
v -6.08 -4.8 0
v -6.4 -4.8 0
v -6.4 -4.48 0
v -6.08 -4.48 0
v 0 -5.12 0
v -0.32 -5.12 0
v -0.32 -4.8 0
v 0 -4.8 0
v -0.32 -5.12 0
v -0.64 -5.12 0
v -0.64 -4.8 0
v -0.32 -4.8 0
v -0.64 -5.12 0
v -0.96 -5.12 0
v -0.96 -4.8 0
v -0.64 -4.8 0
v -0.96 -5.12 0
v -1.28 -5.12 0
v -1.28 -4.8 0
v -0.96 -4.8 0
v -1.28 -5.12 0
v -1.6 -5.12 0
v -1.6 -4.8 0
v -1.28 -4.8 0
v -1.6 -5.12 0
v -1.92 -5.12 0
v -1.92 -4.8 0
v -1.6 -4.8 0
v -1.92 -5.12 0
v -2.24 -5.12 0
v -2.24 -4.8 0
v -1.92 -4.8 0
v -2.24 -5.12 0
v -2.56 -5.12 0
v -2.56 -4.8 0
v -2.24 -4.8 0
v -2.56 -5.12 0
v -2.88 -5.12 0
v -2.88 -4.8 0
v -2.56 -4.8 0
v -2.88 -5.12 0
v -3.2 -5.12 0
v -3.2 -4.8 0
v -2.88 -4.8 0
v -3.2 -5.12 0
v -3.52 -5.12 0
v -3.52 -4.8 0
v -3.2 -4.8 0
v -3.52 -5.12 0
v -3.84 -5.12 0
v -3.84 -4.8 0
v -3.52 -4.8 0
v -3.84 -5.12 0
v -4.16 -5.12 0
v -4.16 -4.8 0
v -3.84 -4.8 0
v -4.16 -5.12 0
v -4.48 -5.12 0
v -4.48 -4.8 0
v -4.16 -4.8 0
v -4.48 -5.12 0
v -4.8 -5.12 0
v -4.8 -4.8 0
v -4.48 -4.8 0
v -4.8 -5.12 0
v -5.12 -5.12 0
v -5.12 -4.8 0
v -4.8 -4.8 0
v -5.12 -5.12 0
v -5.44 -5.12 0
v -5.44 -4.8 0
v -5.12 -4.8 0
v -5.44 -5.12 0
v -5.76 -5.12 0
v -5.76 -4.8 0
v -5.44 -4.8 0
v -5.76 -5.12 0
v -6.08 -5.12 0
v -6.08 -4.8 0
v -5.76 -4.8 0
v -6.08 -5.12 0
v -6.4 -5.12 0
v -6.4 -4.8 0
v -6.08 -4.8 0
v -5.44 -5.44 0
v -5.76 -5.44 0
v -5.76 -5.12 0
v -5.44 -5.12 0
v -5.76 -5.44 0
v -6.08 -5.44 0
v -6.08 -5.12 0
v -5.76 -5.12 0
v -6.08 -5.44 0
v -6.4 -5.44 0
v -6.4 -5.12 0
v -6.08 -5.12 0
v -5.44 -5.76 0
v -5.76 -5.76 0
v -5.76 -5.44 0
v -5.44 -5.44 0
v -5.76 -5.76 0
v -6.08 -5.76 0
v -6.08 -5.44 0
v -5.76 -5.44 0
v -6.08 -5.76 0
v -6.4 -5.76 0
v -6.4 -5.44 0
v -6.08 -5.44 0
v -5.44 -6.08 0
v -5.76 -6.08 0
v -5.76 -5.76 0
v -5.44 -5.76 0
v -5.76 -6.08 0
v -6.08 -6.08 0
v -6.08 -5.76 0
v -5.76 -5.76 0
v -6.08 -6.08 0
v -6.4 -6.08 0
v -6.4 -5.76 0
v -6.08 -5.76 0
v -5.44 -6.4 0
v -5.76 -6.4 0
v -5.76 -6.08 0
v -5.44 -6.08 0
v -5.76 -6.4 0
v -6.08 -6.4 0
v -6.08 -6.08 0
v -5.76 -6.08 0
v -6.08 -6.4 0
v -6.4 -6.4 0
v -6.4 -6.08 0
v -6.08 -6.08 0
v -5.44 -6.72 0
v -5.76 -6.72 0
v -5.76 -6.4 0
v -5.44 -6.4 0
v -5.76 -6.72 0
v -6.08 -6.72 0
v -6.08 -6.4 0
v -5.76 -6.4 0
v -6.08 -6.72 0
v -6.4 -6.72 0
v -6.4 -6.4 0
v -6.08 -6.4 0
v -5.44 -7.04 0
v -5.76 -7.04 0
v -5.76 -6.72 0
v -5.44 -6.72 0
v -5.76 -7.04 0
v -6.08 -7.04 0
v -6.08 -6.72 0
v -5.76 -6.72 0
v -6.08 -7.04 0
v -6.4 -7.04 0
v -6.4 -6.72 0
v -6.08 -6.72 0
v -5.44 -7.36 0
v -5.76 -7.36 0
v -5.76 -7.04 0
v -5.44 -7.04 0
v -5.76 -7.36 0
v -6.08 -7.36 0
v -6.08 -7.04 0
v -5.76 -7.04 0
v -6.08 -7.36 0
v -6.4 -7.36 0
v -6.4 -7.04 0
v -6.08 -7.04 0
v -5.44 -7.68 0
v -5.76 -7.68 0
v -5.76 -7.36 0
v -5.44 -7.36 0
v -5.76 -7.68 0
v -6.08 -7.68 0
v -6.08 -7.36 0
v -5.76 -7.36 0
v -6.08 -7.68 0
v -6.4 -7.68 0
v -6.4 -7.36 0
v -6.08 -7.36 0
v -5.44 -8 0
v -5.76 -8 0
v -5.76 -7.68 0
v -5.44 -7.68 0
v -5.76 -8 0
v -6.08 -8 0
v -6.08 -7.68 0
v -5.76 -7.68 0
v -6.08 -8 0
v -6.4 -8 0
v -6.4 -7.68 0
v -6.08 -7.68 0
v -5.44 -8.32 0
v -5.76 -8.32 0
v -5.76 -8 0
v -5.44 -8 0
v -5.76 -8.32 0
v -6.08 -8.32 0
v -6.08 -8 0
v -5.76 -8 0
v -6.08 -8.32 0
v -6.4 -8.32 0
v -6.4 -8 0
v -6.08 -8 0
v -5.44 -8.639999 0
v -5.76 -8.639999 0
v -5.76 -8.32 0
v -5.44 -8.32 0
v -5.76 -8.639999 0
v -6.08 -8.639999 0
v -6.08 -8.32 0
v -5.76 -8.32 0
v -6.08 -8.639999 0
v -6.4 -8.639999 0
v -6.4 -8.32 0
v -6.08 -8.32 0
v -5.44 -8.96 0
v -5.76 -8.96 0
v -5.76 -8.639999 0
v -5.44 -8.639999 0
v -5.76 -8.96 0
v -6.08 -8.96 0
v -6.08 -8.639999 0
v -5.76 -8.639999 0
v -6.08 -8.96 0
v -6.4 -8.96 0
v -6.4 -8.639999 0
v -6.08 -8.639999 0
v -6.4 -8.96 0
v -6.72 -8.96 0
v -6.72 -8.639999 0
v -6.4 -8.639999 0
v -5.44 -9.28 0
v -5.76 -9.28 0
v -5.76 -8.96 0
v -5.44 -8.96 0
v -5.76 -9.28 0
v -6.08 -9.28 0
v -6.08 -8.96 0
v -5.76 -8.96 0
v -6.08 -9.28 0
v -6.4 -9.28 0
v -6.4 -8.96 0
v -6.08 -8.96 0
v -6.4 -9.28 0
v -6.72 -9.28 0
v -6.72 -8.96 0
v -6.4 -8.96 0
v -6.72 -9.28 0
v -7.04 -9.28 0
v -7.04 -8.96 0
v -6.72 -8.96 0
v -5.76 -9.599999 0
v -6.08 -9.599999 0
v -6.08 -9.28 0
v -5.76 -9.28 0
v -6.08 -9.599999 0
v -6.4 -9.599999 0
v -6.4 -9.28 0
v -6.08 -9.28 0
v -6.4 -9.599999 0
v -6.72 -9.599999 0
v -6.72 -9.28 0
v -6.4 -9.28 0
v -6.72 -9.599999 0
v -7.04 -9.599999 0
v -7.04 -9.28 0
v -6.72 -9.28 0
v -7.04 -9.599999 0
v -7.36 -9.599999 0
v -7.36 -9.28 0
v -7.04 -9.28 0
v -7.36 -9.599999 0
v -7.68 -9.599999 0
v -7.68 -9.28 0
v -7.36 -9.28 0
v -7.68 -9.599999 0
v -8 -9.599999 0
v -8 -9.28 0
v -7.68 -9.28 0
v -8 -9.599999 0
v -8.32 -9.599999 0
v -8.32 -9.28 0
v -8 -9.28 0
v -8.32 -9.599999 0
v -8.639999 -9.599999 0
v -8.639999 -9.28 0
v -8.32 -9.28 0
v -8.639999 -9.599999 0
v -8.96 -9.599999 0
v -8.96 -9.28 0
v -8.639999 -9.28 0
v -8.96 -9.599999 0
v -9.28 -9.599999 0
v -9.28 -9.28 0
v -8.96 -9.28 0
v -9.28 -9.599999 0
v -9.599999 -9.599999 0
v -9.599999 -9.28 0
v -9.28 -9.28 0
v -6.08 -9.92 0
v -6.4 -9.92 0
v -6.4 -9.599999 0
v -6.08 -9.599999 0
v -6.4 -9.92 0
v -6.72 -9.92 0
v -6.72 -9.599999 0
v -6.4 -9.599999 0
v -6.72 -9.92 0
v -7.04 -9.92 0
v -7.04 -9.599999 0
v -6.72 -9.599999 0
v -7.04 -9.92 0
v -7.36 -9.92 0
v -7.36 -9.599999 0
v -7.04 -9.599999 0
v -7.36 -9.92 0
v -7.68 -9.92 0
v -7.68 -9.599999 0
v -7.36 -9.599999 0
v -7.68 -9.92 0
v -8 -9.92 0
v -8 -9.599999 0
v -7.68 -9.599999 0
v -8 -9.92 0
v -8.32 -9.92 0
v -8.32 -9.599999 0
v -8 -9.599999 0
v -8.32 -9.92 0
v -8.639999 -9.92 0
v -8.639999 -9.599999 0
v -8.32 -9.599999 0
v -8.639999 -9.92 0
v -8.96 -9.92 0
v -8.96 -9.599999 0
v -8.639999 -9.599999 0
v -8.96 -9.92 0
v -9.28 -9.92 0
v -9.28 -9.599999 0
v -8.96 -9.599999 0
v -9.28 -9.92 0
v -9.599999 -9.92 0
v -9.599999 -9.599999 0
v -9.28 -9.599999 0
v -9.599999 -9.92 0
v -9.92 -9.92 0
v -9.92 -9.599999 0
v -9.599999 -9.599999 0
v -6.4 -10.24 0
v -6.72 -10.24 0
v -6.72 -9.92 0
v -6.4 -9.92 0
v -6.72 -10.24 0
v -7.04 -10.24 0
v -7.04 -9.92 0
v -6.72 -9.92 0
v -7.04 -10.24 0
v -7.36 -10.24 0
v -7.36 -9.92 0
v -7.04 -9.92 0
v -7.36 -10.24 0
v -7.68 -10.24 0
v -7.68 -9.92 0
v -7.36 -9.92 0
v -7.68 -10.24 0
v -8 -10.24 0
v -8 -9.92 0
v -7.68 -9.92 0
v -8 -10.24 0
v -8.32 -10.24 0
v -8.32 -9.92 0
v -8 -9.92 0
v -8.32 -10.24 0
v -8.639999 -10.24 0
v -8.639999 -9.92 0
v -8.32 -9.92 0
v -8.639999 -10.24 0
v -8.96 -10.24 0
v -8.96 -9.92 0
v -8.639999 -9.92 0
v -8.96 -10.24 0
v -9.28 -10.24 0
v -9.28 -9.92 0
v -8.96 -9.92 0
v -9.28 -10.24 0
v -9.599999 -10.24 0
v -9.599999 -9.92 0
v -9.28 -9.92 0
v -9.599999 -10.24 0
v -9.92 -10.24 0
v -9.92 -9.92 0
v -9.599999 -9.92 0
v -9.92 -10.24 0
v -10.24 -10.24 0
v -10.24 -9.92 0
v -9.92 -9.92 0
v -14.4 -10.24 0
v -14.72 -10.24 0
v -14.72 -9.92 0
v -14.4 -9.92 0
v -14.72 -10.24 0
v -15.04 -10.24 0
v -15.04 -9.92 0
v -14.72 -9.92 0
v -15.04 -10.24 0
v -15.36 -10.24 0
v -15.36 -9.92 0
v -15.04 -9.92 0
v -15.36 -10.24 0
v -15.68 -10.24 0
v -15.68 -9.92 0
v -15.36 -9.92 0
v -15.68 -10.24 0
v -16 -10.24 0
v -16 -9.92 0
v -15.68 -9.92 0
v -16 -10.24 0
v -16.32 -10.24 0
v -16.32 -9.92 0
v -16 -9.92 0
v -8.96 -10.56 0
v -9.28 -10.56 0
v -9.28 -10.24 0
v -8.96 -10.24 0
v -9.28 -10.56 0
v -9.599999 -10.56 0
v -9.599999 -10.24 0
v -9.28 -10.24 0
v -9.599999 -10.56 0
v -9.92 -10.56 0
v -9.92 -10.24 0
v -9.599999 -10.24 0
v -9.92 -10.56 0
v -10.24 -10.56 0
v -10.24 -10.24 0
v -9.92 -10.24 0
v -10.24 -10.56 0
v -10.56 -10.56 0
v -10.56 -10.24 0
v -10.24 -10.24 0
v -10.56 -10.56 0
v -10.88 -10.56 0
v -10.88 -10.24 0
v -10.56 -10.24 0
v -10.88 -10.56 0
v -11.2 -10.56 0
v -11.2 -10.24 0
v -10.88 -10.24 0
v -11.2 -10.56 0
v -11.52 -10.56 0
v -11.52 -10.24 0
v -11.2 -10.24 0
v -11.52 -10.56 0
v -11.84 -10.56 0
v -11.84 -10.24 0
v -11.52 -10.24 0
v -11.84 -10.56 0
v -12.16 -10.56 0
v -12.16 -10.24 0
v -11.84 -10.24 0
v -12.16 -10.56 0
v -12.48 -10.56 0
v -12.48 -10.24 0
v -12.16 -10.24 0
v -12.48 -10.56 0
v -12.8 -10.56 0
v -12.8 -10.24 0
v -12.48 -10.24 0
v -12.8 -10.56 0
v -13.12 -10.56 0
v -13.12 -10.24 0
v -12.8 -10.24 0
v -13.12 -10.56 0
v -13.44 -10.56 0
v -13.44 -10.24 0
v -13.12 -10.24 0
v -13.44 -10.56 0
v -13.76 -10.56 0
v -13.76 -10.24 0
v -13.44 -10.24 0
v -13.76 -10.56 0
v -14.08 -10.56 0
v -14.08 -10.24 0
v -13.76 -10.24 0
v -14.08 -10.56 0
v -14.4 -10.56 0
v -14.4 -10.24 0
v -14.08 -10.24 0
v -14.4 -10.56 0
v -14.72 -10.56 0
v -14.72 -10.24 0
v -14.4 -10.24 0
v -14.72 -10.56 0
v -15.04 -10.56 0
v -15.04 -10.24 0
v -14.72 -10.24 0
v -15.04 -10.56 0
v -15.36 -10.56 0
v -15.36 -10.24 0
v -15.04 -10.24 0
v -15.36 -10.56 0
v -15.68 -10.56 0
v -15.68 -10.24 0
v -15.36 -10.24 0
v -15.68 -10.56 0
v -16 -10.56 0
v -16 -10.24 0
v -15.68 -10.24 0
v -16 -10.56 0
v -16.32 -10.56 0
v -16.32 -10.24 0
v -16 -10.24 0
v -9.28 -10.88 0
v -9.599999 -10.88 0
v -9.599999 -10.56 0
v -9.28 -10.56 0
v -9.599999 -10.88 0
v -9.92 -10.88 0
v -9.92 -10.56 0
v -9.599999 -10.56 0
v -9.92 -10.88 0
v -10.24 -10.88 0
v -10.24 -10.56 0
v -9.92 -10.56 0
v -10.24 -10.88 0
v -10.56 -10.88 0
v -10.56 -10.56 0
v -10.24 -10.56 0
v -10.56 -10.88 0
v -10.88 -10.88 0
v -10.88 -10.56 0
v -10.56 -10.56 0
v -10.88 -10.88 0
v -11.2 -10.88 0
v -11.2 -10.56 0
v -10.88 -10.56 0
v -11.2 -10.88 0
v -11.52 -10.88 0
v -11.52 -10.56 0
v -11.2 -10.56 0
v -11.52 -10.88 0
v -11.84 -10.88 0
v -11.84 -10.56 0
v -11.52 -10.56 0
v -11.84 -10.88 0
v -12.16 -10.88 0
v -12.16 -10.56 0
v -11.84 -10.56 0
v -12.16 -10.88 0
v -12.48 -10.88 0
v -12.48 -10.56 0
v -12.16 -10.56 0
v -12.48 -10.88 0
v -12.8 -10.88 0
v -12.8 -10.56 0
v -12.48 -10.56 0
v -12.8 -10.88 0
v -13.12 -10.88 0
v -13.12 -10.56 0
v -12.8 -10.56 0
v -13.12 -10.88 0
v -13.44 -10.88 0
v -13.44 -10.56 0
v -13.12 -10.56 0
v -13.44 -10.88 0
v -13.76 -10.88 0
v -13.76 -10.56 0
v -13.44 -10.56 0
v -13.76 -10.88 0
v -14.08 -10.88 0
v -14.08 -10.56 0
v -13.76 -10.56 0
v -14.08 -10.88 0
v -14.4 -10.88 0
v -14.4 -10.56 0
v -14.08 -10.56 0
v -14.4 -10.88 0
v -14.72 -10.88 0
v -14.72 -10.56 0
v -14.4 -10.56 0
v -14.72 -10.88 0
v -15.04 -10.88 0
v -15.04 -10.56 0
v -14.72 -10.56 0
v -15.04 -10.88 0
v -15.36 -10.88 0
v -15.36 -10.56 0
v -15.04 -10.56 0
v -15.36 -10.88 0
v -15.68 -10.88 0
v -15.68 -10.56 0
v -15.36 -10.56 0
v -15.68 -10.88 0
v -16 -10.88 0
v -16 -10.56 0
v -15.68 -10.56 0
v -16 -10.88 0
v -16.32 -10.88 0
v -16.32 -10.56 0
v -16 -10.56 0
v -9.599999 -11.2 0
v -9.92 -11.2 0
v -9.92 -10.88 0
v -9.599999 -10.88 0
v -9.92 -11.2 0
v -10.24 -11.2 0
v -10.24 -10.88 0
v -9.92 -10.88 0
v -10.24 -11.2 0
v -10.56 -11.2 0
v -10.56 -10.88 0
v -10.24 -10.88 0
v -10.56 -11.2 0
v -10.88 -11.2 0
v -10.88 -10.88 0
v -10.56 -10.88 0
v -10.88 -11.2 0
v -11.2 -11.2 0
v -11.2 -10.88 0
v -10.88 -10.88 0
v -11.2 -11.2 0
v -11.52 -11.2 0
v -11.52 -10.88 0
v -11.2 -10.88 0
v -11.52 -11.2 0
v -11.84 -11.2 0
v -11.84 -10.88 0
v -11.52 -10.88 0
v -11.84 -11.2 0
v -12.16 -11.2 0
v -12.16 -10.88 0
v -11.84 -10.88 0
v -12.16 -11.2 0
v -12.48 -11.2 0
v -12.48 -10.88 0
v -12.16 -10.88 0
v -12.48 -11.2 0
v -12.8 -11.2 0
v -12.8 -10.88 0
v -12.48 -10.88 0
v -12.8 -11.2 0
v -13.12 -11.2 0
v -13.12 -10.88 0
v -12.8 -10.88 0
v -13.12 -11.2 0
v -13.44 -11.2 0
v -13.44 -10.88 0
v -13.12 -10.88 0
v -13.44 -11.2 0
v -13.76 -11.2 0
v -13.76 -10.88 0
v -13.44 -10.88 0
v -13.76 -11.2 0
v -14.08 -11.2 0
v -14.08 -10.88 0
v -13.76 -10.88 0
v -14.08 -11.2 0
v -14.4 -11.2 0
v -14.4 -10.88 0
v -14.08 -10.88 0
v -14.4 -11.2 0
v -14.72 -11.2 0
v -14.72 -10.88 0
v -14.4 -10.88 0
v -14.72 -11.2 0
v -15.04 -11.2 0
v -15.04 -10.88 0
v -14.72 -10.88 0
v -15.04 -11.2 0
v -15.36 -11.2 0
v -15.36 -10.88 0
v -15.04 -10.88 0
v -15.36 -11.2 0
v -15.68 -11.2 0
v -15.68 -10.88 0
v -15.36 -10.88 0
v -15.68 -11.2 0
v -16 -11.2 0
v -16 -10.88 0
v -15.68 -10.88 0
v -16 -11.2 0
v -16.32 -11.2 0
v -16.32 -10.88 0
v -16 -10.88 0

# Texture cooridinates (Count = 21)
vt 0.3333333 0.5
vt 0.6666667 0.5
vt 0.6666667 0.6666666
vt 0.3333333 0.6666666
vt 1 0.5
vt 1 0.6666666
vt 0.3333333 0.3333333
vt 0.6666667 0.3333333
vt 1 0.3333333
vt 0.3333333 0.1666667
vt 0.6666667 0.1666667
vt 0.6666667 0.8333333
vt 1 0.8333333
vt 1 1
vt 0.6666667 1
vt 0 0.3333333
vt 0 0.5
vt 0.3333333 0.8333333
vt 0 0.1666667
vt 0 0.6666666
vt 1 0.1666667

# Normal
vn 0 0 -1

# Mesh description
g Map_mesh_0003

# Faces
f 1/1/1 2/2/1 3/3/1 4/4/1
f 5/1/1 6/2/1 7/3/1 8/4/1
f 9/1/1 10/2/1 11/3/1 12/4/1
f 13/1/1 14/2/1 15/3/1 16/4/1
f 17/1/1 18/2/1 19/3/1 20/4/1
f 21/1/1 22/2/1 23/3/1 24/4/1
f 25/1/1 26/2/1 27/3/1 28/4/1
f 29/1/1 30/2/1 31/3/1 32/4/1
f 33/1/1 34/2/1 35/3/1 36/4/1
f 37/1/1 38/2/1 39/3/1 40/4/1
f 41/1/1 42/2/1 43/3/1 44/4/1
f 45/1/1 46/2/1 47/3/1 48/4/1
f 49/1/1 50/2/1 51/3/1 52/4/1
f 53/1/1 54/2/1 55/3/1 56/4/1
f 57/1/1 58/2/1 59/3/1 60/4/1
f 61/1/1 62/2/1 63/3/1 64/4/1
f 65/1/1 66/2/1 67/3/1 68/4/1
f 69/1/1 70/2/1 71/3/1 72/4/1
f 73/1/1 74/2/1 75/3/1 76/4/1
f 77/2/1 78/5/1 79/6/1 80/3/1
f 81/7/1 82/8/1 83/2/1 84/1/1
f 85/7/1 86/8/1 87/2/1 88/1/1
f 89/7/1 90/8/1 91/2/1 92/1/1
f 93/7/1 94/8/1 95/2/1 96/1/1
f 97/7/1 98/8/1 99/2/1 100/1/1
f 101/7/1 102/8/1 103/2/1 104/1/1
f 105/7/1 106/8/1 107/2/1 108/1/1
f 109/7/1 110/8/1 111/2/1 112/1/1
f 113/7/1 114/8/1 115/2/1 116/1/1
f 117/7/1 118/8/1 119/2/1 120/1/1
f 121/7/1 122/8/1 123/2/1 124/1/1
f 125/7/1 126/8/1 127/2/1 128/1/1
f 129/7/1 130/8/1 131/2/1 132/1/1
f 133/7/1 134/8/1 135/2/1 136/1/1
f 137/7/1 138/8/1 139/2/1 140/1/1
f 141/7/1 142/8/1 143/2/1 144/1/1
f 145/7/1 146/8/1 147/2/1 148/1/1
f 149/7/1 150/8/1 151/2/1 152/1/1
f 153/7/1 154/8/1 155/2/1 156/1/1
f 157/8/1 158/9/1 159/5/1 160/2/1
f 161/10/1 162/11/1 163/8/1 164/7/1
f 165/10/1 166/11/1 167/8/1 168/7/1
f 169/10/1 170/11/1 171/8/1 172/7/1
f 173/10/1 174/11/1 175/8/1 176/7/1
f 177/10/1 178/11/1 179/8/1 180/7/1
f 181/10/1 182/11/1 183/8/1 184/7/1
f 185/10/1 186/11/1 187/8/1 188/7/1
f 189/10/1 190/11/1 191/8/1 192/7/1
f 193/10/1 194/11/1 195/8/1 196/7/1
f 197/10/1 198/11/1 199/8/1 200/7/1
f 201/10/1 202/11/1 203/8/1 204/7/1
f 205/10/1 206/11/1 207/8/1 208/7/1
f 209/10/1 210/11/1 211/8/1 212/7/1
f 213/10/1 214/11/1 215/8/1 216/7/1
f 217/10/1 218/11/1 219/8/1 220/7/1
f 221/10/1 222/11/1 223/8/1 224/7/1
f 225/10/1 226/11/1 227/8/1 228/7/1
f 229/12/1 230/13/1 231/14/1 232/15/1
f 233/7/1 234/8/1 235/2/1 236/1/1
f 237/8/1 238/9/1 239/5/1 240/2/1
f 241/16/1 242/7/1 243/1/1 244/17/1
f 245/7/1 246/8/1 247/2/1 248/1/1
f 249/8/1 250/9/1 251/5/1 252/2/1
f 253/16/1 254/7/1 255/1/1 256/17/1
f 257/7/1 258/8/1 259/2/1 260/1/1
f 261/8/1 262/9/1 263/5/1 264/2/1
f 265/16/1 266/7/1 267/1/1 268/17/1
f 269/7/1 270/8/1 271/2/1 272/1/1
f 273/8/1 274/9/1 275/5/1 276/2/1
f 277/16/1 278/7/1 279/1/1 280/17/1
f 281/7/1 282/8/1 283/2/1 284/1/1
f 285/8/1 286/9/1 287/5/1 288/2/1
f 289/16/1 290/7/1 291/1/1 292/17/1
f 293/7/1 294/8/1 295/2/1 296/1/1
f 297/8/1 298/9/1 299/5/1 300/2/1
f 301/16/1 302/7/1 303/1/1 304/17/1
f 305/7/1 306/8/1 307/2/1 308/1/1
f 309/8/1 310/9/1 311/5/1 312/2/1
f 313/16/1 314/7/1 315/1/1 316/17/1
f 317/7/1 318/8/1 319/2/1 320/1/1
f 321/8/1 322/9/1 323/5/1 324/2/1
f 325/16/1 326/7/1 327/1/1 328/17/1
f 329/7/1 330/8/1 331/2/1 332/1/1
f 333/8/1 334/9/1 335/5/1 336/2/1
f 337/16/1 338/7/1 339/1/1 340/17/1
f 341/7/1 342/8/1 343/2/1 344/1/1
f 345/8/1 346/9/1 347/5/1 348/2/1
f 349/16/1 350/7/1 351/1/1 352/17/1
f 353/7/1 354/8/1 355/2/1 356/1/1
f 357/8/1 358/9/1 359/5/1 360/2/1
f 361/16/1 362/7/1 363/1/1 364/17/1
f 365/7/1 366/8/1 367/2/1 368/1/1
f 369/8/1 370/9/1 371/5/1 372/2/1
f 373/16/1 374/7/1 375/1/1 376/17/1
f 377/7/1 378/8/1 379/2/1 380/1/1
f 381/4/1 382/3/1 383/12/1 384/18/1
f 385/2/1 386/5/1 387/6/1 388/3/1
f 389/19/1 390/10/1 391/7/1 392/16/1
f 393/12/1 394/13/1 395/14/1 396/15/1
f 397/7/1 398/8/1 399/2/1 400/1/1
f 401/4/1 402/3/1 403/12/1 404/18/1
f 405/2/1 406/5/1 407/6/1 408/3/1
f 409/19/1 410/10/1 411/7/1 412/16/1
f 413/12/1 414/13/1 415/14/1 416/15/1
f 417/7/1 418/8/1 419/2/1 420/1/1
f 421/4/1 422/3/1 423/12/1 424/18/1
f 425/1/1 426/2/1 427/3/1 428/4/1
f 429/1/1 430/2/1 431/3/1 432/4/1
f 433/1/1 434/2/1 435/3/1 436/4/1
f 437/1/1 438/2/1 439/3/1 440/4/1
f 441/1/1 442/2/1 443/3/1 444/4/1
f 445/1/1 446/2/1 447/3/1 448/4/1
f 449/1/1 450/2/1 451/3/1 452/4/1
f 453/2/1 454/5/1 455/6/1 456/3/1
f 457/19/1 458/10/1 459/7/1 460/16/1
f 461/12/1 462/13/1 463/14/1 464/15/1
f 465/7/1 466/8/1 467/2/1 468/1/1
f 469/7/1 470/8/1 471/2/1 472/1/1
f 473/7/1 474/8/1 475/2/1 476/1/1
f 477/7/1 478/8/1 479/2/1 480/1/1
f 481/7/1 482/8/1 483/2/1 484/1/1
f 485/7/1 486/8/1 487/2/1 488/1/1
f 489/7/1 490/8/1 491/2/1 492/1/1
f 493/7/1 494/8/1 495/2/1 496/1/1
f 497/4/1 498/3/1 499/12/1 500/18/1
f 501/2/1 502/5/1 503/6/1 504/3/1
f 505/19/1 506/10/1 507/7/1 508/16/1
f 509/10/1 510/11/1 511/8/1 512/7/1
f 513/10/1 514/11/1 515/8/1 516/7/1
f 517/10/1 518/11/1 519/8/1 520/7/1
f 521/10/1 522/11/1 523/8/1 524/7/1
f 525/10/1 526/11/1 527/8/1 528/7/1
f 529/10/1 530/11/1 531/8/1 532/7/1
f 533/10/1 534/11/1 535/8/1 536/7/1
f 537/12/1 538/13/1 539/14/1 540/15/1
f 541/7/1 542/8/1 543/2/1 544/1/1
f 545/4/1 546/3/1 547/12/1 548/18/1
f 549/2/1 550/5/1 551/6/1 552/3/1
f 553/17/1 554/1/1 555/4/1 556/20/1
f 557/1/1 558/2/1 559/3/1 560/4/1
f 561/1/1 562/2/1 563/3/1 564/4/1
f 565/1/1 566/2/1 567/3/1 568/4/1
f 569/1/1 570/2/1 571/3/1 572/4/1
f 573/1/1 574/2/1 575/3/1 576/4/1
f 577/19/1 578/10/1 579/7/1 580/16/1
f 581/12/1 582/13/1 583/14/1 584/15/1
f 585/7/1 586/8/1 587/2/1 588/1/1
f 589/4/1 590/3/1 591/12/1 592/18/1
f 593/1/1 594/2/1 595/3/1 596/4/1
f 597/1/1 598/2/1 599/3/1 600/4/1
f 601/1/1 602/2/1 603/3/1 604/4/1
f 605/1/1 606/2/1 607/3/1 608/4/1
f 609/1/1 610/2/1 611/3/1 612/4/1
f 613/1/1 614/2/1 615/3/1 616/4/1
f 617/1/1 618/2/1 619/3/1 620/4/1
f 621/1/1 622/2/1 623/3/1 624/4/1
f 625/1/1 626/2/1 627/3/1 628/4/1
f 629/1/1 630/2/1 631/3/1 632/4/1
f 633/1/1 634/2/1 635/3/1 636/4/1
f 637/1/1 638/2/1 639/3/1 640/4/1
f 641/1/1 642/2/1 643/3/1 644/4/1
f 645/3/1 646/6/1 647/13/1 648/12/1
f 649/7/1 650/8/1 651/2/1 652/1/1
f 653/7/1 654/8/1 655/2/1 656/1/1
f 657/7/1 658/8/1 659/2/1 660/1/1
f 661/7/1 662/8/1 663/2/1 664/1/1
f 665/8/1 666/9/1 667/5/1 668/2/1
f 669/19/1 670/10/1 671/7/1 672/16/1
f 673/12/1 674/13/1 675/14/1 676/15/1
f 677/7/1 678/8/1 679/2/1 680/1/1
f 681/7/1 682/8/1 683/2/1 684/1/1
f 685/7/1 686/8/1 687/2/1 688/1/1
f 689/7/1 690/8/1 691/2/1 692/1/1
f 693/7/1 694/8/1 695/2/1 696/1/1
f 697/7/1 698/8/1 699/2/1 700/1/1
f 701/7/1 702/8/1 703/2/1 704/1/1
f 705/7/1 706/8/1 707/2/1 708/1/1
f 709/7/1 710/8/1 711/2/1 712/1/1
f 713/7/1 714/8/1 715/2/1 716/1/1
f 717/7/1 718/8/1 719/2/1 720/1/1
f 721/7/1 722/8/1 723/2/1 724/1/1
f 725/7/1 726/8/1 727/2/1 728/1/1
f 729/7/1 730/8/1 731/2/1 732/1/1
f 733/7/1 734/8/1 735/2/1 736/1/1
f 737/7/1 738/8/1 739/2/1 740/1/1
f 741/7/1 742/8/1 743/2/1 744/1/1
f 745/7/1 746/8/1 747/2/1 748/1/1
f 749/7/1 750/8/1 751/2/1 752/1/1
f 753/8/1 754/9/1 755/5/1 756/2/1
f 757/19/1 758/10/1 759/7/1 760/16/1
f 761/10/1 762/11/1 763/8/1 764/7/1
f 765/10/1 766/11/1 767/8/1 768/7/1
f 769/10/1 770/11/1 771/8/1 772/7/1
f 773/10/1 774/11/1 775/8/1 776/7/1
f 777/10/1 778/11/1 779/8/1 780/7/1
f 781/10/1 782/11/1 783/8/1 784/7/1
f 785/10/1 786/11/1 787/8/1 788/7/1
f 789/10/1 790/11/1 791/8/1 792/7/1
f 793/10/1 794/11/1 795/8/1 796/7/1
f 797/10/1 798/11/1 799/8/1 800/7/1
f 801/10/1 802/11/1 803/8/1 804/7/1
f 805/10/1 806/11/1 807/8/1 808/7/1
f 809/10/1 810/11/1 811/8/1 812/7/1
f 813/10/1 814/11/1 815/8/1 816/7/1
f 817/10/1 818/11/1 819/8/1 820/7/1
f 821/10/1 822/11/1 823/8/1 824/7/1
f 825/10/1 826/11/1 827/8/1 828/7/1
f 829/10/1 830/11/1 831/8/1 832/7/1
f 833/10/1 834/11/1 835/8/1 836/7/1
f 837/11/1 838/21/1 839/9/1 840/8/1

