# Tiled2Unity generated file. Do not modify by hand.
# Wavefront file for 'Map_mesh_0010.obj'

# Vertices (Count = 784)
v -11.52 -0.32 0
v -11.84 -0.32 0
v -11.84 0 0
v -11.52 0 0
v -18.88 -0.32 0
v -19.2 -0.32 0
v -19.2 0 0
v -18.88 0 0
v -11.52 -0.64 0
v -11.84 -0.64 0
v -11.84 -0.32 0
v -11.52 -0.32 0
v -18.88 -0.64 0
v -19.2 -0.64 0
v -19.2 -0.32 0
v -18.88 -0.32 0
v -11.52 -0.96 0
v -11.84 -0.96 0
v -11.84 -0.64 0
v -11.52 -0.64 0
v -18.88 -0.96 0
v -19.2 -0.96 0
v -19.2 -0.64 0
v -18.88 -0.64 0
v -11.52 -1.28 0
v -11.84 -1.28 0
v -11.84 -0.96 0
v -11.52 -0.96 0
v -18.88 -1.28 0
v -19.2 -1.28 0
v -19.2 -0.96 0
v -18.88 -0.96 0
v -11.52 -1.6 0
v -11.84 -1.6 0
v -11.84 -1.28 0
v -11.52 -1.28 0
v -18.88 -1.6 0
v -19.2 -1.6 0
v -19.2 -1.28 0
v -18.88 -1.28 0
v -11.52 -1.92 0
v -11.84 -1.92 0
v -11.84 -1.6 0
v -11.52 -1.6 0
v -18.88 -1.92 0
v -19.2 -1.92 0
v -19.2 -1.6 0
v -18.88 -1.6 0
v -11.52 -2.24 0
v -11.84 -2.24 0
v -11.84 -1.92 0
v -11.52 -1.92 0
v -18.88 -2.24 0
v -19.2 -2.24 0
v -19.2 -1.92 0
v -18.88 -1.92 0
v -11.52 -2.56 0
v -11.84 -2.56 0
v -11.84 -2.24 0
v -11.52 -2.24 0
v -18.88 -2.56 0
v -19.2 -2.56 0
v -19.2 -2.24 0
v -18.88 -2.24 0
v -11.52 -2.88 0
v -11.84 -2.88 0
v -11.84 -2.56 0
v -11.52 -2.56 0
v -18.88 -2.88 0
v -19.2 -2.88 0
v -19.2 -2.56 0
v -18.88 -2.56 0
v -11.52 -3.2 0
v -11.84 -3.2 0
v -11.84 -2.88 0
v -11.52 -2.88 0
v -18.88 -3.2 0
v -19.2 -3.2 0
v -19.2 -2.88 0
v -18.88 -2.88 0
v -11.52 -3.52 0
v -11.84 -3.52 0
v -11.84 -3.2 0
v -11.52 -3.2 0
v -18.88 -3.52 0
v -19.2 -3.52 0
v -19.2 -3.2 0
v -18.88 -3.2 0
v -11.52 -3.84 0
v -11.84 -3.84 0
v -11.84 -3.52 0
v -11.52 -3.52 0
v -18.88 -3.84 0
v -19.2 -3.84 0
v -19.2 -3.52 0
v -18.88 -3.52 0
v -11.52 -4.16 0
v -11.84 -4.16 0
v -11.84 -3.84 0
v -11.52 -3.84 0
v -18.88 -4.16 0
v -19.2 -4.16 0
v -19.2 -3.84 0
v -18.88 -3.84 0
v -11.52 -4.48 0
v -11.84 -4.48 0
v -11.84 -4.16 0
v -11.52 -4.16 0
v -18.88 -4.48 0
v -19.2 -4.48 0
v -19.2 -4.16 0
v -18.88 -4.16 0
v -11.52 -4.8 0
v -11.84 -4.8 0
v -11.84 -4.48 0
v -11.52 -4.48 0
v -18.88 -4.8 0
v -19.2 -4.8 0
v -19.2 -4.48 0
v -18.88 -4.48 0
v -11.52 -5.12 0
v -11.84 -5.12 0
v -11.84 -4.8 0
v -11.52 -4.8 0
v -18.88 -5.12 0
v -19.2 -5.12 0
v -19.2 -4.8 0
v -18.88 -4.8 0
v -11.52 -5.44 0
v -11.84 -5.44 0
v -11.84 -5.12 0
v -11.52 -5.12 0
v -18.88 -5.44 0
v -19.2 -5.44 0
v -19.2 -5.12 0
v -18.88 -5.12 0
v -11.52 -5.76 0
v -11.84 -5.76 0
v -11.84 -5.44 0
v -11.52 -5.44 0
v -18.88 -5.76 0
v -19.2 -5.76 0
v -19.2 -5.44 0
v -18.88 -5.44 0
v -11.52 -6.08 0
v -11.84 -6.08 0
v -11.84 -5.76 0
v -11.52 -5.76 0
v -18.88 -6.08 0
v -19.2 -6.08 0
v -19.2 -5.76 0
v -18.88 -5.76 0
v -11.52 -6.4 0
v -11.84 -6.4 0
v -11.84 -6.08 0
v -11.52 -6.08 0
v -11.84 -6.4 0
v -12.16 -6.4 0
v -12.16 -6.08 0
v -11.84 -6.08 0
v -12.16 -6.4 0
v -12.48 -6.4 0
v -12.48 -6.08 0
v -12.16 -6.08 0
v -12.48 -6.4 0
v -12.8 -6.4 0
v -12.8 -6.08 0
v -12.48 -6.08 0
v -12.8 -6.4 0
v -13.12 -6.4 0
v -13.12 -6.08 0
v -12.8 -6.08 0
v -13.12 -6.4 0
v -13.44 -6.4 0
v -13.44 -6.08 0
v -13.12 -6.08 0
v -13.44 -6.4 0
v -13.76 -6.4 0
v -13.76 -6.08 0
v -13.44 -6.08 0
v -13.76 -6.4 0
v -14.08 -6.4 0
v -14.08 -6.08 0
v -13.76 -6.08 0
v -14.08 -6.4 0
v -14.4 -6.4 0
v -14.4 -6.08 0
v -14.08 -6.08 0
v -14.4 -6.4 0
v -14.72 -6.4 0
v -14.72 -6.08 0
v -14.4 -6.08 0
v -14.72 -6.4 0
v -15.04 -6.4 0
v -15.04 -6.08 0
v -14.72 -6.08 0
v -15.04 -6.4 0
v -15.36 -6.4 0
v -15.36 -6.08 0
v -15.04 -6.08 0
v -15.36 -6.4 0
v -15.68 -6.4 0
v -15.68 -6.08 0
v -15.36 -6.08 0
v -15.68 -6.4 0
v -16 -6.4 0
v -16 -6.08 0
v -15.68 -6.08 0
v -16 -6.4 0
v -16.32 -6.4 0
v -16.32 -6.08 0
v -16 -6.08 0
v -16.32 -6.4 0
v -16.64 -6.4 0
v -16.64 -6.08 0
v -16.32 -6.08 0
v -16.64 -6.4 0
v -16.96 -6.4 0
v -16.96 -6.08 0
v -16.64 -6.08 0
v -16.96 -6.4 0
v -17.28 -6.4 0
v -17.28 -6.08 0
v -16.96 -6.08 0
v -17.28 -6.4 0
v -17.6 -6.4 0
v -17.6 -6.08 0
v -17.28 -6.08 0
v -17.6 -6.4 0
v -17.92 -6.4 0
v -17.92 -6.08 0
v -17.6 -6.08 0
v -17.92 -6.4 0
v -18.24 -6.4 0
v -18.24 -6.08 0
v -17.92 -6.08 0
v -18.24 -6.4 0
v -18.56 -6.4 0
v -18.56 -6.08 0
v -18.24 -6.08 0
v -18.56 -6.4 0
v -18.88 -6.4 0
v -18.88 -6.08 0
v -18.56 -6.08 0
v -18.88 -6.4 0
v -19.2 -6.4 0
v -19.2 -6.08 0
v -18.88 -6.08 0
v -11.52 -6.72 0
v -11.84 -6.72 0
v -11.84 -6.4 0
v -11.52 -6.4 0
v -11.84 -6.72 0
v -12.16 -6.72 0
v -12.16 -6.4 0
v -11.84 -6.4 0
v -12.16 -6.72 0
v -12.48 -6.72 0
v -12.48 -6.4 0
v -12.16 -6.4 0
v -12.48 -6.72 0
v -12.8 -6.72 0
v -12.8 -6.4 0
v -12.48 -6.4 0
v -12.8 -6.72 0
v -13.12 -6.72 0
v -13.12 -6.4 0
v -12.8 -6.4 0
v -13.12 -6.72 0
v -13.44 -6.72 0
v -13.44 -6.4 0
v -13.12 -6.4 0
v -13.44 -6.72 0
v -13.76 -6.72 0
v -13.76 -6.4 0
v -13.44 -6.4 0
v -13.76 -6.72 0
v -14.08 -6.72 0
v -14.08 -6.4 0
v -13.76 -6.4 0
v -14.08 -6.72 0
v -14.4 -6.72 0
v -14.4 -6.4 0
v -14.08 -6.4 0
v -14.4 -6.72 0
v -14.72 -6.72 0
v -14.72 -6.4 0
v -14.4 -6.4 0
v -14.72 -6.72 0
v -15.04 -6.72 0
v -15.04 -6.4 0
v -14.72 -6.4 0
v -15.04 -6.72 0
v -15.36 -6.72 0
v -15.36 -6.4 0
v -15.04 -6.4 0
v -15.36 -6.72 0
v -15.68 -6.72 0
v -15.68 -6.4 0
v -15.36 -6.4 0
v -15.68 -6.72 0
v -16 -6.72 0
v -16 -6.4 0
v -15.68 -6.4 0
v -16 -6.72 0
v -16.32 -6.72 0
v -16.32 -6.4 0
v -16 -6.4 0
v -16.32 -6.72 0
v -16.64 -6.72 0
v -16.64 -6.4 0
v -16.32 -6.4 0
v -16.64 -6.72 0
v -16.96 -6.72 0
v -16.96 -6.4 0
v -16.64 -6.4 0
v -16.96 -6.72 0
v -17.28 -6.72 0
v -17.28 -6.4 0
v -16.96 -6.4 0
v -17.28 -6.72 0
v -17.6 -6.72 0
v -17.6 -6.4 0
v -17.28 -6.4 0
v -17.6 -6.72 0
v -17.92 -6.72 0
v -17.92 -6.4 0
v -17.6 -6.4 0
v -17.92 -6.72 0
v -18.24 -6.72 0
v -18.24 -6.4 0
v -17.92 -6.4 0
v -18.24 -6.72 0
v -18.56 -6.72 0
v -18.56 -6.4 0
v -18.24 -6.4 0
v -18.56 -6.72 0
v -18.88 -6.72 0
v -18.88 -6.4 0
v -18.56 -6.4 0
v -18.88 -6.72 0
v -19.2 -6.72 0
v -19.2 -6.4 0
v -18.88 -6.4 0
v -11.52 -7.04 0
v -11.84 -7.04 0
v -11.84 -6.72 0
v -11.52 -6.72 0
v -11.84 -7.04 0
v -12.16 -7.04 0
v -12.16 -6.72 0
v -11.84 -6.72 0
v -12.16 -7.04 0
v -12.48 -7.04 0
v -12.48 -6.72 0
v -12.16 -6.72 0
v -12.48 -7.04 0
v -12.8 -7.04 0
v -12.8 -6.72 0
v -12.48 -6.72 0
v -12.8 -7.04 0
v -13.12 -7.04 0
v -13.12 -6.72 0
v -12.8 -6.72 0
v -13.12 -7.04 0
v -13.44 -7.04 0
v -13.44 -6.72 0
v -13.12 -6.72 0
v -13.44 -7.04 0
v -13.76 -7.04 0
v -13.76 -6.72 0
v -13.44 -6.72 0
v -13.76 -7.04 0
v -14.08 -7.04 0
v -14.08 -6.72 0
v -13.76 -6.72 0
v -14.08 -7.04 0
v -14.4 -7.04 0
v -14.4 -6.72 0
v -14.08 -6.72 0
v -14.4 -7.04 0
v -14.72 -7.04 0
v -14.72 -6.72 0
v -14.4 -6.72 0
v -14.72 -7.04 0
v -15.04 -7.04 0
v -15.04 -6.72 0
v -14.72 -6.72 0
v -15.04 -7.04 0
v -15.36 -7.04 0
v -15.36 -6.72 0
v -15.04 -6.72 0
v -15.36 -7.04 0
v -15.68 -7.04 0
v -15.68 -6.72 0
v -15.36 -6.72 0
v -15.68 -7.04 0
v -16 -7.04 0
v -16 -6.72 0
v -15.68 -6.72 0
v -16 -7.04 0
v -16.32 -7.04 0
v -16.32 -6.72 0
v -16 -6.72 0
v -16.32 -7.04 0
v -16.64 -7.04 0
v -16.64 -6.72 0
v -16.32 -6.72 0
v -16.64 -7.04 0
v -16.96 -7.04 0
v -16.96 -6.72 0
v -16.64 -6.72 0
v -16.96 -7.04 0
v -17.28 -7.04 0
v -17.28 -6.72 0
v -16.96 -6.72 0
v -17.28 -7.04 0
v -17.6 -7.04 0
v -17.6 -6.72 0
v -17.28 -6.72 0
v -17.6 -7.04 0
v -17.92 -7.04 0
v -17.92 -6.72 0
v -17.6 -6.72 0
v -17.92 -7.04 0
v -18.24 -7.04 0
v -18.24 -6.72 0
v -17.92 -6.72 0
v -18.24 -7.04 0
v -18.56 -7.04 0
v -18.56 -6.72 0
v -18.24 -6.72 0
v -18.56 -7.04 0
v -18.88 -7.04 0
v -18.88 -6.72 0
v -18.56 -6.72 0
v -18.88 -7.04 0
v -19.2 -7.04 0
v -19.2 -6.72 0
v -18.88 -6.72 0
v -11.52 -7.36 0
v -11.84 -7.36 0
v -11.84 -7.04 0
v -11.52 -7.04 0
v -11.84 -7.36 0
v -12.16 -7.36 0
v -12.16 -7.04 0
v -11.84 -7.04 0
v -12.16 -7.36 0
v -12.48 -7.36 0
v -12.48 -7.04 0
v -12.16 -7.04 0
v -12.48 -7.36 0
v -12.8 -7.36 0
v -12.8 -7.04 0
v -12.48 -7.04 0
v -12.8 -7.36 0
v -13.12 -7.36 0
v -13.12 -7.04 0
v -12.8 -7.04 0
v -13.12 -7.36 0
v -13.44 -7.36 0
v -13.44 -7.04 0
v -13.12 -7.04 0
v -13.44 -7.36 0
v -13.76 -7.36 0
v -13.76 -7.04 0
v -13.44 -7.04 0
v -13.76 -7.36 0
v -14.08 -7.36 0
v -14.08 -7.04 0
v -13.76 -7.04 0
v -14.08 -7.36 0
v -14.4 -7.36 0
v -14.4 -7.04 0
v -14.08 -7.04 0
v -14.4 -7.36 0
v -14.72 -7.36 0
v -14.72 -7.04 0
v -14.4 -7.04 0
v -14.72 -7.36 0
v -15.04 -7.36 0
v -15.04 -7.04 0
v -14.72 -7.04 0
v -15.04 -7.36 0
v -15.36 -7.36 0
v -15.36 -7.04 0
v -15.04 -7.04 0
v -15.36 -7.36 0
v -15.68 -7.36 0
v -15.68 -7.04 0
v -15.36 -7.04 0
v -15.68 -7.36 0
v -16 -7.36 0
v -16 -7.04 0
v -15.68 -7.04 0
v -16 -7.36 0
v -16.32 -7.36 0
v -16.32 -7.04 0
v -16 -7.04 0
v -16.32 -7.36 0
v -16.64 -7.36 0
v -16.64 -7.04 0
v -16.32 -7.04 0
v -16.64 -7.36 0
v -16.96 -7.36 0
v -16.96 -7.04 0
v -16.64 -7.04 0
v -16.96 -7.36 0
v -17.28 -7.36 0
v -17.28 -7.04 0
v -16.96 -7.04 0
v -17.28 -7.36 0
v -17.6 -7.36 0
v -17.6 -7.04 0
v -17.28 -7.04 0
v -17.6 -7.36 0
v -17.92 -7.36 0
v -17.92 -7.04 0
v -17.6 -7.04 0
v -17.92 -7.36 0
v -18.24 -7.36 0
v -18.24 -7.04 0
v -17.92 -7.04 0
v -18.24 -7.36 0
v -18.56 -7.36 0
v -18.56 -7.04 0
v -18.24 -7.04 0
v -18.56 -7.36 0
v -18.88 -7.36 0
v -18.88 -7.04 0
v -18.56 -7.04 0
v -18.88 -7.36 0
v -19.2 -7.36 0
v -19.2 -7.04 0
v -18.88 -7.04 0
v -11.52 -7.68 0
v -11.84 -7.68 0
v -11.84 -7.36 0
v -11.52 -7.36 0
v -11.84 -7.68 0
v -12.16 -7.68 0
v -12.16 -7.36 0
v -11.84 -7.36 0
v -12.16 -7.68 0
v -12.48 -7.68 0
v -12.48 -7.36 0
v -12.16 -7.36 0
v -12.48 -7.68 0
v -12.8 -7.68 0
v -12.8 -7.36 0
v -12.48 -7.36 0
v -12.8 -7.68 0
v -13.12 -7.68 0
v -13.12 -7.36 0
v -12.8 -7.36 0
v -13.12 -7.68 0
v -13.44 -7.68 0
v -13.44 -7.36 0
v -13.12 -7.36 0
v -13.44 -7.68 0
v -13.76 -7.68 0
v -13.76 -7.36 0
v -13.44 -7.36 0
v -13.76 -7.68 0
v -14.08 -7.68 0
v -14.08 -7.36 0
v -13.76 -7.36 0
v -14.08 -7.68 0
v -14.4 -7.68 0
v -14.4 -7.36 0
v -14.08 -7.36 0
v -14.4 -7.68 0
v -14.72 -7.68 0
v -14.72 -7.36 0
v -14.4 -7.36 0
v -14.72 -7.68 0
v -15.04 -7.68 0
v -15.04 -7.36 0
v -14.72 -7.36 0
v -15.68 -7.68 0
v -16 -7.68 0
v -16 -7.36 0
v -15.68 -7.36 0
v -16 -7.68 0
v -16.32 -7.68 0
v -16.32 -7.36 0
v -16 -7.36 0
v -16.32 -7.68 0
v -16.64 -7.68 0
v -16.64 -7.36 0
v -16.32 -7.36 0
v -16.64 -7.68 0
v -16.96 -7.68 0
v -16.96 -7.36 0
v -16.64 -7.36 0
v -16.96 -7.68 0
v -17.28 -7.68 0
v -17.28 -7.36 0
v -16.96 -7.36 0
v -17.28 -7.68 0
v -17.6 -7.68 0
v -17.6 -7.36 0
v -17.28 -7.36 0
v -17.6 -7.68 0
v -17.92 -7.68 0
v -17.92 -7.36 0
v -17.6 -7.36 0
v -17.92 -7.68 0
v -18.24 -7.68 0
v -18.24 -7.36 0
v -17.92 -7.36 0
v -18.24 -7.68 0
v -18.56 -7.68 0
v -18.56 -7.36 0
v -18.24 -7.36 0
v -18.56 -7.68 0
v -18.88 -7.68 0
v -18.88 -7.36 0
v -18.56 -7.36 0
v -18.88 -7.68 0
v -19.2 -7.68 0
v -19.2 -7.36 0
v -18.88 -7.36 0
v -11.52 -8 0
v -11.84 -8 0
v -11.84 -7.68 0
v -11.52 -7.68 0
v -11.84 -8 0
v -12.16 -8 0
v -12.16 -7.68 0
v -11.84 -7.68 0
v -12.16 -8 0
v -12.48 -8 0
v -12.48 -7.68 0
v -12.16 -7.68 0
v -12.48 -8 0
v -12.8 -8 0
v -12.8 -7.68 0
v -12.48 -7.68 0
v -12.8 -8 0
v -13.12 -8 0
v -13.12 -7.68 0
v -12.8 -7.68 0
v -13.12 -8 0
v -13.44 -8 0
v -13.44 -7.68 0
v -13.12 -7.68 0
v -13.44 -8 0
v -13.76 -8 0
v -13.76 -7.68 0
v -13.44 -7.68 0
v -13.76 -8 0
v -14.08 -8 0
v -14.08 -7.68 0
v -13.76 -7.68 0
v -14.08 -8 0
v -14.4 -8 0
v -14.4 -7.68 0
v -14.08 -7.68 0
v -14.4 -8 0
v -14.72 -8 0
v -14.72 -7.68 0
v -14.4 -7.68 0
v -16 -8 0
v -16.32 -8 0
v -16.32 -7.68 0
v -16 -7.68 0
v -16.32 -8 0
v -16.64 -8 0
v -16.64 -7.68 0
v -16.32 -7.68 0
v -16.64 -8 0
v -16.96 -8 0
v -16.96 -7.68 0
v -16.64 -7.68 0
v -16.96 -8 0
v -17.28 -8 0
v -17.28 -7.68 0
v -16.96 -7.68 0
v -17.28 -8 0
v -17.6 -8 0
v -17.6 -7.68 0
v -17.28 -7.68 0
v -17.6 -8 0
v -17.92 -8 0
v -17.92 -7.68 0
v -17.6 -7.68 0
v -17.92 -8 0
v -18.24 -8 0
v -18.24 -7.68 0
v -17.92 -7.68 0
v -18.24 -8 0
v -18.56 -8 0
v -18.56 -7.68 0
v -18.24 -7.68 0
v -18.56 -8 0
v -18.88 -8 0
v -18.88 -7.68 0
v -18.56 -7.68 0
v -18.88 -8 0
v -19.2 -8 0
v -19.2 -7.68 0
v -18.88 -7.68 0
v -11.52 -8.32 0
v -11.84 -8.32 0
v -11.84 -8 0
v -11.52 -8 0
v -11.84 -8.32 0
v -12.16 -8.32 0
v -12.16 -8 0
v -11.84 -8 0
v -12.16 -8.32 0
v -12.48 -8.32 0
v -12.48 -8 0
v -12.16 -8 0
v -12.48 -8.32 0
v -12.8 -8.32 0
v -12.8 -8 0
v -12.48 -8 0
v -12.8 -8.32 0
v -13.12 -8.32 0
v -13.12 -8 0
v -12.8 -8 0
v -13.12 -8.32 0
v -13.44 -8.32 0
v -13.44 -8 0
v -13.12 -8 0
v -13.44 -8.32 0
v -13.76 -8.32 0
v -13.76 -8 0
v -13.44 -8 0
v -13.76 -8.32 0
v -14.08 -8.32 0
v -14.08 -8 0
v -13.76 -8 0
v -14.08 -8.32 0
v -14.4 -8.32 0
v -14.4 -8 0
v -14.08 -8 0
v -14.4 -8.32 0
v -14.72 -8.32 0
v -14.72 -8 0
v -14.4 -8 0
v -16 -8.32 0
v -16.32 -8.32 0
v -16.32 -8 0
v -16 -8 0
v -16.32 -8.32 0
v -16.64 -8.32 0
v -16.64 -8 0
v -16.32 -8 0
v -16.64 -8.32 0
v -16.96 -8.32 0
v -16.96 -8 0
v -16.64 -8 0
v -16.96 -8.32 0
v -17.28 -8.32 0
v -17.28 -8 0
v -16.96 -8 0
v -17.28 -8.32 0
v -17.6 -8.32 0
v -17.6 -8 0
v -17.28 -8 0
v -17.6 -8.32 0
v -17.92 -8.32 0
v -17.92 -8 0
v -17.6 -8 0
v -17.92 -8.32 0
v -18.24 -8.32 0
v -18.24 -8 0
v -17.92 -8 0
v -18.24 -8.32 0
v -18.56 -8.32 0
v -18.56 -8 0
v -18.24 -8 0
v -18.56 -8.32 0
v -18.88 -8.32 0
v -18.88 -8 0
v -18.56 -8 0
v -18.88 -8.32 0
v -19.2 -8.32 0
v -19.2 -8 0
v -18.88 -8 0

# Texture cooridinates (Count = 59)
vt 0.2352941 0.8181818
vt 0.2941177 0.8181818
vt 0.2941177 0.9090909
vt 0.2352941 0.9090909
vt 0.4117647 0.8181818
vt 0.4705882 0.8181818
vt 0.4705882 0.9090909
vt 0.4117647 0.9090909
vt 0.4117647 0.7272727
vt 0.4705882 0.7272727
vt 0.2941177 0.6363636
vt 0.3529412 0.6363636
vt 0.3529412 0.7272727
vt 0.2941177 0.7272727
vt 0.4117647 0.6363636
vt 0.4705882 0.6363636
vt 0.2941177 0.5454545
vt 0.3529412 0.5454545
vt 0.5294118 0.9090909
vt 0.5294118 1
vt 0.4705882 1
vt 0.5882353 0.9090909
vt 0.5882353 1
vt 0.6470588 0.9090909
vt 0.6470588 1
vt 0.7058824 0.9090909
vt 0.7058824 1
vt 0.7058824 0.6363636
vt 0.7647059 0.6363636
vt 0.7647059 0.7272727
vt 0.7058824 0.7272727
vt 0.5294118 0.8181818
vt 0.5882353 0.8181818
vt 0.6470588 0.8181818
vt 0.6470588 0.7272727
vt 0.7058824 0.8181818
vt 0.7647059 0.9090909
vt 0.7647059 1
vt 0.8235294 0.9090909
vt 0.8235294 1
vt 0.2941177 0.4545454
vt 0.3529412 0.4545454
vt 0.5294118 0.7272727
vt 0.5882353 0.7272727
vt 0.6470588 0.6363636
vt 0.7647059 0.8181818
vt 0.2941177 0.3636364
vt 0.3529412 0.3636364
vt 0.5294118 0.6363636
vt 0.5882353 0.6363636
vt 0.6470588 0.5454545
vt 0.7058824 0.5454545
vt 0.2941177 0.2727273
vt 0.3529412 0.2727273
vt 0.4705882 0.5454545
vt 0.5294118 0.5454545
vt 0.5882353 0.5454545
vt 0.6470588 0.4545454
vt 0.7058824 0.4545454

# Normal
vn 0 0 -1

# Mesh description
g Map_mesh_0010

# Faces
f 1/1/1 2/2/1 3/3/1 4/4/1
f 5/2/1 6/1/1 7/4/1 8/3/1
f 9/5/1 10/6/1 11/7/1 12/8/1
f 13/5/1 14/6/1 15/7/1 16/8/1
f 17/5/1 18/6/1 19/7/1 20/8/1
f 21/5/1 22/6/1 23/7/1 24/8/1
f 25/5/1 26/6/1 27/7/1 28/8/1
f 29/5/1 30/6/1 31/7/1 32/8/1
f 33/5/1 34/6/1 35/7/1 36/8/1
f 37/5/1 38/6/1 39/7/1 40/8/1
f 41/5/1 42/6/1 43/7/1 44/8/1
f 45/5/1 46/6/1 47/7/1 48/8/1
f 49/5/1 50/6/1 51/7/1 52/8/1
f 53/5/1 54/6/1 55/7/1 56/8/1
f 57/5/1 58/6/1 59/7/1 60/8/1
f 61/5/1 62/6/1 63/7/1 64/8/1
f 65/5/1 66/6/1 67/7/1 68/8/1
f 69/5/1 70/6/1 71/7/1 72/8/1
f 73/5/1 74/6/1 75/7/1 76/8/1
f 77/5/1 78/6/1 79/7/1 80/8/1
f 81/5/1 82/6/1 83/7/1 84/8/1
f 85/5/1 86/6/1 87/7/1 88/8/1
f 89/5/1 90/6/1 91/7/1 92/8/1
f 93/5/1 94/6/1 95/7/1 96/8/1
f 97/5/1 98/6/1 99/7/1 100/8/1
f 101/5/1 102/6/1 103/7/1 104/8/1
f 105/5/1 106/6/1 107/7/1 108/8/1
f 109/5/1 110/6/1 111/7/1 112/8/1
f 113/5/1 114/6/1 115/7/1 116/8/1
f 117/5/1 118/6/1 119/7/1 120/8/1
f 121/5/1 122/6/1 123/7/1 124/8/1
f 125/5/1 126/6/1 127/7/1 128/8/1
f 129/5/1 130/6/1 131/7/1 132/8/1
f 133/5/1 134/6/1 135/7/1 136/8/1
f 137/5/1 138/6/1 139/7/1 140/8/1
f 141/5/1 142/6/1 143/7/1 144/8/1
f 145/5/1 146/6/1 147/7/1 148/8/1
f 149/5/1 150/6/1 151/7/1 152/8/1
f 153/1/1 154/2/1 155/3/1 156/4/1
f 157/9/1 158/10/1 159/6/1 160/5/1
f 161/9/1 162/10/1 163/6/1 164/5/1
f 165/9/1 166/10/1 167/6/1 168/5/1
f 169/9/1 170/10/1 171/6/1 172/5/1
f 173/9/1 174/10/1 175/6/1 176/5/1
f 177/9/1 178/10/1 179/6/1 180/5/1
f 181/9/1 182/10/1 183/6/1 184/5/1
f 185/9/1 186/10/1 187/6/1 188/5/1
f 189/9/1 190/10/1 191/6/1 192/5/1
f 193/9/1 194/10/1 195/6/1 196/5/1
f 197/9/1 198/10/1 199/6/1 200/5/1
f 201/9/1 202/10/1 203/6/1 204/5/1
f 205/9/1 206/10/1 207/6/1 208/5/1
f 209/9/1 210/10/1 211/6/1 212/5/1
f 213/9/1 214/10/1 215/6/1 216/5/1
f 217/9/1 218/10/1 219/6/1 220/5/1
f 221/9/1 222/10/1 223/6/1 224/5/1
f 225/9/1 226/10/1 227/6/1 228/5/1
f 229/9/1 230/10/1 231/6/1 232/5/1
f 233/9/1 234/10/1 235/6/1 236/5/1
f 237/9/1 238/10/1 239/6/1 240/5/1
f 241/9/1 242/10/1 243/6/1 244/5/1
f 245/2/1 246/1/1 247/4/1 248/3/1
f 249/11/1 250/12/1 251/13/1 252/14/1
f 253/12/1 254/15/1 255/9/1 256/13/1
f 257/15/1 258/16/1 259/10/1 260/9/1
f 261/15/1 262/16/1 263/10/1 264/9/1
f 265/15/1 266/16/1 267/10/1 268/9/1
f 269/15/1 270/16/1 271/10/1 272/9/1
f 273/15/1 274/16/1 275/10/1 276/9/1
f 277/15/1 278/16/1 279/10/1 280/9/1
f 281/15/1 282/16/1 283/10/1 284/9/1
f 285/15/1 286/16/1 287/10/1 288/9/1
f 289/15/1 290/16/1 291/10/1 292/9/1
f 293/15/1 294/16/1 295/10/1 296/9/1
f 297/15/1 298/16/1 299/10/1 300/9/1
f 301/15/1 302/16/1 303/10/1 304/9/1
f 305/15/1 306/16/1 307/10/1 308/9/1
f 309/15/1 310/16/1 311/10/1 312/9/1
f 313/15/1 314/16/1 315/10/1 316/9/1
f 317/15/1 318/16/1 319/10/1 320/9/1
f 321/15/1 322/16/1 323/10/1 324/9/1
f 325/15/1 326/16/1 327/10/1 328/9/1
f 329/15/1 330/16/1 331/10/1 332/9/1
f 333/15/1 334/16/1 335/10/1 336/9/1
f 337/15/1 338/12/1 339/13/1 340/9/1
f 341/12/1 342/11/1 343/14/1 344/13/1
f 345/17/1 346/18/1 347/12/1 348/11/1
f 349/7/1 350/19/1 351/20/1 352/21/1
f 353/19/1 354/22/1 355/23/1 356/20/1
f 357/22/1 358/24/1 359/25/1 360/23/1
f 361/15/1 362/16/1 363/10/1 364/9/1
f 365/7/1 366/19/1 367/20/1 368/21/1
f 369/19/1 370/22/1 371/23/1 372/20/1
f 373/22/1 374/24/1 375/25/1 376/23/1
f 377/15/1 378/16/1 379/10/1 380/9/1
f 381/24/1 382/26/1 383/27/1 384/25/1
f 385/28/1 386/29/1 387/30/1 388/31/1
f 389/28/1 390/29/1 391/30/1 392/31/1
f 393/28/1 394/29/1 395/30/1 396/31/1
f 397/28/1 398/29/1 399/30/1 400/31/1
f 401/26/1 402/24/1 403/25/1 404/27/1
f 405/15/1 406/16/1 407/10/1 408/9/1
f 409/7/1 410/19/1 411/20/1 412/21/1
f 413/19/1 414/22/1 415/23/1 416/20/1
f 417/22/1 418/24/1 419/25/1 420/23/1
f 421/15/1 422/16/1 423/10/1 424/9/1
f 425/7/1 426/19/1 427/20/1 428/21/1
f 429/19/1 430/22/1 431/23/1 432/20/1
f 433/22/1 434/24/1 435/25/1 436/23/1
f 437/18/1 438/17/1 439/11/1 440/12/1
f 441/17/1 442/18/1 443/12/1 444/11/1
f 445/6/1 446/32/1 447/19/1 448/7/1
f 449/32/1 450/33/1 451/22/1 452/19/1
f 453/33/1 454/34/1 455/24/1 456/22/1
f 457/15/1 458/16/1 459/10/1 460/9/1
f 461/6/1 462/32/1 463/19/1 464/7/1
f 465/32/1 466/33/1 467/22/1 468/19/1
f 469/33/1 470/34/1 471/24/1 472/22/1
f 473/15/1 474/16/1 475/10/1 476/9/1
f 477/35/1 478/31/1 479/36/1 480/34/1
f 481/26/1 482/37/1 483/38/1 484/27/1
f 485/37/1 486/39/1 487/40/1 488/38/1
f 489/39/1 490/37/1 491/38/1 492/40/1
f 493/37/1 494/26/1 495/27/1 496/38/1
f 497/31/1 498/35/1 499/34/1 500/36/1
f 501/15/1 502/16/1 503/10/1 504/9/1
f 505/6/1 506/32/1 507/19/1 508/7/1
f 509/32/1 510/33/1 511/22/1 512/19/1
f 513/33/1 514/34/1 515/24/1 516/22/1
f 517/15/1 518/16/1 519/10/1 520/9/1
f 521/6/1 522/32/1 523/19/1 524/7/1
f 525/32/1 526/33/1 527/22/1 528/19/1
f 529/33/1 530/34/1 531/24/1 532/22/1
f 533/18/1 534/17/1 535/11/1 536/12/1
f 537/41/1 538/42/1 539/18/1 540/17/1
f 541/10/1 542/43/1 543/32/1 544/6/1
f 545/43/1 546/44/1 547/33/1 548/32/1
f 549/44/1 550/35/1 551/34/1 552/33/1
f 553/15/1 554/16/1 555/10/1 556/9/1
f 557/10/1 558/43/1 559/32/1 560/6/1
f 561/43/1 562/44/1 563/33/1 564/32/1
f 565/44/1 566/35/1 567/34/1 568/33/1
f 569/15/1 570/16/1 571/10/1 572/9/1
f 573/45/1 574/28/1 575/31/1 576/35/1
f 577/36/1 578/46/1 579/37/1 580/26/1
f 581/46/1 582/36/1 583/26/1 584/37/1
f 585/28/1 586/45/1 587/35/1 588/31/1
f 589/15/1 590/16/1 591/10/1 592/9/1
f 593/10/1 594/43/1 595/32/1 596/6/1
f 597/43/1 598/44/1 599/33/1 600/32/1
f 601/44/1 602/35/1 603/34/1 604/33/1
f 605/15/1 606/16/1 607/10/1 608/9/1
f 609/10/1 610/43/1 611/32/1 612/6/1
f 613/43/1 614/44/1 615/33/1 616/32/1
f 617/44/1 618/35/1 619/34/1 620/33/1
f 621/42/1 622/41/1 623/17/1 624/18/1
f 625/47/1 626/48/1 627/42/1 628/41/1
f 629/16/1 630/49/1 631/43/1 632/10/1
f 633/49/1 634/50/1 635/44/1 636/43/1
f 637/50/1 638/45/1 639/35/1 640/44/1
f 641/47/1 642/48/1 643/42/1 644/41/1
f 645/16/1 646/49/1 647/43/1 648/10/1
f 649/49/1 650/50/1 651/44/1 652/43/1
f 653/50/1 654/45/1 655/35/1 656/44/1
f 657/47/1 658/48/1 659/42/1 660/41/1
f 661/51/1 662/52/1 663/28/1 664/45/1
f 665/52/1 666/51/1 667/45/1 668/28/1
f 669/47/1 670/48/1 671/42/1 672/41/1
f 673/16/1 674/49/1 675/43/1 676/10/1
f 677/49/1 678/50/1 679/44/1 680/43/1
f 681/50/1 682/45/1 683/35/1 684/44/1
f 685/47/1 686/48/1 687/42/1 688/41/1
f 689/16/1 690/49/1 691/43/1 692/10/1
f 693/49/1 694/50/1 695/44/1 696/43/1
f 697/50/1 698/45/1 699/35/1 700/44/1
f 701/48/1 702/47/1 703/41/1 704/42/1
f 705/53/1 706/54/1 707/48/1 708/47/1
f 709/55/1 710/56/1 711/49/1 712/16/1
f 713/56/1 714/57/1 715/50/1 716/49/1
f 717/57/1 718/51/1 719/45/1 720/50/1
f 721/53/1 722/54/1 723/48/1 724/47/1
f 725/55/1 726/56/1 727/49/1 728/16/1
f 729/56/1 730/57/1 731/50/1 732/49/1
f 733/57/1 734/51/1 735/45/1 736/50/1
f 737/53/1 738/54/1 739/48/1 740/47/1
f 741/58/1 742/59/1 743/52/1 744/51/1
f 745/59/1 746/58/1 747/51/1 748/52/1
f 749/53/1 750/54/1 751/48/1 752/47/1
f 753/55/1 754/56/1 755/49/1 756/16/1
f 757/56/1 758/57/1 759/50/1 760/49/1
f 761/57/1 762/51/1 763/45/1 764/50/1
f 765/53/1 766/54/1 767/48/1 768/47/1
f 769/55/1 770/56/1 771/49/1 772/16/1
f 773/56/1 774/57/1 775/50/1 776/49/1
f 777/57/1 778/51/1 779/45/1 780/50/1
f 781/54/1 782/53/1 783/47/1 784/48/1

