# Tiled2Unity generated file. Do not modify by hand.
# Wavefront file for 'Map_mesh_0013.obj'

# Vertices (Count = 84)
v -11.84 -2.24 0
v -12.16 -2.24 0
v -12.16 -1.92 0
v -11.84 -1.92 0
v -12.16 -2.24 0
v -12.48 -2.24 0
v -12.48 -1.92 0
v -12.16 -1.92 0
v -12.48 -2.24 0
v -12.8 -2.24 0
v -12.8 -1.92 0
v -12.48 -1.92 0
v -12.8 -2.24 0
v -13.12 -2.24 0
v -13.12 -1.92 0
v -12.8 -1.92 0
v -13.12 -2.24 0
v -13.44 -2.24 0
v -13.44 -1.92 0
v -13.12 -1.92 0
v -13.44 -2.24 0
v -13.76 -2.24 0
v -13.76 -1.92 0
v -13.44 -1.92 0
v -13.76 -2.24 0
v -14.08 -2.24 0
v -14.08 -1.92 0
v -13.76 -1.92 0
v -11.84 -3.52 0
v -12.16 -3.52 0
v -12.16 -3.2 0
v -11.84 -3.2 0
v -12.16 -3.52 0
v -12.48 -3.52 0
v -12.48 -3.2 0
v -12.16 -3.2 0
v -12.48 -3.52 0
v -12.8 -3.52 0
v -12.8 -3.2 0
v -12.48 -3.2 0
v -12.8 -3.52 0
v -13.12 -3.52 0
v -13.12 -3.2 0
v -12.8 -3.2 0
v -13.12 -3.52 0
v -13.44 -3.52 0
v -13.44 -3.2 0
v -13.12 -3.2 0
v -13.44 -3.52 0
v -13.76 -3.52 0
v -13.76 -3.2 0
v -13.44 -3.2 0
v -13.76 -3.52 0
v -14.08 -3.52 0
v -14.08 -3.2 0
v -13.76 -3.2 0
v -11.84 -4.8 0
v -12.16 -4.8 0
v -12.16 -4.48 0
v -11.84 -4.48 0
v -12.16 -4.8 0
v -12.48 -4.8 0
v -12.48 -4.48 0
v -12.16 -4.48 0
v -12.48 -4.8 0
v -12.8 -4.8 0
v -12.8 -4.48 0
v -12.48 -4.48 0
v -12.8 -4.8 0
v -13.12 -4.8 0
v -13.12 -4.48 0
v -12.8 -4.48 0
v -13.12 -4.8 0
v -13.44 -4.8 0
v -13.44 -4.48 0
v -13.12 -4.48 0
v -13.44 -4.8 0
v -13.76 -4.8 0
v -13.76 -4.48 0
v -13.44 -4.48 0
v -13.76 -4.8 0
v -14.08 -4.8 0
v -14.08 -4.48 0
v -13.76 -4.48 0

# Texture cooridinates (Count = 8)
vt 0.46875 0.84375
vt 0.5 0.84375
vt 0.5 0.875
vt 0.46875 0.875
vt 0.4375 0.625
vt 0.46875 0.625
vt 0.46875 0.65625
vt 0.4375 0.65625

# Normal
vn 0 0 -1

# Mesh description
g Map_mesh_0013

# Faces
f 1/1/1 2/2/1 3/3/1 4/4/1
f 5/1/1 6/2/1 7/3/1 8/4/1
f 9/5/1 10/6/1 11/7/1 12/8/1
f 13/1/1 14/2/1 15/3/1 16/4/1
f 17/5/1 18/6/1 19/7/1 20/8/1
f 21/1/1 22/2/1 23/3/1 24/4/1
f 25/5/1 26/6/1 27/7/1 28/8/1
f 29/5/1 30/6/1 31/7/1 32/8/1
f 33/5/1 34/6/1 35/7/1 36/8/1
f 37/1/1 38/2/1 39/3/1 40/4/1
f 41/5/1 42/6/1 43/7/1 44/8/1
f 45/1/1 46/2/1 47/3/1 48/4/1
f 49/5/1 50/6/1 51/7/1 52/8/1
f 53/5/1 54/6/1 55/7/1 56/8/1
f 57/5/1 58/6/1 59/7/1 60/8/1
f 61/1/1 62/2/1 63/3/1 64/4/1
f 65/5/1 66/6/1 67/7/1 68/8/1
f 69/5/1 70/6/1 71/7/1 72/8/1
f 73/5/1 74/6/1 75/7/1 76/8/1
f 77/5/1 78/6/1 79/7/1 80/8/1
f 81/1/1 82/2/1 83/3/1 84/4/1

