# Tiled2Unity generated file. Do not modify by hand.
# Wavefront file for 'Map_mesh_0007.obj'

# Vertices (Count = 296)
v -11.84 -0.96 0
v -12.16 -0.96 0
v -12.16 -0.64 0
v -11.84 -0.64 0
v -13.44 -0.96 0
v -13.76 -0.96 0
v -13.76 -0.64 0
v -13.44 -0.64 0
v -13.76 -0.96 0
v -14.08 -0.96 0
v -14.08 -0.64 0
v -13.76 -0.64 0
v -14.08 -0.96 0
v -14.4 -0.96 0
v -14.4 -0.64 0
v -14.08 -0.64 0
v -14.4 -0.96 0
v -14.72 -0.96 0
v -14.72 -0.64 0
v -14.4 -0.64 0
v -16 -0.96 0
v -16.32 -0.96 0
v -16.32 -0.64 0
v -16 -0.64 0
v -16.32 -0.96 0
v -16.64 -0.96 0
v -16.64 -0.64 0
v -16.32 -0.64 0
v -16.64 -0.96 0
v -16.96 -0.96 0
v -16.96 -0.64 0
v -16.64 -0.64 0
v -16.96 -0.96 0
v -17.28 -0.96 0
v -17.28 -0.64 0
v -16.96 -0.64 0
v -18.56 -0.96 0
v -18.88 -0.96 0
v -18.88 -0.64 0
v -18.56 -0.64 0
v -11.84 -1.28 0
v -12.16 -1.28 0
v -12.16 -0.96 0
v -11.84 -0.96 0
v -13.44 -1.28 0
v -13.76 -1.28 0
v -13.76 -0.96 0
v -13.44 -0.96 0
v -13.76 -1.28 0
v -14.08 -1.28 0
v -14.08 -0.96 0
v -13.76 -0.96 0
v -14.08 -1.28 0
v -14.4 -1.28 0
v -14.4 -0.96 0
v -14.08 -0.96 0
v -14.4 -1.28 0
v -14.72 -1.28 0
v -14.72 -0.96 0
v -14.4 -0.96 0
v -16 -1.28 0
v -16.32 -1.28 0
v -16.32 -0.96 0
v -16 -0.96 0
v -16.32 -1.28 0
v -16.64 -1.28 0
v -16.64 -0.96 0
v -16.32 -0.96 0
v -16.64 -1.28 0
v -16.96 -1.28 0
v -16.96 -0.96 0
v -16.64 -0.96 0
v -16.96 -1.28 0
v -17.28 -1.28 0
v -17.28 -0.96 0
v -16.96 -0.96 0
v -18.56 -1.28 0
v -18.88 -1.28 0
v -18.88 -0.96 0
v -18.56 -0.96 0
v -11.84 -1.6 0
v -12.16 -1.6 0
v -12.16 -1.28 0
v -11.84 -1.28 0
v -13.44 -1.6 0
v -13.76 -1.6 0
v -13.76 -1.28 0
v -13.44 -1.28 0
v -13.76 -1.6 0
v -14.08 -1.6 0
v -14.08 -1.28 0
v -13.76 -1.28 0
v -14.08 -1.6 0
v -14.4 -1.6 0
v -14.4 -1.28 0
v -14.08 -1.28 0
v -14.4 -1.6 0
v -14.72 -1.6 0
v -14.72 -1.28 0
v -14.4 -1.28 0
v -16 -1.6 0
v -16.32 -1.6 0
v -16.32 -1.28 0
v -16 -1.28 0
v -16.32 -1.6 0
v -16.64 -1.6 0
v -16.64 -1.28 0
v -16.32 -1.28 0
v -16.64 -1.6 0
v -16.96 -1.6 0
v -16.96 -1.28 0
v -16.64 -1.28 0
v -16.96 -1.6 0
v -17.28 -1.6 0
v -17.28 -1.28 0
v -16.96 -1.28 0
v -18.56 -1.6 0
v -18.88 -1.6 0
v -18.88 -1.28 0
v -18.56 -1.28 0
v -15.04 -2.24 0
v -15.36 -2.24 0
v -15.36 -1.92 0
v -15.04 -1.92 0
v -15.36 -2.24 0
v -15.68 -2.24 0
v -15.68 -1.92 0
v -15.36 -1.92 0
v -11.84 -2.56 0
v -12.16 -2.56 0
v -12.16 -2.24 0
v -11.84 -2.24 0
v -12.16 -2.56 0
v -12.48 -2.56 0
v -12.48 -2.24 0
v -12.16 -2.24 0
v -12.48 -2.56 0
v -12.8 -2.56 0
v -12.8 -2.24 0
v -12.48 -2.24 0
v -12.8 -2.56 0
v -13.12 -2.56 0
v -13.12 -2.24 0
v -12.8 -2.24 0
v -13.12 -2.56 0
v -13.44 -2.56 0
v -13.44 -2.24 0
v -13.12 -2.24 0
v -13.44 -2.56 0
v -13.76 -2.56 0
v -13.76 -2.24 0
v -13.44 -2.24 0
v -13.76 -2.56 0
v -14.08 -2.56 0
v -14.08 -2.24 0
v -13.76 -2.24 0
v -11.84 -2.88 0
v -12.16 -2.88 0
v -12.16 -2.56 0
v -11.84 -2.56 0
v -12.16 -2.88 0
v -12.48 -2.88 0
v -12.48 -2.56 0
v -12.16 -2.56 0
v -12.48 -2.88 0
v -12.8 -2.88 0
v -12.8 -2.56 0
v -12.48 -2.56 0
v -12.8 -2.88 0
v -13.12 -2.88 0
v -13.12 -2.56 0
v -12.8 -2.56 0
v -13.12 -2.88 0
v -13.44 -2.88 0
v -13.44 -2.56 0
v -13.12 -2.56 0
v -13.44 -2.88 0
v -13.76 -2.88 0
v -13.76 -2.56 0
v -13.44 -2.56 0
v -13.76 -2.88 0
v -14.08 -2.88 0
v -14.08 -2.56 0
v -13.76 -2.56 0
v -11.84 -3.84 0
v -12.16 -3.84 0
v -12.16 -3.52 0
v -11.84 -3.52 0
v -12.16 -3.84 0
v -12.48 -3.84 0
v -12.48 -3.52 0
v -12.16 -3.52 0
v -12.48 -3.84 0
v -12.8 -3.84 0
v -12.8 -3.52 0
v -12.48 -3.52 0
v -12.8 -3.84 0
v -13.12 -3.84 0
v -13.12 -3.52 0
v -12.8 -3.52 0
v -13.12 -3.84 0
v -13.44 -3.84 0
v -13.44 -3.52 0
v -13.12 -3.52 0
v -13.44 -3.84 0
v -13.76 -3.84 0
v -13.76 -3.52 0
v -13.44 -3.52 0
v -13.76 -3.84 0
v -14.08 -3.84 0
v -14.08 -3.52 0
v -13.76 -3.52 0
v -11.84 -4.16 0
v -12.16 -4.16 0
v -12.16 -3.84 0
v -11.84 -3.84 0
v -12.16 -4.16 0
v -12.48 -4.16 0
v -12.48 -3.84 0
v -12.16 -3.84 0
v -12.48 -4.16 0
v -12.8 -4.16 0
v -12.8 -3.84 0
v -12.48 -3.84 0
v -12.8 -4.16 0
v -13.12 -4.16 0
v -13.12 -3.84 0
v -12.8 -3.84 0
v -13.12 -4.16 0
v -13.44 -4.16 0
v -13.44 -3.84 0
v -13.12 -3.84 0
v -13.44 -4.16 0
v -13.76 -4.16 0
v -13.76 -3.84 0
v -13.44 -3.84 0
v -13.76 -4.16 0
v -14.08 -4.16 0
v -14.08 -3.84 0
v -13.76 -3.84 0
v -11.84 -5.12 0
v -12.16 -5.12 0
v -12.16 -4.8 0
v -11.84 -4.8 0
v -12.16 -5.12 0
v -12.48 -5.12 0
v -12.48 -4.8 0
v -12.16 -4.8 0
v -12.48 -5.12 0
v -12.8 -5.12 0
v -12.8 -4.8 0
v -12.48 -4.8 0
v -12.8 -5.12 0
v -13.12 -5.12 0
v -13.12 -4.8 0
v -12.8 -4.8 0
v -13.12 -5.12 0
v -13.44 -5.12 0
v -13.44 -4.8 0
v -13.12 -4.8 0
v -13.44 -5.12 0
v -13.76 -5.12 0
v -13.76 -4.8 0
v -13.44 -4.8 0
v -13.76 -5.12 0
v -14.08 -5.12 0
v -14.08 -4.8 0
v -13.76 -4.8 0
v -11.84 -5.44 0
v -12.16 -5.44 0
v -12.16 -5.12 0
v -11.84 -5.12 0
v -12.16 -5.44 0
v -12.48 -5.44 0
v -12.48 -5.12 0
v -12.16 -5.12 0
v -12.48 -5.44 0
v -12.8 -5.44 0
v -12.8 -5.12 0
v -12.48 -5.12 0
v -12.8 -5.44 0
v -13.12 -5.44 0
v -13.12 -5.12 0
v -12.8 -5.12 0
v -13.12 -5.44 0
v -13.44 -5.44 0
v -13.44 -5.12 0
v -13.12 -5.12 0
v -13.44 -5.44 0
v -13.76 -5.44 0
v -13.76 -5.12 0
v -13.44 -5.12 0
v -13.76 -5.44 0
v -14.08 -5.44 0
v -14.08 -5.12 0
v -13.76 -5.12 0

# Texture cooridinates (Count = 22)
vt 0.4375 0.625
vt 0.46875 0.625
vt 0.46875 0.65625
vt 0.4375 0.65625
vt 0.46875 0.84375
vt 0.5 0.84375
vt 0.5 0.875
vt 0.46875 0.875
vt 0.46875 0.8125
vt 0.5 0.8125
vt 0.4375 0.59375
vt 0.46875 0.59375
vt 0.4375 0.5625
vt 0.46875 0.5625
vt 0.46875 0.78125
vt 0.5 0.78125
vt 0.5625 0.5625
vt 0.59375 0.5625
vt 0.59375 0.59375
vt 0.5625 0.59375
vt 0.625 0.5625
vt 0.625 0.59375

# Normal
vn 0 0 -1

# Mesh description
g Map_mesh_0007

# Faces
f 1/1/1 2/2/1 3/3/1 4/4/1
f 5/1/1 6/2/1 7/3/1 8/4/1
f 9/5/1 10/6/1 11/7/1 12/8/1
f 13/1/1 14/2/1 15/3/1 16/4/1
f 17/5/1 18/6/1 19/7/1 20/8/1
f 21/1/1 22/2/1 23/3/1 24/4/1
f 25/5/1 26/6/1 27/7/1 28/8/1
f 29/1/1 30/2/1 31/3/1 32/4/1
f 33/1/1 34/2/1 35/3/1 36/4/1
f 37/1/1 38/2/1 39/3/1 40/4/1
f 41/9/1 42/10/1 43/6/1 44/5/1
f 45/11/1 46/12/1 47/2/1 48/1/1
f 49/11/1 50/12/1 51/2/1 52/1/1
f 53/11/1 54/12/1 55/2/1 56/1/1
f 57/9/1 58/10/1 59/6/1 60/5/1
f 61/11/1 62/12/1 63/2/1 64/1/1
f 65/9/1 66/10/1 67/6/1 68/5/1
f 69/11/1 70/12/1 71/2/1 72/1/1
f 73/11/1 74/12/1 75/2/1 76/1/1
f 77/11/1 78/12/1 79/2/1 80/1/1
f 81/13/1 82/14/1 83/12/1 84/11/1
f 85/13/1 86/14/1 87/12/1 88/11/1
f 89/15/1 90/16/1 91/10/1 92/9/1
f 93/13/1 94/14/1 95/12/1 96/11/1
f 97/15/1 98/16/1 99/10/1 100/9/1
f 101/13/1 102/14/1 103/12/1 104/11/1
f 105/15/1 106/16/1 107/10/1 108/9/1
f 109/13/1 110/14/1 111/12/1 112/11/1
f 113/13/1 114/14/1 115/12/1 116/11/1
f 117/13/1 118/14/1 119/12/1 120/11/1
f 121/17/1 122/18/1 123/19/1 124/20/1
f 125/18/1 126/21/1 127/22/1 128/19/1
f 129/11/1 130/12/1 131/2/1 132/1/1
f 133/9/1 134/10/1 135/6/1 136/5/1
f 137/11/1 138/12/1 139/2/1 140/1/1
f 141/11/1 142/12/1 143/2/1 144/1/1
f 145/9/1 146/10/1 147/6/1 148/5/1
f 149/11/1 150/12/1 151/2/1 152/1/1
f 153/11/1 154/12/1 155/2/1 156/1/1
f 157/15/1 158/16/1 159/10/1 160/9/1
f 161/13/1 162/14/1 163/12/1 164/11/1
f 165/13/1 166/14/1 167/12/1 168/11/1
f 169/13/1 170/14/1 171/12/1 172/11/1
f 173/15/1 174/16/1 175/10/1 176/9/1
f 177/13/1 178/14/1 179/12/1 180/11/1
f 181/13/1 182/14/1 183/12/1 184/11/1
f 185/11/1 186/12/1 187/2/1 188/1/1
f 189/9/1 190/10/1 191/6/1 192/5/1
f 193/11/1 194/12/1 195/2/1 196/1/1
f 197/11/1 198/12/1 199/2/1 200/1/1
f 201/9/1 202/10/1 203/6/1 204/5/1
f 205/11/1 206/12/1 207/2/1 208/1/1
f 209/11/1 210/12/1 211/2/1 212/1/1
f 213/13/1 214/14/1 215/12/1 216/11/1
f 217/15/1 218/16/1 219/10/1 220/9/1
f 221/13/1 222/14/1 223/12/1 224/11/1
f 225/13/1 226/14/1 227/12/1 228/11/1
f 229/15/1 230/16/1 231/10/1 232/9/1
f 233/13/1 234/14/1 235/12/1 236/11/1
f 237/15/1 238/16/1 239/10/1 240/9/1
f 241/9/1 242/10/1 243/6/1 244/5/1
f 245/11/1 246/12/1 247/2/1 248/1/1
f 249/9/1 250/10/1 251/6/1 252/5/1
f 253/11/1 254/12/1 255/2/1 256/1/1
f 257/11/1 258/12/1 259/2/1 260/1/1
f 261/9/1 262/10/1 263/6/1 264/5/1
f 265/11/1 266/12/1 267/2/1 268/1/1
f 269/15/1 270/16/1 271/10/1 272/9/1
f 273/13/1 274/14/1 275/12/1 276/11/1
f 277/13/1 278/14/1 279/12/1 280/11/1
f 281/13/1 282/14/1 283/12/1 284/11/1
f 285/15/1 286/16/1 287/10/1 288/9/1
f 289/15/1 290/16/1 291/10/1 292/9/1
f 293/13/1 294/14/1 295/12/1 296/11/1

