# Tiled2Unity generated file. Do not modify by hand.
# Wavefront file for 'Map_mesh_0005.obj'

# Vertices (Count = 144)
v -14.4 -8.639999 0
v -14.72 -8.639999 0
v -14.72 -8.32 0
v -14.4 -8.32 0
v -14.72 -8.639999 0
v -15.04 -8.639999 0
v -15.04 -8.32 0
v -14.72 -8.32 0
v -15.04 -8.639999 0
v -15.36 -8.639999 0
v -15.36 -8.32 0
v -15.04 -8.32 0
v -15.36 -8.639999 0
v -15.68 -8.639999 0
v -15.68 -8.32 0
v -15.36 -8.32 0
v -15.68 -8.639999 0
v -16 -8.639999 0
v -16 -8.32 0
v -15.68 -8.32 0
v -16 -8.639999 0
v -16.32 -8.639999 0
v -16.32 -8.32 0
v -16 -8.32 0
v -14.4 -8.96 0
v -14.72 -8.96 0
v -14.72 -8.639999 0
v -14.4 -8.639999 0
v -14.72 -8.96 0
v -15.04 -8.96 0
v -15.04 -8.639999 0
v -14.72 -8.639999 0
v -15.04 -8.96 0
v -15.36 -8.96 0
v -15.36 -8.639999 0
v -15.04 -8.639999 0
v -15.36 -8.96 0
v -15.68 -8.96 0
v -15.68 -8.639999 0
v -15.36 -8.639999 0
v -15.68 -8.96 0
v -16 -8.96 0
v -16 -8.639999 0
v -15.68 -8.639999 0
v -16 -8.96 0
v -16.32 -8.96 0
v -16.32 -8.639999 0
v -16 -8.639999 0
v -14.4 -9.28 0
v -14.72 -9.28 0
v -14.72 -8.96 0
v -14.4 -8.96 0
v -14.72 -9.28 0
v -15.04 -9.28 0
v -15.04 -8.96 0
v -14.72 -8.96 0
v -15.04 -9.28 0
v -15.36 -9.28 0
v -15.36 -8.96 0
v -15.04 -8.96 0
v -15.36 -9.28 0
v -15.68 -9.28 0
v -15.68 -8.96 0
v -15.36 -8.96 0
v -15.68 -9.28 0
v -16 -9.28 0
v -16 -8.96 0
v -15.68 -8.96 0
v -16 -9.28 0
v -16.32 -9.28 0
v -16.32 -8.96 0
v -16 -8.96 0
v -14.4 -9.599999 0
v -14.72 -9.599999 0
v -14.72 -9.28 0
v -14.4 -9.28 0
v -14.72 -9.599999 0
v -15.04 -9.599999 0
v -15.04 -9.28 0
v -14.72 -9.28 0
v -15.04 -9.599999 0
v -15.36 -9.599999 0
v -15.36 -9.28 0
v -15.04 -9.28 0
v -15.36 -9.599999 0
v -15.68 -9.599999 0
v -15.68 -9.28 0
v -15.36 -9.28 0
v -15.68 -9.599999 0
v -16 -9.599999 0
v -16 -9.28 0
v -15.68 -9.28 0
v -16 -9.599999 0
v -16.32 -9.599999 0
v -16.32 -9.28 0
v -16 -9.28 0
v -14.4 -9.92 0
v -14.72 -9.92 0
v -14.72 -9.599999 0
v -14.4 -9.599999 0
v -14.72 -9.92 0
v -15.04 -9.92 0
v -15.04 -9.599999 0
v -14.72 -9.599999 0
v -15.04 -9.92 0
v -15.36 -9.92 0
v -15.36 -9.599999 0
v -15.04 -9.599999 0
v -15.36 -9.92 0
v -15.68 -9.92 0
v -15.68 -9.599999 0
v -15.36 -9.599999 0
v -15.68 -9.92 0
v -16 -9.92 0
v -16 -9.599999 0
v -15.68 -9.599999 0
v -16 -9.92 0
v -16.32 -9.92 0
v -16.32 -9.599999 0
v -16 -9.599999 0
v -14.4 -10.24 0
v -14.72 -10.24 0
v -14.72 -9.92 0
v -14.4 -9.92 0
v -14.72 -10.24 0
v -15.04 -10.24 0
v -15.04 -9.92 0
v -14.72 -9.92 0
v -15.04 -10.24 0
v -15.36 -10.24 0
v -15.36 -9.92 0
v -15.04 -9.92 0
v -15.36 -10.24 0
v -15.68 -10.24 0
v -15.68 -9.92 0
v -15.36 -9.92 0
v -15.68 -10.24 0
v -16 -10.24 0
v -16 -9.92 0
v -15.68 -9.92 0
v -16 -10.24 0
v -16.32 -10.24 0
v -16.32 -9.92 0
v -16 -9.92 0

# Texture cooridinates (Count = 8)
vt 0.25 0.8
vt 0.5 0.8
vt 0.5 1
vt 0.25 1
vt 0.75 0.6
vt 1 0.6
vt 1 0.8
vt 0.75 0.8

# Normal
vn 0 0 -1

# Mesh description
g Map_mesh_0005

# Faces
f 1/1/1 2/2/1 3/3/1 4/4/1
f 5/1/1 6/2/1 7/3/1 8/4/1
f 9/1/1 10/2/1 11/3/1 12/4/1
f 13/1/1 14/2/1 15/3/1 16/4/1
f 17/1/1 18/2/1 19/3/1 20/4/1
f 21/1/1 22/2/1 23/3/1 24/4/1
f 25/1/1 26/2/1 27/3/1 28/4/1
f 29/5/1 30/6/1 31/7/1 32/8/1
f 33/5/1 34/6/1 35/7/1 36/8/1
f 37/5/1 38/6/1 39/7/1 40/8/1
f 41/5/1 42/6/1 43/7/1 44/8/1
f 45/1/1 46/2/1 47/3/1 48/4/1
f 49/1/1 50/2/1 51/3/1 52/4/1
f 53/5/1 54/6/1 55/7/1 56/8/1
f 57/5/1 58/6/1 59/7/1 60/8/1
f 61/5/1 62/6/1 63/7/1 64/8/1
f 65/5/1 66/6/1 67/7/1 68/8/1
f 69/1/1 70/2/1 71/3/1 72/4/1
f 73/1/1 74/2/1 75/3/1 76/4/1
f 77/5/1 78/6/1 79/7/1 80/8/1
f 81/5/1 82/6/1 83/7/1 84/8/1
f 85/5/1 86/6/1 87/7/1 88/8/1
f 89/5/1 90/6/1 91/7/1 92/8/1
f 93/1/1 94/2/1 95/3/1 96/4/1
f 97/1/1 98/2/1 99/3/1 100/4/1
f 101/5/1 102/6/1 103/7/1 104/8/1
f 105/5/1 106/6/1 107/7/1 108/8/1
f 109/5/1 110/6/1 111/7/1 112/8/1
f 113/5/1 114/6/1 115/7/1 116/8/1
f 117/1/1 118/2/1 119/3/1 120/4/1
f 121/1/1 122/2/1 123/3/1 124/4/1
f 125/1/1 126/2/1 127/3/1 128/4/1
f 129/1/1 130/2/1 131/3/1 132/4/1
f 133/1/1 134/2/1 135/3/1 136/4/1
f 137/1/1 138/2/1 139/3/1 140/4/1
f 141/1/1 142/2/1 143/3/1 144/4/1

