# Tiled2Unity generated file. Do not modify by hand.
# Wavefront file for 'Map_mesh_0002.obj'

# Vertices (Count = 592)
v -3.52 -10.24 0
v -3.84 -10.24 0
v -3.84 -9.92 0
v -3.52 -9.92 0
v -3.84 -10.24 0
v -4.16 -10.24 0
v -4.16 -9.92 0
v -3.84 -9.92 0
v -4.16 -10.24 0
v -4.48 -10.24 0
v -4.48 -9.92 0
v -4.16 -9.92 0
v -4.48 -10.24 0
v -4.8 -10.24 0
v -4.8 -9.92 0
v -4.48 -9.92 0
v -4.8 -10.24 0
v -5.12 -10.24 0
v -5.12 -9.92 0
v -4.8 -9.92 0
v -5.12 -10.24 0
v -5.44 -10.24 0
v -5.44 -9.92 0
v -5.12 -9.92 0
v -5.44 -10.24 0
v -5.76 -10.24 0
v -5.76 -9.92 0
v -5.44 -9.92 0
v -3.52 -10.56 0
v -3.84 -10.56 0
v -3.84 -10.24 0
v -3.52 -10.24 0
v -3.84 -10.56 0
v -4.16 -10.56 0
v -4.16 -10.24 0
v -3.84 -10.24 0
v -4.16 -10.56 0
v -4.48 -10.56 0
v -4.48 -10.24 0
v -4.16 -10.24 0
v -4.48 -10.56 0
v -4.8 -10.56 0
v -4.8 -10.24 0
v -4.48 -10.24 0
v -4.8 -10.56 0
v -5.12 -10.56 0
v -5.12 -10.24 0
v -4.8 -10.24 0
v -5.12 -10.56 0
v -5.44 -10.56 0
v -5.44 -10.24 0
v -5.12 -10.24 0
v -5.44 -10.56 0
v -5.76 -10.56 0
v -5.76 -10.24 0
v -5.44 -10.24 0
v -5.76 -10.56 0
v -6.08 -10.56 0
v -6.08 -10.24 0
v -5.76 -10.24 0
v -6.08 -10.56 0
v -6.4 -10.56 0
v -6.4 -10.24 0
v -6.08 -10.24 0
v -6.4 -10.56 0
v -6.72 -10.56 0
v -6.72 -10.24 0
v -6.4 -10.24 0
v -2.88 -10.88 0
v -3.2 -10.88 0
v -3.2 -10.56 0
v -2.88 -10.56 0
v -3.2 -10.88 0
v -3.52 -10.88 0
v -3.52 -10.56 0
v -3.2 -10.56 0
v -3.52 -10.88 0
v -3.84 -10.88 0
v -3.84 -10.56 0
v -3.52 -10.56 0
v -3.84 -10.88 0
v -4.16 -10.88 0
v -4.16 -10.56 0
v -3.84 -10.56 0
v -4.16 -10.88 0
v -4.48 -10.88 0
v -4.48 -10.56 0
v -4.16 -10.56 0
v -4.48 -10.88 0
v -4.8 -10.88 0
v -4.8 -10.56 0
v -4.48 -10.56 0
v -4.8 -10.88 0
v -5.12 -10.88 0
v -5.12 -10.56 0
v -4.8 -10.56 0
v -5.12 -10.88 0
v -5.44 -10.88 0
v -5.44 -10.56 0
v -5.12 -10.56 0
v -5.44 -10.88 0
v -5.76 -10.88 0
v -5.76 -10.56 0
v -5.44 -10.56 0
v -5.76 -10.88 0
v -6.08 -10.88 0
v -6.08 -10.56 0
v -5.76 -10.56 0
v -6.08 -10.88 0
v -6.4 -10.88 0
v -6.4 -10.56 0
v -6.08 -10.56 0
v -6.4 -10.88 0
v -6.72 -10.88 0
v -6.72 -10.56 0
v -6.4 -10.56 0
v -6.72 -10.88 0
v -7.04 -10.88 0
v -7.04 -10.56 0
v -6.72 -10.56 0
v -7.04 -10.88 0
v -7.36 -10.88 0
v -7.36 -10.56 0
v -7.04 -10.56 0
v -2.56 -11.2 0
v -2.88 -11.2 0
v -2.88 -10.88 0
v -2.56 -10.88 0
v -2.88 -11.2 0
v -3.2 -11.2 0
v -3.2 -10.88 0
v -2.88 -10.88 0
v -3.2 -11.2 0
v -3.52 -11.2 0
v -3.52 -10.88 0
v -3.2 -10.88 0
v -3.52 -11.2 0
v -3.84 -11.2 0
v -3.84 -10.88 0
v -3.52 -10.88 0
v -3.84 -11.2 0
v -4.16 -11.2 0
v -4.16 -10.88 0
v -3.84 -10.88 0
v -4.16 -11.2 0
v -4.48 -11.2 0
v -4.48 -10.88 0
v -4.16 -10.88 0
v -4.48 -11.2 0
v -4.8 -11.2 0
v -4.8 -10.88 0
v -4.48 -10.88 0
v -4.8 -11.2 0
v -5.12 -11.2 0
v -5.12 -10.88 0
v -4.8 -10.88 0
v -5.12 -11.2 0
v -5.44 -11.2 0
v -5.44 -10.88 0
v -5.12 -10.88 0
v -5.44 -11.2 0
v -5.76 -11.2 0
v -5.76 -10.88 0
v -5.44 -10.88 0
v -5.76 -11.2 0
v -6.08 -11.2 0
v -6.08 -10.88 0
v -5.76 -10.88 0
v -6.08 -11.2 0
v -6.4 -11.2 0
v -6.4 -10.88 0
v -6.08 -10.88 0
v -6.4 -11.2 0
v -6.72 -11.2 0
v -6.72 -10.88 0
v -6.4 -10.88 0
v -6.72 -11.2 0
v -7.04 -11.2 0
v -7.04 -10.88 0
v -6.72 -10.88 0
v -7.04 -11.2 0
v -7.36 -11.2 0
v -7.36 -10.88 0
v -7.04 -10.88 0
v -2.56 -11.52 0
v -2.88 -11.52 0
v -2.88 -11.2 0
v -2.56 -11.2 0
v -2.88 -11.52 0
v -3.2 -11.52 0
v -3.2 -11.2 0
v -2.88 -11.2 0
v -3.2 -11.52 0
v -3.52 -11.52 0
v -3.52 -11.2 0
v -3.2 -11.2 0
v -3.52 -11.52 0
v -3.84 -11.52 0
v -3.84 -11.2 0
v -3.52 -11.2 0
v -3.84 -11.52 0
v -4.16 -11.52 0
v -4.16 -11.2 0
v -3.84 -11.2 0
v -4.16 -11.52 0
v -4.48 -11.52 0
v -4.48 -11.2 0
v -4.16 -11.2 0
v -4.48 -11.52 0
v -4.8 -11.52 0
v -4.8 -11.2 0
v -4.48 -11.2 0
v -4.8 -11.52 0
v -5.12 -11.52 0
v -5.12 -11.2 0
v -4.8 -11.2 0
v -5.12 -11.52 0
v -5.44 -11.52 0
v -5.44 -11.2 0
v -5.12 -11.2 0
v -5.44 -11.52 0
v -5.76 -11.52 0
v -5.76 -11.2 0
v -5.44 -11.2 0
v -5.76 -11.52 0
v -6.08 -11.52 0
v -6.08 -11.2 0
v -5.76 -11.2 0
v -6.08 -11.52 0
v -6.4 -11.52 0
v -6.4 -11.2 0
v -6.08 -11.2 0
v -6.4 -11.52 0
v -6.72 -11.52 0
v -6.72 -11.2 0
v -6.4 -11.2 0
v -6.72 -11.52 0
v -7.04 -11.52 0
v -7.04 -11.2 0
v -6.72 -11.2 0
v -7.04 -11.52 0
v -7.36 -11.52 0
v -7.36 -11.2 0
v -7.04 -11.2 0
v -7.36 -11.52 0
v -7.68 -11.52 0
v -7.68 -11.2 0
v -7.36 -11.2 0
v -7.68 -11.52 0
v -8 -11.52 0
v -8 -11.2 0
v -7.68 -11.2 0
v -8 -11.52 0
v -8.32 -11.52 0
v -8.32 -11.2 0
v -8 -11.2 0
v -8.32 -11.52 0
v -8.639999 -11.52 0
v -8.639999 -11.2 0
v -8.32 -11.2 0
v -2.56 -11.84 0
v -2.88 -11.84 0
v -2.88 -11.52 0
v -2.56 -11.52 0
v -2.88 -11.84 0
v -3.2 -11.84 0
v -3.2 -11.52 0
v -2.88 -11.52 0
v -3.2 -11.84 0
v -3.52 -11.84 0
v -3.52 -11.52 0
v -3.2 -11.52 0
v -3.52 -11.84 0
v -3.84 -11.84 0
v -3.84 -11.52 0
v -3.52 -11.52 0
v -3.84 -11.84 0
v -4.16 -11.84 0
v -4.16 -11.52 0
v -3.84 -11.52 0
v -4.16 -11.84 0
v -4.48 -11.84 0
v -4.48 -11.52 0
v -4.16 -11.52 0
v -4.48 -11.84 0
v -4.8 -11.84 0
v -4.8 -11.52 0
v -4.48 -11.52 0
v -4.8 -11.84 0
v -5.12 -11.84 0
v -5.12 -11.52 0
v -4.8 -11.52 0
v -5.12 -11.84 0
v -5.44 -11.84 0
v -5.44 -11.52 0
v -5.12 -11.52 0
v -5.44 -11.84 0
v -5.76 -11.84 0
v -5.76 -11.52 0
v -5.44 -11.52 0
v -5.76 -11.84 0
v -6.08 -11.84 0
v -6.08 -11.52 0
v -5.76 -11.52 0
v -6.08 -11.84 0
v -6.4 -11.84 0
v -6.4 -11.52 0
v -6.08 -11.52 0
v -6.4 -11.84 0
v -6.72 -11.84 0
v -6.72 -11.52 0
v -6.4 -11.52 0
v -6.72 -11.84 0
v -7.04 -11.84 0
v -7.04 -11.52 0
v -6.72 -11.52 0
v -7.04 -11.84 0
v -7.36 -11.84 0
v -7.36 -11.52 0
v -7.04 -11.52 0
v -7.36 -11.84 0
v -7.68 -11.84 0
v -7.68 -11.52 0
v -7.36 -11.52 0
v -7.68 -11.84 0
v -8 -11.84 0
v -8 -11.52 0
v -7.68 -11.52 0
v -8 -11.84 0
v -8.32 -11.84 0
v -8.32 -11.52 0
v -8 -11.52 0
v -8.32 -11.84 0
v -8.639999 -11.84 0
v -8.639999 -11.52 0
v -8.32 -11.52 0
v -8.639999 -11.84 0
v -8.96 -11.84 0
v -8.96 -11.52 0
v -8.639999 -11.52 0
v -2.24 -12.16 0
v -2.56 -12.16 0
v -2.56 -11.84 0
v -2.24 -11.84 0
v -2.56 -12.16 0
v -2.88 -12.16 0
v -2.88 -11.84 0
v -2.56 -11.84 0
v -2.88 -12.16 0
v -3.2 -12.16 0
v -3.2 -11.84 0
v -2.88 -11.84 0
v -3.2 -12.16 0
v -3.52 -12.16 0
v -3.52 -11.84 0
v -3.2 -11.84 0
v -3.52 -12.16 0
v -3.84 -12.16 0
v -3.84 -11.84 0
v -3.52 -11.84 0
v -3.84 -12.16 0
v -4.16 -12.16 0
v -4.16 -11.84 0
v -3.84 -11.84 0
v -4.16 -12.16 0
v -4.48 -12.16 0
v -4.48 -11.84 0
v -4.16 -11.84 0
v -4.48 -12.16 0
v -4.8 -12.16 0
v -4.8 -11.84 0
v -4.48 -11.84 0
v -4.8 -12.16 0
v -5.12 -12.16 0
v -5.12 -11.84 0
v -4.8 -11.84 0
v -5.12 -12.16 0
v -5.44 -12.16 0
v -5.44 -11.84 0
v -5.12 -11.84 0
v -5.44 -12.16 0
v -5.76 -12.16 0
v -5.76 -11.84 0
v -5.44 -11.84 0
v -5.76 -12.16 0
v -6.08 -12.16 0
v -6.08 -11.84 0
v -5.76 -11.84 0
v -6.08 -12.16 0
v -6.4 -12.16 0
v -6.4 -11.84 0
v -6.08 -11.84 0
v -6.4 -12.16 0
v -6.72 -12.16 0
v -6.72 -11.84 0
v -6.4 -11.84 0
v -6.72 -12.16 0
v -7.04 -12.16 0
v -7.04 -11.84 0
v -6.72 -11.84 0
v -7.04 -12.16 0
v -7.36 -12.16 0
v -7.36 -11.84 0
v -7.04 -11.84 0
v -7.36 -12.16 0
v -7.68 -12.16 0
v -7.68 -11.84 0
v -7.36 -11.84 0
v -7.68 -12.16 0
v -8 -12.16 0
v -8 -11.84 0
v -7.68 -11.84 0
v -8 -12.16 0
v -8.32 -12.16 0
v -8.32 -11.84 0
v -8 -11.84 0
v -8.32 -12.16 0
v -8.639999 -12.16 0
v -8.639999 -11.84 0
v -8.32 -11.84 0
v -8.639999 -12.16 0
v -8.96 -12.16 0
v -8.96 -11.84 0
v -8.639999 -11.84 0
v -2.24 -12.48 0
v -2.56 -12.48 0
v -2.56 -12.16 0
v -2.24 -12.16 0
v -2.56 -12.48 0
v -2.88 -12.48 0
v -2.88 -12.16 0
v -2.56 -12.16 0
v -2.88 -12.48 0
v -3.2 -12.48 0
v -3.2 -12.16 0
v -2.88 -12.16 0
v -3.2 -12.48 0
v -3.52 -12.48 0
v -3.52 -12.16 0
v -3.2 -12.16 0
v -3.52 -12.48 0
v -3.84 -12.48 0
v -3.84 -12.16 0
v -3.52 -12.16 0
v -3.84 -12.48 0
v -4.16 -12.48 0
v -4.16 -12.16 0
v -3.84 -12.16 0
v -4.16 -12.48 0
v -4.48 -12.48 0
v -4.48 -12.16 0
v -4.16 -12.16 0
v -4.48 -12.48 0
v -4.8 -12.48 0
v -4.8 -12.16 0
v -4.48 -12.16 0
v -4.8 -12.48 0
v -5.12 -12.48 0
v -5.12 -12.16 0
v -4.8 -12.16 0
v -5.12 -12.48 0
v -5.44 -12.48 0
v -5.44 -12.16 0
v -5.12 -12.16 0
v -5.44 -12.48 0
v -5.76 -12.48 0
v -5.76 -12.16 0
v -5.44 -12.16 0
v -5.76 -12.48 0
v -6.08 -12.48 0
v -6.08 -12.16 0
v -5.76 -12.16 0
v -6.08 -12.48 0
v -6.4 -12.48 0
v -6.4 -12.16 0
v -6.08 -12.16 0
v -6.4 -12.48 0
v -6.72 -12.48 0
v -6.72 -12.16 0
v -6.4 -12.16 0
v -6.72 -12.48 0
v -7.04 -12.48 0
v -7.04 -12.16 0
v -6.72 -12.16 0
v -7.04 -12.48 0
v -7.36 -12.48 0
v -7.36 -12.16 0
v -7.04 -12.16 0
v -7.36 -12.48 0
v -7.68 -12.48 0
v -7.68 -12.16 0
v -7.36 -12.16 0
v -7.68 -12.48 0
v -8 -12.48 0
v -8 -12.16 0
v -7.68 -12.16 0
v -8 -12.48 0
v -8.32 -12.48 0
v -8.32 -12.16 0
v -8 -12.16 0
v -8.32 -12.48 0
v -8.639999 -12.48 0
v -8.639999 -12.16 0
v -8.32 -12.16 0
v -8.639999 -12.48 0
v -8.96 -12.48 0
v -8.96 -12.16 0
v -8.639999 -12.16 0
v -2.24 -12.8 0
v -2.56 -12.8 0
v -2.56 -12.48 0
v -2.24 -12.48 0
v -2.56 -12.8 0
v -2.88 -12.8 0
v -2.88 -12.48 0
v -2.56 -12.48 0
v -2.88 -12.8 0
v -3.2 -12.8 0
v -3.2 -12.48 0
v -2.88 -12.48 0
v -3.2 -12.8 0
v -3.52 -12.8 0
v -3.52 -12.48 0
v -3.2 -12.48 0
v -3.52 -12.8 0
v -3.84 -12.8 0
v -3.84 -12.48 0
v -3.52 -12.48 0
v -3.84 -12.8 0
v -4.16 -12.8 0
v -4.16 -12.48 0
v -3.84 -12.48 0
v -4.16 -12.8 0
v -4.48 -12.8 0
v -4.48 -12.48 0
v -4.16 -12.48 0
v -4.48 -12.8 0
v -4.8 -12.8 0
v -4.8 -12.48 0
v -4.48 -12.48 0
v -4.8 -12.8 0
v -5.12 -12.8 0
v -5.12 -12.48 0
v -4.8 -12.48 0
v -5.12 -12.8 0
v -5.44 -12.8 0
v -5.44 -12.48 0
v -5.12 -12.48 0
v -5.44 -12.8 0
v -5.76 -12.8 0
v -5.76 -12.48 0
v -5.44 -12.48 0
v -5.76 -12.8 0
v -6.08 -12.8 0
v -6.08 -12.48 0
v -5.76 -12.48 0
v -6.08 -12.8 0
v -6.4 -12.8 0
v -6.4 -12.48 0
v -6.08 -12.48 0
v -6.4 -12.8 0
v -6.72 -12.8 0
v -6.72 -12.48 0
v -6.4 -12.48 0
v -6.72 -12.8 0
v -7.04 -12.8 0
v -7.04 -12.48 0
v -6.72 -12.48 0
v -7.04 -12.8 0
v -7.36 -12.8 0
v -7.36 -12.48 0
v -7.04 -12.48 0
v -7.36 -12.8 0
v -7.68 -12.8 0
v -7.68 -12.48 0
v -7.36 -12.48 0
v -7.68 -12.8 0
v -8 -12.8 0
v -8 -12.48 0
v -7.68 -12.48 0
v -8 -12.8 0
v -8.32 -12.8 0
v -8.32 -12.48 0
v -8 -12.48 0
v -8.32 -12.8 0
v -8.639999 -12.8 0
v -8.639999 -12.48 0
v -8.32 -12.48 0
v -8.639999 -12.8 0
v -8.96 -12.8 0
v -8.96 -12.48 0
v -8.639999 -12.48 0

# Texture cooridinates (Count = 15)
vt 0 0.5
vt 0.3333333 0.5
vt 0.3333333 0.6666666
vt 0 0.6666666
vt 0.6666667 0.5
vt 0.6666667 0.6666666
vt 1 0.5
vt 1 0.6666666
vt 0 0.3333333
vt 0.3333333 0.3333333
vt 0.6666667 0.3333333
vt 0.6666667 0.8333333
vt 0.3333333 0.8333333
vt 1 0.8333333
vt 1 0.3333333

# Normal
vn 0 0 -1

# Mesh description
g Map_mesh_0002

# Faces
f 1/1/1 2/2/1 3/3/1 4/4/1
f 5/2/1 6/5/1 7/6/1 8/3/1
f 9/2/1 10/5/1 11/6/1 12/3/1
f 13/2/1 14/5/1 15/6/1 16/3/1
f 17/2/1 18/5/1 19/6/1 20/3/1
f 21/2/1 22/5/1 23/6/1 24/3/1
f 25/5/1 26/7/1 27/8/1 28/6/1
f 29/9/1 30/10/1 31/2/1 32/1/1
f 33/10/1 34/11/1 35/5/1 36/2/1
f 37/10/1 38/11/1 39/5/1 40/2/1
f 41/10/1 42/11/1 43/5/1 44/2/1
f 45/10/1 46/11/1 47/5/1 48/2/1
f 49/10/1 50/11/1 51/5/1 52/2/1
f 53/3/1 54/6/1 55/12/1 56/13/1
f 57/2/1 58/5/1 59/6/1 60/3/1
f 61/2/1 62/5/1 63/6/1 64/3/1
f 65/5/1 66/7/1 67/8/1 68/6/1
f 69/1/1 70/2/1 71/3/1 72/4/1
f 73/2/1 74/5/1 75/6/1 76/3/1
f 77/6/1 78/8/1 79/14/1 80/12/1
f 81/10/1 82/11/1 83/5/1 84/2/1
f 85/10/1 86/11/1 87/5/1 88/2/1
f 89/10/1 90/11/1 91/5/1 92/2/1
f 93/10/1 94/11/1 95/5/1 96/2/1
f 97/10/1 98/11/1 99/5/1 100/2/1
f 101/10/1 102/11/1 103/5/1 104/2/1
f 105/10/1 106/11/1 107/5/1 108/2/1
f 109/10/1 110/11/1 111/5/1 112/2/1
f 113/3/1 114/6/1 115/12/1 116/13/1
f 117/2/1 118/5/1 119/6/1 120/3/1
f 121/5/1 122/7/1 123/8/1 124/6/1
f 125/1/1 126/2/1 127/3/1 128/4/1
f 129/6/1 130/8/1 131/14/1 132/12/1
f 133/10/1 134/11/1 135/5/1 136/2/1
f 137/10/1 138/11/1 139/5/1 140/2/1
f 141/10/1 142/11/1 143/5/1 144/2/1
f 145/10/1 146/11/1 147/5/1 148/2/1
f 149/10/1 150/11/1 151/5/1 152/2/1
f 153/10/1 154/11/1 155/5/1 156/2/1
f 157/10/1 158/11/1 159/5/1 160/2/1
f 161/10/1 162/11/1 163/5/1 164/2/1
f 165/10/1 166/11/1 167/5/1 168/2/1
f 169/10/1 170/11/1 171/5/1 172/2/1
f 173/10/1 174/11/1 175/5/1 176/2/1
f 177/10/1 178/11/1 179/5/1 180/2/1
f 181/11/1 182/15/1 183/7/1 184/5/1
f 185/9/1 186/10/1 187/2/1 188/1/1
f 189/10/1 190/11/1 191/5/1 192/2/1
f 193/10/1 194/11/1 195/5/1 196/2/1
f 197/10/1 198/11/1 199/5/1 200/2/1
f 201/10/1 202/11/1 203/5/1 204/2/1
f 205/10/1 206/11/1 207/5/1 208/2/1
f 209/10/1 210/11/1 211/5/1 212/2/1
f 213/10/1 214/11/1 215/5/1 216/2/1
f 217/10/1 218/11/1 219/5/1 220/2/1
f 221/10/1 222/11/1 223/5/1 224/2/1
f 225/10/1 226/11/1 227/5/1 228/2/1
f 229/10/1 230/11/1 231/5/1 232/2/1
f 233/10/1 234/11/1 235/5/1 236/2/1
f 237/10/1 238/11/1 239/5/1 240/2/1
f 241/3/1 242/6/1 243/12/1 244/13/1
f 245/2/1 246/5/1 247/6/1 248/3/1
f 249/2/1 250/5/1 251/6/1 252/3/1
f 253/2/1 254/5/1 255/6/1 256/3/1
f 257/5/1 258/7/1 259/8/1 260/6/1
f 261/9/1 262/10/1 263/2/1 264/1/1
f 265/10/1 266/11/1 267/5/1 268/2/1
f 269/10/1 270/11/1 271/5/1 272/2/1
f 273/10/1 274/11/1 275/5/1 276/2/1
f 277/10/1 278/11/1 279/5/1 280/2/1
f 281/10/1 282/11/1 283/5/1 284/2/1
f 285/10/1 286/11/1 287/5/1 288/2/1
f 289/10/1 290/11/1 291/5/1 292/2/1
f 293/10/1 294/11/1 295/5/1 296/2/1
f 297/10/1 298/11/1 299/5/1 300/2/1
f 301/10/1 302/11/1 303/5/1 304/2/1
f 305/10/1 306/11/1 307/5/1 308/2/1
f 309/10/1 310/11/1 311/5/1 312/2/1
f 313/10/1 314/11/1 315/5/1 316/2/1
f 317/10/1 318/11/1 319/5/1 320/2/1
f 321/10/1 322/11/1 323/5/1 324/2/1
f 325/10/1 326/11/1 327/5/1 328/2/1
f 329/10/1 330/11/1 331/5/1 332/2/1
f 333/3/1 334/6/1 335/12/1 336/13/1
f 337/5/1 338/7/1 339/8/1 340/6/1
f 341/1/1 342/2/1 343/3/1 344/4/1
f 345/6/1 346/8/1 347/14/1 348/12/1
f 349/10/1 350/11/1 351/5/1 352/2/1
f 353/10/1 354/11/1 355/5/1 356/2/1
f 357/10/1 358/11/1 359/5/1 360/2/1
f 361/10/1 362/11/1 363/5/1 364/2/1
f 365/10/1 366/11/1 367/5/1 368/2/1
f 369/10/1 370/11/1 371/5/1 372/2/1
f 373/10/1 374/11/1 375/5/1 376/2/1
f 377/10/1 378/11/1 379/5/1 380/2/1
f 381/10/1 382/11/1 383/5/1 384/2/1
f 385/10/1 386/11/1 387/5/1 388/2/1
f 389/10/1 390/11/1 391/5/1 392/2/1
f 393/10/1 394/11/1 395/5/1 396/2/1
f 397/10/1 398/11/1 399/5/1 400/2/1
f 401/10/1 402/11/1 403/5/1 404/2/1
f 405/10/1 406/11/1 407/5/1 408/2/1
f 409/10/1 410/11/1 411/5/1 412/2/1
f 413/10/1 414/11/1 415/5/1 416/2/1
f 417/10/1 418/11/1 419/5/1 420/2/1
f 421/11/1 422/15/1 423/7/1 424/5/1
f 425/9/1 426/10/1 427/2/1 428/1/1
f 429/10/1 430/11/1 431/5/1 432/2/1
f 433/10/1 434/11/1 435/5/1 436/2/1
f 437/10/1 438/11/1 439/5/1 440/2/1
f 441/10/1 442/11/1 443/5/1 444/2/1
f 445/10/1 446/11/1 447/5/1 448/2/1
f 449/10/1 450/11/1 451/5/1 452/2/1
f 453/10/1 454/11/1 455/5/1 456/2/1
f 457/10/1 458/11/1 459/5/1 460/2/1
f 461/10/1 462/11/1 463/5/1 464/2/1
f 465/10/1 466/11/1 467/5/1 468/2/1
f 469/10/1 470/11/1 471/5/1 472/2/1
f 473/10/1 474/11/1 475/5/1 476/2/1
f 477/10/1 478/11/1 479/5/1 480/2/1
f 481/10/1 482/11/1 483/5/1 484/2/1
f 485/10/1 486/11/1 487/5/1 488/2/1
f 489/10/1 490/11/1 491/5/1 492/2/1
f 493/10/1 494/11/1 495/5/1 496/2/1
f 497/10/1 498/11/1 499/5/1 500/2/1
f 501/10/1 502/11/1 503/5/1 504/2/1
f 505/11/1 506/15/1 507/7/1 508/5/1
f 509/9/1 510/10/1 511/2/1 512/1/1
f 513/10/1 514/11/1 515/5/1 516/2/1
f 517/10/1 518/11/1 519/5/1 520/2/1
f 521/10/1 522/11/1 523/5/1 524/2/1
f 525/10/1 526/11/1 527/5/1 528/2/1
f 529/10/1 530/11/1 531/5/1 532/2/1
f 533/10/1 534/11/1 535/5/1 536/2/1
f 537/10/1 538/11/1 539/5/1 540/2/1
f 541/10/1 542/11/1 543/5/1 544/2/1
f 545/10/1 546/11/1 547/5/1 548/2/1
f 549/10/1 550/11/1 551/5/1 552/2/1
f 553/10/1 554/11/1 555/5/1 556/2/1
f 557/10/1 558/11/1 559/5/1 560/2/1
f 561/10/1 562/11/1 563/5/1 564/2/1
f 565/10/1 566/11/1 567/5/1 568/2/1
f 569/10/1 570/11/1 571/5/1 572/2/1
f 573/10/1 574/11/1 575/5/1 576/2/1
f 577/10/1 578/11/1 579/5/1 580/2/1
f 581/10/1 582/11/1 583/5/1 584/2/1
f 585/10/1 586/11/1 587/5/1 588/2/1
f 589/11/1 590/15/1 591/7/1 592/5/1

