# Tiled2Unity generated file. Do not modify by hand.
# Wavefront file for 'map2_mesh_0007.obj'

# Vertices (Count = 132)
v -2.56 -0.32 0
v -2.88 -0.32 0
v -2.88 0 0
v -2.56 0 0
v -2.88 -0.32 0
v -3.2 -0.32 0
v -3.2 0 0
v -2.88 0 0
v -3.2 -0.32 0
v -3.52 -0.32 0
v -3.52 0 0
v -3.2 0 0
v -2.24 -0.64 0
v -2.56 -0.64 0
v -2.56 -0.32 0
v -2.24 -0.32 0
v -2.56 -0.64 0
v -2.88 -0.64 0
v -2.88 -0.32 0
v -2.56 -0.32 0
v -2.88 -0.64 0
v -3.2 -0.64 0
v -3.2 -0.32 0
v -2.88 -0.32 0
v -3.2 -0.64 0
v -3.52 -0.64 0
v -3.52 -0.32 0
v -3.2 -0.32 0
v -3.52 -0.64 0
v -3.84 -0.64 0
v -3.84 -0.32 0
v -3.52 -0.32 0
v -2.24 -0.96 0
v -2.56 -0.96 0
v -2.56 -0.64 0
v -2.24 -0.64 0
v -2.56 -0.96 0
v -2.88 -0.96 0
v -2.88 -0.64 0
v -2.56 -0.64 0
v -2.88 -0.96 0
v -3.2 -0.96 0
v -3.2 -0.64 0
v -2.88 -0.64 0
v -3.2 -0.96 0
v -3.52 -0.96 0
v -3.52 -0.64 0
v -3.2 -0.64 0
v -3.52 -0.96 0
v -3.84 -0.96 0
v -3.84 -0.64 0
v -3.52 -0.64 0
v -2.24 -1.28 0
v -2.56 -1.28 0
v -2.56 -0.96 0
v -2.24 -0.96 0
v -2.56 -1.28 0
v -2.88 -1.28 0
v -2.88 -0.96 0
v -2.56 -0.96 0
v -2.88 -1.28 0
v -3.2 -1.28 0
v -3.2 -0.96 0
v -2.88 -0.96 0
v -3.2 -1.28 0
v -3.52 -1.28 0
v -3.52 -0.96 0
v -3.2 -0.96 0
v -3.52 -1.28 0
v -3.84 -1.28 0
v -3.84 -0.96 0
v -3.52 -0.96 0
v -2.24 -1.6 0
v -2.56 -1.6 0
v -2.56 -1.28 0
v -2.24 -1.28 0
v -2.56 -1.6 0
v -2.88 -1.6 0
v -2.88 -1.28 0
v -2.56 -1.28 0
v -2.88 -1.6 0
v -3.2 -1.6 0
v -3.2 -1.28 0
v -2.88 -1.28 0
v -3.2 -1.6 0
v -3.52 -1.6 0
v -3.52 -1.28 0
v -3.2 -1.28 0
v -3.52 -1.6 0
v -3.84 -1.6 0
v -3.84 -1.28 0
v -3.52 -1.28 0
v -2.24 -1.92 0
v -2.56 -1.92 0
v -2.56 -1.6 0
v -2.24 -1.6 0
v -2.56 -1.92 0
v -2.88 -1.92 0
v -2.88 -1.6 0
v -2.56 -1.6 0
v -2.88 -1.92 0
v -3.2 -1.92 0
v -3.2 -1.6 0
v -2.88 -1.6 0
v -3.2 -1.92 0
v -3.52 -1.92 0
v -3.52 -1.6 0
v -3.2 -1.6 0
v -3.52 -1.92 0
v -3.84 -1.92 0
v -3.84 -1.6 0
v -3.52 -1.6 0
v -2.24 -2.24 0
v -2.56 -2.24 0
v -2.56 -1.92 0
v -2.24 -1.92 0
v -2.56 -2.24 0
v -2.88 -2.24 0
v -2.88 -1.92 0
v -2.56 -1.92 0
v -2.88 -2.24 0
v -3.2 -2.24 0
v -3.2 -1.92 0
v -2.88 -1.92 0
v -3.2 -2.24 0
v -3.52 -2.24 0
v -3.52 -1.92 0
v -3.2 -1.92 0
v -3.52 -2.24 0
v -3.84 -2.24 0
v -3.84 -1.92 0
v -3.52 -1.92 0

# Texture cooridinates (Count = 34)
vt 0 0.8125
vt 0.03125 0.8125
vt 0.03125 0.84375
vt 0 0.84375
vt 0.0625 0.8125
vt 0.0625 0.84375
vt 0.09375 0.8125
vt 0.09375 0.84375
vt 0 0.78125
vt 0.03125 0.78125
vt 0.03125 0.71875
vt 0.0625 0.71875
vt 0.0625 0.75
vt 0.03125 0.75
vt 0.0625 0.78125
vt 0.09375 0.78125
vt 0 0.75
vt 0.09375 0.75
vt 0 0.90625
vt 0.03125 0.90625
vt 0.03125 0.9375
vt 0 0.9375
vt 0.0625 0.90625
vt 0.0625 0.9375
vt 0.09375 0.90625
vt 0.09375 0.9375
vt 0 0.875
vt 0.03125 0.875
vt 0.0625 0.875
vt 0 0.96875
vt 0.03125 0.96875
vt 0.03125 1
vt 0 1
vt 0.09375 0.875

# Normal
vn 0 0 -1

# Mesh description
g map2_mesh_0007

# Faces
f 1/1/1 2/2/1 3/3/1 4/4/1
f 5/2/1 6/5/1 7/6/1 8/3/1
f 9/5/1 10/7/1 11/8/1 12/6/1
f 13/1/1 14/2/1 15/3/1 16/4/1
f 17/9/1 18/10/1 19/2/1 20/1/1
f 21/11/1 22/12/1 23/13/1 24/14/1
f 25/15/1 26/16/1 27/7/1 28/5/1
f 29/5/1 30/7/1 31/8/1 32/6/1
f 33/9/1 34/10/1 35/2/1 36/1/1
f 37/17/1 38/14/1 39/10/1 40/9/1
f 41/14/1 42/13/1 43/15/1 44/10/1
f 45/13/1 46/18/1 47/16/1 48/15/1
f 49/15/1 50/16/1 51/7/1 52/5/1
f 53/17/1 54/14/1 55/10/1 56/9/1
f 57/14/1 58/13/1 59/15/1 60/10/1
f 61/14/1 62/13/1 63/15/1 64/10/1
f 65/14/1 66/13/1 67/15/1 68/10/1
f 69/13/1 70/18/1 71/16/1 72/15/1
f 73/19/1 74/20/1 75/21/1 76/22/1
f 77/20/1 78/23/1 79/24/1 80/21/1
f 81/20/1 82/23/1 83/24/1 84/21/1
f 85/20/1 86/23/1 87/24/1 88/21/1
f 89/23/1 90/25/1 91/26/1 92/24/1
f 93/27/1 94/28/1 95/20/1 96/19/1
f 97/28/1 98/29/1 99/23/1 100/20/1
f 101/30/1 102/31/1 103/32/1 104/33/1
f 105/28/1 106/29/1 107/23/1 108/20/1
f 109/29/1 110/34/1 111/25/1 112/23/1
f 113/4/1 114/3/1 115/28/1 116/27/1
f 117/3/1 118/6/1 119/29/1 120/28/1
f 121/22/1 122/21/1 123/31/1 124/30/1
f 125/3/1 126/6/1 127/29/1 128/28/1
f 129/6/1 130/8/1 131/34/1 132/29/1

