# Tiled2Unity generated file. Do not modify by hand.
# Wavefront file for 'map2_mesh_0008.obj'

# Vertices (Count = 360)
v -6.4 -0.32 0
v -6.72 -0.32 0
v -6.72 0 0
v -6.4 0 0
v -6.72 -0.32 0
v -7.04 -0.32 0
v -7.04 0 0
v -6.72 0 0
v -7.04 -0.32 0
v -7.36 -0.32 0
v -7.36 0 0
v -7.04 0 0
v -7.36 -0.32 0
v -7.68 -0.32 0
v -7.68 0 0
v -7.36 0 0
v -7.68 -0.32 0
v -8 -0.32 0
v -8 0 0
v -7.68 0 0
v -8 -0.32 0
v -8.32 -0.32 0
v -8.32 0 0
v -8 0 0
v -8.32 -0.32 0
v -8.639999 -0.32 0
v -8.639999 0 0
v -8.32 0 0
v -8.639999 -0.32 0
v -8.96 -0.32 0
v -8.96 0 0
v -8.639999 0 0
v -8.96 -0.32 0
v -9.28 -0.32 0
v -9.28 0 0
v -8.96 0 0
v -6.4 -0.64 0
v -6.72 -0.64 0
v -6.72 -0.32 0
v -6.4 -0.32 0
v -6.72 -0.64 0
v -7.04 -0.64 0
v -7.04 -0.32 0
v -6.72 -0.32 0
v -7.04 -0.64 0
v -7.36 -0.64 0
v -7.36 -0.32 0
v -7.04 -0.32 0
v -7.36 -0.64 0
v -7.68 -0.64 0
v -7.68 -0.32 0
v -7.36 -0.32 0
v -7.68 -0.64 0
v -8 -0.64 0
v -8 -0.32 0
v -7.68 -0.32 0
v -8 -0.64 0
v -8.32 -0.64 0
v -8.32 -0.32 0
v -8 -0.32 0
v -8.32 -0.64 0
v -8.639999 -0.64 0
v -8.639999 -0.32 0
v -8.32 -0.32 0
v -8.639999 -0.64 0
v -8.96 -0.64 0
v -8.96 -0.32 0
v -8.639999 -0.32 0
v -8.96 -0.64 0
v -9.28 -0.64 0
v -9.28 -0.32 0
v -8.96 -0.32 0
v -6.4 -0.96 0
v -6.72 -0.96 0
v -6.72 -0.64 0
v -6.4 -0.64 0
v -6.72 -0.96 0
v -7.04 -0.96 0
v -7.04 -0.64 0
v -6.72 -0.64 0
v -7.04 -0.96 0
v -7.36 -0.96 0
v -7.36 -0.64 0
v -7.04 -0.64 0
v -7.36 -0.96 0
v -7.68 -0.96 0
v -7.68 -0.64 0
v -7.36 -0.64 0
v -7.68 -0.96 0
v -8 -0.96 0
v -8 -0.64 0
v -7.68 -0.64 0
v -8 -0.96 0
v -8.32 -0.96 0
v -8.32 -0.64 0
v -8 -0.64 0
v -8.32 -0.96 0
v -8.639999 -0.96 0
v -8.639999 -0.64 0
v -8.32 -0.64 0
v -8.639999 -0.96 0
v -8.96 -0.96 0
v -8.96 -0.64 0
v -8.639999 -0.64 0
v -8.96 -0.96 0
v -9.28 -0.96 0
v -9.28 -0.64 0
v -8.96 -0.64 0
v -6.4 -1.28 0
v -6.72 -1.28 0
v -6.72 -0.96 0
v -6.4 -0.96 0
v -6.72 -1.28 0
v -7.04 -1.28 0
v -7.04 -0.96 0
v -6.72 -0.96 0
v -7.04 -1.28 0
v -7.36 -1.28 0
v -7.36 -0.96 0
v -7.04 -0.96 0
v -7.36 -1.28 0
v -7.68 -1.28 0
v -7.68 -0.96 0
v -7.36 -0.96 0
v -7.68 -1.28 0
v -8 -1.28 0
v -8 -0.96 0
v -7.68 -0.96 0
v -8 -1.28 0
v -8.32 -1.28 0
v -8.32 -0.96 0
v -8 -0.96 0
v -8.32 -1.28 0
v -8.639999 -1.28 0
v -8.639999 -0.96 0
v -8.32 -0.96 0
v -8.639999 -1.28 0
v -8.96 -1.28 0
v -8.96 -0.96 0
v -8.639999 -0.96 0
v -8.96 -1.28 0
v -9.28 -1.28 0
v -9.28 -0.96 0
v -8.96 -0.96 0
v -6.4 -1.6 0
v -6.72 -1.6 0
v -6.72 -1.28 0
v -6.4 -1.28 0
v -6.72 -1.6 0
v -7.04 -1.6 0
v -7.04 -1.28 0
v -6.72 -1.28 0
v -7.04 -1.6 0
v -7.36 -1.6 0
v -7.36 -1.28 0
v -7.04 -1.28 0
v -7.36 -1.6 0
v -7.68 -1.6 0
v -7.68 -1.28 0
v -7.36 -1.28 0
v -7.68 -1.6 0
v -8 -1.6 0
v -8 -1.28 0
v -7.68 -1.28 0
v -8 -1.6 0
v -8.32 -1.6 0
v -8.32 -1.28 0
v -8 -1.28 0
v -8.32 -1.6 0
v -8.639999 -1.6 0
v -8.639999 -1.28 0
v -8.32 -1.28 0
v -8.639999 -1.6 0
v -8.96 -1.6 0
v -8.96 -1.28 0
v -8.639999 -1.28 0
v -8.96 -1.6 0
v -9.28 -1.6 0
v -9.28 -1.28 0
v -8.96 -1.28 0
v -6.4 -1.92 0
v -6.72 -1.92 0
v -6.72 -1.6 0
v -6.4 -1.6 0
v -6.72 -1.92 0
v -7.04 -1.92 0
v -7.04 -1.6 0
v -6.72 -1.6 0
v -7.04 -1.92 0
v -7.36 -1.92 0
v -7.36 -1.6 0
v -7.04 -1.6 0
v -7.36 -1.92 0
v -7.68 -1.92 0
v -7.68 -1.6 0
v -7.36 -1.6 0
v -7.68 -1.92 0
v -8 -1.92 0
v -8 -1.6 0
v -7.68 -1.6 0
v -8 -1.92 0
v -8.32 -1.92 0
v -8.32 -1.6 0
v -8 -1.6 0
v -8.32 -1.92 0
v -8.639999 -1.92 0
v -8.639999 -1.6 0
v -8.32 -1.6 0
v -8.639999 -1.92 0
v -8.96 -1.92 0
v -8.96 -1.6 0
v -8.639999 -1.6 0
v -8.96 -1.92 0
v -9.28 -1.92 0
v -9.28 -1.6 0
v -8.96 -1.6 0
v -6.4 -2.24 0
v -6.72 -2.24 0
v -6.72 -1.92 0
v -6.4 -1.92 0
v -6.72 -2.24 0
v -7.04 -2.24 0
v -7.04 -1.92 0
v -6.72 -1.92 0
v -7.04 -2.24 0
v -7.36 -2.24 0
v -7.36 -1.92 0
v -7.04 -1.92 0
v -7.36 -2.24 0
v -7.68 -2.24 0
v -7.68 -1.92 0
v -7.36 -1.92 0
v -7.68 -2.24 0
v -8 -2.24 0
v -8 -1.92 0
v -7.68 -1.92 0
v -8 -2.24 0
v -8.32 -2.24 0
v -8.32 -1.92 0
v -8 -1.92 0
v -8.32 -2.24 0
v -8.639999 -2.24 0
v -8.639999 -1.92 0
v -8.32 -1.92 0
v -8.639999 -2.24 0
v -8.96 -2.24 0
v -8.96 -1.92 0
v -8.639999 -1.92 0
v -8.96 -2.24 0
v -9.28 -2.24 0
v -9.28 -1.92 0
v -8.96 -1.92 0
v -6.4 -2.56 0
v -6.72 -2.56 0
v -6.72 -2.24 0
v -6.4 -2.24 0
v -6.72 -2.56 0
v -7.04 -2.56 0
v -7.04 -2.24 0
v -6.72 -2.24 0
v -7.04 -2.56 0
v -7.36 -2.56 0
v -7.36 -2.24 0
v -7.04 -2.24 0
v -7.36 -2.56 0
v -7.68 -2.56 0
v -7.68 -2.24 0
v -7.36 -2.24 0
v -7.68 -2.56 0
v -8 -2.56 0
v -8 -2.24 0
v -7.68 -2.24 0
v -8 -2.56 0
v -8.32 -2.56 0
v -8.32 -2.24 0
v -8 -2.24 0
v -8.32 -2.56 0
v -8.639999 -2.56 0
v -8.639999 -2.24 0
v -8.32 -2.24 0
v -8.639999 -2.56 0
v -8.96 -2.56 0
v -8.96 -2.24 0
v -8.639999 -2.24 0
v -8.96 -2.56 0
v -9.28 -2.56 0
v -9.28 -2.24 0
v -8.96 -2.24 0
v -6.4 -2.88 0
v -6.72 -2.88 0
v -6.72 -2.56 0
v -6.4 -2.56 0
v -6.72 -2.88 0
v -7.04 -2.88 0
v -7.04 -2.56 0
v -6.72 -2.56 0
v -7.04 -2.88 0
v -7.36 -2.88 0
v -7.36 -2.56 0
v -7.04 -2.56 0
v -7.36 -2.88 0
v -7.68 -2.88 0
v -7.68 -2.56 0
v -7.36 -2.56 0
v -7.68 -2.88 0
v -8 -2.88 0
v -8 -2.56 0
v -7.68 -2.56 0
v -8 -2.88 0
v -8.32 -2.88 0
v -8.32 -2.56 0
v -8 -2.56 0
v -8.32 -2.88 0
v -8.639999 -2.88 0
v -8.639999 -2.56 0
v -8.32 -2.56 0
v -8.639999 -2.88 0
v -8.96 -2.88 0
v -8.96 -2.56 0
v -8.639999 -2.56 0
v -8.96 -2.88 0
v -9.28 -2.88 0
v -9.28 -2.56 0
v -8.96 -2.56 0
v -6.4 -3.2 0
v -6.72 -3.2 0
v -6.72 -2.88 0
v -6.4 -2.88 0
v -6.72 -3.2 0
v -7.04 -3.2 0
v -7.04 -2.88 0
v -6.72 -2.88 0
v -7.04 -3.2 0
v -7.36 -3.2 0
v -7.36 -2.88 0
v -7.04 -2.88 0
v -7.36 -3.2 0
v -7.68 -3.2 0
v -7.68 -2.88 0
v -7.36 -2.88 0
v -7.68 -3.2 0
v -8 -3.2 0
v -8 -2.88 0
v -7.68 -2.88 0
v -8 -3.2 0
v -8.32 -3.2 0
v -8.32 -2.88 0
v -8 -2.88 0
v -8.32 -3.2 0
v -8.639999 -3.2 0
v -8.639999 -2.88 0
v -8.32 -2.88 0
v -8.639999 -3.2 0
v -8.96 -3.2 0
v -8.96 -2.88 0
v -8.639999 -2.88 0
v -8.96 -3.2 0
v -9.28 -3.2 0
v -9.28 -2.88 0
v -8.96 -2.88 0

# Texture cooridinates (Count = 49)
vt 0 0.2857143
vt 0.1111111 0.2857143
vt 0.1111111 0.4285714
vt 0 0.4285714
vt 0.3333333 0.2857143
vt 0.4444444 0.2857143
vt 0.4444444 0.4285714
vt 0.3333333 0.4285714
vt 0.5555556 0.2857143
vt 0.5555556 0.4285714
vt 0.6666667 0.2857143
vt 0.6666667 0.4285714
vt 0.2222222 0.2857143
vt 0.2222222 0.4285714
vt 0.3333333 0
vt 0.4444444 0
vt 0.4444444 0.1428571
vt 0.3333333 0.1428571
vt 0.5555556 0
vt 0.5555556 0.1428571
vt 0.6666667 0
vt 0.6666667 0.1428571
vt 0.1111111 0.1428571
vt 0 0.1428571
vt 0 0
vt 0.1111111 0
vt 0.2222222 0.1428571
vt 0 0.8571429
vt 0.1111111 0.8571429
vt 0.1111111 1
vt 0 1
vt 0.2222222 0.8571429
vt 0.2222222 1
vt 0.3333333 0.8571429
vt 0.3333333 1
vt 0 0.7142857
vt 0.1111111 0.7142857
vt 0.2222222 0.7142857
vt 0.3333333 0.7142857
vt 0.5555556 0.8571429
vt 0.6666667 0.8571429
vt 0.6666667 1
vt 0.5555556 1
vt 0 0.5714285
vt 0.1111111 0.5714285
vt 0.2222222 0.5714285
vt 0.5555556 0.7142857
vt 0.6666667 0.7142857
vt 0.3333333 0.5714285

# Normal
vn 0 0 -1

# Mesh description
g map2_mesh_0008

# Faces
f 1/1/1 2/2/1 3/3/1 4/4/1
f 5/1/1 6/2/1 7/3/1 8/4/1
f 9/1/1 10/2/1 11/3/1 12/4/1
f 13/5/1 14/6/1 15/7/1 16/8/1
f 17/6/1 18/9/1 19/10/1 20/7/1
f 21/9/1 22/11/1 23/12/1 24/10/1
f 25/13/1 26/5/1 27/8/1 28/14/1
f 29/13/1 30/5/1 31/8/1 32/14/1
f 33/13/1 34/5/1 35/8/1 36/14/1
f 37/1/1 38/2/1 39/3/1 40/4/1
f 41/1/1 42/2/1 43/3/1 44/4/1
f 45/1/1 46/2/1 47/3/1 48/4/1
f 49/15/1 50/16/1 51/17/1 52/18/1
f 53/16/1 54/19/1 55/20/1 56/17/1
f 57/19/1 58/21/1 59/22/1 60/20/1
f 61/13/1 62/5/1 63/8/1 64/14/1
f 65/13/1 66/5/1 67/8/1 68/14/1
f 69/13/1 70/5/1 71/8/1 72/14/1
f 73/1/1 74/2/1 75/3/1 76/4/1
f 77/1/1 78/2/1 79/3/1 80/4/1
f 81/1/1 82/2/1 83/3/1 84/4/1
f 85/18/1 86/17/1 87/6/1 88/5/1
f 89/17/1 90/20/1 91/9/1 92/6/1
f 93/20/1 94/22/1 95/11/1 96/9/1
f 97/13/1 98/5/1 99/8/1 100/14/1
f 101/13/1 102/5/1 103/8/1 104/14/1
f 105/13/1 106/5/1 107/8/1 108/14/1
f 109/1/1 110/2/1 111/3/1 112/4/1
f 113/1/1 114/2/1 115/3/1 116/4/1
f 117/23/1 118/24/1 119/25/1 120/26/1
f 121/23/1 122/27/1 123/13/1 124/2/1
f 125/23/1 126/27/1 127/13/1 128/2/1
f 129/23/1 130/27/1 131/13/1 132/2/1
f 133/27/1 134/18/1 135/5/1 136/13/1
f 137/13/1 138/5/1 139/8/1 140/14/1
f 141/13/1 142/5/1 143/8/1 144/14/1
f 145/1/1 146/2/1 147/3/1 148/4/1
f 149/24/1 150/23/1 151/2/1 152/1/1
f 153/23/1 154/27/1 155/13/1 156/2/1
f 157/23/1 158/27/1 159/13/1 160/2/1
f 161/23/1 162/27/1 163/13/1 164/2/1
f 165/23/1 166/27/1 167/13/1 168/2/1
f 169/23/1 170/27/1 171/13/1 172/2/1
f 173/27/1 174/18/1 175/5/1 176/13/1
f 177/13/1 178/5/1 179/8/1 180/14/1
f 181/24/1 182/23/1 183/2/1 184/1/1
f 185/23/1 186/27/1 187/13/1 188/2/1
f 189/23/1 190/27/1 191/13/1 192/2/1
f 193/23/1 194/27/1 195/13/1 196/2/1
f 197/23/1 198/27/1 199/13/1 200/2/1
f 201/23/1 202/27/1 203/13/1 204/2/1
f 205/23/1 206/27/1 207/13/1 208/2/1
f 209/23/1 210/27/1 211/13/1 212/2/1
f 213/27/1 214/18/1 215/5/1 216/13/1
f 217/28/1 218/29/1 219/30/1 220/31/1
f 221/29/1 222/32/1 223/33/1 224/30/1
f 225/29/1 226/32/1 227/33/1 228/30/1
f 229/29/1 230/32/1 231/33/1 232/30/1
f 233/29/1 234/32/1 235/33/1 236/30/1
f 237/29/1 238/32/1 239/33/1 240/30/1
f 241/29/1 242/32/1 243/33/1 244/30/1
f 245/29/1 246/32/1 247/33/1 248/30/1
f 249/32/1 250/34/1 251/35/1 252/33/1
f 253/36/1 254/37/1 255/29/1 256/28/1
f 257/37/1 258/38/1 259/32/1 260/29/1
f 261/37/1 262/38/1 263/32/1 264/29/1
f 265/37/1 266/38/1 267/32/1 268/29/1
f 269/37/1 270/38/1 271/32/1 272/29/1
f 273/37/1 274/38/1 275/32/1 276/29/1
f 277/37/1 278/38/1 279/32/1 280/29/1
f 281/37/1 282/38/1 283/32/1 284/29/1
f 285/38/1 286/39/1 287/34/1 288/32/1
f 289/36/1 290/37/1 291/29/1 292/28/1
f 293/37/1 294/38/1 295/32/1 296/29/1
f 297/37/1 298/38/1 299/32/1 300/29/1
f 301/37/1 302/38/1 303/32/1 304/29/1
f 305/40/1 306/41/1 307/42/1 308/43/1
f 309/37/1 310/38/1 311/32/1 312/29/1
f 313/37/1 314/38/1 315/32/1 316/29/1
f 317/37/1 318/38/1 319/32/1 320/29/1
f 321/38/1 322/39/1 323/34/1 324/32/1
f 325/44/1 326/45/1 327/37/1 328/36/1
f 329/46/1 330/45/1 331/37/1 332/38/1
f 333/46/1 334/45/1 335/37/1 336/38/1
f 337/46/1 338/45/1 339/37/1 340/38/1
f 341/47/1 342/48/1 343/41/1 344/40/1
f 345/45/1 346/46/1 347/38/1 348/37/1
f 349/46/1 350/45/1 351/37/1 352/38/1
f 353/46/1 354/45/1 355/37/1 356/38/1
f 357/46/1 358/49/1 359/39/1 360/38/1

