# Tiled2Unity generated file. Do not modify by hand.
# Wavefront file for 'map2_mesh_0002.obj'

# Vertices (Count = 344)
v 0 -4.48 0
v -0.32 -4.48 0
v -0.32 -4.16 0
v 0 -4.16 0
v -0.32 -4.48 0
v -0.64 -4.48 0
v -0.64 -4.16 0
v -0.32 -4.16 0
v -0.64 -4.48 0
v -0.96 -4.48 0
v -0.96 -4.16 0
v -0.64 -4.16 0
v -0.96 -4.48 0
v -1.28 -4.48 0
v -1.28 -4.16 0
v -0.96 -4.16 0
v 0 -4.8 0
v -0.32 -4.8 0
v -0.32 -4.48 0
v 0 -4.48 0
v -0.32 -4.8 0
v -0.64 -4.8 0
v -0.64 -4.48 0
v -0.32 -4.48 0
v -0.64 -4.8 0
v -0.96 -4.8 0
v -0.96 -4.48 0
v -0.64 -4.48 0
v -0.96 -4.8 0
v -1.28 -4.8 0
v -1.28 -4.48 0
v -0.96 -4.48 0
v -1.28 -4.8 0
v -1.6 -4.8 0
v -1.6 -4.48 0
v -1.28 -4.48 0
v -1.6 -4.8 0
v -1.92 -4.8 0
v -1.92 -4.48 0
v -1.6 -4.48 0
v 0 -5.12 0
v -0.32 -5.12 0
v -0.32 -4.8 0
v 0 -4.8 0
v -0.32 -5.12 0
v -0.64 -5.12 0
v -0.64 -4.8 0
v -0.32 -4.8 0
v -0.64 -5.12 0
v -0.96 -5.12 0
v -0.96 -4.8 0
v -0.64 -4.8 0
v -0.96 -5.12 0
v -1.28 -5.12 0
v -1.28 -4.8 0
v -0.96 -4.8 0
v -1.28 -5.12 0
v -1.6 -5.12 0
v -1.6 -4.8 0
v -1.28 -4.8 0
v -1.6 -5.12 0
v -1.92 -5.12 0
v -1.92 -4.8 0
v -1.6 -4.8 0
v -1.92 -5.12 0
v -2.24 -5.12 0
v -2.24 -4.8 0
v -1.92 -4.8 0
v -2.24 -5.12 0
v -2.56 -5.12 0
v -2.56 -4.8 0
v -2.24 -4.8 0
v -2.56 -5.12 0
v -2.88 -5.12 0
v -2.88 -4.8 0
v -2.56 -4.8 0
v -0.32 -5.44 0
v -0.64 -5.44 0
v -0.64 -5.12 0
v -0.32 -5.12 0
v -0.64 -5.44 0
v -0.96 -5.44 0
v -0.96 -5.12 0
v -0.64 -5.12 0
v -0.96 -5.44 0
v -1.28 -5.44 0
v -1.28 -5.12 0
v -0.96 -5.12 0
v -1.28 -5.44 0
v -1.6 -5.44 0
v -1.6 -5.12 0
v -1.28 -5.12 0
v -1.6 -5.44 0
v -1.92 -5.44 0
v -1.92 -5.12 0
v -1.6 -5.12 0
v -1.92 -5.44 0
v -2.24 -5.44 0
v -2.24 -5.12 0
v -1.92 -5.12 0
v -2.24 -5.44 0
v -2.56 -5.44 0
v -2.56 -5.12 0
v -2.24 -5.12 0
v -2.56 -5.44 0
v -2.88 -5.44 0
v -2.88 -5.12 0
v -2.56 -5.12 0
v -2.88 -5.44 0
v -3.2 -5.44 0
v -3.2 -5.12 0
v -2.88 -5.12 0
v -3.2 -5.44 0
v -3.52 -5.44 0
v -3.52 -5.12 0
v -3.2 -5.12 0
v -3.52 -5.44 0
v -3.84 -5.44 0
v -3.84 -5.12 0
v -3.52 -5.12 0
v -3.84 -5.44 0
v -4.16 -5.44 0
v -4.16 -5.12 0
v -3.84 -5.12 0
v -4.16 -5.44 0
v -4.48 -5.44 0
v -4.48 -5.12 0
v -4.16 -5.12 0
v -4.48 -5.44 0
v -4.8 -5.44 0
v -4.8 -5.12 0
v -4.48 -5.12 0
v -4.8 -5.44 0
v -5.12 -5.44 0
v -5.12 -5.12 0
v -4.8 -5.12 0
v -5.12 -5.44 0
v -5.44 -5.44 0
v -5.44 -5.12 0
v -5.12 -5.12 0
v -5.44 -5.44 0
v -5.76 -5.44 0
v -5.76 -5.12 0
v -5.44 -5.12 0
v -5.76 -5.44 0
v -6.08 -5.44 0
v -6.08 -5.12 0
v -5.76 -5.12 0
v -0.96 -5.76 0
v -1.28 -5.76 0
v -1.28 -5.44 0
v -0.96 -5.44 0
v -1.28 -5.76 0
v -1.6 -5.76 0
v -1.6 -5.44 0
v -1.28 -5.44 0
v -1.6 -5.76 0
v -1.92 -5.76 0
v -1.92 -5.44 0
v -1.6 -5.44 0
v -1.92 -5.76 0
v -2.24 -5.76 0
v -2.24 -5.44 0
v -1.92 -5.44 0
v -2.24 -5.76 0
v -2.56 -5.76 0
v -2.56 -5.44 0
v -2.24 -5.44 0
v -2.56 -5.76 0
v -2.88 -5.76 0
v -2.88 -5.44 0
v -2.56 -5.44 0
v -2.88 -5.76 0
v -3.2 -5.76 0
v -3.2 -5.44 0
v -2.88 -5.44 0
v -3.2 -5.76 0
v -3.52 -5.76 0
v -3.52 -5.44 0
v -3.2 -5.44 0
v -3.52 -5.76 0
v -3.84 -5.76 0
v -3.84 -5.44 0
v -3.52 -5.44 0
v -3.84 -5.76 0
v -4.16 -5.76 0
v -4.16 -5.44 0
v -3.84 -5.44 0
v -4.16 -5.76 0
v -4.48 -5.76 0
v -4.48 -5.44 0
v -4.16 -5.44 0
v -4.48 -5.76 0
v -4.8 -5.76 0
v -4.8 -5.44 0
v -4.48 -5.44 0
v -4.8 -5.76 0
v -5.12 -5.76 0
v -5.12 -5.44 0
v -4.8 -5.44 0
v -5.12 -5.76 0
v -5.44 -5.76 0
v -5.44 -5.44 0
v -5.12 -5.44 0
v -5.44 -5.76 0
v -5.76 -5.76 0
v -5.76 -5.44 0
v -5.44 -5.44 0
v -5.76 -5.76 0
v -6.08 -5.76 0
v -6.08 -5.44 0
v -5.76 -5.44 0
v -6.08 -5.76 0
v -6.4 -5.76 0
v -6.4 -5.44 0
v -6.08 -5.44 0
v -1.6 -6.08 0
v -1.92 -6.08 0
v -1.92 -5.76 0
v -1.6 -5.76 0
v -1.92 -6.08 0
v -2.24 -6.08 0
v -2.24 -5.76 0
v -1.92 -5.76 0
v -2.24 -6.08 0
v -2.56 -6.08 0
v -2.56 -5.76 0
v -2.24 -5.76 0
v -2.56 -6.08 0
v -2.88 -6.08 0
v -2.88 -5.76 0
v -2.56 -5.76 0
v -2.88 -6.08 0
v -3.2 -6.08 0
v -3.2 -5.76 0
v -2.88 -5.76 0
v -3.2 -6.08 0
v -3.52 -6.08 0
v -3.52 -5.76 0
v -3.2 -5.76 0
v -3.52 -6.08 0
v -3.84 -6.08 0
v -3.84 -5.76 0
v -3.52 -5.76 0
v -3.84 -6.08 0
v -4.16 -6.08 0
v -4.16 -5.76 0
v -3.84 -5.76 0
v -4.16 -6.08 0
v -4.48 -6.08 0
v -4.48 -5.76 0
v -4.16 -5.76 0
v -4.48 -6.08 0
v -4.8 -6.08 0
v -4.8 -5.76 0
v -4.48 -5.76 0
v -4.8 -6.08 0
v -5.12 -6.08 0
v -5.12 -5.76 0
v -4.8 -5.76 0
v -5.12 -6.08 0
v -5.44 -6.08 0
v -5.44 -5.76 0
v -5.12 -5.76 0
v -5.44 -6.08 0
v -5.76 -6.08 0
v -5.76 -5.76 0
v -5.44 -5.76 0
v -5.76 -6.08 0
v -6.08 -6.08 0
v -6.08 -5.76 0
v -5.76 -5.76 0
v -6.08 -6.08 0
v -6.4 -6.08 0
v -6.4 -5.76 0
v -6.08 -5.76 0
v -6.4 -6.08 0
v -6.72 -6.08 0
v -6.72 -5.76 0
v -6.4 -5.76 0
v -1.6 -6.4 0
v -1.92 -6.4 0
v -1.92 -6.08 0
v -1.6 -6.08 0
v -1.92 -6.4 0
v -2.24 -6.4 0
v -2.24 -6.08 0
v -1.92 -6.08 0
v -2.24 -6.4 0
v -2.56 -6.4 0
v -2.56 -6.08 0
v -2.24 -6.08 0
v -2.56 -6.4 0
v -2.88 -6.4 0
v -2.88 -6.08 0
v -2.56 -6.08 0
v -2.88 -6.4 0
v -3.2 -6.4 0
v -3.2 -6.08 0
v -2.88 -6.08 0
v -3.2 -6.4 0
v -3.52 -6.4 0
v -3.52 -6.08 0
v -3.2 -6.08 0
v -3.52 -6.4 0
v -3.84 -6.4 0
v -3.84 -6.08 0
v -3.52 -6.08 0
v -3.84 -6.4 0
v -4.16 -6.4 0
v -4.16 -6.08 0
v -3.84 -6.08 0
v -4.16 -6.4 0
v -4.48 -6.4 0
v -4.48 -6.08 0
v -4.16 -6.08 0
v -4.48 -6.4 0
v -4.8 -6.4 0
v -4.8 -6.08 0
v -4.48 -6.08 0
v -4.8 -6.4 0
v -5.12 -6.4 0
v -5.12 -6.08 0
v -4.8 -6.08 0
v -5.12 -6.4 0
v -5.44 -6.4 0
v -5.44 -6.08 0
v -5.12 -6.08 0
v -5.44 -6.4 0
v -5.76 -6.4 0
v -5.76 -6.08 0
v -5.44 -6.08 0
v -5.76 -6.4 0
v -6.08 -6.4 0
v -6.08 -6.08 0
v -5.76 -6.08 0
v -6.08 -6.4 0
v -6.4 -6.4 0
v -6.4 -6.08 0
v -6.08 -6.08 0
v -6.4 -6.4 0
v -6.72 -6.4 0
v -6.72 -6.08 0
v -6.4 -6.08 0

# Texture cooridinates (Count = 20)
vt 0.3333333 0.5
vt 0.6666667 0.5
vt 0.6666667 0.6666666
vt 0.3333333 0.6666666
vt 1 0.5
vt 1 0.6666666
vt 0.3333333 0.3333333
vt 0.6666667 0.3333333
vt 0.6666667 0.8333333
vt 0.3333333 0.8333333
vt 0.3333333 0.1666667
vt 0.6666667 0.1666667
vt 1 0.8333333
vt 1 1
vt 0.6666667 1
vt 0 0.1666667
vt 0 0.3333333
vt 0 0.5
vt 0 0.6666666
vt 1 0.3333333

# Normal
vn 0 0 -1

# Mesh description
g map2_mesh_0002

# Faces
f 1/1/1 2/2/1 3/3/1 4/4/1
f 5/1/1 6/2/1 7/3/1 8/4/1
f 9/1/1 10/2/1 11/3/1 12/4/1
f 13/2/1 14/5/1 15/6/1 16/3/1
f 17/7/1 18/8/1 19/2/1 20/1/1
f 21/7/1 22/8/1 23/2/1 24/1/1
f 25/7/1 26/8/1 27/2/1 28/1/1
f 29/4/1 30/3/1 31/9/1 32/10/1
f 33/1/1 34/2/1 35/3/1 36/4/1
f 37/2/1 38/5/1 39/6/1 40/3/1
f 41/11/1 42/12/1 43/8/1 44/7/1
f 45/9/1 46/13/1 47/14/1 48/15/1
f 49/7/1 50/8/1 51/2/1 52/1/1
f 53/7/1 54/8/1 55/2/1 56/1/1
f 57/7/1 58/8/1 59/2/1 60/1/1
f 61/4/1 62/3/1 63/9/1 64/10/1
f 65/1/1 66/2/1 67/3/1 68/4/1
f 69/1/1 70/2/1 71/3/1 72/4/1
f 73/2/1 74/5/1 75/6/1 76/3/1
f 77/16/1 78/11/1 79/7/1 80/17/1
f 81/11/1 82/12/1 83/8/1 84/7/1
f 85/9/1 86/13/1 87/14/1 88/15/1
f 89/7/1 90/8/1 91/2/1 92/1/1
f 93/7/1 94/8/1 95/2/1 96/1/1
f 97/7/1 98/8/1 99/2/1 100/1/1
f 101/7/1 102/8/1 103/2/1 104/1/1
f 105/4/1 106/3/1 107/9/1 108/10/1
f 109/1/1 110/2/1 111/3/1 112/4/1
f 113/1/1 114/2/1 115/3/1 116/4/1
f 117/1/1 118/2/1 119/3/1 120/4/1
f 121/1/1 122/2/1 123/3/1 124/4/1
f 125/1/1 126/2/1 127/3/1 128/4/1
f 129/1/1 130/2/1 131/3/1 132/4/1
f 133/1/1 134/2/1 135/3/1 136/4/1
f 137/1/1 138/2/1 139/3/1 140/4/1
f 141/1/1 142/2/1 143/3/1 144/4/1
f 145/2/1 146/5/1 147/6/1 148/3/1
f 149/16/1 150/11/1 151/7/1 152/17/1
f 153/11/1 154/12/1 155/8/1 156/7/1
f 157/11/1 158/12/1 159/8/1 160/7/1
f 161/9/1 162/13/1 163/14/1 164/15/1
f 165/7/1 166/8/1 167/2/1 168/1/1
f 169/7/1 170/8/1 171/2/1 172/1/1
f 173/7/1 174/8/1 175/2/1 176/1/1
f 177/7/1 178/8/1 179/2/1 180/1/1
f 181/7/1 182/8/1 183/2/1 184/1/1
f 185/7/1 186/8/1 187/2/1 188/1/1
f 189/7/1 190/8/1 191/2/1 192/1/1
f 193/7/1 194/8/1 195/2/1 196/1/1
f 197/7/1 198/8/1 199/2/1 200/1/1
f 201/7/1 202/8/1 203/2/1 204/1/1
f 205/7/1 206/8/1 207/2/1 208/1/1
f 209/4/1 210/3/1 211/9/1 212/10/1
f 213/2/1 214/5/1 215/6/1 216/3/1
f 217/18/1 218/1/1 219/4/1 220/19/1
f 221/3/1 222/6/1 223/13/1 224/9/1
f 225/7/1 226/8/1 227/2/1 228/1/1
f 229/7/1 230/8/1 231/2/1 232/1/1
f 233/7/1 234/8/1 235/2/1 236/1/1
f 237/7/1 238/8/1 239/2/1 240/1/1
f 241/7/1 242/8/1 243/2/1 244/1/1
f 245/7/1 246/8/1 247/2/1 248/1/1
f 249/7/1 250/8/1 251/2/1 252/1/1
f 253/7/1 254/8/1 255/2/1 256/1/1
f 257/7/1 258/8/1 259/2/1 260/1/1
f 261/7/1 262/8/1 263/2/1 264/1/1
f 265/7/1 266/8/1 267/2/1 268/1/1
f 269/7/1 270/8/1 271/2/1 272/1/1
f 273/4/1 274/3/1 275/9/1 276/10/1
f 277/2/1 278/5/1 279/6/1 280/3/1
f 281/17/1 282/7/1 283/1/1 284/18/1
f 285/7/1 286/8/1 287/2/1 288/1/1
f 289/7/1 290/8/1 291/2/1 292/1/1
f 293/7/1 294/8/1 295/2/1 296/1/1
f 297/7/1 298/8/1 299/2/1 300/1/1
f 301/7/1 302/8/1 303/2/1 304/1/1
f 305/7/1 306/8/1 307/2/1 308/1/1
f 309/7/1 310/8/1 311/2/1 312/1/1
f 313/7/1 314/8/1 315/2/1 316/1/1
f 317/7/1 318/8/1 319/2/1 320/1/1
f 321/7/1 322/8/1 323/2/1 324/1/1
f 325/7/1 326/8/1 327/2/1 328/1/1
f 329/7/1 330/8/1 331/2/1 332/1/1
f 333/7/1 334/8/1 335/2/1 336/1/1
f 337/7/1 338/8/1 339/2/1 340/1/1
f 341/8/1 342/20/1 343/5/1 344/2/1

