# Tiled2Unity generated file. Do not modify by hand.
# Wavefront file for 'map2_mesh_0002.obj'

# Vertices (Count = 964)
v 0 -5.44 0
v -0.32 -5.44 0
v -0.32 -5.12 0
v 0 -5.12 0
v -0.32 -5.44 0
v -0.64 -5.44 0
v -0.64 -5.12 0
v -0.32 -5.12 0
v -0.64 -5.44 0
v -0.96 -5.44 0
v -0.96 -5.12 0
v -0.64 -5.12 0
v -0.96 -5.44 0
v -1.28 -5.44 0
v -1.28 -5.12 0
v -0.96 -5.12 0
v -1.28 -5.44 0
v -1.6 -5.44 0
v -1.6 -5.12 0
v -1.28 -5.12 0
v -1.6 -5.44 0
v -1.92 -5.44 0
v -1.92 -5.12 0
v -1.6 -5.12 0
v -1.92 -5.44 0
v -2.24 -5.44 0
v -2.24 -5.12 0
v -1.92 -5.12 0
v -2.24 -5.44 0
v -2.56 -5.44 0
v -2.56 -5.12 0
v -2.24 -5.12 0
v -2.56 -5.44 0
v -2.88 -5.44 0
v -2.88 -5.12 0
v -2.56 -5.12 0
v -2.88 -5.44 0
v -3.2 -5.44 0
v -3.2 -5.12 0
v -2.88 -5.12 0
v -3.2 -5.44 0
v -3.52 -5.44 0
v -3.52 -5.12 0
v -3.2 -5.12 0
v -3.52 -5.44 0
v -3.84 -5.44 0
v -3.84 -5.12 0
v -3.52 -5.12 0
v -3.84 -5.44 0
v -4.16 -5.44 0
v -4.16 -5.12 0
v -3.84 -5.12 0
v -4.16 -5.44 0
v -4.48 -5.44 0
v -4.48 -5.12 0
v -4.16 -5.12 0
v 0 -5.76 0
v -0.32 -5.76 0
v -0.32 -5.44 0
v 0 -5.44 0
v -0.32 -5.76 0
v -0.64 -5.76 0
v -0.64 -5.44 0
v -0.32 -5.44 0
v -0.64 -5.76 0
v -0.96 -5.76 0
v -0.96 -5.44 0
v -0.64 -5.44 0
v -0.96 -5.76 0
v -1.28 -5.76 0
v -1.28 -5.44 0
v -0.96 -5.44 0
v -1.28 -5.76 0
v -1.6 -5.76 0
v -1.6 -5.44 0
v -1.28 -5.44 0
v -1.6 -5.76 0
v -1.92 -5.76 0
v -1.92 -5.44 0
v -1.6 -5.44 0
v -1.92 -5.76 0
v -2.24 -5.76 0
v -2.24 -5.44 0
v -1.92 -5.44 0
v -2.24 -5.76 0
v -2.56 -5.76 0
v -2.56 -5.44 0
v -2.24 -5.44 0
v -2.56 -5.76 0
v -2.88 -5.76 0
v -2.88 -5.44 0
v -2.56 -5.44 0
v -2.88 -5.76 0
v -3.2 -5.76 0
v -3.2 -5.44 0
v -2.88 -5.44 0
v -3.2 -5.76 0
v -3.52 -5.76 0
v -3.52 -5.44 0
v -3.2 -5.44 0
v -3.52 -5.76 0
v -3.84 -5.76 0
v -3.84 -5.44 0
v -3.52 -5.44 0
v -3.84 -5.76 0
v -4.16 -5.76 0
v -4.16 -5.44 0
v -3.84 -5.44 0
v -4.16 -5.76 0
v -4.48 -5.76 0
v -4.48 -5.44 0
v -4.16 -5.44 0
v -4.48 -5.76 0
v -4.8 -5.76 0
v -4.8 -5.44 0
v -4.48 -5.44 0
v -4.8 -5.76 0
v -5.12 -5.76 0
v -5.12 -5.44 0
v -4.8 -5.44 0
v 0 -6.08 0
v -0.32 -6.08 0
v -0.32 -5.76 0
v 0 -5.76 0
v -0.32 -6.08 0
v -0.64 -6.08 0
v -0.64 -5.76 0
v -0.32 -5.76 0
v -0.64 -6.08 0
v -0.96 -6.08 0
v -0.96 -5.76 0
v -0.64 -5.76 0
v -0.96 -6.08 0
v -1.28 -6.08 0
v -1.28 -5.76 0
v -0.96 -5.76 0
v -1.28 -6.08 0
v -1.6 -6.08 0
v -1.6 -5.76 0
v -1.28 -5.76 0
v -1.6 -6.08 0
v -1.92 -6.08 0
v -1.92 -5.76 0
v -1.6 -5.76 0
v -1.92 -6.08 0
v -2.24 -6.08 0
v -2.24 -5.76 0
v -1.92 -5.76 0
v -2.24 -6.08 0
v -2.56 -6.08 0
v -2.56 -5.76 0
v -2.24 -5.76 0
v -2.56 -6.08 0
v -2.88 -6.08 0
v -2.88 -5.76 0
v -2.56 -5.76 0
v -2.88 -6.08 0
v -3.2 -6.08 0
v -3.2 -5.76 0
v -2.88 -5.76 0
v -3.2 -6.08 0
v -3.52 -6.08 0
v -3.52 -5.76 0
v -3.2 -5.76 0
v -3.52 -6.08 0
v -3.84 -6.08 0
v -3.84 -5.76 0
v -3.52 -5.76 0
v -3.84 -6.08 0
v -4.16 -6.08 0
v -4.16 -5.76 0
v -3.84 -5.76 0
v -4.16 -6.08 0
v -4.48 -6.08 0
v -4.48 -5.76 0
v -4.16 -5.76 0
v -4.48 -6.08 0
v -4.8 -6.08 0
v -4.8 -5.76 0
v -4.48 -5.76 0
v -4.8 -6.08 0
v -5.12 -6.08 0
v -5.12 -5.76 0
v -4.8 -5.76 0
v -5.12 -6.08 0
v -5.44 -6.08 0
v -5.44 -5.76 0
v -5.12 -5.76 0
v -5.44 -6.08 0
v -5.76 -6.08 0
v -5.76 -5.76 0
v -5.44 -5.76 0
v -5.76 -6.08 0
v -6.08 -6.08 0
v -6.08 -5.76 0
v -5.76 -5.76 0
v 0 -6.4 0
v -0.32 -6.4 0
v -0.32 -6.08 0
v 0 -6.08 0
v -0.32 -6.4 0
v -0.64 -6.4 0
v -0.64 -6.08 0
v -0.32 -6.08 0
v -3.52 -6.4 0
v -3.84 -6.4 0
v -3.84 -6.08 0
v -3.52 -6.08 0
v -3.84 -6.4 0
v -4.16 -6.4 0
v -4.16 -6.08 0
v -3.84 -6.08 0
v -4.16 -6.4 0
v -4.48 -6.4 0
v -4.48 -6.08 0
v -4.16 -6.08 0
v -4.48 -6.4 0
v -4.8 -6.4 0
v -4.8 -6.08 0
v -4.48 -6.08 0
v -4.8 -6.4 0
v -5.12 -6.4 0
v -5.12 -6.08 0
v -4.8 -6.08 0
v -5.12 -6.4 0
v -5.44 -6.4 0
v -5.44 -6.08 0
v -5.12 -6.08 0
v -5.44 -6.4 0
v -5.76 -6.4 0
v -5.76 -6.08 0
v -5.44 -6.08 0
v -5.76 -6.4 0
v -6.08 -6.4 0
v -6.08 -6.08 0
v -5.76 -6.08 0
v -6.08 -6.4 0
v -6.4 -6.4 0
v -6.4 -6.08 0
v -6.08 -6.08 0
v -6.4 -6.4 0
v -6.72 -6.4 0
v -6.72 -6.08 0
v -6.4 -6.08 0
v -6.72 -6.4 0
v -7.04 -6.4 0
v -7.04 -6.08 0
v -6.72 -6.08 0
v -7.04 -6.4 0
v -7.36 -6.4 0
v -7.36 -6.08 0
v -7.04 -6.08 0
v -7.36 -6.4 0
v -7.68 -6.4 0
v -7.68 -6.08 0
v -7.36 -6.08 0
v -7.68 -6.4 0
v -8 -6.4 0
v -8 -6.08 0
v -7.68 -6.08 0
v -8 -6.4 0
v -8.32 -6.4 0
v -8.32 -6.08 0
v -8 -6.08 0
v -8.32 -6.4 0
v -8.639999 -6.4 0
v -8.639999 -6.08 0
v -8.32 -6.08 0
v -8.639999 -6.4 0
v -8.96 -6.4 0
v -8.96 -6.08 0
v -8.639999 -6.08 0
v -8.96 -6.4 0
v -9.28 -6.4 0
v -9.28 -6.08 0
v -8.96 -6.08 0
v 0 -6.72 0
v -0.32 -6.72 0
v -0.32 -6.4 0
v 0 -6.4 0
v -0.32 -6.72 0
v -0.64 -6.72 0
v -0.64 -6.4 0
v -0.32 -6.4 0
v -4.16 -6.72 0
v -4.48 -6.72 0
v -4.48 -6.4 0
v -4.16 -6.4 0
v -4.48 -6.72 0
v -4.8 -6.72 0
v -4.8 -6.4 0
v -4.48 -6.4 0
v -4.8 -6.72 0
v -5.12 -6.72 0
v -5.12 -6.4 0
v -4.8 -6.4 0
v -5.12 -6.72 0
v -5.44 -6.72 0
v -5.44 -6.4 0
v -5.12 -6.4 0
v -5.44 -6.72 0
v -5.76 -6.72 0
v -5.76 -6.4 0
v -5.44 -6.4 0
v -5.76 -6.72 0
v -6.08 -6.72 0
v -6.08 -6.4 0
v -5.76 -6.4 0
v -6.08 -6.72 0
v -6.4 -6.72 0
v -6.4 -6.4 0
v -6.08 -6.4 0
v -6.4 -6.72 0
v -6.72 -6.72 0
v -6.72 -6.4 0
v -6.4 -6.4 0
v -6.72 -6.72 0
v -7.04 -6.72 0
v -7.04 -6.4 0
v -6.72 -6.4 0
v -7.04 -6.72 0
v -7.36 -6.72 0
v -7.36 -6.4 0
v -7.04 -6.4 0
v -7.36 -6.72 0
v -7.68 -6.72 0
v -7.68 -6.4 0
v -7.36 -6.4 0
v -7.68 -6.72 0
v -8 -6.72 0
v -8 -6.4 0
v -7.68 -6.4 0
v -8 -6.72 0
v -8.32 -6.72 0
v -8.32 -6.4 0
v -8 -6.4 0
v -8.32 -6.72 0
v -8.639999 -6.72 0
v -8.639999 -6.4 0
v -8.32 -6.4 0
v -8.639999 -6.72 0
v -8.96 -6.72 0
v -8.96 -6.4 0
v -8.639999 -6.4 0
v -8.96 -6.72 0
v -9.28 -6.72 0
v -9.28 -6.4 0
v -8.96 -6.4 0
v -9.28 -6.72 0
v -9.599999 -6.72 0
v -9.599999 -6.4 0
v -9.28 -6.4 0
v 0 -7.04 0
v -0.32 -7.04 0
v -0.32 -6.72 0
v 0 -6.72 0
v -0.32 -7.04 0
v -0.64 -7.04 0
v -0.64 -6.72 0
v -0.32 -6.72 0
v -0.64 -7.04 0
v -0.96 -7.04 0
v -0.96 -6.72 0
v -0.64 -6.72 0
v -0.96 -7.04 0
v -1.28 -7.04 0
v -1.28 -6.72 0
v -0.96 -6.72 0
v -4.8 -7.04 0
v -5.12 -7.04 0
v -5.12 -6.72 0
v -4.8 -6.72 0
v -5.12 -7.04 0
v -5.44 -7.04 0
v -5.44 -6.72 0
v -5.12 -6.72 0
v -5.44 -7.04 0
v -5.76 -7.04 0
v -5.76 -6.72 0
v -5.44 -6.72 0
v -5.76 -7.04 0
v -6.08 -7.04 0
v -6.08 -6.72 0
v -5.76 -6.72 0
v -6.08 -7.04 0
v -6.4 -7.04 0
v -6.4 -6.72 0
v -6.08 -6.72 0
v -6.4 -7.04 0
v -6.72 -7.04 0
v -6.72 -6.72 0
v -6.4 -6.72 0
v -6.72 -7.04 0
v -7.04 -7.04 0
v -7.04 -6.72 0
v -6.72 -6.72 0
v -7.04 -7.04 0
v -7.36 -7.04 0
v -7.36 -6.72 0
v -7.04 -6.72 0
v -7.36 -7.04 0
v -7.68 -7.04 0
v -7.68 -6.72 0
v -7.36 -6.72 0
v -7.68 -7.04 0
v -8 -7.04 0
v -8 -6.72 0
v -7.68 -6.72 0
v -8 -7.04 0
v -8.32 -7.04 0
v -8.32 -6.72 0
v -8 -6.72 0
v -8.32 -7.04 0
v -8.639999 -7.04 0
v -8.639999 -6.72 0
v -8.32 -6.72 0
v -8.639999 -7.04 0
v -8.96 -7.04 0
v -8.96 -6.72 0
v -8.639999 -6.72 0
v -8.96 -7.04 0
v -9.28 -7.04 0
v -9.28 -6.72 0
v -8.96 -6.72 0
v -9.28 -7.04 0
v -9.599999 -7.04 0
v -9.599999 -6.72 0
v -9.28 -6.72 0
v -9.599999 -7.04 0
v -9.92 -7.04 0
v -9.92 -6.72 0
v -9.599999 -6.72 0
v 0 -7.36 0
v -0.32 -7.36 0
v -0.32 -7.04 0
v 0 -7.04 0
v -0.32 -7.36 0
v -0.64 -7.36 0
v -0.64 -7.04 0
v -0.32 -7.04 0
v -0.64 -7.36 0
v -0.96 -7.36 0
v -0.96 -7.04 0
v -0.64 -7.04 0
v -0.96 -7.36 0
v -1.28 -7.36 0
v -1.28 -7.04 0
v -0.96 -7.04 0
v -4.48 -7.36 0
v -4.8 -7.36 0
v -4.8 -7.04 0
v -4.48 -7.04 0
v -4.8 -7.36 0
v -5.12 -7.36 0
v -5.12 -7.04 0
v -4.8 -7.04 0
v -5.12 -7.36 0
v -5.44 -7.36 0
v -5.44 -7.04 0
v -5.12 -7.04 0
v -5.44 -7.36 0
v -5.76 -7.36 0
v -5.76 -7.04 0
v -5.44 -7.04 0
v -5.76 -7.36 0
v -6.08 -7.36 0
v -6.08 -7.04 0
v -5.76 -7.04 0
v -6.08 -7.36 0
v -6.4 -7.36 0
v -6.4 -7.04 0
v -6.08 -7.04 0
v -6.4 -7.36 0
v -6.72 -7.36 0
v -6.72 -7.04 0
v -6.4 -7.04 0
v -6.72 -7.36 0
v -7.04 -7.36 0
v -7.04 -7.04 0
v -6.72 -7.04 0
v -7.04 -7.36 0
v -7.36 -7.36 0
v -7.36 -7.04 0
v -7.04 -7.04 0
v -7.36 -7.36 0
v -7.68 -7.36 0
v -7.68 -7.04 0
v -7.36 -7.04 0
v -7.68 -7.36 0
v -8 -7.36 0
v -8 -7.04 0
v -7.68 -7.04 0
v -8 -7.36 0
v -8.32 -7.36 0
v -8.32 -7.04 0
v -8 -7.04 0
v -8.32 -7.36 0
v -8.639999 -7.36 0
v -8.639999 -7.04 0
v -8.32 -7.04 0
v -8.639999 -7.36 0
v -8.96 -7.36 0
v -8.96 -7.04 0
v -8.639999 -7.04 0
v -8.96 -7.36 0
v -9.28 -7.36 0
v -9.28 -7.04 0
v -8.96 -7.04 0
v -9.28 -7.36 0
v -9.599999 -7.36 0
v -9.599999 -7.04 0
v -9.28 -7.04 0
v -9.599999 -7.36 0
v -9.92 -7.36 0
v -9.92 -7.04 0
v -9.599999 -7.04 0
v 0 -7.68 0
v -0.32 -7.68 0
v -0.32 -7.36 0
v 0 -7.36 0
v -0.32 -7.68 0
v -0.64 -7.68 0
v -0.64 -7.36 0
v -0.32 -7.36 0
v -0.64 -7.68 0
v -0.96 -7.68 0
v -0.96 -7.36 0
v -0.64 -7.36 0
v -0.96 -7.68 0
v -1.28 -7.68 0
v -1.28 -7.36 0
v -0.96 -7.36 0
v -1.28 -7.68 0
v -1.6 -7.68 0
v -1.6 -7.36 0
v -1.28 -7.36 0
v -4.16 -7.68 0
v -4.48 -7.68 0
v -4.48 -7.36 0
v -4.16 -7.36 0
v -4.48 -7.68 0
v -4.8 -7.68 0
v -4.8 -7.36 0
v -4.48 -7.36 0
v -4.8 -7.68 0
v -5.12 -7.68 0
v -5.12 -7.36 0
v -4.8 -7.36 0
v -5.12 -7.68 0
v -5.44 -7.68 0
v -5.44 -7.36 0
v -5.12 -7.36 0
v -5.44 -7.68 0
v -5.76 -7.68 0
v -5.76 -7.36 0
v -5.44 -7.36 0
v -5.76 -7.68 0
v -6.08 -7.68 0
v -6.08 -7.36 0
v -5.76 -7.36 0
v -6.08 -7.68 0
v -6.4 -7.68 0
v -6.4 -7.36 0
v -6.08 -7.36 0
v -6.4 -7.68 0
v -6.72 -7.68 0
v -6.72 -7.36 0
v -6.4 -7.36 0
v -6.72 -7.68 0
v -7.04 -7.68 0
v -7.04 -7.36 0
v -6.72 -7.36 0
v -7.04 -7.68 0
v -7.36 -7.68 0
v -7.36 -7.36 0
v -7.04 -7.36 0
v -7.36 -7.68 0
v -7.68 -7.68 0
v -7.68 -7.36 0
v -7.36 -7.36 0
v -7.68 -7.68 0
v -8 -7.68 0
v -8 -7.36 0
v -7.68 -7.36 0
v -8 -7.68 0
v -8.32 -7.68 0
v -8.32 -7.36 0
v -8 -7.36 0
v -8.32 -7.68 0
v -8.639999 -7.68 0
v -8.639999 -7.36 0
v -8.32 -7.36 0
v -8.639999 -7.68 0
v -8.96 -7.68 0
v -8.96 -7.36 0
v -8.639999 -7.36 0
v -8.96 -7.68 0
v -9.28 -7.68 0
v -9.28 -7.36 0
v -8.96 -7.36 0
v -9.28 -7.68 0
v -9.599999 -7.68 0
v -9.599999 -7.36 0
v -9.28 -7.36 0
v -9.599999 -7.68 0
v -9.92 -7.68 0
v -9.92 -7.36 0
v -9.599999 -7.36 0
v -9.92 -7.68 0
v -10.24 -7.68 0
v -10.24 -7.36 0
v -9.92 -7.36 0
v -10.24 -7.68 0
v -10.56 -7.68 0
v -10.56 -7.36 0
v -10.24 -7.36 0
v -10.56 -7.68 0
v -10.88 -7.68 0
v -10.88 -7.36 0
v -10.56 -7.36 0
v -10.88 -7.68 0
v -11.2 -7.68 0
v -11.2 -7.36 0
v -10.88 -7.36 0
v -11.2 -7.68 0
v -11.52 -7.68 0
v -11.52 -7.36 0
v -11.2 -7.36 0
v -11.52 -7.68 0
v -11.84 -7.68 0
v -11.84 -7.36 0
v -11.52 -7.36 0
v -11.84 -7.68 0
v -12.16 -7.68 0
v -12.16 -7.36 0
v -11.84 -7.36 0
v -12.16 -7.68 0
v -12.48 -7.68 0
v -12.48 -7.36 0
v -12.16 -7.36 0
v -12.48 -7.68 0
v -12.8 -7.68 0
v -12.8 -7.36 0
v -12.48 -7.36 0
v 0 -8 0
v -0.32 -8 0
v -0.32 -7.68 0
v 0 -7.68 0
v -0.32 -8 0
v -0.64 -8 0
v -0.64 -7.68 0
v -0.32 -7.68 0
v -0.64 -8 0
v -0.96 -8 0
v -0.96 -7.68 0
v -0.64 -7.68 0
v -0.96 -8 0
v -1.28 -8 0
v -1.28 -7.68 0
v -0.96 -7.68 0
v -1.28 -8 0
v -1.6 -8 0
v -1.6 -7.68 0
v -1.28 -7.68 0
v -1.6 -8 0
v -1.92 -8 0
v -1.92 -7.68 0
v -1.6 -7.68 0
v -1.92 -8 0
v -2.24 -8 0
v -2.24 -7.68 0
v -1.92 -7.68 0
v -2.24 -8 0
v -2.56 -8 0
v -2.56 -7.68 0
v -2.24 -7.68 0
v -2.56 -8 0
v -2.88 -8 0
v -2.88 -7.68 0
v -2.56 -7.68 0
v -2.88 -8 0
v -3.2 -8 0
v -3.2 -7.68 0
v -2.88 -7.68 0
v -3.2 -8 0
v -3.52 -8 0
v -3.52 -7.68 0
v -3.2 -7.68 0
v -3.52 -8 0
v -3.84 -8 0
v -3.84 -7.68 0
v -3.52 -7.68 0
v -3.84 -8 0
v -4.16 -8 0
v -4.16 -7.68 0
v -3.84 -7.68 0
v -4.16 -8 0
v -4.48 -8 0
v -4.48 -7.68 0
v -4.16 -7.68 0
v -4.48 -8 0
v -4.8 -8 0
v -4.8 -7.68 0
v -4.48 -7.68 0
v -4.8 -8 0
v -5.12 -8 0
v -5.12 -7.68 0
v -4.8 -7.68 0
v -5.12 -8 0
v -5.44 -8 0
v -5.44 -7.68 0
v -5.12 -7.68 0
v -5.44 -8 0
v -5.76 -8 0
v -5.76 -7.68 0
v -5.44 -7.68 0
v -5.76 -8 0
v -6.08 -8 0
v -6.08 -7.68 0
v -5.76 -7.68 0
v -6.08 -8 0
v -6.4 -8 0
v -6.4 -7.68 0
v -6.08 -7.68 0
v -6.4 -8 0
v -6.72 -8 0
v -6.72 -7.68 0
v -6.4 -7.68 0
v -6.72 -8 0
v -7.04 -8 0
v -7.04 -7.68 0
v -6.72 -7.68 0
v -7.04 -8 0
v -7.36 -8 0
v -7.36 -7.68 0
v -7.04 -7.68 0
v -7.36 -8 0
v -7.68 -8 0
v -7.68 -7.68 0
v -7.36 -7.68 0
v -7.68 -8 0
v -8 -8 0
v -8 -7.68 0
v -7.68 -7.68 0
v -8 -8 0
v -8.32 -8 0
v -8.32 -7.68 0
v -8 -7.68 0
v -8.32 -8 0
v -8.639999 -8 0
v -8.639999 -7.68 0
v -8.32 -7.68 0
v -8.639999 -8 0
v -8.96 -8 0
v -8.96 -7.68 0
v -8.639999 -7.68 0
v -8.96 -8 0
v -9.28 -8 0
v -9.28 -7.68 0
v -8.96 -7.68 0
v -9.28 -8 0
v -9.599999 -8 0
v -9.599999 -7.68 0
v -9.28 -7.68 0
v -9.599999 -8 0
v -9.92 -8 0
v -9.92 -7.68 0
v -9.599999 -7.68 0
v -9.92 -8 0
v -10.24 -8 0
v -10.24 -7.68 0
v -9.92 -7.68 0
v -10.24 -8 0
v -10.56 -8 0
v -10.56 -7.68 0
v -10.24 -7.68 0
v -10.56 -8 0
v -10.88 -8 0
v -10.88 -7.68 0
v -10.56 -7.68 0
v -10.88 -8 0
v -11.2 -8 0
v -11.2 -7.68 0
v -10.88 -7.68 0
v -11.2 -8 0
v -11.52 -8 0
v -11.52 -7.68 0
v -11.2 -7.68 0
v -11.52 -8 0
v -11.84 -8 0
v -11.84 -7.68 0
v -11.52 -7.68 0
v -11.84 -8 0
v -12.16 -8 0
v -12.16 -7.68 0
v -11.84 -7.68 0
v -12.16 -8 0
v -12.48 -8 0
v -12.48 -7.68 0
v -12.16 -7.68 0
v -12.48 -8 0
v -12.8 -8 0
v -12.8 -7.68 0
v -12.48 -7.68 0
v 0 -8.32 0
v -0.32 -8.32 0
v -0.32 -8 0
v 0 -8 0
v -0.32 -8.32 0
v -0.64 -8.32 0
v -0.64 -8 0
v -0.32 -8 0
v -0.64 -8.32 0
v -0.96 -8.32 0
v -0.96 -8 0
v -0.64 -8 0
v -0.96 -8.32 0
v -1.28 -8.32 0
v -1.28 -8 0
v -0.96 -8 0
v -1.28 -8.32 0
v -1.6 -8.32 0
v -1.6 -8 0
v -1.28 -8 0
v -1.6 -8.32 0
v -1.92 -8.32 0
v -1.92 -8 0
v -1.6 -8 0
v -1.92 -8.32 0
v -2.24 -8.32 0
v -2.24 -8 0
v -1.92 -8 0
v -2.24 -8.32 0
v -2.56 -8.32 0
v -2.56 -8 0
v -2.24 -8 0
v -2.56 -8.32 0
v -2.88 -8.32 0
v -2.88 -8 0
v -2.56 -8 0
v -2.88 -8.32 0
v -3.2 -8.32 0
v -3.2 -8 0
v -2.88 -8 0
v -3.2 -8.32 0
v -3.52 -8.32 0
v -3.52 -8 0
v -3.2 -8 0
v -3.52 -8.32 0
v -3.84 -8.32 0
v -3.84 -8 0
v -3.52 -8 0
v -3.84 -8.32 0
v -4.16 -8.32 0
v -4.16 -8 0
v -3.84 -8 0
v -4.16 -8.32 0
v -4.48 -8.32 0
v -4.48 -8 0
v -4.16 -8 0
v -4.48 -8.32 0
v -4.8 -8.32 0
v -4.8 -8 0
v -4.48 -8 0
v -4.8 -8.32 0
v -5.12 -8.32 0
v -5.12 -8 0
v -4.8 -8 0
v -5.12 -8.32 0
v -5.44 -8.32 0
v -5.44 -8 0
v -5.12 -8 0
v -5.44 -8.32 0
v -5.76 -8.32 0
v -5.76 -8 0
v -5.44 -8 0
v -5.76 -8.32 0
v -6.08 -8.32 0
v -6.08 -8 0
v -5.76 -8 0
v -6.08 -8.32 0
v -6.4 -8.32 0
v -6.4 -8 0
v -6.08 -8 0
v -6.4 -8.32 0
v -6.72 -8.32 0
v -6.72 -8 0
v -6.4 -8 0
v -6.72 -8.32 0
v -7.04 -8.32 0
v -7.04 -8 0
v -6.72 -8 0
v -7.04 -8.32 0
v -7.36 -8.32 0
v -7.36 -8 0
v -7.04 -8 0
v -7.36 -8.32 0
v -7.68 -8.32 0
v -7.68 -8 0
v -7.36 -8 0
v -7.68 -8.32 0
v -8 -8.32 0
v -8 -8 0
v -7.68 -8 0
v -8 -8.32 0
v -8.32 -8.32 0
v -8.32 -8 0
v -8 -8 0
v -8.32 -8.32 0
v -8.639999 -8.32 0
v -8.639999 -8 0
v -8.32 -8 0
v -8.639999 -8.32 0
v -8.96 -8.32 0
v -8.96 -8 0
v -8.639999 -8 0
v -8.96 -8.32 0
v -9.28 -8.32 0
v -9.28 -8 0
v -8.96 -8 0
v -9.28 -8.32 0
v -9.599999 -8.32 0
v -9.599999 -8 0
v -9.28 -8 0
v -9.599999 -8.32 0
v -9.92 -8.32 0
v -9.92 -8 0
v -9.599999 -8 0
v -9.92 -8.32 0
v -10.24 -8.32 0
v -10.24 -8 0
v -9.92 -8 0
v -10.24 -8.32 0
v -10.56 -8.32 0
v -10.56 -8 0
v -10.24 -8 0
v -10.56 -8.32 0
v -10.88 -8.32 0
v -10.88 -8 0
v -10.56 -8 0
v -10.88 -8.32 0
v -11.2 -8.32 0
v -11.2 -8 0
v -10.88 -8 0
v -11.2 -8.32 0
v -11.52 -8.32 0
v -11.52 -8 0
v -11.2 -8 0
v -11.52 -8.32 0
v -11.84 -8.32 0
v -11.84 -8 0
v -11.52 -8 0
v -11.84 -8.32 0
v -12.16 -8.32 0
v -12.16 -8 0
v -11.84 -8 0
v -12.16 -8.32 0
v -12.48 -8.32 0
v -12.48 -8 0
v -12.16 -8 0
v -12.48 -8.32 0
v -12.8 -8.32 0
v -12.8 -8 0
v -12.48 -8 0

# Texture cooridinates (Count = 21)
vt 0.3333333 0.5
vt 0.6666667 0.5
vt 0.6666667 0.6666666
vt 0.3333333 0.6666666
vt 1 0.5
vt 1 0.6666666
vt 0.3333333 0.3333333
vt 0.6666667 0.3333333
vt 0.6666667 0.8333333
vt 0.3333333 0.8333333
vt 0.6666667 1
vt 0.3333333 1
vt 0.3333333 0.1666667
vt 0.6666667 0.1666667
vt 1 0.8333333
vt 1 1
vt 1 0.3333333
vt 0 0.1666667
vt 0 0.3333333
vt 0 0.5
vt 0 0.6666666

# Normal
vn 0 0 -1

# Mesh description
g map2_mesh_0002

# Faces
f 1/1/1 2/2/1 3/3/1 4/4/1
f 5/1/1 6/2/1 7/3/1 8/4/1
f 9/1/1 10/2/1 11/3/1 12/4/1
f 13/1/1 14/2/1 15/3/1 16/4/1
f 17/1/1 18/2/1 19/3/1 20/4/1
f 21/1/1 22/2/1 23/3/1 24/4/1
f 25/1/1 26/2/1 27/3/1 28/4/1
f 29/1/1 30/2/1 31/3/1 32/4/1
f 33/1/1 34/2/1 35/3/1 36/4/1
f 37/1/1 38/2/1 39/3/1 40/4/1
f 41/1/1 42/2/1 43/3/1 44/4/1
f 45/1/1 46/2/1 47/3/1 48/4/1
f 49/1/1 50/2/1 51/3/1 52/4/1
f 53/2/1 54/5/1 55/6/1 56/3/1
f 57/7/1 58/8/1 59/2/1 60/1/1
f 61/7/1 62/8/1 63/2/1 64/1/1
f 65/7/1 66/8/1 67/2/1 68/1/1
f 69/7/1 70/8/1 71/2/1 72/1/1
f 73/7/1 74/8/1 75/2/1 76/1/1
f 77/7/1 78/8/1 79/2/1 80/1/1
f 81/7/1 82/8/1 83/2/1 84/1/1
f 85/7/1 86/8/1 87/2/1 88/1/1
f 89/7/1 90/8/1 91/2/1 92/1/1
f 93/7/1 94/8/1 95/2/1 96/1/1
f 97/7/1 98/8/1 99/2/1 100/1/1
f 101/7/1 102/8/1 103/2/1 104/1/1
f 105/7/1 106/8/1 107/2/1 108/1/1
f 109/4/1 110/3/1 111/9/1 112/10/1
f 113/1/1 114/2/1 115/3/1 116/4/1
f 117/2/1 118/5/1 119/6/1 120/3/1
f 121/7/1 122/8/1 123/2/1 124/1/1
f 125/10/1 126/9/1 127/11/1 128/12/1
f 129/13/1 130/14/1 131/8/1 132/7/1
f 133/13/1 134/14/1 135/8/1 136/7/1
f 137/13/1 138/14/1 139/8/1 140/7/1
f 141/13/1 142/14/1 143/8/1 144/7/1
f 145/13/1 146/14/1 147/8/1 148/7/1
f 149/13/1 150/14/1 151/8/1 152/7/1
f 153/13/1 154/14/1 155/8/1 156/7/1
f 157/13/1 158/14/1 159/8/1 160/7/1
f 161/13/1 162/14/1 163/8/1 164/7/1
f 165/9/1 166/15/1 167/16/1 168/11/1
f 169/7/1 170/8/1 171/2/1 172/1/1
f 173/7/1 174/8/1 175/2/1 176/1/1
f 177/7/1 178/8/1 179/2/1 180/1/1
f 181/4/1 182/3/1 183/9/1 184/10/1
f 185/1/1 186/2/1 187/3/1 188/4/1
f 189/1/1 190/2/1 191/3/1 192/4/1
f 193/2/1 194/5/1 195/6/1 196/3/1
f 197/7/1 198/8/1 199/2/1 200/1/1
f 201/8/1 202/17/1 203/5/1 204/2/1
f 205/18/1 206/13/1 207/7/1 208/19/1
f 209/13/1 210/14/1 211/8/1 212/7/1
f 213/9/1 214/15/1 215/16/1 216/11/1
f 217/7/1 218/8/1 219/2/1 220/1/1
f 221/7/1 222/8/1 223/2/1 224/1/1
f 225/7/1 226/8/1 227/2/1 228/1/1
f 229/7/1 230/8/1 231/2/1 232/1/1
f 233/4/1 234/3/1 235/9/1 236/10/1
f 237/1/1 238/2/1 239/3/1 240/4/1
f 241/1/1 242/2/1 243/3/1 244/4/1
f 245/1/1 246/2/1 247/3/1 248/4/1
f 249/1/1 250/2/1 251/3/1 252/4/1
f 253/1/1 254/2/1 255/3/1 256/4/1
f 257/1/1 258/2/1 259/3/1 260/4/1
f 261/1/1 262/2/1 263/3/1 264/4/1
f 265/1/1 266/2/1 267/3/1 268/4/1
f 269/1/1 270/2/1 271/3/1 272/4/1
f 273/2/1 274/5/1 275/6/1 276/3/1
f 277/7/1 278/8/1 279/2/1 280/1/1
f 281/8/1 282/17/1 283/5/1 284/2/1
f 285/18/1 286/13/1 287/7/1 288/19/1
f 289/13/1 290/14/1 291/8/1 292/7/1
f 293/13/1 294/14/1 295/8/1 296/7/1
f 297/9/1 298/15/1 299/16/1 300/11/1
f 301/7/1 302/8/1 303/2/1 304/1/1
f 305/7/1 306/8/1 307/2/1 308/1/1
f 309/7/1 310/8/1 311/2/1 312/1/1
f 313/7/1 314/8/1 315/2/1 316/1/1
f 317/7/1 318/8/1 319/2/1 320/1/1
f 321/7/1 322/8/1 323/2/1 324/1/1
f 325/7/1 326/8/1 327/2/1 328/1/1
f 329/7/1 330/8/1 331/2/1 332/1/1
f 333/7/1 334/8/1 335/2/1 336/1/1
f 337/7/1 338/8/1 339/2/1 340/1/1
f 341/7/1 342/8/1 343/2/1 344/1/1
f 345/4/1 346/3/1 347/9/1 348/10/1
f 349/2/1 350/5/1 351/6/1 352/3/1
f 353/7/1 354/8/1 355/2/1 356/1/1
f 357/4/1 358/3/1 359/9/1 360/10/1
f 361/1/1 362/2/1 363/3/1 364/4/1
f 365/2/1 366/5/1 367/6/1 368/3/1
f 369/20/1 370/1/1 371/4/1 372/21/1
f 373/3/1 374/6/1 375/15/1 376/9/1
f 377/7/1 378/8/1 379/2/1 380/1/1
f 381/7/1 382/8/1 383/2/1 384/1/1
f 385/7/1 386/8/1 387/2/1 388/1/1
f 389/7/1 390/8/1 391/2/1 392/1/1
f 393/7/1 394/8/1 395/2/1 396/1/1
f 397/7/1 398/8/1 399/2/1 400/1/1
f 401/7/1 402/8/1 403/2/1 404/1/1
f 405/7/1 406/8/1 407/2/1 408/1/1
f 409/7/1 410/8/1 411/2/1 412/1/1
f 413/7/1 414/8/1 415/2/1 416/1/1
f 417/7/1 418/8/1 419/2/1 420/1/1
f 421/7/1 422/8/1 423/2/1 424/1/1
f 425/4/1 426/3/1 427/9/1 428/10/1
f 429/2/1 430/5/1 431/6/1 432/3/1
f 433/7/1 434/8/1 435/2/1 436/1/1
f 437/7/1 438/8/1 439/2/1 440/1/1
f 441/7/1 442/8/1 443/2/1 444/1/1
f 445/8/1 446/17/1 447/5/1 448/2/1
f 449/20/1 450/1/1 451/4/1 452/21/1
f 453/3/1 454/6/1 455/15/1 456/9/1
f 457/7/1 458/8/1 459/2/1 460/1/1
f 461/7/1 462/8/1 463/2/1 464/1/1
f 465/7/1 466/8/1 467/2/1 468/1/1
f 469/7/1 470/8/1 471/2/1 472/1/1
f 473/7/1 474/8/1 475/2/1 476/1/1
f 477/7/1 478/8/1 479/2/1 480/1/1
f 481/7/1 482/8/1 483/2/1 484/1/1
f 485/7/1 486/8/1 487/2/1 488/1/1
f 489/7/1 490/8/1 491/2/1 492/1/1
f 493/7/1 494/8/1 495/2/1 496/1/1
f 497/7/1 498/8/1 499/2/1 500/1/1
f 501/7/1 502/8/1 503/2/1 504/1/1
f 505/7/1 506/8/1 507/2/1 508/1/1
f 509/7/1 510/8/1 511/2/1 512/1/1
f 513/8/1 514/17/1 515/5/1 516/2/1
f 517/7/1 518/8/1 519/2/1 520/1/1
f 521/7/1 522/8/1 523/2/1 524/1/1
f 525/7/1 526/8/1 527/2/1 528/1/1
f 529/4/1 530/3/1 531/9/1 532/10/1
f 533/2/1 534/5/1 535/6/1 536/3/1
f 537/20/1 538/1/1 539/4/1 540/21/1
f 541/3/1 542/6/1 543/15/1 544/9/1
f 545/7/1 546/8/1 547/2/1 548/1/1
f 549/7/1 550/8/1 551/2/1 552/1/1
f 553/7/1 554/8/1 555/2/1 556/1/1
f 557/7/1 558/8/1 559/2/1 560/1/1
f 561/7/1 562/8/1 563/2/1 564/1/1
f 565/7/1 566/8/1 567/2/1 568/1/1
f 569/7/1 570/8/1 571/2/1 572/1/1
f 573/7/1 574/8/1 575/2/1 576/1/1
f 577/7/1 578/8/1 579/2/1 580/1/1
f 581/7/1 582/8/1 583/2/1 584/1/1
f 585/7/1 586/8/1 587/2/1 588/1/1
f 589/7/1 590/8/1 591/2/1 592/1/1
f 593/7/1 594/8/1 595/2/1 596/1/1
f 597/7/1 598/8/1 599/2/1 600/1/1
f 601/7/1 602/8/1 603/2/1 604/1/1
f 605/4/1 606/3/1 607/9/1 608/10/1
f 609/1/1 610/2/1 611/3/1 612/4/1
f 613/1/1 614/2/1 615/3/1 616/4/1
f 617/1/1 618/2/1 619/3/1 620/4/1
f 621/1/1 622/2/1 623/3/1 624/4/1
f 625/1/1 626/2/1 627/3/1 628/4/1
f 629/1/1 630/2/1 631/3/1 632/4/1
f 633/1/1 634/2/1 635/3/1 636/4/1
f 637/1/1 638/2/1 639/3/1 640/4/1
f 641/2/1 642/5/1 643/6/1 644/3/1
f 645/7/1 646/8/1 647/2/1 648/1/1
f 649/7/1 650/8/1 651/2/1 652/1/1
f 653/7/1 654/8/1 655/2/1 656/1/1
f 657/7/1 658/8/1 659/2/1 660/1/1
f 661/4/1 662/3/1 663/9/1 664/10/1
f 665/1/1 666/2/1 667/3/1 668/4/1
f 669/1/1 670/2/1 671/3/1 672/4/1
f 673/1/1 674/2/1 675/3/1 676/4/1
f 677/1/1 678/2/1 679/3/1 680/4/1
f 681/1/1 682/2/1 683/3/1 684/4/1
f 685/1/1 686/2/1 687/3/1 688/4/1
f 689/1/1 690/2/1 691/3/1 692/4/1
f 693/1/1 694/2/1 695/3/1 696/4/1
f 697/3/1 698/6/1 699/15/1 700/9/1
f 701/7/1 702/8/1 703/2/1 704/1/1
f 705/7/1 706/8/1 707/2/1 708/1/1
f 709/7/1 710/8/1 711/2/1 712/1/1
f 713/7/1 714/8/1 715/2/1 716/1/1
f 717/7/1 718/8/1 719/2/1 720/1/1
f 721/7/1 722/8/1 723/2/1 724/1/1
f 725/7/1 726/8/1 727/2/1 728/1/1
f 729/7/1 730/8/1 731/2/1 732/1/1
f 733/7/1 734/8/1 735/2/1 736/1/1
f 737/7/1 738/8/1 739/2/1 740/1/1
f 741/7/1 742/8/1 743/2/1 744/1/1
f 745/7/1 746/8/1 747/2/1 748/1/1
f 749/7/1 750/8/1 751/2/1 752/1/1
f 753/7/1 754/8/1 755/2/1 756/1/1
f 757/7/1 758/8/1 759/2/1 760/1/1
f 761/7/1 762/8/1 763/2/1 764/1/1
f 765/7/1 766/8/1 767/2/1 768/1/1
f 769/7/1 770/8/1 771/2/1 772/1/1
f 773/7/1 774/8/1 775/2/1 776/1/1
f 777/7/1 778/8/1 779/2/1 780/1/1
f 781/7/1 782/8/1 783/2/1 784/1/1
f 785/7/1 786/8/1 787/2/1 788/1/1
f 789/7/1 790/8/1 791/2/1 792/1/1
f 793/7/1 794/8/1 795/2/1 796/1/1
f 797/7/1 798/8/1 799/2/1 800/1/1
f 801/8/1 802/17/1 803/5/1 804/2/1
f 805/7/1 806/8/1 807/2/1 808/1/1
f 809/7/1 810/8/1 811/2/1 812/1/1
f 813/7/1 814/8/1 815/2/1 816/1/1
f 817/7/1 818/8/1 819/2/1 820/1/1
f 821/7/1 822/8/1 823/2/1 824/1/1
f 825/7/1 826/8/1 827/2/1 828/1/1
f 829/7/1 830/8/1 831/2/1 832/1/1
f 833/7/1 834/8/1 835/2/1 836/1/1
f 837/7/1 838/8/1 839/2/1 840/1/1
f 841/7/1 842/8/1 843/2/1 844/1/1
f 845/7/1 846/8/1 847/2/1 848/1/1
f 849/7/1 850/8/1 851/2/1 852/1/1
f 853/7/1 854/8/1 855/2/1 856/1/1
f 857/7/1 858/8/1 859/2/1 860/1/1
f 861/7/1 862/8/1 863/2/1 864/1/1
f 865/7/1 866/8/1 867/2/1 868/1/1
f 869/7/1 870/8/1 871/2/1 872/1/1
f 873/7/1 874/8/1 875/2/1 876/1/1
f 877/7/1 878/8/1 879/2/1 880/1/1
f 881/7/1 882/8/1 883/2/1 884/1/1
f 885/7/1 886/8/1 887/2/1 888/1/1
f 889/7/1 890/8/1 891/2/1 892/1/1
f 893/7/1 894/8/1 895/2/1 896/1/1
f 897/7/1 898/8/1 899/2/1 900/1/1
f 901/7/1 902/8/1 903/2/1 904/1/1
f 905/7/1 906/8/1 907/2/1 908/1/1
f 909/7/1 910/8/1 911/2/1 912/1/1
f 913/7/1 914/8/1 915/2/1 916/1/1
f 917/7/1 918/8/1 919/2/1 920/1/1
f 921/7/1 922/8/1 923/2/1 924/1/1
f 925/7/1 926/8/1 927/2/1 928/1/1
f 929/7/1 930/8/1 931/2/1 932/1/1
f 933/7/1 934/8/1 935/2/1 936/1/1
f 937/7/1 938/8/1 939/2/1 940/1/1
f 941/7/1 942/8/1 943/2/1 944/1/1
f 945/7/1 946/8/1 947/2/1 948/1/1
f 949/7/1 950/8/1 951/2/1 952/1/1
f 953/7/1 954/8/1 955/2/1 956/1/1
f 957/7/1 958/8/1 959/2/1 960/1/1
f 961/8/1 962/17/1 963/5/1 964/2/1

