# Tiled2Unity generated file. Do not modify by hand.
# Wavefront file for 'PlayerHouse_mesh_0010.obj'

# Vertices (Count = 8)
v -3.52 -1.6 0
v -3.84 -1.6 0
v -3.84 -1.28 0
v -3.52 -1.28 0
v -3.52 -1.92 0
v -3.84 -1.92 0
v -3.84 -1.6 0
v -3.52 -1.6 0

# Texture cooridinates (Count = 6)
vt 0.875 0.875
vt 0.9375 0.875
vt 0.9375 0.9375
vt 0.875 0.9375
vt 0.875 0.8125
vt 0.9375 0.8125

# Normal
vn 0 0 -1

# Mesh description
g PlayerHouse_mesh_0010

# Faces
f 1/1/1 2/2/1 3/3/1 4/4/1
f 5/5/1 6/6/1 7/2/1 8/1/1

