# Tiled2Unity generated file. Do not modify by hand.
# Wavefront file for 'library_mesh_0006.obj'

# Vertices (Count = 368)
v -1440 -1344 0
v -1472 -1344 0
v -1472 -1312 0
v -1440 -1312 0
v -1472 -1344 0
v -1504 -1344 0
v -1504 -1312 0
v -1472 -1312 0
v -1632 -1344 0
v -1664 -1344 0
v -1664 -1312 0
v -1632 -1312 0
v -1664 -1344 0
v -1696 -1344 0
v -1696 -1312 0
v -1664 -1312 0
v -1824 -1344 0
v -1856 -1344 0
v -1856 -1312 0
v -1824 -1312 0
v -1856 -1344 0
v -1888 -1344 0
v -1888 -1312 0
v -1856 -1312 0
v -1440 -1376 0
v -1472 -1376 0
v -1472 -1344 0
v -1440 -1344 0
v -1472 -1376 0
v -1504 -1376 0
v -1504 -1344 0
v -1472 -1344 0
v -1632 -1376 0
v -1664 -1376 0
v -1664 -1344 0
v -1632 -1344 0
v -1664 -1376 0
v -1696 -1376 0
v -1696 -1344 0
v -1664 -1344 0
v -1824 -1376 0
v -1856 -1376 0
v -1856 -1344 0
v -1824 -1344 0
v -1856 -1376 0
v -1888 -1376 0
v -1888 -1344 0
v -1856 -1344 0
v -1440 -1408 0
v -1472 -1408 0
v -1472 -1376 0
v -1440 -1376 0
v -1472 -1408 0
v -1504 -1408 0
v -1504 -1376 0
v -1472 -1376 0
v -1632 -1408 0
v -1664 -1408 0
v -1664 -1376 0
v -1632 -1376 0
v -1664 -1408 0
v -1696 -1408 0
v -1696 -1376 0
v -1664 -1376 0
v -1824 -1408 0
v -1856 -1408 0
v -1856 -1376 0
v -1824 -1376 0
v -1856 -1408 0
v -1888 -1408 0
v -1888 -1376 0
v -1856 -1376 0
v -1440 -1472 0
v -1472 -1472 0
v -1472 -1440 0
v -1440 -1440 0
v -1472 -1472 0
v -1504 -1472 0
v -1504 -1440 0
v -1472 -1440 0
v -1504 -1472 0
v -1536 -1472 0
v -1536 -1440 0
v -1504 -1440 0
v -1536 -1472 0
v -1568 -1472 0
v -1568 -1440 0
v -1536 -1440 0
v -1568 -1472 0
v -1600 -1472 0
v -1600 -1440 0
v -1568 -1440 0
v -1600 -1472 0
v -1632 -1472 0
v -1632 -1440 0
v -1600 -1440 0
v -1760 -1472 0
v -1792 -1472 0
v -1792 -1440 0
v -1760 -1440 0
v -1792 -1472 0
v -1824 -1472 0
v -1824 -1440 0
v -1792 -1440 0
v -1440 -1504 0
v -1472 -1504 0
v -1472 -1472 0
v -1440 -1472 0
v -1472 -1504 0
v -1504 -1504 0
v -1504 -1472 0
v -1472 -1472 0
v -1504 -1504 0
v -1536 -1504 0
v -1536 -1472 0
v -1504 -1472 0
v -1536 -1504 0
v -1568 -1504 0
v -1568 -1472 0
v -1536 -1472 0
v -1568 -1504 0
v -1600 -1504 0
v -1600 -1472 0
v -1568 -1472 0
v -1600 -1504 0
v -1632 -1504 0
v -1632 -1472 0
v -1600 -1472 0
v -1728 -1504 0
v -1760 -1504 0
v -1760 -1472 0
v -1728 -1472 0
v -1760 -1504 0
v -1792 -1504 0
v -1792 -1472 0
v -1760 -1472 0
v -1792 -1504 0
v -1824 -1504 0
v -1824 -1472 0
v -1792 -1472 0
v -1824 -1504 0
v -1856 -1504 0
v -1856 -1472 0
v -1824 -1472 0
v -1440 -1536 0
v -1472 -1536 0
v -1472 -1504 0
v -1440 -1504 0
v -1472 -1536 0
v -1504 -1536 0
v -1504 -1504 0
v -1472 -1504 0
v -1504 -1536 0
v -1536 -1536 0
v -1536 -1504 0
v -1504 -1504 0
v -1536 -1536 0
v -1568 -1536 0
v -1568 -1504 0
v -1536 -1504 0
v -1568 -1536 0
v -1600 -1536 0
v -1600 -1504 0
v -1568 -1504 0
v -1600 -1536 0
v -1632 -1536 0
v -1632 -1504 0
v -1600 -1504 0
v -1728 -1536 0
v -1760 -1536 0
v -1760 -1504 0
v -1728 -1504 0
v -1760 -1536 0
v -1792 -1536 0
v -1792 -1504 0
v -1760 -1504 0
v -1792 -1536 0
v -1824 -1536 0
v -1824 -1504 0
v -1792 -1504 0
v -1824 -1536 0
v -1856 -1536 0
v -1856 -1504 0
v -1824 -1504 0
v -1440 -1568 0
v -1472 -1568 0
v -1472 -1536 0
v -1440 -1536 0
v -1472 -1568 0
v -1504 -1568 0
v -1504 -1536 0
v -1472 -1536 0
v -1504 -1568 0
v -1536 -1568 0
v -1536 -1536 0
v -1504 -1536 0
v -1536 -1568 0
v -1568 -1568 0
v -1568 -1536 0
v -1536 -1536 0
v -1568 -1568 0
v -1600 -1568 0
v -1600 -1536 0
v -1568 -1536 0
v -1600 -1568 0
v -1632 -1568 0
v -1632 -1536 0
v -1600 -1536 0
v -1440 -1600 0
v -1472 -1600 0
v -1472 -1568 0
v -1440 -1568 0
v -1472 -1600 0
v -1504 -1600 0
v -1504 -1568 0
v -1472 -1568 0
v -1504 -1600 0
v -1536 -1600 0
v -1536 -1568 0
v -1504 -1568 0
v -1536 -1600 0
v -1568 -1600 0
v -1568 -1568 0
v -1536 -1568 0
v -1568 -1600 0
v -1600 -1600 0
v -1600 -1568 0
v -1568 -1568 0
v -1600 -1600 0
v -1632 -1600 0
v -1632 -1568 0
v -1600 -1568 0
v -1440 -1632 0
v -1472 -1632 0
v -1472 -1600 0
v -1440 -1600 0
v -1472 -1632 0
v -1504 -1632 0
v -1504 -1600 0
v -1472 -1600 0
v -1504 -1632 0
v -1536 -1632 0
v -1536 -1600 0
v -1504 -1600 0
v -1536 -1632 0
v -1568 -1632 0
v -1568 -1600 0
v -1536 -1600 0
v -1568 -1632 0
v -1600 -1632 0
v -1600 -1600 0
v -1568 -1600 0
v -1600 -1632 0
v -1632 -1632 0
v -1632 -1600 0
v -1600 -1600 0
v -1440 -1664 0
v -1472 -1664 0
v -1472 -1632 0
v -1440 -1632 0
v -1472 -1664 0
v -1504 -1664 0
v -1504 -1632 0
v -1472 -1632 0
v -1504 -1664 0
v -1536 -1664 0
v -1536 -1632 0
v -1504 -1632 0
v -1536 -1664 0
v -1568 -1664 0
v -1568 -1632 0
v -1536 -1632 0
v -1568 -1664 0
v -1600 -1664 0
v -1600 -1632 0
v -1568 -1632 0
v -1600 -1664 0
v -1632 -1664 0
v -1632 -1632 0
v -1600 -1632 0
v -1760 -1664 0
v -1792 -1664 0
v -1792 -1632 0
v -1760 -1632 0
v -1792 -1664 0
v -1824 -1664 0
v -1824 -1632 0
v -1792 -1632 0
v -1440 -1696 0
v -1472 -1696 0
v -1472 -1664 0
v -1440 -1664 0
v -1472 -1696 0
v -1504 -1696 0
v -1504 -1664 0
v -1472 -1664 0
v -1504 -1696 0
v -1536 -1696 0
v -1536 -1664 0
v -1504 -1664 0
v -1536 -1696 0
v -1568 -1696 0
v -1568 -1664 0
v -1536 -1664 0
v -1568 -1696 0
v -1600 -1696 0
v -1600 -1664 0
v -1568 -1664 0
v -1600 -1696 0
v -1632 -1696 0
v -1632 -1664 0
v -1600 -1664 0
v -1728 -1696 0
v -1760 -1696 0
v -1760 -1664 0
v -1728 -1664 0
v -1760 -1696 0
v -1792 -1696 0
v -1792 -1664 0
v -1760 -1664 0
v -1792 -1696 0
v -1824 -1696 0
v -1824 -1664 0
v -1792 -1664 0
v -1824 -1696 0
v -1856 -1696 0
v -1856 -1664 0
v -1824 -1664 0
v -1440 -1728 0
v -1472 -1728 0
v -1472 -1696 0
v -1440 -1696 0
v -1472 -1728 0
v -1504 -1728 0
v -1504 -1696 0
v -1472 -1696 0
v -1504 -1728 0
v -1536 -1728 0
v -1536 -1696 0
v -1504 -1696 0
v -1536 -1728 0
v -1568 -1728 0
v -1568 -1696 0
v -1536 -1696 0
v -1568 -1728 0
v -1600 -1728 0
v -1600 -1696 0
v -1568 -1696 0
v -1600 -1728 0
v -1632 -1728 0
v -1632 -1696 0
v -1600 -1696 0
v -1728 -1728 0
v -1760 -1728 0
v -1760 -1696 0
v -1728 -1696 0
v -1760 -1728 0
v -1792 -1728 0
v -1792 -1696 0
v -1760 -1696 0
v -1792 -1728 0
v -1824 -1728 0
v -1824 -1696 0
v -1792 -1696 0
v -1824 -1728 0
v -1856 -1728 0
v -1856 -1696 0
v -1824 -1696 0

# Texture cooridinates (Count = 32)
vt 0.46875 0.84375
vt 0.5 0.84375
vt 0.5 0.875
vt 0.46875 0.875
vt 0.4375 0.625
vt 0.46875 0.625
vt 0.46875 0.65625
vt 0.4375 0.65625
vt 0.46875 0.8125
vt 0.5 0.8125
vt 0.4375 0.59375
vt 0.46875 0.59375
vt 0.46875 0.78125
vt 0.5 0.78125
vt 0.4375 0.5625
vt 0.46875 0.5625
vt 0.4375 0.0625
vt 0.46875 0.0625
vt 0.46875 0.09375
vt 0.4375 0.09375
vt 0.5 0.0625
vt 0.5 0.09375
vt 0.53125 0.0625
vt 0.53125 0.09375
vt 0.4375 0.03125
vt 0.46875 0.03125
vt 0.5 0.03125
vt 0.5625 0.0625
vt 0.5625 0.09375
vt 0.4375 0
vt 0.46875 0
vt 0.5 0

# Normal
vn 0 0 -1

# Mesh description
g library_mesh_0006

# Faces
f 1/1/1 2/2/1 3/3/1 4/4/1
f 5/5/1 6/6/1 7/7/1 8/8/1
f 9/5/1 10/6/1 11/7/1 12/8/1
f 13/1/1 14/2/1 15/3/1 16/4/1
f 17/1/1 18/2/1 19/3/1 20/4/1
f 21/5/1 22/6/1 23/7/1 24/8/1
f 25/9/1 26/10/1 27/2/1 28/1/1
f 29/11/1 30/12/1 31/6/1 32/5/1
f 33/11/1 34/12/1 35/6/1 36/5/1
f 37/9/1 38/10/1 39/2/1 40/1/1
f 41/9/1 42/10/1 43/2/1 44/1/1
f 45/11/1 46/12/1 47/6/1 48/5/1
f 49/13/1 50/14/1 51/10/1 52/9/1
f 53/15/1 54/16/1 55/12/1 56/11/1
f 57/15/1 58/16/1 59/12/1 60/11/1
f 61/13/1 62/14/1 63/10/1 64/9/1
f 65/13/1 66/14/1 67/10/1 68/9/1
f 69/15/1 70/16/1 71/12/1 72/11/1
f 73/5/1 74/6/1 75/7/1 76/8/1
f 77/5/1 78/6/1 79/7/1 80/8/1
f 81/5/1 82/6/1 83/7/1 84/8/1
f 85/5/1 86/6/1 87/7/1 88/8/1
f 89/5/1 90/6/1 91/7/1 92/8/1
f 93/5/1 94/6/1 95/7/1 96/8/1
f 97/17/1 98/18/1 99/19/1 100/20/1
f 101/18/1 102/21/1 103/22/1 104/19/1
f 105/11/1 106/12/1 107/6/1 108/5/1
f 109/11/1 110/12/1 111/6/1 112/5/1
f 113/11/1 114/12/1 115/6/1 116/5/1
f 117/11/1 118/12/1 119/6/1 120/5/1
f 121/9/1 122/10/1 123/2/1 124/1/1
f 125/11/1 126/12/1 127/6/1 128/5/1
f 129/21/1 130/23/1 131/24/1 132/22/1
f 133/25/1 134/26/1 135/18/1 136/17/1
f 137/26/1 138/27/1 139/21/1 140/18/1
f 141/23/1 142/28/1 143/29/1 144/24/1
f 145/15/1 146/16/1 147/12/1 148/11/1
f 149/15/1 150/16/1 151/12/1 152/11/1
f 153/15/1 154/16/1 155/12/1 156/11/1
f 157/15/1 158/16/1 159/12/1 160/11/1
f 161/15/1 162/16/1 163/12/1 164/11/1
f 165/15/1 166/16/1 167/12/1 168/11/1
f 169/21/1 170/23/1 171/24/1 172/22/1
f 173/30/1 174/31/1 175/26/1 176/25/1
f 177/31/1 178/32/1 179/27/1 180/26/1
f 181/23/1 182/28/1 183/29/1 184/24/1
f 185/5/1 186/6/1 187/7/1 188/8/1
f 189/5/1 190/6/1 191/7/1 192/8/1
f 193/5/1 194/6/1 195/7/1 196/8/1
f 197/5/1 198/6/1 199/7/1 200/8/1
f 201/5/1 202/6/1 203/7/1 204/8/1
f 205/5/1 206/6/1 207/7/1 208/8/1
f 209/9/1 210/10/1 211/2/1 212/1/1
f 213/11/1 214/12/1 215/6/1 216/5/1
f 217/9/1 218/10/1 219/2/1 220/1/1
f 221/11/1 222/12/1 223/6/1 224/5/1
f 225/11/1 226/12/1 227/6/1 228/5/1
f 229/9/1 230/10/1 231/2/1 232/1/1
f 233/15/1 234/16/1 235/12/1 236/11/1
f 237/15/1 238/16/1 239/12/1 240/11/1
f 241/15/1 242/16/1 243/12/1 244/11/1
f 245/15/1 246/16/1 247/12/1 248/11/1
f 249/15/1 250/16/1 251/12/1 252/11/1
f 253/15/1 254/16/1 255/12/1 256/11/1
f 257/5/1 258/6/1 259/7/1 260/8/1
f 261/5/1 262/6/1 263/7/1 264/8/1
f 265/5/1 266/6/1 267/7/1 268/8/1
f 269/5/1 270/6/1 271/7/1 272/8/1
f 273/5/1 274/6/1 275/7/1 276/8/1
f 277/5/1 278/6/1 279/7/1 280/8/1
f 281/17/1 282/18/1 283/19/1 284/20/1
f 285/18/1 286/21/1 287/22/1 288/19/1
f 289/9/1 290/10/1 291/2/1 292/1/1
f 293/11/1 294/12/1 295/6/1 296/5/1
f 297/11/1 298/12/1 299/6/1 300/5/1
f 301/11/1 302/12/1 303/6/1 304/5/1
f 305/11/1 306/12/1 307/6/1 308/5/1
f 309/11/1 310/12/1 311/6/1 312/5/1
f 313/21/1 314/23/1 315/24/1 316/22/1
f 317/25/1 318/26/1 319/18/1 320/17/1
f 321/26/1 322/27/1 323/21/1 324/18/1
f 325/23/1 326/28/1 327/29/1 328/24/1
f 329/15/1 330/16/1 331/12/1 332/11/1
f 333/15/1 334/16/1 335/12/1 336/11/1
f 337/15/1 338/16/1 339/12/1 340/11/1
f 341/15/1 342/16/1 343/12/1 344/11/1
f 345/15/1 346/16/1 347/12/1 348/11/1
f 349/15/1 350/16/1 351/12/1 352/11/1
f 353/21/1 354/23/1 355/24/1 356/22/1
f 357/30/1 358/31/1 359/26/1 360/25/1
f 361/31/1 362/32/1 363/27/1 364/26/1
f 365/23/1 366/28/1 367/29/1 368/24/1

