# Tiled2Unity generated file. Do not modify by hand.
# Wavefront file for 'Town_mesh_0019.obj'

# Vertices (Count = 600)
v -1.28 -0.32 0
v -1.6 -0.32 0
v -1.6 0 0
v -1.28 0 0
v -3.84 -0.32 0
v -4.16 -0.32 0
v -4.16 0 0
v -3.84 0 0
v -16 -0.32 0
v -16.32 -0.32 0
v -16.32 0 0
v -16 0 0
v -18.56 -0.32 0
v -18.88 -0.32 0
v -18.88 0 0
v -18.56 0 0
v -6.08 -0.64 0
v -6.4 -0.64 0
v -6.4 -0.32 0
v -6.08 -0.32 0
v -9.28 -0.64 0
v -9.599999 -0.64 0
v -9.599999 -0.32 0
v -9.28 -0.32 0
v -23.04 -0.64 0
v -23.36 -0.64 0
v -23.36 -0.32 0
v -23.04 -0.32 0
v -37.76 -0.64 0
v -38.08 -0.64 0
v -38.08 -0.32 0
v -37.76 -0.32 0
v -40 -0.64 0
v -40.32 -0.64 0
v -40.32 -0.32 0
v -40 -0.32 0
v -13.76 -0.96 0
v -14.08 -0.96 0
v -14.08 -0.64 0
v -13.76 -0.64 0
v -39.36 -0.96 0
v -39.68 -0.96 0
v -39.68 -0.64 0
v -39.36 -0.64 0
v -43.2 -0.96 0
v -43.52 -0.96 0
v -43.52 -0.64 0
v -43.2 -0.64 0
v -44.16 -0.96 0
v -44.48 -0.96 0
v -44.48 -0.64 0
v -44.16 -0.64 0
v -12.8 -1.28 0
v -13.12 -1.28 0
v -13.12 -0.96 0
v -12.8 -0.96 0
v -41.6 -1.28 0
v -41.92 -1.28 0
v -41.92 -0.96 0
v -41.6 -0.96 0
v -11.2 -1.6 0
v -11.52 -1.6 0
v -11.52 -1.28 0
v -11.2 -1.28 0
v -36.8 -1.6 0
v -37.12 -1.6 0
v -37.12 -1.28 0
v -36.8 -1.28 0
v -0.32 -1.92 0
v -0.64 -1.92 0
v -0.64 -1.6 0
v -0.32 -1.6 0
v -5.12 -1.92 0
v -5.44 -1.92 0
v -5.44 -1.6 0
v -5.12 -1.6 0
v -23.68 -1.92 0
v -24 -1.92 0
v -24 -1.6 0
v -23.68 -1.6 0
v -24 -1.92 0
v -24.32 -1.92 0
v -24.32 -1.6 0
v -24 -1.6 0
v -24.32 -1.92 0
v -24.64 -1.92 0
v -24.64 -1.6 0
v -24.32 -1.6 0
v -25.6 -1.92 0
v -25.92 -1.92 0
v -25.92 -1.6 0
v -25.6 -1.6 0
v -25.92 -1.92 0
v -26.24 -1.92 0
v -26.24 -1.6 0
v -25.92 -1.6 0
v -26.24 -1.92 0
v -26.56 -1.92 0
v -26.56 -1.6 0
v -26.24 -1.6 0
v -14.72 -2.24 0
v -15.04 -2.24 0
v -15.04 -1.92 0
v -14.72 -1.92 0
v -18.88 -2.24 0
v -19.2 -2.24 0
v -19.2 -1.92 0
v -18.88 -1.92 0
v -23.68 -2.24 0
v -24 -2.24 0
v -24 -1.92 0
v -23.68 -1.92 0
v -24 -2.24 0
v -24.32 -2.24 0
v -24.32 -1.92 0
v -24 -1.92 0
v -24.32 -2.24 0
v -24.64 -2.24 0
v -24.64 -1.92 0
v -24.32 -1.92 0
v -25.6 -2.24 0
v -25.92 -2.24 0
v -25.92 -1.92 0
v -25.6 -1.92 0
v -25.92 -2.24 0
v -26.24 -2.24 0
v -26.24 -1.92 0
v -25.92 -1.92 0
v -26.24 -2.24 0
v -26.56 -2.24 0
v -26.56 -1.92 0
v -26.24 -1.92 0
v -1.28 -2.56 0
v -1.6 -2.56 0
v -1.6 -2.24 0
v -1.28 -2.24 0
v -1.6 -2.56 0
v -1.92 -2.56 0
v -1.92 -2.24 0
v -1.6 -2.24 0
v -19.2 -2.56 0
v -19.52 -2.56 0
v -19.52 -2.24 0
v -19.2 -2.24 0
v -21.44 -2.56 0
v -21.76 -2.56 0
v -21.76 -2.24 0
v -21.44 -2.24 0
v -24 -2.56 0
v -24.32 -2.56 0
v -24.32 -2.24 0
v -24 -2.24 0
v -26.24 -2.56 0
v -26.56 -2.56 0
v -26.56 -2.24 0
v -26.24 -2.24 0
v -6.08 -2.88 0
v -6.4 -2.88 0
v -6.4 -2.56 0
v -6.08 -2.56 0
v -36.8 -2.88 0
v -37.12 -2.88 0
v -37.12 -2.56 0
v -36.8 -2.56 0
v -4.48 -3.2 0
v -4.8 -3.2 0
v -4.8 -2.88 0
v -4.48 -2.88 0
v -12.48 -3.2 0
v -12.8 -3.2 0
v -12.8 -2.88 0
v -12.48 -2.88 0
v -37.76 -3.2 0
v -38.08 -3.2 0
v -38.08 -2.88 0
v -37.76 -2.88 0
v -43.2 -3.2 0
v -43.52 -3.2 0
v -43.52 -2.88 0
v -43.2 -2.88 0
v 0 -3.52 0
v -0.32 -3.52 0
v -0.32 -3.2 0
v 0 -3.2 0
v -9.28 -3.52 0
v -9.599999 -3.52 0
v -9.599999 -3.2 0
v -9.28 -3.2 0
v -29.44 -3.52 0
v -29.76 -3.52 0
v -29.76 -3.2 0
v -29.44 -3.2 0
v -29.76 -3.52 0
v -30.08 -3.52 0
v -30.08 -3.2 0
v -29.76 -3.2 0
v -30.08 -3.52 0
v -30.4 -3.52 0
v -30.4 -3.2 0
v -30.08 -3.2 0
v -30.4 -3.52 0
v -30.72 -3.52 0
v -30.72 -3.2 0
v -30.4 -3.2 0
v -30.72 -3.52 0
v -31.04 -3.52 0
v -31.04 -3.2 0
v -30.72 -3.2 0
v -31.04 -3.52 0
v -31.36 -3.52 0
v -31.36 -3.2 0
v -31.04 -3.2 0
v -31.36 -3.52 0
v -31.68 -3.52 0
v -31.68 -3.2 0
v -31.36 -3.2 0
v -32.32 -3.52 0
v -32.64 -3.52 0
v -32.64 -3.2 0
v -32.32 -3.2 0
v -32.64 -3.52 0
v -32.96 -3.52 0
v -32.96 -3.2 0
v -32.64 -3.2 0
v -32.96 -3.52 0
v -33.28 -3.52 0
v -33.28 -3.2 0
v -32.96 -3.2 0
v -33.28 -3.52 0
v -33.6 -3.52 0
v -33.6 -3.2 0
v -33.28 -3.2 0
v -33.6 -3.52 0
v -33.92 -3.52 0
v -33.92 -3.2 0
v -33.6 -3.2 0
v -33.92 -3.52 0
v -34.24 -3.52 0
v -34.24 -3.2 0
v -33.92 -3.2 0
v -34.24 -3.52 0
v -34.56 -3.52 0
v -34.56 -3.2 0
v -34.24 -3.2 0
v -16 -3.84 0
v -16.32 -3.84 0
v -16.32 -3.52 0
v -16 -3.52 0
v -19.2 -3.84 0
v -19.52 -3.84 0
v -19.52 -3.52 0
v -19.2 -3.52 0
v -29.44 -3.84 0
v -29.76 -3.84 0
v -29.76 -3.52 0
v -29.44 -3.52 0
v -29.76 -3.84 0
v -30.08 -3.84 0
v -30.08 -3.52 0
v -29.76 -3.52 0
v -30.08 -3.84 0
v -30.4 -3.84 0
v -30.4 -3.52 0
v -30.08 -3.52 0
v -30.4 -3.84 0
v -30.72 -3.84 0
v -30.72 -3.52 0
v -30.4 -3.52 0
v -30.72 -3.84 0
v -31.04 -3.84 0
v -31.04 -3.52 0
v -30.72 -3.52 0
v -32.96 -3.84 0
v -33.28 -3.84 0
v -33.28 -3.52 0
v -32.96 -3.52 0
v -33.28 -3.84 0
v -33.6 -3.84 0
v -33.6 -3.52 0
v -33.28 -3.52 0
v -33.6 -3.84 0
v -33.92 -3.84 0
v -33.92 -3.52 0
v -33.6 -3.52 0
v -33.92 -3.84 0
v -34.24 -3.84 0
v -34.24 -3.52 0
v -33.92 -3.52 0
v -34.24 -3.84 0
v -34.56 -3.84 0
v -34.56 -3.52 0
v -34.24 -3.52 0
v -44.16 -3.84 0
v -44.48 -3.84 0
v -44.48 -3.52 0
v -44.16 -3.52 0
v -25.28 -4.16 0
v -25.6 -4.16 0
v -25.6 -3.84 0
v -25.28 -3.84 0
v -31.36 -4.16 0
v -31.68 -4.16 0
v -31.68 -3.84 0
v -31.36 -3.84 0
v -32.32 -4.16 0
v -32.64 -4.16 0
v -32.64 -3.84 0
v -32.32 -3.84 0
v -39.04 -4.16 0
v -39.36 -4.16 0
v -39.36 -3.84 0
v -39.04 -3.84 0
v -41.28 -4.16 0
v -41.6 -4.16 0
v -41.6 -3.84 0
v -41.28 -3.84 0
v -43.2 -4.16 0
v -43.52 -4.16 0
v -43.52 -3.84 0
v -43.2 -3.84 0
v -21.12 -4.48 0
v -21.44 -4.48 0
v -21.44 -4.16 0
v -21.12 -4.16 0
v -25.28 -4.48 0
v -25.6 -4.48 0
v -25.6 -4.16 0
v -25.28 -4.16 0
v -36.8 -4.48 0
v -37.12 -4.48 0
v -37.12 -4.16 0
v -36.8 -4.16 0
v -38.08 -4.48 0
v -38.4 -4.48 0
v -38.4 -4.16 0
v -38.08 -4.16 0
v -41.92 -4.48 0
v -42.24 -4.48 0
v -42.24 -4.16 0
v -41.92 -4.16 0
v -1.28 -4.8 0
v -1.6 -4.8 0
v -1.6 -4.48 0
v -1.28 -4.48 0
v -13.12 -5.12 0
v -13.44 -5.12 0
v -13.44 -4.8 0
v -13.12 -4.8 0
v -5.44 -5.44 0
v -5.76 -5.44 0
v -5.76 -5.12 0
v -5.44 -5.12 0
v -6.72 -5.44 0
v -7.04 -5.44 0
v -7.04 -5.12 0
v -6.72 -5.12 0
v -37.12 -5.44 0
v -37.44 -5.44 0
v -37.44 -5.12 0
v -37.12 -5.12 0
v -21.44 -5.76 0
v -21.76 -5.76 0
v -21.76 -5.44 0
v -21.44 -5.44 0
v -44.16 -5.76 0
v -44.48 -5.76 0
v -44.48 -5.44 0
v -44.16 -5.44 0
v -7.04 -6.08 0
v -7.36 -6.08 0
v -7.36 -5.76 0
v -7.04 -5.76 0
v -8.96 -6.08 0
v -9.28 -6.08 0
v -9.28 -5.76 0
v -8.96 -5.76 0
v -16 -6.08 0
v -16.32 -6.08 0
v -16.32 -5.76 0
v -16 -5.76 0
v -0.96 -6.72 0
v -1.28 -6.72 0
v -1.28 -6.4 0
v -0.96 -6.4 0
v -36.8 -6.72 0
v -37.12 -6.72 0
v -37.12 -6.4 0
v -36.8 -6.4 0
v -9.92 -7.04 0
v -10.24 -7.04 0
v -10.24 -6.72 0
v -9.92 -6.72 0
v -16 -7.36 0
v -16.32 -7.36 0
v -16.32 -7.04 0
v -16 -7.04 0
v -44.16 -7.36 0
v -44.48 -7.36 0
v -44.48 -7.04 0
v -44.16 -7.04 0
v -2.88 -7.68 0
v -3.2 -7.68 0
v -3.2 -7.36 0
v -2.88 -7.36 0
v -19.2 -8 0
v -19.52 -8 0
v -19.52 -7.68 0
v -19.2 -7.68 0
v -22.72 -8 0
v -23.04 -8 0
v -23.04 -7.68 0
v -22.72 -7.68 0
v -25.6 -8 0
v -25.92 -8 0
v -25.92 -7.68 0
v -25.6 -7.68 0
v -44.16 -8 0
v -44.48 -8 0
v -44.48 -7.68 0
v -44.16 -7.68 0
v -23.68 -8.32 0
v -24 -8.32 0
v -24 -8 0
v -23.68 -8 0
v -36.8 -8.32 0
v -37.12 -8.32 0
v -37.12 -8 0
v -36.8 -8 0
v -16 -8.96 0
v -16.32 -8.96 0
v -16.32 -8.639999 0
v -16 -8.639999 0
v -23.68 -8.96 0
v -24 -8.96 0
v -24 -8.639999 0
v -23.68 -8.639999 0
v -26.88 -8.96 0
v -27.2 -8.96 0
v -27.2 -8.639999 0
v -26.88 -8.639999 0
v -28.48 -8.96 0
v -28.8 -8.96 0
v -28.8 -8.639999 0
v -28.48 -8.639999 0
v -37.76 -8.96 0
v -38.08 -8.96 0
v -38.08 -8.639999 0
v -37.76 -8.639999 0
v -39.36 -8.96 0
v -39.68 -8.96 0
v -39.68 -8.639999 0
v -39.36 -8.639999 0
v -42.24 -8.96 0
v -42.56 -8.96 0
v -42.56 -8.639999 0
v -42.24 -8.639999 0
v -44.16 -8.96 0
v -44.48 -8.96 0
v -44.48 -8.639999 0
v -44.16 -8.639999 0
v -9.28 -9.28 0
v -9.599999 -9.28 0
v -9.599999 -8.96 0
v -9.28 -8.96 0
v -15.36 -9.28 0
v -15.68 -9.28 0
v -15.68 -8.96 0
v -15.36 -8.96 0
v -4.8 -9.599999 0
v -5.12 -9.599999 0
v -5.12 -9.28 0
v -4.8 -9.28 0
v -24.96 -9.599999 0
v -25.28 -9.599999 0
v -25.28 -9.28 0
v -24.96 -9.28 0
v -16 -9.92 0
v -16.32 -9.92 0
v -16.32 -9.599999 0
v -16 -9.599999 0
v -19.52 -9.92 0
v -19.84 -9.92 0
v -19.84 -9.599999 0
v -19.52 -9.599999 0
v -24 -9.92 0
v -24.32 -9.92 0
v -24.32 -9.599999 0
v -24 -9.599999 0
v -25.6 -9.92 0
v -25.92 -9.92 0
v -25.92 -9.599999 0
v -25.6 -9.599999 0
v -26.24 -9.92 0
v -26.56 -9.92 0
v -26.56 -9.599999 0
v -26.24 -9.599999 0
v -27.2 -9.92 0
v -27.52 -9.92 0
v -27.52 -9.599999 0
v -27.2 -9.599999 0
v -15.36 -10.24 0
v -15.68 -10.24 0
v -15.68 -9.92 0
v -15.36 -9.92 0
v -16.64 -10.24 0
v -16.96 -10.24 0
v -16.96 -9.92 0
v -16.64 -9.92 0
v -19.2 -10.24 0
v -19.52 -10.24 0
v -19.52 -9.92 0
v -19.2 -9.92 0
v -4.8 -10.56 0
v -5.12 -10.56 0
v -5.12 -10.24 0
v -4.8 -10.24 0
v -8.639999 -10.56 0
v -8.96 -10.56 0
v -8.96 -10.24 0
v -8.639999 -10.24 0
v -21.44 -10.56 0
v -21.76 -10.56 0
v -21.76 -10.24 0
v -21.44 -10.24 0
v -27.2 -10.56 0
v -27.52 -10.56 0
v -27.52 -10.24 0
v -27.2 -10.24 0
v -20.8 -10.88 0
v -21.12 -10.88 0
v -21.12 -10.56 0
v -20.8 -10.56 0
v -23.04 -10.88 0
v -23.36 -10.88 0
v -23.36 -10.56 0
v -23.04 -10.56 0
v -0.32 -11.52 0
v -0.64 -11.52 0
v -0.64 -11.2 0
v -0.32 -11.2 0
v -7.04 -11.52 0
v -7.36 -11.52 0
v -7.36 -11.2 0
v -7.04 -11.2 0
v -4.48 -11.84 0
v -4.8 -11.84 0
v -4.8 -11.52 0
v -4.48 -11.52 0
v -3.2 -12.16 0
v -3.52 -12.16 0
v -3.52 -11.84 0
v -3.2 -11.84 0
v -22.72 -12.16 0
v -23.04 -12.16 0
v -23.04 -11.84 0
v -22.72 -11.84 0
v -4.48 -12.48 0
v -4.8 -12.48 0
v -4.8 -12.16 0
v -4.48 -12.16 0
v -21.44 -12.48 0
v -21.76 -12.48 0
v -21.76 -12.16 0
v -21.44 -12.16 0
v -3.2 -12.8 0
v -3.52 -12.8 0
v -3.52 -12.48 0
v -3.2 -12.48 0
v -21.12 -13.12 0
v -21.44 -13.12 0
v -21.44 -12.8 0
v -21.12 -12.8 0
v -23.68 -13.12 0
v -24 -13.12 0
v -24 -12.8 0
v -23.68 -12.8 0
v -0.96 -13.44 0
v -1.28 -13.44 0
v -1.28 -13.12 0
v -0.96 -13.12 0
v -2.56 -13.44 0
v -2.88 -13.44 0
v -2.88 -13.12 0
v -2.56 -13.12 0
v -21.44 -13.76 0
v -21.76 -13.76 0
v -21.76 -13.44 0
v -21.44 -13.44 0
v -25.92 -14.08 0
v -26.24 -14.08 0
v -26.24 -13.76 0
v -25.92 -13.76 0
v -0.96 -14.72 0
v -1.28 -14.72 0
v -1.28 -14.4 0
v -0.96 -14.4 0
v -1.92 -14.72 0
v -2.24 -14.72 0
v -2.24 -14.4 0
v -1.92 -14.4 0

# Texture cooridinates (Count = 54)
vt 0.2 0.6666666
vt 0.3 0.6666666
vt 0.3 0.8333333
vt 0.2 0.8333333
vt 0.2 0.3333333
vt 0.3 0.3333333
vt 0.3 0.5
vt 0.2 0.5
vt 0.1 0.6666666
vt 0.1 0.8333333
vt 0.4 0.5
vt 0.4 0.6666666
vt 0 0
vt 0.1 0
vt 0.1 0.1666667
vt 0 0.1666667
vt 0.4 0.3333333
vt 0.5 0.5
vt 0.5 0.6666666
vt 0.2 0
vt 0.2 0.1666667
vt 0.1 0.5
vt 0.1 0.3333333
vt 0.4 0.8333333
vt 0.4 1
vt 0.3 1
vt 0 0.3333333
vt 0 0.5
vt 0.6 0.6666666
vt 0.6 0.8333333
vt 0.5 0.8333333
vt 0.6 1
vt 0.5 1
vt 0.7 0.8333333
vt 0.7 1
vt 0.8 0.8333333
vt 0.8 1
vt 0.9 0.8333333
vt 0.9 1
vt 0.7 0.6666666
vt 0.8 0.6666666
vt 0.9 0.6666666
vt 0.6 0.5
vt 0.3 0.1666667
vt 0.4 0.1666667
vt 0 0.6666666
vt 0 0.8333333
vt 0.3 0
vt 0.2 1
vt 0.1 1
vt 1 0.6666666
vt 1 0.8333333
vt 0 1
vt 1 1

# Normal
vn 0 0 -1

# Mesh description
g Town_mesh_0019

# Faces
f 1/1/1 2/2/1 3/3/1 4/4/1
f 5/5/1 6/6/1 7/7/1 8/8/1
f 9/9/1 10/1/1 11/4/1 12/10/1
f 13/7/1 14/11/1 15/12/1 16/2/1
f 17/13/1 18/14/1 19/15/1 20/16/1
f 21/6/1 22/17/1 23/11/1 24/7/1
f 25/11/1 26/18/1 27/19/1 28/12/1
f 29/14/1 30/20/1 31/21/1 32/15/1
f 33/22/1 34/8/1 35/1/1 36/9/1
f 37/15/1 38/21/1 39/5/1 40/23/1
f 41/3/1 42/24/1 43/25/1 44/26/1
f 45/22/1 46/8/1 47/1/1 48/9/1
f 49/15/1 50/21/1 51/5/1 52/23/1
f 53/27/1 54/23/1 55/22/1 56/28/1
f 57/2/1 58/12/1 59/24/1 60/3/1
f 61/19/1 62/29/1 63/30/1 64/31/1
f 65/2/1 66/12/1 67/24/1 68/3/1
f 69/31/1 70/30/1 71/32/1 72/33/1
f 73/3/1 74/24/1 75/25/1 76/26/1
f 77/30/1 78/34/1 79/35/1 80/32/1
f 81/34/1 82/36/1 83/37/1 84/35/1
f 85/36/1 86/38/1 87/39/1 88/37/1
f 89/38/1 90/36/1 91/37/1 92/39/1
f 93/36/1 94/34/1 95/35/1 96/37/1
f 97/34/1 98/30/1 99/32/1 100/35/1
f 101/7/1 102/11/1 103/12/1 104/2/1
f 105/27/1 106/23/1 107/22/1 108/28/1
f 109/29/1 110/40/1 111/34/1 112/30/1
f 113/40/1 114/41/1 115/36/1 116/34/1
f 117/41/1 118/42/1 119/38/1 120/36/1
f 121/42/1 122/41/1 123/36/1 124/38/1
f 125/41/1 126/40/1 127/34/1 128/36/1
f 129/40/1 130/29/1 131/30/1 132/34/1
f 133/5/1 134/6/1 135/7/1 136/8/1
f 137/18/1 138/43/1 139/29/1 140/19/1
f 141/14/1 142/20/1 143/21/1 144/15/1
f 145/44/1 146/45/1 147/17/1 148/6/1
f 149/24/1 150/31/1 151/33/1 152/25/1
f 153/12/1 154/19/1 155/31/1 156/24/1
f 157/46/1 158/9/1 159/10/1 160/47/1
f 161/20/1 162/48/1 163/44/1 164/21/1
f 165/3/1 166/24/1 167/25/1 168/26/1
f 169/7/1 170/11/1 171/12/1 172/2/1
f 173/12/1 174/19/1 175/31/1 176/24/1
f 177/19/1 178/29/1 179/30/1 180/31/1
f 181/10/1 182/4/1 183/49/1 184/50/1
f 185/1/1 186/2/1 187/3/1 188/4/1
f 189/9/1 190/1/1 191/4/1 192/10/1
f 193/44/1 194/45/1 195/17/1 196/6/1
f 197/22/1 198/8/1 199/1/1 200/9/1
f 201/20/1 202/48/1 203/44/1 204/21/1
f 205/28/1 206/22/1 207/9/1 208/46/1
f 209/12/1 210/19/1 211/31/1 212/24/1
f 213/16/1 214/15/1 215/23/1 216/27/1
f 217/16/1 218/15/1 219/23/1 220/27/1
f 221/11/1 222/18/1 223/19/1 224/12/1
f 225/18/1 226/43/1 227/29/1 228/19/1
f 229/3/1 230/24/1 231/25/1 232/26/1
f 233/19/1 234/29/1 235/30/1 236/31/1
f 237/14/1 238/20/1 239/21/1 240/15/1
f 241/23/1 242/5/1 243/8/1 244/22/1
f 245/28/1 246/22/1 247/9/1 248/46/1
f 249/42/1 250/51/1 251/52/1 252/38/1
f 253/6/1 254/17/1 255/11/1 256/7/1
f 257/3/1 258/24/1 259/25/1 260/26/1
f 261/19/1 262/29/1 263/30/1 264/31/1
f 265/23/1 266/5/1 267/8/1 268/22/1
f 269/15/1 270/21/1 271/5/1 272/23/1
f 273/28/1 274/22/1 275/9/1 276/46/1
f 277/14/1 278/20/1 279/21/1 280/15/1
f 281/7/1 282/11/1 283/12/1 284/2/1
f 285/5/1 286/6/1 287/7/1 288/8/1
f 289/2/1 290/12/1 291/24/1 292/3/1
f 293/28/1 294/22/1 295/9/1 296/46/1
f 297/5/1 298/6/1 299/7/1 300/8/1
f 301/38/1 302/36/1 303/37/1 304/39/1
f 305/36/1 306/38/1 307/39/1 308/37/1
f 309/22/1 310/8/1 311/1/1 312/9/1
f 313/16/1 314/15/1 315/23/1 316/27/1
f 317/44/1 318/45/1 319/17/1 320/6/1
f 321/3/1 322/24/1 323/25/1 324/26/1
f 325/11/1 326/18/1 327/19/1 328/12/1
f 329/21/1 330/44/1 331/6/1 332/5/1
f 333/28/1 334/22/1 335/9/1 336/46/1
f 337/1/1 338/2/1 339/3/1 340/4/1
f 341/24/1 342/31/1 343/33/1 344/25/1
f 345/13/1 346/14/1 347/15/1 348/16/1
f 349/5/1 350/6/1 351/7/1 352/8/1
f 353/19/1 354/29/1 355/30/1 356/31/1
f 357/31/1 358/30/1 359/32/1 360/33/1
f 361/19/1 362/29/1 363/30/1 364/31/1
f 365/3/1 366/24/1 367/25/1 368/26/1
f 369/13/1 370/14/1 371/15/1 372/16/1
f 373/20/1 374/48/1 375/44/1 376/21/1
f 377/11/1 378/18/1 379/19/1 380/12/1
f 381/16/1 382/15/1 383/23/1 384/27/1
f 385/21/1 386/44/1 387/6/1 388/5/1
f 389/22/1 390/8/1 391/1/1 392/9/1
f 393/15/1 394/21/1 395/5/1 396/23/1
f 397/28/1 398/22/1 399/9/1 400/46/1
f 401/4/1 402/3/1 403/26/1 404/49/1
f 405/27/1 406/23/1 407/22/1 408/28/1
f 409/27/1 410/23/1 411/22/1 412/28/1
f 413/19/1 414/29/1 415/30/1 416/31/1
f 417/47/1 418/10/1 419/50/1 420/53/1
f 421/23/1 422/5/1 423/8/1 424/22/1
f 425/12/1 426/19/1 427/31/1 428/24/1
f 429/23/1 430/5/1 431/8/1 432/22/1
f 433/7/1 434/11/1 435/12/1 436/2/1
f 437/18/1 438/43/1 439/29/1 440/19/1
f 441/10/1 442/4/1 443/49/1 444/50/1
f 445/9/1 446/1/1 447/4/1 448/10/1
f 449/4/1 450/3/1 451/26/1 452/49/1
f 453/19/1 454/29/1 455/30/1 456/31/1
f 457/16/1 458/15/1 459/23/1 460/27/1
f 461/12/1 462/19/1 463/31/1 464/24/1
f 465/7/1 466/11/1 467/12/1 468/2/1
f 469/13/1 470/14/1 471/15/1 472/16/1
f 473/31/1 474/30/1 475/32/1 476/33/1
f 477/28/1 478/22/1 479/9/1 480/46/1
f 481/4/1 482/3/1 483/26/1 484/49/1
f 485/12/1 486/19/1 487/31/1 488/24/1
f 489/47/1 490/10/1 491/50/1 492/53/1
f 493/11/1 494/18/1 495/19/1 496/12/1
f 497/7/1 498/11/1 499/12/1 500/2/1
f 501/10/1 502/4/1 503/49/1 504/50/1
f 505/46/1 506/9/1 507/10/1 508/47/1
f 509/14/1 510/20/1 511/21/1 512/15/1
f 513/38/1 514/52/1 515/54/1 516/39/1
f 517/31/1 518/30/1 519/32/1 520/33/1
f 521/42/1 522/51/1 523/52/1 524/38/1
f 525/9/1 526/1/1 527/4/1 528/10/1
f 529/8/1 530/7/1 531/2/1 532/1/1
f 533/27/1 534/23/1 535/22/1 536/28/1
f 537/31/1 538/30/1 539/32/1 540/33/1
f 541/14/1 542/20/1 543/21/1 544/15/1
f 545/28/1 546/22/1 547/9/1 548/46/1
f 549/42/1 550/51/1 551/52/1 552/38/1
f 553/14/1 554/20/1 555/21/1 556/15/1
f 557/44/1 558/45/1 559/17/1 560/6/1
f 561/9/1 562/1/1 563/4/1 564/10/1
f 565/18/1 566/43/1 567/29/1 568/19/1
f 569/1/1 570/2/1 571/3/1 572/4/1
f 573/20/1 574/48/1 575/44/1 576/21/1
f 577/42/1 578/51/1 579/52/1 580/38/1
f 581/11/1 582/18/1 583/19/1 584/12/1
f 585/47/1 586/10/1 587/50/1 588/53/1
f 589/13/1 590/14/1 591/15/1 592/16/1
f 593/38/1 594/52/1 595/54/1 596/39/1
f 597/18/1 598/43/1 599/29/1 600/19/1

