# Tiled2Unity generated file. Do not modify by hand.
# Wavefront file for 'Town_mesh_0034.obj'

# Vertices (Count = 24)
v -24.32 -9.599999 0
v -24.64 -9.599999 0
v -24.64 -9.28 0
v -24.32 -9.28 0
v -25.92 -9.599999 0
v -26.24 -9.599999 0
v -26.24 -9.28 0
v -25.92 -9.28 0
v -28.48 -9.599999 0
v -28.8 -9.599999 0
v -28.8 -9.28 0
v -28.48 -9.28 0
v -28.8 -9.599999 0
v -29.12 -9.599999 0
v -29.12 -9.28 0
v -28.8 -9.28 0
v -26.88 -10.24 0
v -27.2 -10.24 0
v -27.2 -9.92 0
v -26.88 -9.92 0
v -27.2 -10.24 0
v -27.52 -10.24 0
v -27.52 -9.92 0
v -27.2 -9.92 0

# Texture cooridinates (Count = 15)
vt 0.71875 0.03125
vt 0.75 0.03125
vt 0.75 0.0625
vt 0.71875 0.0625
vt 0.625 0.1875
vt 0.65625 0.1875
vt 0.65625 0.21875
vt 0.625 0.21875
vt 0.6875 0.1875
vt 0.6875 0.21875
vt 0.6875 0.15625
vt 0.71875 0.15625
vt 0.71875 0.1875
vt 0.75 0.15625
vt 0.75 0.1875

# Normal
vn 0 0 -1

# Mesh description
g Town_mesh_0034

# Faces
f 1/1/1 2/2/1 3/3/1 4/4/1
f 5/1/1 6/2/1 7/3/1 8/4/1
f 9/5/1 10/6/1 11/7/1 12/8/1
f 13/6/1 14/9/1 15/10/1 16/7/1
f 17/11/1 18/12/1 19/13/1 20/9/1
f 21/12/1 22/14/1 23/15/1 24/13/1

