# Tiled2Unity generated file. Do not modify by hand.
# Wavefront file for 'Town_mesh_0035.obj'

# Vertices (Count = 16)
v -20.48 -13.76 0
v -20.8 -13.76 0
v -20.8 -13.44 0
v -20.48 -13.44 0
v -20.8 -13.76 0
v -21.12 -13.76 0
v -21.12 -13.44 0
v -20.8 -13.44 0
v -20.48 -14.08 0
v -20.8 -14.08 0
v -20.8 -13.76 0
v -20.48 -13.76 0
v -20.8 -14.08 0
v -21.12 -14.08 0
v -21.12 -13.76 0
v -20.8 -13.76 0

# Texture cooridinates (Count = 9)
vt 0.75 0.3
vt 0.875 0.3
vt 0.875 0.3142857
vt 0.75 0.3142857
vt 1 0.3
vt 1 0.3142857
vt 0.75 0.2857143
vt 0.875 0.2857143
vt 1 0.2857143

# Normal
vn 0 0 -1

# Mesh description
g Town_mesh_0035

# Faces
f 1/1/1 2/2/1 3/3/1 4/4/1
f 5/2/1 6/5/1 7/6/1 8/3/1
f 9/7/1 10/8/1 11/2/1 12/1/1
f 13/8/1 14/9/1 15/5/1 16/2/1

