# Tiled2Unity generated file. Do not modify by hand.
# Wavefront file for 'Town_mesh_0007.obj'

# Vertices (Count = 860)
v -4.16 -0.32 0
v -4.48 -0.32 0
v -4.48 0 0
v -4.16 0 0
v -4.48 -0.32 0
v -4.8 -0.32 0
v -4.8 0 0
v -4.48 0 0
v -7.68 -0.32 0
v -8 -0.32 0
v -8 0 0
v -7.68 0 0
v -8 -0.32 0
v -8.32 -0.32 0
v -8.32 0 0
v -8 0 0
v -8.32 -0.32 0
v -8.639999 -0.32 0
v -8.639999 0 0
v -8.32 0 0
v -8.639999 -0.32 0
v -8.96 -0.32 0
v -8.96 0 0
v -8.639999 0 0
v -8.96 -0.32 0
v -9.28 -0.32 0
v -9.28 0 0
v -8.96 0 0
v -9.28 -0.32 0
v -9.599999 -0.32 0
v -9.599999 0 0
v -9.28 0 0
v -9.599999 -0.32 0
v -9.92 -0.32 0
v -9.92 0 0
v -9.599999 0 0
v -9.92 -0.32 0
v -10.24 -0.32 0
v -10.24 0 0
v -9.92 0 0
v -10.24 -0.32 0
v -10.56 -0.32 0
v -10.56 0 0
v -10.24 0 0
v -3.84 -0.64 0
v -4.16 -0.64 0
v -4.16 -0.32 0
v -3.84 -0.32 0
v -4.16 -0.64 0
v -4.48 -0.64 0
v -4.48 -0.32 0
v -4.16 -0.32 0
v -4.48 -0.64 0
v -4.8 -0.64 0
v -4.8 -0.32 0
v -4.48 -0.32 0
v -4.8 -0.64 0
v -5.12 -0.64 0
v -5.12 -0.32 0
v -4.8 -0.32 0
v -7.68 -0.64 0
v -8 -0.64 0
v -8 -0.32 0
v -7.68 -0.32 0
v -8 -0.64 0
v -8.32 -0.64 0
v -8.32 -0.32 0
v -8 -0.32 0
v -8.32 -0.64 0
v -8.639999 -0.64 0
v -8.639999 -0.32 0
v -8.32 -0.32 0
v -8.639999 -0.64 0
v -8.96 -0.64 0
v -8.96 -0.32 0
v -8.639999 -0.32 0
v -8.96 -0.64 0
v -9.28 -0.64 0
v -9.28 -0.32 0
v -8.96 -0.32 0
v -9.28 -0.64 0
v -9.599999 -0.64 0
v -9.599999 -0.32 0
v -9.28 -0.32 0
v -9.599999 -0.64 0
v -9.92 -0.64 0
v -9.92 -0.32 0
v -9.599999 -0.32 0
v -9.92 -0.64 0
v -10.24 -0.64 0
v -10.24 -0.32 0
v -9.92 -0.32 0
v -10.24 -0.64 0
v -10.56 -0.64 0
v -10.56 -0.32 0
v -10.24 -0.32 0
v -3.84 -0.96 0
v -4.16 -0.96 0
v -4.16 -0.64 0
v -3.84 -0.64 0
v -4.16 -0.96 0
v -4.48 -0.96 0
v -4.48 -0.64 0
v -4.16 -0.64 0
v -4.48 -0.96 0
v -4.8 -0.96 0
v -4.8 -0.64 0
v -4.48 -0.64 0
v -4.8 -0.96 0
v -5.12 -0.96 0
v -5.12 -0.64 0
v -4.8 -0.64 0
v -7.68 -0.96 0
v -8 -0.96 0
v -8 -0.64 0
v -7.68 -0.64 0
v -8 -0.96 0
v -8.32 -0.96 0
v -8.32 -0.64 0
v -8 -0.64 0
v -8.32 -0.96 0
v -8.639999 -0.96 0
v -8.639999 -0.64 0
v -8.32 -0.64 0
v -8.639999 -0.96 0
v -8.96 -0.96 0
v -8.96 -0.64 0
v -8.639999 -0.64 0
v -8.96 -0.96 0
v -9.28 -0.96 0
v -9.28 -0.64 0
v -8.96 -0.64 0
v -9.28 -0.96 0
v -9.599999 -0.96 0
v -9.599999 -0.64 0
v -9.28 -0.64 0
v -9.599999 -0.96 0
v -9.92 -0.96 0
v -9.92 -0.64 0
v -9.599999 -0.64 0
v -9.92 -0.96 0
v -10.24 -0.96 0
v -10.24 -0.64 0
v -9.92 -0.64 0
v -10.24 -0.96 0
v -10.56 -0.96 0
v -10.56 -0.64 0
v -10.24 -0.64 0
v -3.52 -1.28 0
v -3.84 -1.28 0
v -3.84 -0.96 0
v -3.52 -0.96 0
v -3.84 -1.28 0
v -4.16 -1.28 0
v -4.16 -0.96 0
v -3.84 -0.96 0
v -4.16 -1.28 0
v -4.48 -1.28 0
v -4.48 -0.96 0
v -4.16 -0.96 0
v -4.48 -1.28 0
v -4.8 -1.28 0
v -4.8 -0.96 0
v -4.48 -0.96 0
v -4.8 -1.28 0
v -5.12 -1.28 0
v -5.12 -0.96 0
v -4.8 -0.96 0
v -5.12 -1.28 0
v -5.44 -1.28 0
v -5.44 -0.96 0
v -5.12 -0.96 0
v -7.68 -1.28 0
v -8 -1.28 0
v -8 -0.96 0
v -7.68 -0.96 0
v -8 -1.28 0
v -8.32 -1.28 0
v -8.32 -0.96 0
v -8 -0.96 0
v -8.32 -1.28 0
v -8.639999 -1.28 0
v -8.639999 -0.96 0
v -8.32 -0.96 0
v -8.639999 -1.28 0
v -8.96 -1.28 0
v -8.96 -0.96 0
v -8.639999 -0.96 0
v -8.96 -1.28 0
v -9.28 -1.28 0
v -9.28 -0.96 0
v -8.96 -0.96 0
v -9.28 -1.28 0
v -9.599999 -1.28 0
v -9.599999 -0.96 0
v -9.28 -0.96 0
v -9.599999 -1.28 0
v -9.92 -1.28 0
v -9.92 -0.96 0
v -9.599999 -0.96 0
v -9.92 -1.28 0
v -10.24 -1.28 0
v -10.24 -0.96 0
v -9.92 -0.96 0
v -10.24 -1.28 0
v -10.56 -1.28 0
v -10.56 -0.96 0
v -10.24 -0.96 0
v -3.52 -1.6 0
v -3.84 -1.6 0
v -3.84 -1.28 0
v -3.52 -1.28 0
v -3.84 -1.6 0
v -4.16 -1.6 0
v -4.16 -1.28 0
v -3.84 -1.28 0
v -4.16 -1.6 0
v -4.48 -1.6 0
v -4.48 -1.28 0
v -4.16 -1.28 0
v -4.48 -1.6 0
v -4.8 -1.6 0
v -4.8 -1.28 0
v -4.48 -1.28 0
v -4.8 -1.6 0
v -5.12 -1.6 0
v -5.12 -1.28 0
v -4.8 -1.28 0
v -5.12 -1.6 0
v -5.44 -1.6 0
v -5.44 -1.28 0
v -5.12 -1.28 0
v -7.68 -1.6 0
v -8 -1.6 0
v -8 -1.28 0
v -7.68 -1.28 0
v -8 -1.6 0
v -8.32 -1.6 0
v -8.32 -1.28 0
v -8 -1.28 0
v -8.32 -1.6 0
v -8.639999 -1.6 0
v -8.639999 -1.28 0
v -8.32 -1.28 0
v -8.639999 -1.6 0
v -8.96 -1.6 0
v -8.96 -1.28 0
v -8.639999 -1.28 0
v -8.96 -1.6 0
v -9.28 -1.6 0
v -9.28 -1.28 0
v -8.96 -1.28 0
v -9.28 -1.6 0
v -9.599999 -1.6 0
v -9.599999 -1.28 0
v -9.28 -1.28 0
v -9.599999 -1.6 0
v -9.92 -1.6 0
v -9.92 -1.28 0
v -9.599999 -1.28 0
v -9.92 -1.6 0
v -10.24 -1.6 0
v -10.24 -1.28 0
v -9.92 -1.28 0
v -10.24 -1.6 0
v -10.56 -1.6 0
v -10.56 -1.28 0
v -10.24 -1.28 0
v -3.52 -1.92 0
v -3.84 -1.92 0
v -3.84 -1.6 0
v -3.52 -1.6 0
v -3.84 -1.92 0
v -4.16 -1.92 0
v -4.16 -1.6 0
v -3.84 -1.6 0
v -4.16 -1.92 0
v -4.48 -1.92 0
v -4.48 -1.6 0
v -4.16 -1.6 0
v -4.48 -1.92 0
v -4.8 -1.92 0
v -4.8 -1.6 0
v -4.48 -1.6 0
v -4.8 -1.92 0
v -5.12 -1.92 0
v -5.12 -1.6 0
v -4.8 -1.6 0
v -5.12 -1.92 0
v -5.44 -1.92 0
v -5.44 -1.6 0
v -5.12 -1.6 0
v -7.68 -1.92 0
v -8 -1.92 0
v -8 -1.6 0
v -7.68 -1.6 0
v -8 -1.92 0
v -8.32 -1.92 0
v -8.32 -1.6 0
v -8 -1.6 0
v -8.32 -1.92 0
v -8.639999 -1.92 0
v -8.639999 -1.6 0
v -8.32 -1.6 0
v -8.639999 -1.92 0
v -8.96 -1.92 0
v -8.96 -1.6 0
v -8.639999 -1.6 0
v -8.96 -1.92 0
v -9.28 -1.92 0
v -9.28 -1.6 0
v -8.96 -1.6 0
v -9.28 -1.92 0
v -9.599999 -1.92 0
v -9.599999 -1.6 0
v -9.28 -1.6 0
v -9.599999 -1.92 0
v -9.92 -1.92 0
v -9.92 -1.6 0
v -9.599999 -1.6 0
v -9.92 -1.92 0
v -10.24 -1.92 0
v -10.24 -1.6 0
v -9.92 -1.6 0
v -10.24 -1.92 0
v -10.56 -1.92 0
v -10.56 -1.6 0
v -10.24 -1.6 0
v -3.52 -2.24 0
v -3.84 -2.24 0
v -3.84 -1.92 0
v -3.52 -1.92 0
v -3.84 -2.24 0
v -4.16 -2.24 0
v -4.16 -1.92 0
v -3.84 -1.92 0
v -4.16 -2.24 0
v -4.48 -2.24 0
v -4.48 -1.92 0
v -4.16 -1.92 0
v -4.48 -2.24 0
v -4.8 -2.24 0
v -4.8 -1.92 0
v -4.48 -1.92 0
v -4.8 -2.24 0
v -5.12 -2.24 0
v -5.12 -1.92 0
v -4.8 -1.92 0
v -5.12 -2.24 0
v -5.44 -2.24 0
v -5.44 -1.92 0
v -5.12 -1.92 0
v -0.96 -5.76 0
v -1.28 -5.76 0
v -1.28 -5.44 0
v -0.96 -5.44 0
v -1.28 -5.76 0
v -1.6 -5.76 0
v -1.6 -5.44 0
v -1.28 -5.44 0
v -0.96 -6.08 0
v -1.28 -6.08 0
v -1.28 -5.76 0
v -0.96 -5.76 0
v -1.28 -6.08 0
v -1.6 -6.08 0
v -1.6 -5.76 0
v -1.28 -5.76 0
v -1.28 -7.68 0
v -1.6 -7.68 0
v -1.6 -7.36 0
v -1.28 -7.36 0
v -1.6 -7.68 0
v -1.92 -7.68 0
v -1.92 -7.36 0
v -1.6 -7.36 0
v -1.92 -7.68 0
v -2.24 -7.68 0
v -2.24 -7.36 0
v -1.92 -7.36 0
v -0.64 -8 0
v -0.96 -8 0
v -0.96 -7.68 0
v -0.64 -7.68 0
v -0.96 -8 0
v -1.28 -8 0
v -1.28 -7.68 0
v -0.96 -7.68 0
v -1.28 -8 0
v -1.6 -8 0
v -1.6 -7.68 0
v -1.28 -7.68 0
v -1.6 -8 0
v -1.92 -8 0
v -1.92 -7.68 0
v -1.6 -7.68 0
v -1.92 -8 0
v -2.24 -8 0
v -2.24 -7.68 0
v -1.92 -7.68 0
v -2.24 -8 0
v -2.56 -8 0
v -2.56 -7.68 0
v -2.24 -7.68 0
v -0.32 -8.32 0
v -0.64 -8.32 0
v -0.64 -8 0
v -0.32 -8 0
v -0.64 -8.32 0
v -0.96 -8.32 0
v -0.96 -8 0
v -0.64 -8 0
v -0.96 -8.32 0
v -1.28 -8.32 0
v -1.28 -8 0
v -0.96 -8 0
v -1.28 -8.32 0
v -1.6 -8.32 0
v -1.6 -8 0
v -1.28 -8 0
v -1.6 -8.32 0
v -1.92 -8.32 0
v -1.92 -8 0
v -1.6 -8 0
v -1.92 -8.32 0
v -2.24 -8.32 0
v -2.24 -8 0
v -1.92 -8 0
v -2.24 -8.32 0
v -2.56 -8.32 0
v -2.56 -8 0
v -2.24 -8 0
v -2.56 -8.32 0
v -2.88 -8.32 0
v -2.88 -8 0
v -2.56 -8 0
v -0.32 -8.639999 0
v -0.64 -8.639999 0
v -0.64 -8.32 0
v -0.32 -8.32 0
v -0.64 -8.639999 0
v -0.96 -8.639999 0
v -0.96 -8.32 0
v -0.64 -8.32 0
v -0.96 -8.639999 0
v -1.28 -8.639999 0
v -1.28 -8.32 0
v -0.96 -8.32 0
v -1.28 -8.639999 0
v -1.6 -8.639999 0
v -1.6 -8.32 0
v -1.28 -8.32 0
v -1.6 -8.639999 0
v -1.92 -8.639999 0
v -1.92 -8.32 0
v -1.6 -8.32 0
v -1.92 -8.639999 0
v -2.24 -8.639999 0
v -2.24 -8.32 0
v -1.92 -8.32 0
v -2.24 -8.639999 0
v -2.56 -8.639999 0
v -2.56 -8.32 0
v -2.24 -8.32 0
v -2.56 -8.639999 0
v -2.88 -8.639999 0
v -2.88 -8.32 0
v -2.56 -8.32 0
v -0.32 -8.96 0
v -0.64 -8.96 0
v -0.64 -8.639999 0
v -0.32 -8.639999 0
v -0.64 -8.96 0
v -0.96 -8.96 0
v -0.96 -8.639999 0
v -0.64 -8.639999 0
v -0.96 -8.96 0
v -1.28 -8.96 0
v -1.28 -8.639999 0
v -0.96 -8.639999 0
v -1.28 -8.96 0
v -1.6 -8.96 0
v -1.6 -8.639999 0
v -1.28 -8.639999 0
v -1.6 -8.96 0
v -1.92 -8.96 0
v -1.92 -8.639999 0
v -1.6 -8.639999 0
v -1.92 -8.96 0
v -2.24 -8.96 0
v -2.24 -8.639999 0
v -1.92 -8.639999 0
v -2.24 -8.96 0
v -2.56 -8.96 0
v -2.56 -8.639999 0
v -2.24 -8.639999 0
v -2.56 -8.96 0
v -2.88 -8.96 0
v -2.88 -8.639999 0
v -2.56 -8.639999 0
v -7.68 -8.96 0
v -8 -8.96 0
v -8 -8.639999 0
v -7.68 -8.639999 0
v -8 -8.96 0
v -8.32 -8.96 0
v -8.32 -8.639999 0
v -8 -8.639999 0
v -8.32 -8.96 0
v -8.639999 -8.96 0
v -8.639999 -8.639999 0
v -8.32 -8.639999 0
v -8.639999 -8.96 0
v -8.96 -8.96 0
v -8.96 -8.639999 0
v -8.639999 -8.639999 0
v -8.96 -8.96 0
v -9.28 -8.96 0
v -9.28 -8.639999 0
v -8.96 -8.639999 0
v -9.28 -8.96 0
v -9.599999 -8.96 0
v -9.599999 -8.639999 0
v -9.28 -8.639999 0
v -9.599999 -8.96 0
v -9.92 -8.96 0
v -9.92 -8.639999 0
v -9.599999 -8.639999 0
v -9.92 -8.96 0
v -10.24 -8.96 0
v -10.24 -8.639999 0
v -9.92 -8.639999 0
v -10.24 -8.96 0
v -10.56 -8.96 0
v -10.56 -8.639999 0
v -10.24 -8.639999 0
v -10.56 -8.96 0
v -10.88 -8.96 0
v -10.88 -8.639999 0
v -10.56 -8.639999 0
v -0.32 -9.28 0
v -0.64 -9.28 0
v -0.64 -8.96 0
v -0.32 -8.96 0
v -0.64 -9.28 0
v -0.96 -9.28 0
v -0.96 -8.96 0
v -0.64 -8.96 0
v -0.96 -9.28 0
v -1.28 -9.28 0
v -1.28 -8.96 0
v -0.96 -8.96 0
v -1.28 -9.28 0
v -1.6 -9.28 0
v -1.6 -8.96 0
v -1.28 -8.96 0
v -1.6 -9.28 0
v -1.92 -9.28 0
v -1.92 -8.96 0
v -1.6 -8.96 0
v -1.92 -9.28 0
v -2.24 -9.28 0
v -2.24 -8.96 0
v -1.92 -8.96 0
v -2.24 -9.28 0
v -2.56 -9.28 0
v -2.56 -8.96 0
v -2.24 -8.96 0
v -2.56 -9.28 0
v -2.88 -9.28 0
v -2.88 -8.96 0
v -2.56 -8.96 0
v -7.68 -9.28 0
v -8 -9.28 0
v -8 -8.96 0
v -7.68 -8.96 0
v -10.56 -9.28 0
v -10.88 -9.28 0
v -10.88 -8.96 0
v -10.56 -8.96 0
v -0.32 -9.599999 0
v -0.64 -9.599999 0
v -0.64 -9.28 0
v -0.32 -9.28 0
v -0.64 -9.599999 0
v -0.96 -9.599999 0
v -0.96 -9.28 0
v -0.64 -9.28 0
v -0.96 -9.599999 0
v -1.28 -9.599999 0
v -1.28 -9.28 0
v -0.96 -9.28 0
v -1.28 -9.599999 0
v -1.6 -9.599999 0
v -1.6 -9.28 0
v -1.28 -9.28 0
v -1.6 -9.599999 0
v -1.92 -9.599999 0
v -1.92 -9.28 0
v -1.6 -9.28 0
v -1.92 -9.599999 0
v -2.24 -9.599999 0
v -2.24 -9.28 0
v -1.92 -9.28 0
v -2.24 -9.599999 0
v -2.56 -9.599999 0
v -2.56 -9.28 0
v -2.24 -9.28 0
v -2.56 -9.599999 0
v -2.88 -9.599999 0
v -2.88 -9.28 0
v -2.56 -9.28 0
v -7.68 -9.599999 0
v -8 -9.599999 0
v -8 -9.28 0
v -7.68 -9.28 0
v -10.56 -9.599999 0
v -10.88 -9.599999 0
v -10.88 -9.28 0
v -10.56 -9.28 0
v -0.32 -9.92 0
v -0.64 -9.92 0
v -0.64 -9.599999 0
v -0.32 -9.599999 0
v -0.64 -9.92 0
v -0.96 -9.92 0
v -0.96 -9.599999 0
v -0.64 -9.599999 0
v -0.96 -9.92 0
v -1.28 -9.92 0
v -1.28 -9.599999 0
v -0.96 -9.599999 0
v -1.28 -9.92 0
v -1.6 -9.92 0
v -1.6 -9.599999 0
v -1.28 -9.599999 0
v -1.6 -9.92 0
v -1.92 -9.92 0
v -1.92 -9.599999 0
v -1.6 -9.599999 0
v -1.92 -9.92 0
v -2.24 -9.92 0
v -2.24 -9.599999 0
v -1.92 -9.599999 0
v -2.24 -9.92 0
v -2.56 -9.92 0
v -2.56 -9.599999 0
v -2.24 -9.599999 0
v -2.56 -9.92 0
v -2.88 -9.92 0
v -2.88 -9.599999 0
v -2.56 -9.599999 0
v -6.08 -9.92 0
v -6.4 -9.92 0
v -6.4 -9.599999 0
v -6.08 -9.599999 0
v -6.4 -9.92 0
v -6.72 -9.92 0
v -6.72 -9.599999 0
v -6.4 -9.599999 0
v -6.72 -9.92 0
v -7.04 -9.92 0
v -7.04 -9.599999 0
v -6.72 -9.599999 0
v -7.04 -9.92 0
v -7.36 -9.92 0
v -7.36 -9.599999 0
v -7.04 -9.599999 0
v -10.56 -9.92 0
v -10.88 -9.92 0
v -10.88 -9.599999 0
v -10.56 -9.599999 0
v -1.28 -10.24 0
v -1.6 -10.24 0
v -1.6 -9.92 0
v -1.28 -9.92 0
v -1.6 -10.24 0
v -1.92 -10.24 0
v -1.92 -9.92 0
v -1.6 -9.92 0
v -6.08 -10.24 0
v -6.4 -10.24 0
v -6.4 -9.92 0
v -6.08 -9.92 0
v -6.4 -10.24 0
v -6.72 -10.24 0
v -6.72 -9.92 0
v -6.4 -9.92 0
v -6.72 -10.24 0
v -7.04 -10.24 0
v -7.04 -9.92 0
v -6.72 -9.92 0
v -7.04 -10.24 0
v -7.36 -10.24 0
v -7.36 -9.92 0
v -7.04 -9.92 0
v -10.56 -10.24 0
v -10.88 -10.24 0
v -10.88 -9.92 0
v -10.56 -9.92 0
v -6.08 -10.56 0
v -6.4 -10.56 0
v -6.4 -10.24 0
v -6.08 -10.24 0
v -6.4 -10.56 0
v -6.72 -10.56 0
v -6.72 -10.24 0
v -6.4 -10.24 0
v -6.72 -10.56 0
v -7.04 -10.56 0
v -7.04 -10.24 0
v -6.72 -10.24 0
v -7.04 -10.56 0
v -7.36 -10.56 0
v -7.36 -10.24 0
v -7.04 -10.24 0
v -10.56 -10.56 0
v -10.88 -10.56 0
v -10.88 -10.24 0
v -10.56 -10.24 0
v -6.4 -10.88 0
v -6.72 -10.88 0
v -6.72 -10.56 0
v -6.4 -10.56 0
v -8 -12.8 0
v -8.32 -12.8 0
v -8.32 -12.48 0
v -8 -12.48 0
v -8.32 -12.8 0
v -8.639999 -12.8 0
v -8.639999 -12.48 0
v -8.32 -12.48 0
v -8.639999 -12.8 0
v -8.96 -12.8 0
v -8.96 -12.48 0
v -8.639999 -12.48 0
v -8.96 -12.8 0
v -9.28 -12.8 0
v -9.28 -12.48 0
v -8.96 -12.48 0
v -9.28 -12.8 0
v -9.599999 -12.8 0
v -9.599999 -12.48 0
v -9.28 -12.48 0
v -9.599999 -12.8 0
v -9.92 -12.8 0
v -9.92 -12.48 0
v -9.599999 -12.48 0
v -10.24 -12.8 0
v -10.56 -12.8 0
v -10.56 -12.48 0
v -10.24 -12.48 0
v -10.56 -12.8 0
v -10.88 -12.8 0
v -10.88 -12.48 0
v -10.56 -12.48 0
v -10.88 -12.8 0
v -11.2 -12.8 0
v -11.2 -12.48 0
v -10.88 -12.48 0
v -8 -13.12 0
v -8.32 -13.12 0
v -8.32 -12.8 0
v -8 -12.8 0
v -8.32 -13.12 0
v -8.639999 -13.12 0
v -8.639999 -12.8 0
v -8.32 -12.8 0
v -8.639999 -13.12 0
v -8.96 -13.12 0
v -8.96 -12.8 0
v -8.639999 -12.8 0
v -8.96 -13.12 0
v -9.28 -13.12 0
v -9.28 -12.8 0
v -8.96 -12.8 0
v -9.28 -13.12 0
v -9.599999 -13.12 0
v -9.599999 -12.8 0
v -9.28 -12.8 0
v -9.599999 -13.12 0
v -9.92 -13.12 0
v -9.92 -12.8 0
v -9.599999 -12.8 0
v -9.92 -13.12 0
v -10.24 -13.12 0
v -10.24 -12.8 0
v -9.92 -12.8 0
v -10.24 -13.12 0
v -10.56 -13.12 0
v -10.56 -12.8 0
v -10.24 -12.8 0
v -10.56 -13.12 0
v -10.88 -13.12 0
v -10.88 -12.8 0
v -10.56 -12.8 0
v -10.88 -13.12 0
v -11.2 -13.12 0
v -11.2 -12.8 0
v -10.88 -12.8 0
v -8 -13.44 0
v -8.32 -13.44 0
v -8.32 -13.12 0
v -8 -13.12 0
v -8.32 -13.44 0
v -8.639999 -13.44 0
v -8.639999 -13.12 0
v -8.32 -13.12 0
v -8.639999 -13.44 0
v -8.96 -13.44 0
v -8.96 -13.12 0
v -8.639999 -13.12 0
v -8.96 -13.44 0
v -9.28 -13.44 0
v -9.28 -13.12 0
v -8.96 -13.12 0
v -9.28 -13.44 0
v -9.599999 -13.44 0
v -9.599999 -13.12 0
v -9.28 -13.12 0
v -9.599999 -13.44 0
v -9.92 -13.44 0
v -9.92 -13.12 0
v -9.599999 -13.12 0
v -9.92 -13.44 0
v -10.24 -13.44 0
v -10.24 -13.12 0
v -9.92 -13.12 0
v -10.24 -13.44 0
v -10.56 -13.44 0
v -10.56 -13.12 0
v -10.24 -13.12 0
v -10.56 -13.44 0
v -10.88 -13.44 0
v -10.88 -13.12 0
v -10.56 -13.12 0
v -10.88 -13.44 0
v -11.2 -13.44 0
v -11.2 -13.12 0
v -10.88 -13.12 0
v -9.599999 -13.76 0
v -9.92 -13.76 0
v -9.92 -13.44 0
v -9.599999 -13.44 0
v -9.92 -13.76 0
v -10.24 -13.76 0
v -10.24 -13.44 0
v -9.92 -13.44 0
v -10.24 -13.76 0
v -10.56 -13.76 0
v -10.56 -13.44 0
v -10.24 -13.44 0
v -10.56 -13.76 0
v -10.88 -13.76 0
v -10.88 -13.44 0
v -10.56 -13.44 0
v -10.88 -13.76 0
v -11.2 -13.76 0
v -11.2 -13.44 0
v -10.88 -13.44 0

# Texture cooridinates (Count = 113)
vt 0 0.53125
vt 0.03125 0.53125
vt 0.03125 0.5625
vt 0 0.5625
vt 0.0625 0.53125
vt 0.09375 0.53125
vt 0.09375 0.5625
vt 0.0625 0.5625
vt 0.28125 0.5625
vt 0.3125 0.5625
vt 0.3125 0.59375
vt 0.28125 0.59375
vt 0.28125 0.53125
vt 0.3125 0.53125
vt 0.34375 0.53125
vt 0.34375 0.5625
vt 0.375 0.53125
vt 0.375 0.5625
vt 0.375 0.59375
vt 0.34375 0.59375
vt 0 0.6875
vt 0.03125 0.6875
vt 0.03125 0.71875
vt 0 0.71875
vt 0.0625 0.6875
vt 0.0625 0.71875
vt 0.09375 0.6875
vt 0.09375 0.71875
vt 0 0.46875
vt 0.03125 0.46875
vt 0.03125 0.5
vt 0 0.5
vt 0.0625 0.46875
vt 0.0625 0.5
vt 0.09375 0.46875
vt 0.09375 0.5
vt 0 0.65625
vt 0.03125 0.65625
vt 0.0625 0.65625
vt 0.09375 0.65625
vt 0 0.4375
vt 0.03125 0.4375
vt 0.0625 0.4375
vt 0.09375 0.4375
vt 0.375 0.625
vt 0.40625 0.625
vt 0.40625 0.65625
vt 0.375 0.65625
vt 0 0.40625
vt 0.03125 0.40625
vt 0.0625 0.40625
vt 0.09375 0.40625
vt 0 0.625
vt 0.03125 0.625
vt 0.0625 0.625
vt 0.40625 0.59375
vt 0.09375 0.625
vt 0 0.375
vt 0.03125 0.375
vt 0.0625 0.375
vt 0.09375 0.375
vt 0.125 0.90625
vt 0.15625 0.90625
vt 0.15625 0.9375
vt 0.125 0.9375
vt 0.125 0.875
vt 0.15625 0.875
vt 0.03125 0.875
vt 0.0625 0.875
vt 0.0625 0.90625
vt 0.03125 0.90625
vt 0 0.90625
vt 0.03125 0.9375
vt 0 0.9375
vt 0.0625 0.9375
vt 0.09375 0.90625
vt 0.09375 0.9375
vt 0 0.875
vt 0.09375 0.875
vt 0.4375 0.875
vt 0.46875 0.875
vt 0.46875 0.90625
vt 0.4375 0.90625
vt 0.53125 0.84375
vt 0.5625 0.84375
vt 0.5625 0.875
vt 0.53125 0.875
vt 0 0.84375
vt 0.03125 0.84375
vt 0.0625 0.84375
vt 0.4375 0.6875
vt 0.46875 0.6875
vt 0.46875 0.71875
vt 0.4375 0.71875
vt 0.09375 0.84375
vt 0.4375 0.96875
vt 0.46875 0.96875
vt 0.46875 1
vt 0.4375 1
vt 0.5 0.96875
vt 0.5 1
vt 0.53125 0.96875
vt 0.53125 1
vt 0.4375 0.9375
vt 0.46875 0.9375
vt 0.5 0.9375
vt 0.53125 0.9375
vt 0.03125 0.96875
vt 0.0625 0.96875
vt 0.0625 1
vt 0.03125 1
vt 0.5 0.90625
vt 0.53125 0.90625

# Normal
vn 0 0 -1

# Mesh description
g Town_mesh_0007

# Faces
f 1/1/1 2/2/1 3/3/1 4/4/1
f 5/5/1 6/6/1 7/7/1 8/8/1
f 9/9/1 10/10/1 11/11/1 12/12/1
f 13/13/1 14/14/1 15/10/1 16/9/1
f 17/14/1 18/15/1 19/16/1 20/10/1
f 21/14/1 22/15/1 23/16/1 24/10/1
f 25/14/1 26/15/1 27/16/1 28/10/1
f 29/14/1 30/15/1 31/16/1 32/10/1
f 33/14/1 34/15/1 35/16/1 36/10/1
f 37/15/1 38/17/1 39/18/1 40/16/1
f 41/16/1 42/18/1 43/19/1 44/20/1
f 45/1/1 46/2/1 47/3/1 48/4/1
f 49/2/1 50/5/1 51/8/1 52/3/1
f 53/2/1 54/5/1 55/8/1 56/3/1
f 57/5/1 58/6/1 59/7/1 60/8/1
f 61/13/1 62/14/1 63/10/1 64/9/1
f 65/14/1 66/15/1 67/16/1 68/10/1
f 69/14/1 70/15/1 71/16/1 72/10/1
f 73/14/1 74/15/1 75/16/1 76/10/1
f 77/14/1 78/15/1 79/16/1 80/10/1
f 81/14/1 82/15/1 83/16/1 84/10/1
f 85/14/1 86/15/1 87/16/1 88/10/1
f 89/14/1 90/15/1 91/16/1 92/10/1
f 93/15/1 94/17/1 95/18/1 96/16/1
f 97/2/1 98/5/1 99/8/1 100/3/1
f 101/2/1 102/5/1 103/8/1 104/3/1
f 105/2/1 106/5/1 107/8/1 108/3/1
f 109/2/1 110/5/1 111/8/1 112/3/1
f 113/21/1 114/22/1 115/23/1 116/24/1
f 117/22/1 118/25/1 119/26/1 120/23/1
f 121/22/1 122/25/1 123/26/1 124/23/1
f 125/22/1 126/25/1 127/26/1 128/23/1
f 129/22/1 130/25/1 131/26/1 132/23/1
f 133/22/1 134/25/1 135/26/1 136/23/1
f 137/22/1 138/25/1 139/26/1 140/23/1
f 141/22/1 142/25/1 143/26/1 144/23/1
f 145/25/1 146/27/1 147/28/1 148/26/1
f 149/29/1 150/30/1 151/31/1 152/32/1
f 153/30/1 154/33/1 155/34/1 156/31/1
f 157/30/1 158/33/1 159/34/1 160/31/1
f 161/30/1 162/33/1 163/34/1 164/31/1
f 165/30/1 166/33/1 167/34/1 168/31/1
f 169/33/1 170/35/1 171/36/1 172/34/1
f 173/37/1 174/38/1 175/22/1 176/21/1
f 177/38/1 178/39/1 179/25/1 180/22/1
f 181/38/1 182/39/1 183/25/1 184/22/1
f 185/38/1 186/39/1 187/25/1 188/22/1
f 189/38/1 190/39/1 191/25/1 192/22/1
f 193/38/1 194/39/1 195/25/1 196/22/1
f 197/38/1 198/39/1 199/25/1 200/22/1
f 201/38/1 202/39/1 203/25/1 204/22/1
f 205/39/1 206/40/1 207/27/1 208/25/1
f 209/41/1 210/42/1 211/30/1 212/29/1
f 213/42/1 214/43/1 215/33/1 216/30/1
f 217/42/1 218/43/1 219/33/1 220/30/1
f 221/42/1 222/43/1 223/33/1 224/30/1
f 225/42/1 226/43/1 227/33/1 228/30/1
f 229/43/1 230/44/1 231/35/1 232/33/1
f 233/37/1 234/38/1 235/22/1 236/21/1
f 237/38/1 238/39/1 239/25/1 240/22/1
f 241/38/1 242/39/1 243/25/1 244/22/1
f 245/38/1 246/39/1 247/25/1 248/22/1
f 249/45/1 250/46/1 251/47/1 252/48/1
f 253/38/1 254/39/1 255/25/1 256/22/1
f 257/38/1 258/39/1 259/25/1 260/22/1
f 261/38/1 262/39/1 263/25/1 264/22/1
f 265/39/1 266/40/1 267/27/1 268/25/1
f 269/49/1 270/50/1 271/42/1 272/41/1
f 273/50/1 274/51/1 275/43/1 276/42/1
f 277/50/1 278/51/1 279/43/1 280/42/1
f 281/50/1 282/51/1 283/43/1 284/42/1
f 285/50/1 286/51/1 287/43/1 288/42/1
f 289/51/1 290/52/1 291/44/1 292/43/1
f 293/53/1 294/54/1 295/38/1 296/37/1
f 297/54/1 298/55/1 299/39/1 300/38/1
f 301/54/1 302/55/1 303/39/1 304/38/1
f 305/54/1 306/55/1 307/39/1 308/38/1
f 309/19/1 310/56/1 311/46/1 312/45/1
f 313/54/1 314/55/1 315/39/1 316/38/1
f 317/54/1 318/55/1 319/39/1 320/38/1
f 321/54/1 322/55/1 323/39/1 324/38/1
f 325/55/1 326/57/1 327/40/1 328/39/1
f 329/58/1 330/59/1 331/50/1 332/49/1
f 333/59/1 334/60/1 335/51/1 336/50/1
f 337/60/1 338/61/1 339/52/1 340/51/1
f 341/58/1 342/59/1 343/50/1 344/49/1
f 345/59/1 346/60/1 347/51/1 348/50/1
f 349/60/1 350/61/1 351/52/1 352/51/1
f 353/62/1 354/63/1 355/64/1 356/65/1
f 357/62/1 358/63/1 359/64/1 360/65/1
f 361/66/1 362/67/1 363/63/1 364/62/1
f 365/66/1 366/67/1 367/63/1 368/62/1
f 369/68/1 370/69/1 371/70/1 372/71/1
f 373/68/1 374/69/1 375/70/1 376/71/1
f 377/68/1 378/69/1 379/70/1 380/71/1
f 381/68/1 382/69/1 383/70/1 384/71/1
f 385/68/1 386/69/1 387/70/1 388/71/1
f 389/68/1 390/69/1 391/70/1 392/71/1
f 393/68/1 394/69/1 395/70/1 396/71/1
f 397/68/1 398/69/1 399/70/1 400/71/1
f 401/68/1 402/69/1 403/70/1 404/71/1
f 405/68/1 406/69/1 407/70/1 408/71/1
f 409/68/1 410/69/1 411/70/1 412/71/1
f 413/68/1 414/69/1 415/70/1 416/71/1
f 417/68/1 418/69/1 419/70/1 420/71/1
f 421/68/1 422/69/1 423/70/1 424/71/1
f 425/68/1 426/69/1 427/70/1 428/71/1
f 429/68/1 430/69/1 431/70/1 432/71/1
f 433/68/1 434/69/1 435/70/1 436/71/1
f 437/72/1 438/71/1 439/73/1 440/74/1
f 441/71/1 442/70/1 443/75/1 444/73/1
f 445/71/1 446/70/1 447/75/1 448/73/1
f 449/71/1 450/70/1 451/75/1 452/73/1
f 453/71/1 454/70/1 455/75/1 456/73/1
f 457/71/1 458/70/1 459/75/1 460/73/1
f 461/71/1 462/70/1 463/75/1 464/73/1
f 465/70/1 466/76/1 467/77/1 468/75/1
f 469/78/1 470/68/1 471/71/1 472/72/1
f 473/68/1 474/69/1 475/70/1 476/71/1
f 477/68/1 478/69/1 479/70/1 480/71/1
f 481/68/1 482/69/1 483/70/1 484/71/1
f 485/68/1 486/69/1 487/70/1 488/71/1
f 489/68/1 490/69/1 491/70/1 492/71/1
f 493/68/1 494/69/1 495/70/1 496/71/1
f 497/69/1 498/79/1 499/76/1 500/70/1
f 501/80/1 502/81/1 503/82/1 504/83/1
f 505/80/1 506/81/1 507/82/1 508/83/1
f 509/80/1 510/81/1 511/82/1 512/83/1
f 513/80/1 514/81/1 515/82/1 516/83/1
f 517/80/1 518/81/1 519/82/1 520/83/1
f 521/80/1 522/81/1 523/82/1 524/83/1
f 525/80/1 526/81/1 527/82/1 528/83/1
f 529/80/1 530/81/1 531/82/1 532/83/1
f 533/80/1 534/81/1 535/82/1 536/83/1
f 537/81/1 538/80/1 539/83/1 540/82/1
f 541/78/1 542/68/1 543/71/1 544/72/1
f 545/68/1 546/69/1 547/70/1 548/71/1
f 549/68/1 550/69/1 551/70/1 552/71/1
f 553/68/1 554/69/1 555/70/1 556/71/1
f 557/68/1 558/69/1 559/70/1 560/71/1
f 561/68/1 562/69/1 563/70/1 564/71/1
f 565/68/1 566/69/1 567/70/1 568/71/1
f 569/69/1 570/79/1 571/76/1 572/70/1
f 573/84/1 574/85/1 575/86/1 576/87/1
f 577/85/1 578/84/1 579/87/1 580/86/1
f 581/78/1 582/68/1 583/71/1 584/72/1
f 585/68/1 586/69/1 587/70/1 588/71/1
f 589/68/1 590/69/1 591/70/1 592/71/1
f 593/68/1 594/69/1 595/70/1 596/71/1
f 597/68/1 598/69/1 599/70/1 600/71/1
f 601/68/1 602/69/1 603/70/1 604/71/1
f 605/68/1 606/69/1 607/70/1 608/71/1
f 609/69/1 610/79/1 611/76/1 612/70/1
f 613/84/1 614/85/1 615/86/1 616/87/1
f 617/85/1 618/84/1 619/87/1 620/86/1
f 621/88/1 622/89/1 623/68/1 624/78/1
f 625/89/1 626/90/1 627/69/1 628/68/1
f 629/89/1 630/90/1 631/69/1 632/68/1
f 633/91/1 634/92/1 635/93/1 636/94/1
f 637/91/1 638/92/1 639/93/1 640/94/1
f 641/89/1 642/90/1 643/69/1 644/68/1
f 645/89/1 646/90/1 647/69/1 648/68/1
f 649/90/1 650/95/1 651/79/1 652/69/1
f 653/96/1 654/97/1 655/98/1 656/99/1
f 657/97/1 658/100/1 659/101/1 660/98/1
f 661/97/1 662/100/1 663/101/1 664/98/1
f 665/100/1 666/102/1 667/103/1 668/101/1
f 669/85/1 670/84/1 671/87/1 672/86/1
f 673/66/1 674/67/1 675/63/1 676/62/1
f 677/66/1 678/67/1 679/63/1 680/62/1
f 681/104/1 682/105/1 683/97/1 684/96/1
f 685/105/1 686/106/1 687/100/1 688/97/1
f 689/105/1 690/106/1 691/100/1 692/97/1
f 693/106/1 694/107/1 695/102/1 696/100/1
f 697/85/1 698/84/1 699/87/1 700/86/1
f 701/83/1 702/82/1 703/105/1 704/104/1
f 705/108/1 706/109/1 707/110/1 708/111/1
f 709/82/1 710/112/1 711/106/1 712/105/1
f 713/112/1 714/113/1 715/107/1 716/106/1
f 717/85/1 718/84/1 719/87/1 720/86/1
f 721/73/1 722/75/1 723/109/1 724/108/1
f 725/21/1 726/22/1 727/23/1 728/24/1
f 729/22/1 730/25/1 731/26/1 732/23/1
f 733/22/1 734/25/1 735/26/1 736/23/1
f 737/22/1 738/25/1 739/26/1 740/23/1
f 741/22/1 742/25/1 743/26/1 744/23/1
f 745/25/1 746/27/1 747/28/1 748/26/1
f 749/38/1 750/39/1 751/25/1 752/22/1
f 753/38/1 754/39/1 755/25/1 756/22/1
f 757/38/1 758/39/1 759/25/1 760/22/1
f 761/37/1 762/38/1 763/22/1 764/21/1
f 765/38/1 766/39/1 767/25/1 768/22/1
f 769/38/1 770/39/1 771/25/1 772/22/1
f 773/38/1 774/39/1 775/25/1 776/22/1
f 777/38/1 778/39/1 779/25/1 780/22/1
f 781/39/1 782/40/1 783/27/1 784/25/1
f 785/22/1 786/25/1 787/26/1 788/23/1
f 789/25/1 790/27/1 791/28/1 792/26/1
f 793/22/1 794/25/1 795/26/1 796/23/1
f 797/25/1 798/27/1 799/28/1 800/26/1
f 801/53/1 802/54/1 803/38/1 804/37/1
f 805/54/1 806/55/1 807/39/1 808/38/1
f 809/54/1 810/55/1 811/39/1 812/38/1
f 813/54/1 814/55/1 815/39/1 816/38/1
f 817/54/1 818/55/1 819/39/1 820/38/1
f 821/55/1 822/57/1 823/40/1 824/39/1
f 825/38/1 826/39/1 827/25/1 828/22/1
f 829/39/1 830/40/1 831/27/1 832/25/1
f 833/38/1 834/39/1 835/25/1 836/22/1
f 837/39/1 838/40/1 839/27/1 840/25/1
f 841/53/1 842/54/1 843/38/1 844/37/1
f 845/54/1 846/55/1 847/39/1 848/38/1
f 849/55/1 850/57/1 851/40/1 852/39/1
f 853/54/1 854/55/1 855/39/1 856/38/1
f 857/55/1 858/57/1 859/40/1 860/39/1

