# Tiled2Unity generated file. Do not modify by hand.
# Wavefront file for 'Town_mesh_0013.obj'

# Vertices (Count = 156)
v -19.84 -0.64 0
v -20.16 -0.64 0
v -20.16 -0.32 0
v -19.84 -0.32 0
v -20.16 -0.64 0
v -20.48 -0.64 0
v -20.48 -0.32 0
v -20.16 -0.32 0
v -21.12 -0.64 0
v -21.44 -0.64 0
v -21.44 -0.32 0
v -21.12 -0.32 0
v -21.44 -0.64 0
v -21.76 -0.64 0
v -21.76 -0.32 0
v -21.44 -0.32 0
v -19.84 -0.96 0
v -20.16 -0.96 0
v -20.16 -0.64 0
v -19.84 -0.64 0
v -21.44 -0.96 0
v -21.76 -0.96 0
v -21.76 -0.64 0
v -21.44 -0.64 0
v -19.84 -1.28 0
v -20.16 -1.28 0
v -20.16 -0.96 0
v -19.84 -0.96 0
v -21.44 -1.28 0
v -21.76 -1.28 0
v -21.76 -0.96 0
v -21.44 -0.96 0
v -7.04 -2.56 0
v -7.36 -2.56 0
v -7.36 -2.24 0
v -7.04 -2.24 0
v -7.36 -2.56 0
v -7.68 -2.56 0
v -7.68 -2.24 0
v -7.36 -2.24 0
v -7.68 -2.56 0
v -8 -2.56 0
v -8 -2.24 0
v -7.68 -2.24 0
v -8 -2.56 0
v -8.32 -2.56 0
v -8.32 -2.24 0
v -8 -2.24 0
v -8.32 -2.56 0
v -8.639999 -2.56 0
v -8.639999 -2.24 0
v -8.32 -2.24 0
v -8.639999 -2.56 0
v -8.96 -2.56 0
v -8.96 -2.24 0
v -8.639999 -2.24 0
v -8.96 -2.56 0
v -9.28 -2.56 0
v -9.28 -2.24 0
v -8.96 -2.24 0
v -7.04 -2.88 0
v -7.36 -2.88 0
v -7.36 -2.56 0
v -7.04 -2.56 0
v -7.36 -2.88 0
v -7.68 -2.88 0
v -7.68 -2.56 0
v -7.36 -2.56 0
v -7.68 -2.88 0
v -8 -2.88 0
v -8 -2.56 0
v -7.68 -2.56 0
v -8 -2.88 0
v -8.32 -2.88 0
v -8.32 -2.56 0
v -8 -2.56 0
v -8.32 -2.88 0
v -8.639999 -2.88 0
v -8.639999 -2.56 0
v -8.32 -2.56 0
v -8.639999 -2.88 0
v -8.96 -2.88 0
v -8.96 -2.56 0
v -8.639999 -2.56 0
v -8.96 -2.88 0
v -9.28 -2.88 0
v -9.28 -2.56 0
v -8.96 -2.56 0
v -7.04 -3.2 0
v -7.36 -3.2 0
v -7.36 -2.88 0
v -7.04 -2.88 0
v -7.36 -3.2 0
v -7.68 -3.2 0
v -7.68 -2.88 0
v -7.36 -2.88 0
v -7.68 -3.2 0
v -8 -3.2 0
v -8 -2.88 0
v -7.68 -2.88 0
v -8 -3.2 0
v -8.32 -3.2 0
v -8.32 -2.88 0
v -8 -2.88 0
v -8.32 -3.2 0
v -8.639999 -3.2 0
v -8.639999 -2.88 0
v -8.32 -2.88 0
v -8.639999 -3.2 0
v -8.96 -3.2 0
v -8.96 -2.88 0
v -8.639999 -2.88 0
v -8.96 -3.2 0
v -9.28 -3.2 0
v -9.28 -2.88 0
v -8.96 -2.88 0
v -7.04 -3.52 0
v -7.36 -3.52 0
v -7.36 -3.2 0
v -7.04 -3.2 0
v -7.36 -3.52 0
v -7.68 -3.52 0
v -7.68 -3.2 0
v -7.36 -3.2 0
v -7.68 -3.52 0
v -8 -3.52 0
v -8 -3.2 0
v -7.68 -3.2 0
v -8 -3.52 0
v -8.32 -3.52 0
v -8.32 -3.2 0
v -8 -3.2 0
v -8.32 -3.52 0
v -8.639999 -3.52 0
v -8.639999 -3.2 0
v -8.32 -3.2 0
v -8.639999 -3.52 0
v -8.96 -3.52 0
v -8.96 -3.2 0
v -8.639999 -3.2 0
v -8.96 -3.52 0
v -9.28 -3.52 0
v -9.28 -3.2 0
v -8.96 -3.2 0
v -8 -3.84 0
v -8.32 -3.84 0
v -8.32 -3.52 0
v -8 -3.52 0
v -24.96 -13.76 0
v -25.28 -13.76 0
v -25.28 -13.44 0
v -24.96 -13.44 0
v -24.96 -14.08 0
v -25.28 -14.08 0
v -25.28 -13.76 0
v -24.96 -13.76 0

# Texture cooridinates (Count = 34)
vt 0 0.2857143
vt 0.1111111 0.2857143
vt 0.1111111 0.4285714
vt 0 0.4285714
vt 0.2222222 0.2857143
vt 0.3333333 0.2857143
vt 0.3333333 0.4285714
vt 0.2222222 0.4285714
vt 0 0.1428571
vt 0.1111111 0.1428571
vt 0.2222222 0.1428571
vt 0.3333333 0.1428571
vt 0 0.8571429
vt 0.1111111 0.8571429
vt 0.1111111 1
vt 0 1
vt 0.2222222 0.8571429
vt 0.2222222 1
vt 0.3333333 0.8571429
vt 0.3333333 1
vt 0 0.7142857
vt 0.1111111 0.7142857
vt 0.2222222 0.7142857
vt 0.3333333 0.7142857
vt 0 0.5714285
vt 0.1111111 0.5714285
vt 0.2222222 0.5714285
vt 0.4444444 0.8571429
vt 0.5555556 0.8571429
vt 0.5555556 1
vt 0.4444444 1
vt 0.3333333 0.5714285
vt 0.4444444 0.7142857
vt 0.5555556 0.7142857

# Normal
vn 0 0 -1

# Mesh description
g Town_mesh_0013

# Faces
f 1/1/1 2/2/1 3/3/1 4/4/1
f 5/1/1 6/2/1 7/3/1 8/4/1
f 9/5/1 10/6/1 11/7/1 12/8/1
f 13/5/1 14/6/1 15/7/1 16/8/1
f 17/1/1 18/2/1 19/3/1 20/4/1
f 21/5/1 22/6/1 23/7/1 24/8/1
f 25/9/1 26/10/1 27/2/1 28/1/1
f 29/11/1 30/12/1 31/6/1 32/5/1
f 33/13/1 34/14/1 35/15/1 36/16/1
f 37/14/1 38/17/1 39/18/1 40/15/1
f 41/14/1 42/17/1 43/18/1 44/15/1
f 45/14/1 46/17/1 47/18/1 48/15/1
f 49/14/1 50/17/1 51/18/1 52/15/1
f 53/14/1 54/17/1 55/18/1 56/15/1
f 57/17/1 58/19/1 59/20/1 60/18/1
f 61/21/1 62/22/1 63/14/1 64/13/1
f 65/22/1 66/23/1 67/17/1 68/14/1
f 69/22/1 70/23/1 71/17/1 72/14/1
f 73/22/1 74/23/1 75/17/1 76/14/1
f 77/22/1 78/23/1 79/17/1 80/14/1
f 81/22/1 82/23/1 83/17/1 84/14/1
f 85/23/1 86/24/1 87/19/1 88/17/1
f 89/21/1 90/22/1 91/14/1 92/13/1
f 93/22/1 94/23/1 95/17/1 96/14/1
f 97/22/1 98/23/1 99/17/1 100/14/1
f 101/22/1 102/23/1 103/17/1 104/14/1
f 105/22/1 106/23/1 107/17/1 108/14/1
f 109/22/1 110/23/1 111/17/1 112/14/1
f 113/23/1 114/24/1 115/19/1 116/17/1
f 117/25/1 118/26/1 119/22/1 120/21/1
f 121/26/1 122/27/1 123/23/1 124/22/1
f 125/26/1 126/27/1 127/23/1 128/22/1
f 129/28/1 130/29/1 131/30/1 132/31/1
f 133/26/1 134/27/1 135/23/1 136/22/1
f 137/26/1 138/27/1 139/23/1 140/22/1
f 141/27/1 142/32/1 143/24/1 144/23/1
f 145/33/1 146/34/1 147/29/1 148/28/1
f 149/28/1 150/29/1 151/30/1 152/31/1
f 153/33/1 154/34/1 155/29/1 156/28/1

