# Tiled2Unity generated file. Do not modify by hand.
# Wavefront file for 'Town_mesh_0011.obj'

# Vertices (Count = 196)
v 0 -0.32 0
v -0.32 -0.32 0
v -0.32 0 0
v 0 0 0
v -2.56 -0.32 0
v -2.88 -0.32 0
v -2.88 0 0
v -2.56 0 0
v -7.04 -0.64 0
v -7.36 -0.64 0
v -7.36 -0.32 0
v -7.04 -0.32 0
v -7.68 -1.92 0
v -8 -1.92 0
v -8 -1.6 0
v -7.68 -1.6 0
v -8 -1.92 0
v -8.32 -1.92 0
v -8.32 -1.6 0
v -8 -1.6 0
v -8.32 -1.92 0
v -8.639999 -1.92 0
v -8.639999 -1.6 0
v -8.32 -1.6 0
v -9.599999 -1.92 0
v -9.92 -1.92 0
v -9.92 -1.6 0
v -9.599999 -1.6 0
v -9.92 -1.92 0
v -10.24 -1.92 0
v -10.24 -1.6 0
v -9.92 -1.6 0
v -10.24 -1.92 0
v -10.56 -1.92 0
v -10.56 -1.6 0
v -10.24 -1.6 0
v -2.88 -2.24 0
v -3.2 -2.24 0
v -3.2 -1.92 0
v -2.88 -1.92 0
v -7.68 -2.24 0
v -8 -2.24 0
v -8 -1.92 0
v -7.68 -1.92 0
v -8 -2.24 0
v -8.32 -2.24 0
v -8.32 -1.92 0
v -8 -1.92 0
v -8.32 -2.24 0
v -8.639999 -2.24 0
v -8.639999 -1.92 0
v -8.32 -1.92 0
v -9.599999 -2.24 0
v -9.92 -2.24 0
v -9.92 -1.92 0
v -9.599999 -1.92 0
v -9.92 -2.24 0
v -10.24 -2.24 0
v -10.24 -1.92 0
v -9.92 -1.92 0
v -10.24 -2.24 0
v -10.56 -2.24 0
v -10.56 -1.92 0
v -10.24 -1.92 0
v -3.2 -2.56 0
v -3.52 -2.56 0
v -3.52 -2.24 0
v -3.2 -2.24 0
v -5.44 -2.56 0
v -5.76 -2.56 0
v -5.76 -2.24 0
v -5.44 -2.24 0
v -8 -2.56 0
v -8.32 -2.56 0
v -8.32 -2.24 0
v -8 -2.24 0
v -10.24 -2.56 0
v -10.56 -2.56 0
v -10.56 -2.24 0
v -10.24 -2.24 0
v 0 -3.84 0
v -0.32 -3.84 0
v -0.32 -3.52 0
v 0 -3.52 0
v -3.2 -3.84 0
v -3.52 -3.84 0
v -3.52 -3.52 0
v -3.2 -3.52 0
v -9.28 -4.16 0
v -9.599999 -4.16 0
v -9.599999 -3.84 0
v -9.28 -3.84 0
v -5.12 -4.48 0
v -5.44 -4.48 0
v -5.44 -4.16 0
v -5.12 -4.16 0
v -9.28 -4.48 0
v -9.599999 -4.48 0
v -9.599999 -4.16 0
v -9.28 -4.16 0
v -5.44 -5.76 0
v -5.76 -5.76 0
v -5.76 -5.44 0
v -5.44 -5.44 0
v 0 -6.08 0
v -0.32 -6.08 0
v -0.32 -5.76 0
v 0 -5.76 0
v -10.56 -7.04 0
v -10.88 -7.04 0
v -10.88 -6.72 0
v -10.56 -6.72 0
v 0 -7.36 0
v -0.32 -7.36 0
v -0.32 -7.04 0
v 0 -7.04 0
v -3.2 -8 0
v -3.52 -8 0
v -3.52 -7.68 0
v -3.2 -7.68 0
v -6.72 -8 0
v -7.04 -8 0
v -7.04 -7.68 0
v -6.72 -7.68 0
v -9.599999 -8 0
v -9.92 -8 0
v -9.92 -7.68 0
v -9.599999 -7.68 0
v -8.639999 -9.599999 0
v -8.96 -9.599999 0
v -8.96 -9.28 0
v -8.639999 -9.28 0
v -9.599999 -9.599999 0
v -9.92 -9.599999 0
v -9.92 -9.28 0
v -9.599999 -9.28 0
v -3.2 -10.24 0
v -3.52 -10.24 0
v -3.52 -9.92 0
v -3.2 -9.92 0
v -5.44 -10.56 0
v -5.76 -10.56 0
v -5.76 -10.24 0
v -5.44 -10.24 0
v -8.32 -10.56 0
v -8.639999 -10.56 0
v -8.639999 -10.24 0
v -8.32 -10.24 0
v -9.92 -10.56 0
v -10.24 -10.56 0
v -10.24 -10.24 0
v -9.92 -10.24 0
v -4.8 -10.88 0
v -5.12 -10.88 0
v -5.12 -10.56 0
v -4.8 -10.56 0
v -7.04 -10.88 0
v -7.36 -10.88 0
v -7.36 -10.56 0
v -7.04 -10.56 0
v -0.32 -11.52 0
v -0.64 -11.52 0
v -0.64 -11.2 0
v -0.32 -11.2 0
v -6.72 -12.16 0
v -7.04 -12.16 0
v -7.04 -11.84 0
v -6.72 -11.84 0
v -5.44 -12.48 0
v -5.76 -12.48 0
v -5.76 -12.16 0
v -5.44 -12.16 0
v 0 -12.8 0
v -0.32 -12.8 0
v -0.32 -12.48 0
v 0 -12.48 0
v -5.12 -13.12 0
v -5.44 -13.12 0
v -5.44 -12.8 0
v -5.12 -12.8 0
v -7.68 -13.12 0
v -8 -13.12 0
v -8 -12.8 0
v -7.68 -12.8 0
v -5.44 -13.76 0
v -5.76 -13.76 0
v -5.76 -13.44 0
v -5.44 -13.44 0
v -9.92 -14.08 0
v -10.24 -14.08 0
v -10.24 -13.76 0
v -9.92 -13.76 0
v -0.32 -14.4 0
v -0.64 -14.4 0
v -0.64 -14.08 0
v -0.32 -14.08 0

# Texture cooridinates (Count = 51)
vt 0.1 0.6666666
vt 0.2 0.6666666
vt 0.2 0.8333333
vt 0.1 0.8333333
vt 0.3 0.5
vt 0.4 0.5
vt 0.4 0.6666666
vt 0.3 0.6666666
vt 0.5 0.5
vt 0.5 0.6666666
vt 0.6 0.8333333
vt 0.7 0.8333333
vt 0.7 1
vt 0.6 1
vt 0.8 0.8333333
vt 0.8 1
vt 0.9 0.8333333
vt 0.9 1
vt 0 0.3333333
vt 0.1 0.3333333
vt 0.1 0.5
vt 0 0.5
vt 0.6 0.6666666
vt 0.7 0.6666666
vt 0.8 0.6666666
vt 0.9 0.6666666
vt 0.1 0
vt 0.2 0
vt 0.2 0.1666667
vt 0.1 0.1666667
vt 0.3 0.1666667
vt 0.4 0.1666667
vt 0.4 0.3333333
vt 0.3 0.3333333
vt 0.4 0.8333333
vt 0.5 0.8333333
vt 0.5 1
vt 0.4 1
vt 0 0.6666666
vt 1 0.6666666
vt 1 0.8333333
vt 0.2 0.3333333
vt 0.2 0.5
vt 0.3 0.8333333
vt 0.3 1
vt 0.3 0
vt 0 0.8333333
vt 0.1 1
vt 0 1
vt 0 0
vt 0 0.1666667

# Normal
vn 0 0 -1

# Mesh description
g Town_mesh_0011

# Faces
f 1/1/1 2/2/1 3/3/1 4/4/1
f 5/5/1 6/6/1 7/7/1 8/8/1
f 9/6/1 10/9/1 11/10/1 12/7/1
f 13/11/1 14/12/1 15/13/1 16/14/1
f 17/12/1 18/15/1 19/16/1 20/13/1
f 21/15/1 22/17/1 23/18/1 24/16/1
f 25/17/1 26/15/1 27/16/1 28/18/1
f 29/15/1 30/12/1 31/13/1 32/16/1
f 33/12/1 34/11/1 35/14/1 36/13/1
f 37/19/1 38/20/1 39/21/1 40/22/1
f 41/23/1 42/24/1 43/12/1 44/11/1
f 45/24/1 46/25/1 47/15/1 48/12/1
f 49/25/1 50/26/1 51/17/1 52/15/1
f 53/26/1 54/25/1 55/15/1 56/17/1
f 57/25/1 58/24/1 59/12/1 60/15/1
f 61/24/1 62/23/1 63/11/1 64/12/1
f 65/27/1 66/28/1 67/29/1 68/30/1
f 69/31/1 70/32/1 71/33/1 72/34/1
f 73/35/1 74/36/1 75/37/1 76/38/1
f 77/7/1 78/10/1 79/36/1 80/35/1
f 81/22/1 82/21/1 83/1/1 84/39/1
f 85/26/1 86/40/1 87/41/1 88/17/1
f 89/42/1 90/34/1 91/5/1 92/43/1
f 93/44/1 94/35/1 95/38/1 96/45/1
f 97/6/1 98/9/1 99/10/1 100/7/1
f 101/10/1 102/23/1 103/11/1 104/36/1
f 105/6/1 106/9/1 107/10/1 108/7/1
f 109/21/1 110/43/1 111/2/1 112/1/1
f 113/30/1 114/29/1 115/42/1 116/20/1
f 117/19/1 118/20/1 119/21/1 120/22/1
f 121/19/1 122/20/1 123/21/1 124/22/1
f 125/10/1 126/23/1 127/11/1 128/36/1
f 129/29/1 130/31/1 131/34/1 132/42/1
f 133/20/1 134/42/1 135/43/1 136/21/1
f 137/27/1 138/28/1 139/29/1 140/30/1
f 141/26/1 142/40/1 143/41/1 144/17/1
f 145/1/1 146/2/1 147/3/1 148/4/1
f 149/42/1 150/34/1 151/5/1 152/43/1
f 153/43/1 154/5/1 155/8/1 156/2/1
f 157/19/1 158/20/1 159/21/1 160/22/1
f 161/27/1 162/28/1 163/29/1 164/30/1
f 165/27/1 166/28/1 167/29/1 168/30/1
f 169/1/1 170/2/1 171/3/1 172/4/1
f 173/31/1 174/32/1 175/33/1 176/34/1
f 177/2/1 178/8/1 179/44/1 180/3/1
f 181/28/1 182/46/1 183/31/1 184/29/1
f 185/47/1 186/4/1 187/48/1 188/49/1
f 189/50/1 190/27/1 191/30/1 192/51/1
f 193/30/1 194/29/1 195/42/1 196/20/1

