# Tiled2Unity generated file. Do not modify by hand.
# Wavefront file for 'Town_mesh_0016.obj'

# Vertices (Count = 280)
v -16.96 -0.96 0
v -17.28 -0.96 0
v -17.28 -0.64 0
v -16.96 -0.64 0
v -17.28 -0.96 0
v -17.6 -0.96 0
v -17.6 -0.64 0
v -17.28 -0.64 0
v -17.6 -0.96 0
v -17.92 -0.96 0
v -17.92 -0.64 0
v -17.6 -0.64 0
v -17.92 -0.96 0
v -18.24 -0.96 0
v -18.24 -0.64 0
v -17.92 -0.64 0
v -16.64 -1.28 0
v -16.96 -1.28 0
v -16.96 -0.96 0
v -16.64 -0.96 0
v -16.96 -1.28 0
v -17.28 -1.28 0
v -17.28 -0.96 0
v -16.96 -0.96 0
v -17.28 -1.28 0
v -17.6 -1.28 0
v -17.6 -0.96 0
v -17.28 -0.96 0
v -17.6 -1.28 0
v -17.92 -1.28 0
v -17.92 -0.96 0
v -17.6 -0.96 0
v -17.92 -1.28 0
v -18.24 -1.28 0
v -18.24 -0.96 0
v -17.92 -0.96 0
v -18.24 -1.28 0
v -18.56 -1.28 0
v -18.56 -0.96 0
v -18.24 -0.96 0
v -16.64 -1.6 0
v -16.96 -1.6 0
v -16.96 -1.28 0
v -16.64 -1.28 0
v -16.96 -1.6 0
v -17.28 -1.6 0
v -17.28 -1.28 0
v -16.96 -1.28 0
v -17.28 -1.6 0
v -17.6 -1.6 0
v -17.6 -1.28 0
v -17.28 -1.28 0
v -17.6 -1.6 0
v -17.92 -1.6 0
v -17.92 -1.28 0
v -17.6 -1.28 0
v -17.92 -1.6 0
v -18.24 -1.6 0
v -18.24 -1.28 0
v -17.92 -1.28 0
v -18.24 -1.6 0
v -18.56 -1.6 0
v -18.56 -1.28 0
v -18.24 -1.28 0
v -16.64 -1.92 0
v -16.96 -1.92 0
v -16.96 -1.6 0
v -16.64 -1.6 0
v -16.96 -1.92 0
v -17.28 -1.92 0
v -17.28 -1.6 0
v -16.96 -1.6 0
v -17.28 -1.92 0
v -17.6 -1.92 0
v -17.6 -1.6 0
v -17.28 -1.6 0
v -17.6 -1.92 0
v -17.92 -1.92 0
v -17.92 -1.6 0
v -17.6 -1.6 0
v -17.92 -1.92 0
v -18.24 -1.92 0
v -18.24 -1.6 0
v -17.92 -1.6 0
v -18.24 -1.92 0
v -18.56 -1.92 0
v -18.56 -1.6 0
v -18.24 -1.6 0
v -16.64 -2.24 0
v -16.96 -2.24 0
v -16.96 -1.92 0
v -16.64 -1.92 0
v -16.96 -2.24 0
v -17.28 -2.24 0
v -17.28 -1.92 0
v -16.96 -1.92 0
v -17.28 -2.24 0
v -17.6 -2.24 0
v -17.6 -1.92 0
v -17.28 -1.92 0
v -17.6 -2.24 0
v -17.92 -2.24 0
v -17.92 -1.92 0
v -17.6 -1.92 0
v -17.92 -2.24 0
v -18.24 -2.24 0
v -18.24 -1.92 0
v -17.92 -1.92 0
v -18.24 -2.24 0
v -18.56 -2.24 0
v -18.56 -1.92 0
v -18.24 -1.92 0
v -16.32 -4.16 0
v -16.64 -4.16 0
v -16.64 -3.84 0
v -16.32 -3.84 0
v -16.64 -4.16 0
v -16.96 -4.16 0
v -16.96 -3.84 0
v -16.64 -3.84 0
v -16.96 -4.16 0
v -17.28 -4.16 0
v -17.28 -3.84 0
v -16.96 -3.84 0
v -17.28 -4.16 0
v -17.6 -4.16 0
v -17.6 -3.84 0
v -17.28 -3.84 0
v -17.6 -4.16 0
v -17.92 -4.16 0
v -17.92 -3.84 0
v -17.6 -3.84 0
v -17.92 -4.16 0
v -18.24 -4.16 0
v -18.24 -3.84 0
v -17.92 -3.84 0
v -16.32 -4.48 0
v -16.64 -4.48 0
v -16.64 -4.16 0
v -16.32 -4.16 0
v -16.64 -4.48 0
v -16.96 -4.48 0
v -16.96 -4.16 0
v -16.64 -4.16 0
v -16.96 -4.48 0
v -17.28 -4.48 0
v -17.28 -4.16 0
v -16.96 -4.16 0
v -17.28 -4.48 0
v -17.6 -4.48 0
v -17.6 -4.16 0
v -17.28 -4.16 0
v -17.6 -4.48 0
v -17.92 -4.48 0
v -17.92 -4.16 0
v -17.6 -4.16 0
v -17.92 -4.48 0
v -18.24 -4.48 0
v -18.24 -4.16 0
v -17.92 -4.16 0
v -16.32 -4.8 0
v -16.64 -4.8 0
v -16.64 -4.48 0
v -16.32 -4.48 0
v -16.64 -4.8 0
v -16.96 -4.8 0
v -16.96 -4.48 0
v -16.64 -4.48 0
v -16.96 -4.8 0
v -17.28 -4.8 0
v -17.28 -4.48 0
v -16.96 -4.48 0
v -17.28 -4.8 0
v -17.6 -4.8 0
v -17.6 -4.48 0
v -17.28 -4.48 0
v -17.6 -4.8 0
v -17.92 -4.8 0
v -17.92 -4.48 0
v -17.6 -4.48 0
v -17.92 -4.8 0
v -18.24 -4.8 0
v -18.24 -4.48 0
v -17.92 -4.48 0
v -18.24 -4.8 0
v -18.56 -4.8 0
v -18.56 -4.48 0
v -18.24 -4.48 0
v -18.56 -4.8 0
v -18.88 -4.8 0
v -18.88 -4.48 0
v -18.56 -4.48 0
v -16.32 -5.12 0
v -16.64 -5.12 0
v -16.64 -4.8 0
v -16.32 -4.8 0
v -16.64 -5.12 0
v -16.96 -5.12 0
v -16.96 -4.8 0
v -16.64 -4.8 0
v -16.96 -5.12 0
v -17.28 -5.12 0
v -17.28 -4.8 0
v -16.96 -4.8 0
v -17.28 -5.12 0
v -17.6 -5.12 0
v -17.6 -4.8 0
v -17.28 -4.8 0
v -17.6 -5.12 0
v -17.92 -5.12 0
v -17.92 -4.8 0
v -17.6 -4.8 0
v -17.92 -5.12 0
v -18.24 -5.12 0
v -18.24 -4.8 0
v -17.92 -4.8 0
v -18.24 -5.12 0
v -18.56 -5.12 0
v -18.56 -4.8 0
v -18.24 -4.8 0
v -18.56 -5.12 0
v -18.88 -5.12 0
v -18.88 -4.8 0
v -18.56 -4.8 0
v -18.88 -5.12 0
v -19.2 -5.12 0
v -19.2 -4.8 0
v -18.88 -4.8 0
v -16.32 -5.44 0
v -16.64 -5.44 0
v -16.64 -5.12 0
v -16.32 -5.12 0
v -16.64 -5.44 0
v -16.96 -5.44 0
v -16.96 -5.12 0
v -16.64 -5.12 0
v -16.96 -5.44 0
v -17.28 -5.44 0
v -17.28 -5.12 0
v -16.96 -5.12 0
v -17.28 -5.44 0
v -17.6 -5.44 0
v -17.6 -5.12 0
v -17.28 -5.12 0
v -17.6 -5.44 0
v -17.92 -5.44 0
v -17.92 -5.12 0
v -17.6 -5.12 0
v -17.92 -5.44 0
v -18.24 -5.44 0
v -18.24 -5.12 0
v -17.92 -5.12 0
v -18.24 -5.44 0
v -18.56 -5.44 0
v -18.56 -5.12 0
v -18.24 -5.12 0
v -18.56 -5.44 0
v -18.88 -5.44 0
v -18.88 -5.12 0
v -18.56 -5.12 0
v -18.88 -5.44 0
v -19.2 -5.44 0
v -19.2 -5.12 0
v -18.88 -5.12 0
v -16.32 -5.76 0
v -16.64 -5.76 0
v -16.64 -5.44 0
v -16.32 -5.44 0
v -16.64 -5.76 0
v -16.96 -5.76 0
v -16.96 -5.44 0
v -16.64 -5.44 0
v -17.6 -5.76 0
v -17.92 -5.76 0
v -17.92 -5.44 0
v -17.6 -5.44 0
v -17.92 -5.76 0
v -18.24 -5.76 0
v -18.24 -5.44 0
v -17.92 -5.44 0

# Texture cooridinates (Count = 48)
vt 0.125 0.8285714
vt 0.25 0.8285714
vt 0.25 0.8428571
vt 0.125 0.8428571
vt 0.125 0.7857143
vt 0.25 0.7857143
vt 0.25 0.8
vt 0.125 0.8
vt 0.625 0.4857143
vt 0.75 0.4857143
vt 0.75 0.5
vt 0.625 0.5
vt 0 0.8142857
vt 0.125 0.8142857
vt 0 0.8285714
vt 0.25 0.8142857
vt 0.375 0.8142857
vt 0.375 0.8285714
vt 0 0.8
vt 0.375 0.8
vt 0.25 0.5142857
vt 0.375 0.5142857
vt 0.375 0.5285714
vt 0.25 0.5285714
vt 0.5 0.5142857
vt 0.5 0.5285714
vt 0.625 0.5142857
vt 0.625 0.5285714
vt 0.75 0.5142857
vt 0.75 0.5285714
vt 0.875 0.5142857
vt 0.875 0.5285714
vt 1 0.5142857
vt 1 0.5285714
vt 0.25 0.5
vt 0.375 0.5
vt 0.5 0.5
vt 0.875 0.5
vt 1 0.5
vt 0.25 0.4857143
vt 0.375 0.4857143
vt 0.5 0.4857143
vt 0.875 0.4857143
vt 1 0.4857143
vt 0 0.8428571
vt 0.375 0.8428571
vt 0 0.7857143
vt 0.375 0.7857143

# Normal
vn 0 0 -1

# Mesh description
g Town_mesh_0016

# Faces
f 1/1/1 2/2/1 3/3/1 4/4/1
f 5/1/1 6/2/1 7/3/1 8/4/1
f 9/1/1 10/2/1 11/3/1 12/4/1
f 13/1/1 14/2/1 15/3/1 16/4/1
f 17/5/1 18/6/1 19/7/1 20/8/1
f 21/1/1 22/2/1 23/3/1 24/4/1
f 25/1/1 26/2/1 27/3/1 28/4/1
f 29/1/1 30/2/1 31/3/1 32/4/1
f 33/1/1 34/2/1 35/3/1 36/4/1
f 37/9/1 38/10/1 39/11/1 40/12/1
f 41/1/1 42/2/1 43/3/1 44/4/1
f 45/1/1 46/2/1 47/3/1 48/4/1
f 49/1/1 50/2/1 51/3/1 52/4/1
f 53/1/1 54/2/1 55/3/1 56/4/1
f 57/1/1 58/2/1 59/3/1 60/4/1
f 61/1/1 62/2/1 63/3/1 64/4/1
f 65/13/1 66/14/1 67/1/1 68/15/1
f 69/14/1 70/16/1 71/2/1 72/1/1
f 73/14/1 74/16/1 75/2/1 76/1/1
f 77/14/1 78/16/1 79/2/1 80/1/1
f 81/14/1 82/16/1 83/2/1 84/1/1
f 85/16/1 86/17/1 87/18/1 88/2/1
f 89/19/1 90/8/1 91/14/1 92/13/1
f 93/8/1 94/7/1 95/16/1 96/14/1
f 97/8/1 98/7/1 99/16/1 100/14/1
f 101/8/1 102/7/1 103/16/1 104/14/1
f 105/8/1 106/7/1 107/16/1 108/14/1
f 109/7/1 110/20/1 111/17/1 112/16/1
f 113/21/1 114/22/1 115/23/1 116/24/1
f 117/22/1 118/25/1 119/26/1 120/23/1
f 121/25/1 122/27/1 123/28/1 124/26/1
f 125/27/1 126/29/1 127/30/1 128/28/1
f 129/29/1 130/31/1 131/32/1 132/30/1
f 133/31/1 134/33/1 135/34/1 136/32/1
f 137/35/1 138/36/1 139/22/1 140/21/1
f 141/36/1 142/37/1 143/25/1 144/22/1
f 145/37/1 146/12/1 147/27/1 148/25/1
f 149/12/1 150/11/1 151/29/1 152/27/1
f 153/11/1 154/38/1 155/31/1 156/29/1
f 157/38/1 158/39/1 159/33/1 160/31/1
f 161/40/1 162/41/1 163/36/1 164/35/1
f 165/41/1 166/42/1 167/37/1 168/36/1
f 169/42/1 170/9/1 171/12/1 172/37/1
f 173/9/1 174/10/1 175/11/1 176/12/1
f 177/10/1 178/43/1 179/38/1 180/11/1
f 181/43/1 182/44/1 183/39/1 184/38/1
f 185/9/1 186/10/1 187/11/1 188/12/1
f 189/9/1 190/10/1 191/11/1 192/12/1
f 193/45/1 194/4/1 195/1/1 196/15/1
f 197/4/1 198/3/1 199/2/1 200/1/1
f 201/4/1 202/3/1 203/2/1 204/1/1
f 205/4/1 206/3/1 207/2/1 208/1/1
f 209/4/1 210/3/1 211/2/1 212/1/1
f 213/3/1 214/46/1 215/18/1 216/2/1
f 217/14/1 218/16/1 219/2/1 220/1/1
f 221/14/1 222/16/1 223/2/1 224/1/1
f 225/16/1 226/17/1 227/18/1 228/2/1
f 229/47/1 230/5/1 231/8/1 232/19/1
f 233/5/1 234/6/1 235/7/1 236/8/1
f 237/5/1 238/6/1 239/7/1 240/8/1
f 241/5/1 242/6/1 243/7/1 244/8/1
f 245/5/1 246/6/1 247/7/1 248/8/1
f 249/6/1 250/48/1 251/20/1 252/7/1
f 253/8/1 254/7/1 255/16/1 256/14/1
f 257/8/1 258/7/1 259/16/1 260/14/1
f 261/7/1 262/20/1 263/17/1 264/16/1
f 265/19/1 266/8/1 267/14/1 268/13/1
f 269/8/1 270/7/1 271/16/1 272/14/1
f 273/8/1 274/7/1 275/16/1 276/14/1
f 277/7/1 278/20/1 279/17/1 280/16/1

