# Tiled2Unity generated file. Do not modify by hand.
# Wavefront file for 'Town_mesh_0008.obj'

# Vertices (Count = 48)
v -31.04 -3.2 0
v -31.36 -3.2 0
v -31.36 -2.88 0
v -31.04 -2.88 0
v -31.36 -3.2 0
v -31.68 -3.2 0
v -31.68 -2.88 0
v -31.36 -2.88 0
v -32.32 -3.2 0
v -32.64 -3.2 0
v -32.64 -2.88 0
v -32.32 -2.88 0
v -32.64 -3.2 0
v -32.96 -3.2 0
v -32.96 -2.88 0
v -32.64 -2.88 0
v -31.04 -3.84 0
v -31.36 -3.84 0
v -31.36 -3.52 0
v -31.04 -3.52 0
v -31.36 -3.84 0
v -31.68 -3.84 0
v -31.68 -3.52 0
v -31.36 -3.52 0
v -32.32 -3.84 0
v -32.64 -3.84 0
v -32.64 -3.52 0
v -32.32 -3.52 0
v -32.64 -3.84 0
v -32.96 -3.84 0
v -32.96 -3.52 0
v -32.64 -3.52 0
v -31.04 -4.16 0
v -31.36 -4.16 0
v -31.36 -3.84 0
v -31.04 -3.84 0
v -31.36 -4.16 0
v -31.68 -4.16 0
v -31.68 -3.84 0
v -31.36 -3.84 0
v -32.32 -4.16 0
v -32.64 -4.16 0
v -32.64 -3.84 0
v -32.32 -3.84 0
v -32.64 -4.16 0
v -32.96 -4.16 0
v -32.96 -3.84 0
v -32.64 -3.84 0

# Texture cooridinates (Count = 15)
vt 0.34375 0.6875
vt 0.375 0.6875
vt 0.375 0.71875
vt 0.34375 0.71875
vt 0.40625 0.6875
vt 0.40625 0.71875
vt 0.4375 0.6875
vt 0.4375 0.71875
vt 0.46875 0.6875
vt 0.46875 0.71875
vt 0.34375 0.65625
vt 0.375 0.65625
vt 0.40625 0.65625
vt 0.4375 0.65625
vt 0.46875 0.65625

# Normal
vn 0 0 -1

# Mesh description
g Town_mesh_0008

# Faces
f 1/1/1 2/2/1 3/3/1 4/4/1
f 5/2/1 6/5/1 7/6/1 8/3/1
f 9/5/1 10/7/1 11/8/1 12/6/1
f 13/7/1 14/9/1 15/10/1 16/8/1
f 17/1/1 18/2/1 19/3/1 20/4/1
f 21/2/1 22/5/1 23/6/1 24/3/1
f 25/5/1 26/7/1 27/8/1 28/6/1
f 29/7/1 30/9/1 31/10/1 32/8/1
f 33/11/1 34/12/1 35/2/1 36/1/1
f 37/12/1 38/13/1 39/5/1 40/2/1
f 41/13/1 42/14/1 43/7/1 44/5/1
f 45/14/1 46/15/1 47/9/1 48/7/1

