# Tiled2Unity generated file. Do not modify by hand.
# Wavefront file for 'Town_mesh_0029.obj'

# Vertices (Count = 784)
v -16.96 -0.32 0
v -17.28 -0.32 0
v -17.28 0 0
v -16.96 0 0
v -17.28 -0.32 0
v -17.6 -0.32 0
v -17.6 0 0
v -17.28 0 0
v -17.6 -0.32 0
v -17.92 -0.32 0
v -17.92 0 0
v -17.6 0 0
v -17.92 -0.32 0
v -18.24 -0.32 0
v -18.24 0 0
v -17.92 0 0
v -16.64 -0.64 0
v -16.96 -0.64 0
v -16.96 -0.32 0
v -16.64 -0.32 0
v -16.96 -0.64 0
v -17.28 -0.64 0
v -17.28 -0.32 0
v -16.96 -0.32 0
v -17.28 -0.64 0
v -17.6 -0.64 0
v -17.6 -0.32 0
v -17.28 -0.32 0
v -17.6 -0.64 0
v -17.92 -0.64 0
v -17.92 -0.32 0
v -17.6 -0.32 0
v -17.92 -0.64 0
v -18.24 -0.64 0
v -18.24 -0.32 0
v -17.92 -0.32 0
v -18.24 -0.64 0
v -18.56 -0.64 0
v -18.56 -0.32 0
v -18.24 -0.32 0
v -16.64 -0.96 0
v -16.96 -0.96 0
v -16.96 -0.64 0
v -16.64 -0.64 0
v -16.96 -0.96 0
v -17.28 -0.96 0
v -17.28 -0.64 0
v -16.96 -0.64 0
v -17.28 -0.96 0
v -17.6 -0.96 0
v -17.6 -0.64 0
v -17.28 -0.64 0
v -17.6 -0.96 0
v -17.92 -0.96 0
v -17.92 -0.64 0
v -17.6 -0.64 0
v -17.92 -0.96 0
v -18.24 -0.96 0
v -18.24 -0.64 0
v -17.92 -0.64 0
v -18.24 -0.96 0
v -18.56 -0.96 0
v -18.56 -0.64 0
v -18.24 -0.64 0
v -16.64 -1.28 0
v -16.96 -1.28 0
v -16.96 -0.96 0
v -16.64 -0.96 0
v -16.96 -1.28 0
v -17.28 -1.28 0
v -17.28 -0.96 0
v -16.96 -0.96 0
v -17.28 -1.28 0
v -17.6 -1.28 0
v -17.6 -0.96 0
v -17.28 -0.96 0
v -17.6 -1.28 0
v -17.92 -1.28 0
v -17.92 -0.96 0
v -17.6 -0.96 0
v -17.92 -1.28 0
v -18.24 -1.28 0
v -18.24 -0.96 0
v -17.92 -0.96 0
v -18.24 -1.28 0
v -18.56 -1.28 0
v -18.56 -0.96 0
v -18.24 -0.96 0
v -16.64 -1.6 0
v -16.96 -1.6 0
v -16.96 -1.28 0
v -16.64 -1.28 0
v -18.24 -1.6 0
v -18.56 -1.6 0
v -18.56 -1.28 0
v -18.24 -1.28 0
v -16.96 -3.2 0
v -17.28 -3.2 0
v -17.28 -2.88 0
v -16.96 -2.88 0
v -17.28 -3.2 0
v -17.6 -3.2 0
v -17.6 -2.88 0
v -17.28 -2.88 0
v -16.64 -3.52 0
v -16.96 -3.52 0
v -16.96 -3.2 0
v -16.64 -3.2 0
v -16.96 -3.52 0
v -17.28 -3.52 0
v -17.28 -3.2 0
v -16.96 -3.2 0
v -17.28 -3.52 0
v -17.6 -3.52 0
v -17.6 -3.2 0
v -17.28 -3.2 0
v -17.6 -3.52 0
v -17.92 -3.52 0
v -17.92 -3.2 0
v -17.6 -3.2 0
v -38.72 -3.52 0
v -39.04 -3.52 0
v -39.04 -3.2 0
v -38.72 -3.2 0
v -39.36 -3.52 0
v -39.68 -3.52 0
v -39.68 -3.2 0
v -39.36 -3.2 0
v -40 -3.52 0
v -40.32 -3.52 0
v -40.32 -3.2 0
v -40 -3.2 0
v -40.96 -3.52 0
v -41.28 -3.52 0
v -41.28 -3.2 0
v -40.96 -3.2 0
v -41.6 -3.52 0
v -41.92 -3.52 0
v -41.92 -3.2 0
v -41.6 -3.2 0
v -42.24 -3.52 0
v -42.56 -3.52 0
v -42.56 -3.2 0
v -42.24 -3.2 0
v -16.32 -3.84 0
v -16.64 -3.84 0
v -16.64 -3.52 0
v -16.32 -3.52 0
v -16.64 -3.84 0
v -16.96 -3.84 0
v -16.96 -3.52 0
v -16.64 -3.52 0
v -16.96 -3.84 0
v -17.28 -3.84 0
v -17.28 -3.52 0
v -16.96 -3.52 0
v -17.28 -3.84 0
v -17.6 -3.84 0
v -17.6 -3.52 0
v -17.28 -3.52 0
v -17.6 -3.84 0
v -17.92 -3.84 0
v -17.92 -3.52 0
v -17.6 -3.52 0
v -17.92 -3.84 0
v -18.24 -3.84 0
v -18.24 -3.52 0
v -17.92 -3.52 0
v -18.24 -3.84 0
v -18.56 -3.84 0
v -18.56 -3.52 0
v -18.24 -3.52 0
v -18.56 -3.84 0
v -18.88 -3.84 0
v -18.88 -3.52 0
v -18.56 -3.52 0
v -16.32 -4.16 0
v -16.64 -4.16 0
v -16.64 -3.84 0
v -16.32 -3.84 0
v -16.64 -4.16 0
v -16.96 -4.16 0
v -16.96 -3.84 0
v -16.64 -3.84 0
v -16.96 -4.16 0
v -17.28 -4.16 0
v -17.28 -3.84 0
v -16.96 -3.84 0
v -17.28 -4.16 0
v -17.6 -4.16 0
v -17.6 -3.84 0
v -17.28 -3.84 0
v -17.6 -4.16 0
v -17.92 -4.16 0
v -17.92 -3.84 0
v -17.6 -3.84 0
v -17.92 -4.16 0
v -18.24 -4.16 0
v -18.24 -3.84 0
v -17.92 -3.84 0
v -18.24 -4.16 0
v -18.56 -4.16 0
v -18.56 -3.84 0
v -18.24 -3.84 0
v -18.56 -4.16 0
v -18.88 -4.16 0
v -18.88 -3.84 0
v -18.56 -3.84 0
v -18.88 -4.16 0
v -19.2 -4.16 0
v -19.2 -3.84 0
v -18.88 -3.84 0
v -16.32 -4.48 0
v -16.64 -4.48 0
v -16.64 -4.16 0
v -16.32 -4.16 0
v -16.64 -4.48 0
v -16.96 -4.48 0
v -16.96 -4.16 0
v -16.64 -4.16 0
v -16.96 -4.48 0
v -17.28 -4.48 0
v -17.28 -4.16 0
v -16.96 -4.16 0
v -17.28 -4.48 0
v -17.6 -4.48 0
v -17.6 -4.16 0
v -17.28 -4.16 0
v -17.6 -4.48 0
v -17.92 -4.48 0
v -17.92 -4.16 0
v -17.6 -4.16 0
v -17.92 -4.48 0
v -18.24 -4.48 0
v -18.24 -4.16 0
v -17.92 -4.16 0
v -18.24 -4.48 0
v -18.56 -4.48 0
v -18.56 -4.16 0
v -18.24 -4.16 0
v -18.56 -4.48 0
v -18.88 -4.48 0
v -18.88 -4.16 0
v -18.56 -4.16 0
v -18.88 -4.48 0
v -19.2 -4.48 0
v -19.2 -4.16 0
v -18.88 -4.16 0
v -16.32 -4.8 0
v -16.64 -4.8 0
v -16.64 -4.48 0
v -16.32 -4.48 0
v -17.92 -4.8 0
v -18.24 -4.8 0
v -18.24 -4.48 0
v -17.92 -4.48 0
v -18.24 -4.8 0
v -18.56 -4.8 0
v -18.56 -4.48 0
v -18.24 -4.48 0
v -18.56 -4.8 0
v -18.88 -4.8 0
v -18.88 -4.48 0
v -18.56 -4.48 0
v -18.88 -4.8 0
v -19.2 -4.8 0
v -19.2 -4.48 0
v -18.88 -4.48 0
v -18.88 -5.12 0
v -19.2 -5.12 0
v -19.2 -4.8 0
v -18.88 -4.8 0
v -16.96 -6.72 0
v -17.28 -6.72 0
v -17.28 -6.4 0
v -16.96 -6.4 0
v -17.28 -6.72 0
v -17.6 -6.72 0
v -17.6 -6.4 0
v -17.28 -6.4 0
v -17.6 -6.72 0
v -17.92 -6.72 0
v -17.92 -6.4 0
v -17.6 -6.4 0
v -17.92 -6.72 0
v -18.24 -6.72 0
v -18.24 -6.4 0
v -17.92 -6.4 0
v -16.96 -7.04 0
v -17.28 -7.04 0
v -17.28 -6.72 0
v -16.96 -6.72 0
v -17.28 -7.04 0
v -17.6 -7.04 0
v -17.6 -6.72 0
v -17.28 -6.72 0
v -17.6 -7.04 0
v -17.92 -7.04 0
v -17.92 -6.72 0
v -17.6 -6.72 0
v -17.92 -7.04 0
v -18.24 -7.04 0
v -18.24 -6.72 0
v -17.92 -6.72 0
v -16.64 -7.36 0
v -16.96 -7.36 0
v -16.96 -7.04 0
v -16.64 -7.04 0
v -16.96 -7.36 0
v -17.28 -7.36 0
v -17.28 -7.04 0
v -16.96 -7.04 0
v -17.28 -7.36 0
v -17.6 -7.36 0
v -17.6 -7.04 0
v -17.28 -7.04 0
v -17.6 -7.36 0
v -17.92 -7.36 0
v -17.92 -7.04 0
v -17.6 -7.04 0
v -17.92 -7.36 0
v -18.24 -7.36 0
v -18.24 -7.04 0
v -17.92 -7.04 0
v -18.24 -7.36 0
v -18.56 -7.36 0
v -18.56 -7.04 0
v -18.24 -7.04 0
v -16.32 -7.68 0
v -16.64 -7.68 0
v -16.64 -7.36 0
v -16.32 -7.36 0
v -16.64 -7.68 0
v -16.96 -7.68 0
v -16.96 -7.36 0
v -16.64 -7.36 0
v -16.96 -7.68 0
v -17.28 -7.68 0
v -17.28 -7.36 0
v -16.96 -7.36 0
v -17.28 -7.68 0
v -17.6 -7.68 0
v -17.6 -7.36 0
v -17.28 -7.36 0
v -17.6 -7.68 0
v -17.92 -7.68 0
v -17.92 -7.36 0
v -17.6 -7.36 0
v -17.92 -7.68 0
v -18.24 -7.68 0
v -18.24 -7.36 0
v -17.92 -7.36 0
v -18.24 -7.68 0
v -18.56 -7.68 0
v -18.56 -7.36 0
v -18.24 -7.36 0
v -18.56 -7.68 0
v -18.88 -7.68 0
v -18.88 -7.36 0
v -18.56 -7.36 0
v -16.32 -8 0
v -16.64 -8 0
v -16.64 -7.68 0
v -16.32 -7.68 0
v -16.64 -8 0
v -16.96 -8 0
v -16.96 -7.68 0
v -16.64 -7.68 0
v -16.96 -8 0
v -17.28 -8 0
v -17.28 -7.68 0
v -16.96 -7.68 0
v -17.28 -8 0
v -17.6 -8 0
v -17.6 -7.68 0
v -17.28 -7.68 0
v -17.6 -8 0
v -17.92 -8 0
v -17.92 -7.68 0
v -17.6 -7.68 0
v -17.92 -8 0
v -18.24 -8 0
v -18.24 -7.68 0
v -17.92 -7.68 0
v -18.24 -8 0
v -18.56 -8 0
v -18.56 -7.68 0
v -18.24 -7.68 0
v -18.56 -8 0
v -18.88 -8 0
v -18.88 -7.68 0
v -18.56 -7.68 0
v -16.32 -8.32 0
v -16.64 -8.32 0
v -16.64 -8 0
v -16.32 -8 0
v -16.64 -8.32 0
v -16.96 -8.32 0
v -16.96 -8 0
v -16.64 -8 0
v -18.24 -8.32 0
v -18.56 -8.32 0
v -18.56 -8 0
v -18.24 -8 0
v -18.56 -8.32 0
v -18.88 -8.32 0
v -18.88 -8 0
v -18.56 -8 0
v -32.96 -8.32 0
v -33.28 -8.32 0
v -33.28 -8 0
v -32.96 -8 0
v -33.28 -8.32 0
v -33.6 -8.32 0
v -33.6 -8 0
v -33.28 -8 0
v -33.6 -8.32 0
v -33.92 -8.32 0
v -33.92 -8 0
v -33.6 -8 0
v -16.32 -8.639999 0
v -16.64 -8.639999 0
v -16.64 -8.32 0
v -16.32 -8.32 0
v -18.56 -8.639999 0
v -18.88 -8.639999 0
v -18.88 -8.32 0
v -18.56 -8.32 0
v -32.96 -8.639999 0
v -33.28 -8.639999 0
v -33.28 -8.32 0
v -32.96 -8.32 0
v -33.28 -8.639999 0
v -33.6 -8.639999 0
v -33.6 -8.32 0
v -33.28 -8.32 0
v -33.6 -8.639999 0
v -33.92 -8.639999 0
v -33.92 -8.32 0
v -33.6 -8.32 0
v -33.92 -8.639999 0
v -34.24 -8.639999 0
v -34.24 -8.32 0
v -33.92 -8.32 0
v -32.64 -8.96 0
v -32.96 -8.96 0
v -32.96 -8.639999 0
v -32.64 -8.639999 0
v -32.96 -8.96 0
v -33.28 -8.96 0
v -33.28 -8.639999 0
v -32.96 -8.639999 0
v -33.28 -8.96 0
v -33.6 -8.96 0
v -33.6 -8.639999 0
v -33.28 -8.639999 0
v -33.6 -8.96 0
v -33.92 -8.96 0
v -33.92 -8.639999 0
v -33.6 -8.639999 0
v -33.92 -8.96 0
v -34.24 -8.96 0
v -34.24 -8.639999 0
v -33.92 -8.639999 0
v -34.24 -8.96 0
v -34.56 -8.96 0
v -34.56 -8.639999 0
v -34.24 -8.639999 0
v -32.64 -9.28 0
v -32.96 -9.28 0
v -32.96 -8.96 0
v -32.64 -8.96 0
v -32.96 -9.28 0
v -33.28 -9.28 0
v -33.28 -8.96 0
v -32.96 -8.96 0
v -33.28 -9.28 0
v -33.6 -9.28 0
v -33.6 -8.96 0
v -33.28 -8.96 0
v -33.6 -9.28 0
v -33.92 -9.28 0
v -33.92 -8.96 0
v -33.6 -8.96 0
v -33.92 -9.28 0
v -34.24 -9.28 0
v -34.24 -8.96 0
v -33.92 -8.96 0
v -34.24 -9.28 0
v -34.56 -9.28 0
v -34.56 -8.96 0
v -34.24 -8.96 0
v -32.64 -9.599999 0
v -32.96 -9.599999 0
v -32.96 -9.28 0
v -32.64 -9.28 0
v -32.96 -9.599999 0
v -33.28 -9.599999 0
v -33.28 -9.28 0
v -32.96 -9.28 0
v -33.28 -9.599999 0
v -33.6 -9.599999 0
v -33.6 -9.28 0
v -33.28 -9.28 0
v -33.6 -9.599999 0
v -33.92 -9.599999 0
v -33.92 -9.28 0
v -33.6 -9.28 0
v -33.92 -9.599999 0
v -34.24 -9.599999 0
v -34.24 -9.28 0
v -33.92 -9.28 0
v -34.24 -9.599999 0
v -34.56 -9.599999 0
v -34.56 -9.28 0
v -34.24 -9.28 0
v -32.64 -9.92 0
v -32.96 -9.92 0
v -32.96 -9.599999 0
v -32.64 -9.599999 0
v -34.24 -9.92 0
v -34.56 -9.92 0
v -34.56 -9.599999 0
v -34.24 -9.599999 0
v -16.64 -11.84 0
v -16.96 -11.84 0
v -16.96 -11.52 0
v -16.64 -11.52 0
v -16.96 -11.84 0
v -17.28 -11.84 0
v -17.28 -11.52 0
v -16.96 -11.52 0
v -17.28 -11.84 0
v -17.6 -11.84 0
v -17.6 -11.52 0
v -17.28 -11.52 0
v -17.6 -11.84 0
v -17.92 -11.84 0
v -17.92 -11.52 0
v -17.6 -11.52 0
v -17.92 -11.84 0
v -18.24 -11.84 0
v -18.24 -11.52 0
v -17.92 -11.52 0
v -18.24 -11.84 0
v -18.56 -11.84 0
v -18.56 -11.52 0
v -18.24 -11.52 0
v -18.56 -11.84 0
v -18.88 -11.84 0
v -18.88 -11.52 0
v -18.56 -11.52 0
v -18.88 -11.84 0
v -19.2 -11.84 0
v -19.2 -11.52 0
v -18.88 -11.52 0
v -19.2 -11.84 0
v -19.52 -11.84 0
v -19.52 -11.52 0
v -19.2 -11.52 0
v -19.52 -11.84 0
v -19.84 -11.84 0
v -19.84 -11.52 0
v -19.52 -11.52 0
v -16.64 -12.16 0
v -16.96 -12.16 0
v -16.96 -11.84 0
v -16.64 -11.84 0
v -16.96 -12.16 0
v -17.28 -12.16 0
v -17.28 -11.84 0
v -16.96 -11.84 0
v -17.28 -12.16 0
v -17.6 -12.16 0
v -17.6 -11.84 0
v -17.28 -11.84 0
v -17.6 -12.16 0
v -17.92 -12.16 0
v -17.92 -11.84 0
v -17.6 -11.84 0
v -17.92 -12.16 0
v -18.24 -12.16 0
v -18.24 -11.84 0
v -17.92 -11.84 0
v -18.24 -12.16 0
v -18.56 -12.16 0
v -18.56 -11.84 0
v -18.24 -11.84 0
v -18.56 -12.16 0
v -18.88 -12.16 0
v -18.88 -11.84 0
v -18.56 -11.84 0
v -18.88 -12.16 0
v -19.2 -12.16 0
v -19.2 -11.84 0
v -18.88 -11.84 0
v -19.2 -12.16 0
v -19.52 -12.16 0
v -19.52 -11.84 0
v -19.2 -11.84 0
v -19.52 -12.16 0
v -19.84 -12.16 0
v -19.84 -11.84 0
v -19.52 -11.84 0
v -16.64 -12.48 0
v -16.96 -12.48 0
v -16.96 -12.16 0
v -16.64 -12.16 0
v -16.96 -12.48 0
v -17.28 -12.48 0
v -17.28 -12.16 0
v -16.96 -12.16 0
v -17.28 -12.48 0
v -17.6 -12.48 0
v -17.6 -12.16 0
v -17.28 -12.16 0
v -17.6 -12.48 0
v -17.92 -12.48 0
v -17.92 -12.16 0
v -17.6 -12.16 0
v -17.92 -12.48 0
v -18.24 -12.48 0
v -18.24 -12.16 0
v -17.92 -12.16 0
v -18.24 -12.48 0
v -18.56 -12.48 0
v -18.56 -12.16 0
v -18.24 -12.16 0
v -18.56 -12.48 0
v -18.88 -12.48 0
v -18.88 -12.16 0
v -18.56 -12.16 0
v -18.88 -12.48 0
v -19.2 -12.48 0
v -19.2 -12.16 0
v -18.88 -12.16 0
v -19.2 -12.48 0
v -19.52 -12.48 0
v -19.52 -12.16 0
v -19.2 -12.16 0
v -19.52 -12.48 0
v -19.84 -12.48 0
v -19.84 -12.16 0
v -19.52 -12.16 0
v -16.32 -12.8 0
v -16.64 -12.8 0
v -16.64 -12.48 0
v -16.32 -12.48 0
v -16.64 -12.8 0
v -16.96 -12.8 0
v -16.96 -12.48 0
v -16.64 -12.48 0
v -16.96 -12.8 0
v -17.28 -12.8 0
v -17.28 -12.48 0
v -16.96 -12.48 0
v -17.28 -12.8 0
v -17.6 -12.8 0
v -17.6 -12.48 0
v -17.28 -12.48 0
v -17.6 -12.8 0
v -17.92 -12.8 0
v -17.92 -12.48 0
v -17.6 -12.48 0
v -17.92 -12.8 0
v -18.24 -12.8 0
v -18.24 -12.48 0
v -17.92 -12.48 0
v -18.24 -12.8 0
v -18.56 -12.8 0
v -18.56 -12.48 0
v -18.24 -12.48 0
v -18.56 -12.8 0
v -18.88 -12.8 0
v -18.88 -12.48 0
v -18.56 -12.48 0
v -18.88 -12.8 0
v -19.2 -12.8 0
v -19.2 -12.48 0
v -18.88 -12.48 0
v -19.2 -12.8 0
v -19.52 -12.8 0
v -19.52 -12.48 0
v -19.2 -12.48 0
v -19.52 -12.8 0
v -19.84 -12.8 0
v -19.84 -12.48 0
v -19.52 -12.48 0
v -20.16 -12.8 0
v -20.48 -12.8 0
v -20.48 -12.48 0
v -20.16 -12.48 0
v -20.48 -12.8 0
v -20.8 -12.8 0
v -20.8 -12.48 0
v -20.48 -12.48 0
v -16.32 -13.12 0
v -16.64 -13.12 0
v -16.64 -12.8 0
v -16.32 -12.8 0
v -16.64 -13.12 0
v -16.96 -13.12 0
v -16.96 -12.8 0
v -16.64 -12.8 0
v -20.16 -13.12 0
v -20.48 -13.12 0
v -20.48 -12.8 0
v -20.16 -12.8 0
v -20.48 -13.12 0
v -20.8 -13.12 0
v -20.8 -12.8 0
v -20.48 -12.8 0
v -16.32 -13.44 0
v -16.64 -13.44 0
v -16.64 -13.12 0
v -16.32 -13.12 0
v -16.64 -13.44 0
v -16.96 -13.44 0
v -16.96 -13.12 0
v -16.64 -13.12 0
v -20.16 -13.44 0
v -20.48 -13.44 0
v -20.48 -13.12 0
v -20.16 -13.12 0
v -20.48 -13.44 0
v -20.8 -13.44 0
v -20.8 -13.12 0
v -20.48 -13.12 0
v -16.32 -13.76 0
v -16.64 -13.76 0
v -16.64 -13.44 0
v -16.32 -13.44 0
v -16.64 -13.76 0
v -16.96 -13.76 0
v -16.96 -13.44 0
v -16.64 -13.44 0
v -20.16 -13.76 0
v -20.48 -13.76 0
v -20.48 -13.44 0
v -20.16 -13.44 0
v -20.48 -13.76 0
v -20.8 -13.76 0
v -20.8 -13.44 0
v -20.48 -13.44 0
v -16.32 -14.08 0
v -16.64 -14.08 0
v -16.64 -13.76 0
v -16.32 -13.76 0
v -16.64 -14.08 0
v -16.96 -14.08 0
v -16.96 -13.76 0
v -16.64 -13.76 0
v -20.16 -14.08 0
v -20.48 -14.08 0
v -20.48 -13.76 0
v -20.16 -13.76 0
v -20.48 -14.08 0
v -20.8 -14.08 0
v -20.8 -13.76 0
v -20.48 -13.76 0
v -20.16 -14.4 0
v -20.48 -14.4 0
v -20.48 -14.08 0
v -20.16 -14.08 0
v -20.48 -14.4 0
v -20.8 -14.4 0
v -20.8 -14.08 0
v -20.48 -14.08 0
v -20.16 -14.72 0
v -20.48 -14.72 0
v -20.48 -14.4 0
v -20.16 -14.4 0
v -20.48 -14.72 0
v -20.8 -14.72 0
v -20.8 -14.4 0
v -20.48 -14.4 0
v -20.16 -15.04 0
v -20.48 -15.04 0
v -20.48 -14.72 0
v -20.16 -14.72 0
v -20.48 -15.04 0
v -20.8 -15.04 0
v -20.8 -14.72 0
v -20.48 -14.72 0

# Texture cooridinates (Count = 109)
vt 0.5 0.6714286
vt 0.625 0.6714286
vt 0.625 0.6857142
vt 0.5 0.6857142
vt 0.75 0.6714286
vt 0.75 0.6857142
vt 0.875 0.6714286
vt 0.875 0.6857142
vt 1 0.6714286
vt 1 0.6857142
vt 0.5 0.6571429
vt 0.625 0.6571429
vt 0.75 0.6571429
vt 0.875 0.6571429
vt 1 0.6571429
vt 0.5 0.6428571
vt 0.625 0.6428571
vt 0.75 0.6428571
vt 0.875 0.6428571
vt 1 0.6428571
vt 0.5 0.6285714
vt 0.625 0.6285714
vt 0.75 0.6285714
vt 0.875 0.6285714
vt 1 0.6285714
vt 0.125 0.6857142
vt 0.25 0.6857142
vt 0.25 0.7
vt 0.125 0.7
vt 0.375 0.6857142
vt 0.375 0.7
vt 0 0.6714286
vt 0.125 0.6714286
vt 0 0.6857142
vt 0.25 0.6714286
vt 0.375 0.6714286
vt 0 0.9857143
vt 0.125 0.9857143
vt 0.125 1
vt 0 1
vt 0 0.6571429
vt 0.125 0.6571429
vt 0.25 0.6571429
vt 0.375 0.6571429
vt 0.75 0.8285714
vt 0.875 0.8285714
vt 0.875 0.8428571
vt 0.75 0.8428571
vt 1 0.8285714
vt 1 0.8428571
vt 0 0.6428571
vt 0.125 0.6428571
vt 0.25 0.6428571
vt 0.375 0.6428571
vt 0.75 0.8142857
vt 0.875 0.8142857
vt 1 0.8142857
vt 0 0.6285714
vt 0.125 0.6285714
vt 0.25 0.6285714
vt 0.375 0.6285714
vt 0.75 0.8
vt 0.875 0.8
vt 1 0.8
vt 0.75 0.7857143
vt 0.875 0.7857143
vt 1 0.7857143
vt 0.625 0.7
vt 0.5 0.7
vt 0.75 0.7
vt 0.875 0.7
vt 1 0.7
vt 0 0.05714285
vt 0.125 0.05714285
vt 0.125 0.0714286
vt 0 0.0714286
vt 0.25 0.05714285
vt 0.25 0.0714286
vt 0.375 0.05714285
vt 0.375 0.0714286
vt 0 0.04285717
vt 0.125 0.04285717
vt 0.25 0.04285717
vt 0.375 0.04285717
vt 0 0.02857143
vt 0.125 0.02857143
vt 0.25 0.02857143
vt 0.375 0.02857143
vt 1 0.3
vt 0.875 0.3
vt 0.875 0.3142857
vt 1 0.3142857
vt 0.75 0.3
vt 0.75 0.3142857
vt 0.125 0.01428574
vt 0.25 0.01428574
vt 0.375 0.01428574
vt 1 0.2857143
vt 0.875 0.2857143
vt 0.75 0.2857143
vt 1 0.2714286
vt 0.875 0.2714286
vt 0.75 0.2714286
vt 1 0.2571428
vt 0.875 0.2571428
vt 0.75 0.2571428
vt 1 0.2428572
vt 0.875 0.2428572
vt 0.75 0.2428572

# Normal
vn 0 0 -1

# Mesh description
g Town_mesh_0029

# Faces
f 1/1/1 2/2/1 3/3/1 4/4/1
f 5/2/1 6/5/1 7/6/1 8/3/1
f 9/5/1 10/7/1 11/8/1 12/6/1
f 13/7/1 14/9/1 15/10/1 16/8/1
f 17/1/1 18/2/1 19/3/1 20/4/1
f 21/11/1 22/12/1 23/2/1 24/1/1
f 25/12/1 26/13/1 27/5/1 28/2/1
f 29/13/1 30/14/1 31/7/1 32/5/1
f 33/14/1 34/15/1 35/9/1 36/7/1
f 37/7/1 38/9/1 39/10/1 40/8/1
f 41/11/1 42/12/1 43/2/1 44/1/1
f 45/16/1 46/17/1 47/12/1 48/11/1
f 49/17/1 50/18/1 51/13/1 52/12/1
f 53/18/1 54/19/1 55/14/1 56/13/1
f 57/19/1 58/20/1 59/15/1 60/14/1
f 61/14/1 62/15/1 63/9/1 64/7/1
f 65/16/1 66/17/1 67/12/1 68/11/1
f 69/21/1 70/22/1 71/17/1 72/16/1
f 73/22/1 74/23/1 75/18/1 76/17/1
f 77/23/1 78/24/1 79/19/1 80/18/1
f 81/24/1 82/25/1 83/20/1 84/19/1
f 85/19/1 86/20/1 87/15/1 88/14/1
f 89/21/1 90/22/1 91/17/1 92/16/1
f 93/24/1 94/25/1 95/20/1 96/19/1
f 97/26/1 98/27/1 99/28/1 100/29/1
f 101/27/1 102/30/1 103/31/1 104/28/1
f 105/32/1 106/33/1 107/26/1 108/34/1
f 109/33/1 110/35/1 111/27/1 112/26/1
f 113/35/1 114/36/1 115/30/1 116/27/1
f 117/36/1 118/1/1 119/4/1 120/30/1
f 121/37/1 122/38/1 123/39/1 124/40/1
f 125/37/1 126/38/1 127/39/1 128/40/1
f 129/37/1 130/38/1 131/39/1 132/40/1
f 133/37/1 134/38/1 135/39/1 136/40/1
f 137/37/1 138/38/1 139/39/1 140/40/1
f 141/37/1 142/38/1 143/39/1 144/40/1
f 145/32/1 146/33/1 147/26/1 148/34/1
f 149/41/1 150/42/1 151/33/1 152/32/1
f 153/42/1 154/43/1 155/35/1 156/33/1
f 157/43/1 158/44/1 159/36/1 160/35/1
f 161/44/1 162/11/1 163/1/1 164/36/1
f 165/36/1 166/1/1 167/4/1 168/30/1
f 169/45/1 170/46/1 171/47/1 172/48/1
f 173/46/1 174/49/1 175/50/1 176/47/1
f 177/41/1 178/42/1 179/33/1 180/32/1
f 181/51/1 182/52/1 183/42/1 184/41/1
f 185/52/1 186/53/1 187/43/1 188/42/1
f 189/53/1 190/54/1 191/44/1 192/43/1
f 193/54/1 194/16/1 195/11/1 196/44/1
f 197/44/1 198/11/1 199/1/1 200/36/1
f 201/55/1 202/56/1 203/46/1 204/45/1
f 205/56/1 206/57/1 207/49/1 208/46/1
f 209/46/1 210/49/1 211/50/1 212/47/1
f 213/51/1 214/52/1 215/42/1 216/41/1
f 217/58/1 218/59/1 219/52/1 220/51/1
f 221/59/1 222/60/1 223/53/1 224/52/1
f 225/60/1 226/61/1 227/54/1 228/53/1
f 229/61/1 230/21/1 231/16/1 232/54/1
f 233/54/1 234/16/1 235/11/1 236/44/1
f 237/62/1 238/63/1 239/56/1 240/55/1
f 241/63/1 242/64/1 243/57/1 244/56/1
f 245/56/1 246/57/1 247/49/1 248/46/1
f 249/58/1 250/59/1 251/52/1 252/51/1
f 253/61/1 254/21/1 255/16/1 256/54/1
f 257/65/1 258/66/1 259/63/1 260/62/1
f 261/66/1 262/67/1 263/64/1 264/63/1
f 265/63/1 266/64/1 267/57/1 268/56/1
f 269/66/1 270/67/1 271/64/1 272/63/1
f 273/4/1 274/3/1 275/68/1 276/69/1
f 277/3/1 278/6/1 279/70/1 280/68/1
f 281/6/1 282/8/1 283/71/1 284/70/1
f 285/8/1 286/10/1 287/72/1 288/71/1
f 289/1/1 290/2/1 291/3/1 292/4/1
f 293/2/1 294/5/1 295/6/1 296/3/1
f 297/5/1 298/7/1 299/8/1 300/6/1
f 301/7/1 302/9/1 303/10/1 304/8/1
f 305/1/1 306/2/1 307/3/1 308/4/1
f 309/11/1 310/12/1 311/2/1 312/1/1
f 313/12/1 314/13/1 315/5/1 316/2/1
f 317/13/1 318/14/1 319/7/1 320/5/1
f 321/14/1 322/15/1 323/9/1 324/7/1
f 325/7/1 326/9/1 327/10/1 328/8/1
f 329/1/1 330/2/1 331/3/1 332/4/1
f 333/11/1 334/12/1 335/2/1 336/1/1
f 337/16/1 338/17/1 339/12/1 340/11/1
f 341/17/1 342/18/1 343/13/1 344/12/1
f 345/18/1 346/19/1 347/14/1 348/13/1
f 349/19/1 350/20/1 351/15/1 352/14/1
f 353/14/1 354/15/1 355/9/1 356/7/1
f 357/7/1 358/9/1 359/10/1 360/8/1
f 361/11/1 362/12/1 363/2/1 364/1/1
f 365/16/1 366/17/1 367/12/1 368/11/1
f 369/21/1 370/22/1 371/17/1 372/16/1
f 373/22/1 374/23/1 375/18/1 376/17/1
f 377/23/1 378/24/1 379/19/1 380/18/1
f 381/24/1 382/25/1 383/20/1 384/19/1
f 385/19/1 386/20/1 387/15/1 388/14/1
f 389/14/1 390/15/1 391/9/1 392/7/1
f 393/16/1 394/17/1 395/12/1 396/11/1
f 397/21/1 398/22/1 399/17/1 400/16/1
f 401/24/1 402/25/1 403/20/1 404/19/1
f 405/19/1 406/20/1 407/15/1 408/14/1
f 409/4/1 410/3/1 411/68/1 412/69/1
f 413/3/1 414/6/1 415/70/1 416/68/1
f 417/6/1 418/8/1 419/71/1 420/70/1
f 421/21/1 422/22/1 423/17/1 424/16/1
f 425/24/1 426/25/1 427/20/1 428/19/1
f 429/1/1 430/2/1 431/3/1 432/4/1
f 433/2/1 434/5/1 435/6/1 436/3/1
f 437/5/1 438/7/1 439/8/1 440/6/1
f 441/7/1 442/9/1 443/10/1 444/8/1
f 445/1/1 446/2/1 447/3/1 448/4/1
f 449/11/1 450/12/1 451/2/1 452/1/1
f 453/12/1 454/13/1 455/5/1 456/2/1
f 457/13/1 458/14/1 459/7/1 460/5/1
f 461/14/1 462/15/1 463/9/1 464/7/1
f 465/7/1 466/9/1 467/10/1 468/8/1
f 469/11/1 470/12/1 471/2/1 472/1/1
f 473/16/1 474/17/1 475/12/1 476/11/1
f 477/17/1 478/18/1 479/13/1 480/12/1
f 481/18/1 482/19/1 483/14/1 484/13/1
f 485/19/1 486/20/1 487/15/1 488/14/1
f 489/14/1 490/15/1 491/9/1 492/7/1
f 493/16/1 494/17/1 495/12/1 496/11/1
f 497/21/1 498/22/1 499/17/1 500/16/1
f 501/22/1 502/23/1 503/18/1 504/17/1
f 505/23/1 506/24/1 507/19/1 508/18/1
f 509/24/1 510/25/1 511/20/1 512/19/1
f 513/19/1 514/20/1 515/15/1 516/14/1
f 517/21/1 518/22/1 519/17/1 520/16/1
f 521/24/1 522/25/1 523/20/1 524/19/1
f 525/73/1 526/74/1 527/75/1 528/76/1
f 529/74/1 530/77/1 531/78/1 532/75/1
f 533/74/1 534/77/1 535/78/1 536/75/1
f 537/74/1 538/77/1 539/78/1 540/75/1
f 541/74/1 542/77/1 543/78/1 544/75/1
f 545/74/1 546/77/1 547/78/1 548/75/1
f 549/74/1 550/77/1 551/78/1 552/75/1
f 553/74/1 554/77/1 555/78/1 556/75/1
f 557/74/1 558/77/1 559/78/1 560/75/1
f 561/77/1 562/79/1 563/80/1 564/78/1
f 565/81/1 566/82/1 567/74/1 568/73/1
f 569/82/1 570/83/1 571/77/1 572/74/1
f 573/82/1 574/83/1 575/77/1 576/74/1
f 577/82/1 578/83/1 579/77/1 580/74/1
f 581/82/1 582/83/1 583/77/1 584/74/1
f 585/82/1 586/83/1 587/77/1 588/74/1
f 589/82/1 590/83/1 591/77/1 592/74/1
f 593/82/1 594/83/1 595/77/1 596/74/1
f 597/82/1 598/83/1 599/77/1 600/74/1
f 601/83/1 602/84/1 603/79/1 604/77/1
f 605/85/1 606/86/1 607/82/1 608/81/1
f 609/86/1 610/87/1 611/83/1 612/82/1
f 613/86/1 614/87/1 615/83/1 616/82/1
f 617/86/1 618/87/1 619/83/1 620/82/1
f 621/86/1 622/87/1 623/83/1 624/82/1
f 625/86/1 626/87/1 627/83/1 628/82/1
f 629/86/1 630/87/1 631/83/1 632/82/1
f 633/86/1 634/87/1 635/83/1 636/82/1
f 637/86/1 638/87/1 639/83/1 640/82/1
f 641/87/1 642/88/1 643/84/1 644/83/1
f 645/89/1 646/90/1 647/91/1 648/92/1
f 649/90/1 650/93/1 651/94/1 652/91/1
f 653/95/1 654/96/1 655/87/1 656/86/1
f 657/95/1 658/96/1 659/87/1 660/86/1
f 661/95/1 662/96/1 663/87/1 664/86/1
f 665/95/1 666/96/1 667/87/1 668/86/1
f 669/95/1 670/96/1 671/87/1 672/86/1
f 673/95/1 674/96/1 675/87/1 676/86/1
f 677/95/1 678/96/1 679/87/1 680/86/1
f 681/95/1 682/96/1 683/87/1 684/86/1
f 685/96/1 686/97/1 687/88/1 688/87/1
f 689/89/1 690/90/1 691/91/1 692/92/1
f 693/90/1 694/93/1 695/94/1 696/91/1
f 697/98/1 698/99/1 699/90/1 700/89/1
f 701/99/1 702/100/1 703/93/1 704/90/1
f 705/98/1 706/99/1 707/90/1 708/89/1
f 709/99/1 710/100/1 711/93/1 712/90/1
f 713/101/1 714/102/1 715/99/1 716/98/1
f 717/102/1 718/103/1 719/100/1 720/99/1
f 721/101/1 722/102/1 723/99/1 724/98/1
f 725/102/1 726/103/1 727/100/1 728/99/1
f 729/104/1 730/105/1 731/102/1 732/101/1
f 733/105/1 734/106/1 735/103/1 736/102/1
f 737/93/1 738/90/1 739/91/1 740/94/1
f 741/90/1 742/89/1 743/92/1 744/91/1
f 745/107/1 746/108/1 747/105/1 748/104/1
f 749/108/1 750/109/1 751/106/1 752/105/1
f 753/100/1 754/99/1 755/90/1 756/93/1
f 757/99/1 758/98/1 759/89/1 760/90/1
f 761/103/1 762/102/1 763/99/1 764/100/1
f 765/102/1 766/101/1 767/98/1 768/99/1
f 769/106/1 770/105/1 771/102/1 772/103/1
f 773/105/1 774/104/1 775/101/1 776/102/1
f 777/109/1 778/108/1 779/105/1 780/106/1
f 781/108/1 782/107/1 783/104/1 784/105/1

