# Tiled2Unity generated file. Do not modify by hand.
# Wavefront file for 'Town_mesh_0022.obj'

# Vertices (Count = 88)
v -24.32 -1.28 0
v -24.64 -1.28 0
v -24.64 -0.96 0
v -24.32 -0.96 0
v -25.6 -1.28 0
v -25.92 -1.28 0
v -25.92 -0.96 0
v -25.6 -0.96 0
v -24.32 -1.6 0
v -24.64 -1.6 0
v -24.64 -1.28 0
v -24.32 -1.28 0
v -25.6 -1.6 0
v -25.92 -1.6 0
v -25.92 -1.28 0
v -25.6 -1.28 0
v -7.04 -2.56 0
v -7.36 -2.56 0
v -7.36 -2.24 0
v -7.04 -2.24 0
v -8.32 -2.56 0
v -8.639999 -2.56 0
v -8.639999 -2.24 0
v -8.32 -2.24 0
v -7.04 -2.88 0
v -7.36 -2.88 0
v -7.36 -2.56 0
v -7.04 -2.56 0
v -7.68 -2.88 0
v -8 -2.88 0
v -8 -2.56 0
v -7.68 -2.56 0
v -8.32 -2.88 0
v -8.639999 -2.88 0
v -8.639999 -2.56 0
v -8.32 -2.56 0
v -7.68 -3.2 0
v -8 -3.2 0
v -8 -2.88 0
v -7.68 -2.88 0
v -16.96 -5.44 0
v -17.28 -5.44 0
v -17.28 -5.12 0
v -16.96 -5.12 0
v -17.28 -5.44 0
v -17.6 -5.44 0
v -17.6 -5.12 0
v -17.28 -5.12 0
v -16.96 -5.76 0
v -17.28 -5.76 0
v -17.28 -5.44 0
v -16.96 -5.44 0
v -17.28 -5.76 0
v -17.6 -5.76 0
v -17.6 -5.44 0
v -17.28 -5.44 0
v -16.64 -8.639999 0
v -16.96 -8.639999 0
v -16.96 -8.32 0
v -16.64 -8.32 0
v -18.24 -8.639999 0
v -18.56 -8.639999 0
v -18.56 -8.32 0
v -18.24 -8.32 0
v -16.64 -8.96 0
v -16.96 -8.96 0
v -16.96 -8.639999 0
v -16.64 -8.639999 0
v -18.24 -8.96 0
v -18.56 -8.96 0
v -18.56 -8.639999 0
v -18.24 -8.639999 0
v -16.64 -9.28 0
v -16.96 -9.28 0
v -16.96 -8.96 0
v -16.64 -8.96 0
v -18.24 -9.28 0
v -18.56 -9.28 0
v -18.56 -8.96 0
v -18.24 -8.96 0
v -16.64 -9.599999 0
v -16.96 -9.599999 0
v -16.96 -9.28 0
v -16.64 -9.28 0
v -18.24 -9.599999 0
v -18.56 -9.599999 0
v -18.56 -9.28 0
v -18.24 -9.28 0

# Texture cooridinates (Count = 18)
vt 0.8888889 0.8571429
vt 1 0.8571429
vt 1 1
vt 0.8888889 1
vt 0.8888889 0.7142857
vt 1 0.7142857
vt 0.5555556 0.8571429
vt 0.6666667 0.8571429
vt 0.6666667 1
vt 0.5555556 1
vt 0.5555556 0.7142857
vt 0.6666667 0.7142857
vt 0.3333333 0.8571429
vt 0.4444444 0.8571429
vt 0.4444444 1
vt 0.3333333 1
vt 0.3333333 0.7142857
vt 0.4444444 0.7142857

# Normal
vn 0 0 -1

# Mesh description
g Town_mesh_0022

# Faces
f 1/1/1 2/2/1 3/3/1 4/4/1
f 5/1/1 6/2/1 7/3/1 8/4/1
f 9/5/1 10/6/1 11/2/1 12/1/1
f 13/5/1 14/6/1 15/2/1 16/1/1
f 17/1/1 18/2/1 19/3/1 20/4/1
f 21/1/1 22/2/1 23/3/1 24/4/1
f 25/5/1 26/6/1 27/2/1 28/1/1
f 29/7/1 30/8/1 31/9/1 32/10/1
f 33/5/1 34/6/1 35/2/1 36/1/1
f 37/11/1 38/12/1 39/8/1 40/7/1
f 41/13/1 42/14/1 43/15/1 44/16/1
f 45/14/1 46/13/1 47/16/1 48/15/1
f 49/17/1 50/18/1 51/14/1 52/13/1
f 53/18/1 54/17/1 55/13/1 56/14/1
f 57/1/1 58/2/1 59/3/1 60/4/1
f 61/1/1 62/2/1 63/3/1 64/4/1
f 65/5/1 66/6/1 67/2/1 68/1/1
f 69/5/1 70/6/1 71/2/1 72/1/1
f 73/1/1 74/2/1 75/3/1 76/4/1
f 77/1/1 78/2/1 79/3/1 80/4/1
f 81/5/1 82/6/1 83/2/1 84/1/1
f 85/5/1 86/6/1 87/2/1 88/1/1

