# Tiled2Unity generated file. Do not modify by hand.
# Wavefront file for 'Town_mesh_0021.obj'

# Vertices (Count = 16)
v -31.68 -0.96 0
v -32 -0.96 0
v -32 -0.64 0
v -31.68 -0.64 0
v -32 -0.96 0
v -32.32 -0.96 0
v -32.32 -0.64 0
v -32 -0.64 0
v -31.68 -1.28 0
v -32 -1.28 0
v -32 -0.96 0
v -31.68 -0.96 0
v -32 -1.28 0
v -32.32 -1.28 0
v -32.32 -0.96 0
v -32 -0.96 0

# Texture cooridinates (Count = 9)
vt 0.9375 0.03125
vt 0.96875 0.03125
vt 0.96875 0.0625
vt 0.9375 0.0625
vt 1 0.03125
vt 1 0.0625
vt 0.9375 0
vt 0.96875 0
vt 1 0

# Normal
vn 0 0 -1

# Mesh description
g Town_mesh_0021

# Faces
f 1/1/1 2/2/1 3/3/1 4/4/1
f 5/2/1 6/5/1 7/6/1 8/3/1
f 9/7/1 10/8/1 11/2/1 12/1/1
f 13/8/1 14/9/1 15/5/1 16/2/1

