# Tiled2Unity generated file. Do not modify by hand.
# Wavefront file for 'Town_mesh_0018.obj'

# Vertices (Count = 428)
v -5.76 -0.32 0
v -6.08 -0.32 0
v -6.08 0 0
v -5.76 0 0
v -6.08 -0.32 0
v -6.4 -0.32 0
v -6.4 0 0
v -6.08 0 0
v -6.4 -0.32 0
v -6.72 -0.32 0
v -6.72 0 0
v -6.4 0 0
v -5.76 -0.64 0
v -6.08 -0.64 0
v -6.08 -0.32 0
v -5.76 -0.32 0
v -6.08 -0.64 0
v -6.4 -0.64 0
v -6.4 -0.32 0
v -6.08 -0.32 0
v -6.4 -0.64 0
v -6.72 -0.64 0
v -6.72 -0.32 0
v -6.4 -0.32 0
v -10.56 -0.64 0
v -10.88 -0.64 0
v -10.88 -0.32 0
v -10.56 -0.32 0
v -10.88 -0.64 0
v -11.2 -0.64 0
v -11.2 -0.32 0
v -10.88 -0.32 0
v -10.56 -0.96 0
v -10.88 -0.96 0
v -10.88 -0.64 0
v -10.56 -0.64 0
v -10.88 -0.96 0
v -11.2 -0.96 0
v -11.2 -0.64 0
v -10.88 -0.64 0
v -6.72 -1.28 0
v -7.04 -1.28 0
v -7.04 -0.96 0
v -6.72 -0.96 0
v -7.04 -1.28 0
v -7.36 -1.28 0
v -7.36 -0.96 0
v -7.04 -0.96 0
v -7.36 -1.28 0
v -7.68 -1.28 0
v -7.68 -0.96 0
v -7.36 -0.96 0
v -10.56 -1.28 0
v -10.88 -1.28 0
v -10.88 -0.96 0
v -10.56 -0.96 0
v -10.88 -1.28 0
v -11.2 -1.28 0
v -11.2 -0.96 0
v -10.88 -0.96 0
v -6.72 -1.6 0
v -7.04 -1.6 0
v -7.04 -1.28 0
v -6.72 -1.28 0
v -7.04 -1.6 0
v -7.36 -1.6 0
v -7.36 -1.28 0
v -7.04 -1.28 0
v -7.36 -1.6 0
v -7.68 -1.6 0
v -7.68 -1.28 0
v -7.36 -1.28 0
v -10.56 -1.6 0
v -10.88 -1.6 0
v -10.88 -1.28 0
v -10.56 -1.28 0
v -10.88 -1.6 0
v -11.2 -1.6 0
v -11.2 -1.28 0
v -10.88 -1.28 0
v -6.72 -1.92 0
v -7.04 -1.92 0
v -7.04 -1.6 0
v -6.72 -1.6 0
v -7.04 -1.92 0
v -7.36 -1.92 0
v -7.36 -1.6 0
v -7.04 -1.6 0
v -7.36 -1.92 0
v -7.68 -1.92 0
v -7.68 -1.6 0
v -7.36 -1.6 0
v -5.44 -3.52 0
v -5.76 -3.52 0
v -5.76 -3.2 0
v -5.44 -3.2 0
v -5.76 -3.52 0
v -6.08 -3.52 0
v -6.08 -3.2 0
v -5.76 -3.2 0
v -6.08 -3.52 0
v -6.4 -3.52 0
v -6.4 -3.2 0
v -6.08 -3.2 0
v -5.44 -3.84 0
v -5.76 -3.84 0
v -5.76 -3.52 0
v -5.44 -3.52 0
v -5.76 -3.84 0
v -6.08 -3.84 0
v -6.08 -3.52 0
v -5.76 -3.52 0
v -6.08 -3.84 0
v -6.4 -3.84 0
v -6.4 -3.52 0
v -6.08 -3.52 0
v -10.24 -3.84 0
v -10.56 -3.84 0
v -10.56 -3.52 0
v -10.24 -3.52 0
v -10.56 -3.84 0
v -10.88 -3.84 0
v -10.88 -3.52 0
v -10.56 -3.52 0
v -10.88 -3.84 0
v -11.2 -3.84 0
v -11.2 -3.52 0
v -10.88 -3.52 0
v -3.2 -4.16 0
v -3.52 -4.16 0
v -3.52 -3.84 0
v -3.2 -3.84 0
v -3.52 -4.16 0
v -3.84 -4.16 0
v -3.84 -3.84 0
v -3.52 -3.84 0
v -3.84 -4.16 0
v -4.16 -4.16 0
v -4.16 -3.84 0
v -3.84 -3.84 0
v -5.44 -4.16 0
v -5.76 -4.16 0
v -5.76 -3.84 0
v -5.44 -3.84 0
v -5.76 -4.16 0
v -6.08 -4.16 0
v -6.08 -3.84 0
v -5.76 -3.84 0
v -6.08 -4.16 0
v -6.4 -4.16 0
v -6.4 -3.84 0
v -6.08 -3.84 0
v -10.24 -4.16 0
v -10.56 -4.16 0
v -10.56 -3.84 0
v -10.24 -3.84 0
v -10.56 -4.16 0
v -10.88 -4.16 0
v -10.88 -3.84 0
v -10.56 -3.84 0
v -10.88 -4.16 0
v -11.2 -4.16 0
v -11.2 -3.84 0
v -10.88 -3.84 0
v -3.2 -4.48 0
v -3.52 -4.48 0
v -3.52 -4.16 0
v -3.2 -4.16 0
v -3.52 -4.48 0
v -3.84 -4.48 0
v -3.84 -4.16 0
v -3.52 -4.16 0
v -3.84 -4.48 0
v -4.16 -4.48 0
v -4.16 -4.16 0
v -3.84 -4.16 0
v -5.44 -4.48 0
v -5.76 -4.48 0
v -5.76 -4.16 0
v -5.44 -4.16 0
v -5.76 -4.48 0
v -6.08 -4.48 0
v -6.08 -4.16 0
v -5.76 -4.16 0
v -6.08 -4.48 0
v -6.4 -4.48 0
v -6.4 -4.16 0
v -6.08 -4.16 0
v -10.24 -4.48 0
v -10.56 -4.48 0
v -10.56 -4.16 0
v -10.24 -4.16 0
v -10.56 -4.48 0
v -10.88 -4.48 0
v -10.88 -4.16 0
v -10.56 -4.16 0
v -10.88 -4.48 0
v -11.2 -4.48 0
v -11.2 -4.16 0
v -10.88 -4.16 0
v -3.2 -4.8 0
v -3.52 -4.8 0
v -3.52 -4.48 0
v -3.2 -4.48 0
v -3.52 -4.8 0
v -3.84 -4.8 0
v -3.84 -4.48 0
v -3.52 -4.48 0
v -3.84 -4.8 0
v -4.16 -4.8 0
v -4.16 -4.48 0
v -3.84 -4.48 0
v -9.599999 -6.4 0
v -9.92 -6.4 0
v -9.92 -6.08 0
v -9.599999 -6.08 0
v -9.92 -6.4 0
v -10.24 -6.4 0
v -10.24 -6.08 0
v -9.92 -6.08 0
v -10.24 -6.4 0
v -10.56 -6.4 0
v -10.56 -6.08 0
v -10.24 -6.08 0
v -4.8 -6.72 0
v -5.12 -6.72 0
v -5.12 -6.4 0
v -4.8 -6.4 0
v -5.12 -6.72 0
v -5.44 -6.72 0
v -5.44 -6.4 0
v -5.12 -6.4 0
v -5.44 -6.72 0
v -5.76 -6.72 0
v -5.76 -6.4 0
v -5.44 -6.4 0
v -9.599999 -6.72 0
v -9.92 -6.72 0
v -9.92 -6.4 0
v -9.599999 -6.4 0
v -9.92 -6.72 0
v -10.24 -6.72 0
v -10.24 -6.4 0
v -9.92 -6.4 0
v -10.24 -6.72 0
v -10.56 -6.72 0
v -10.56 -6.4 0
v -10.24 -6.4 0
v -4.8 -7.04 0
v -5.12 -7.04 0
v -5.12 -6.72 0
v -4.8 -6.72 0
v -5.12 -7.04 0
v -5.44 -7.04 0
v -5.44 -6.72 0
v -5.12 -6.72 0
v -5.44 -7.04 0
v -5.76 -7.04 0
v -5.76 -6.72 0
v -5.44 -6.72 0
v -9.599999 -7.04 0
v -9.92 -7.04 0
v -9.92 -6.72 0
v -9.599999 -6.72 0
v -9.92 -7.04 0
v -10.24 -7.04 0
v -10.24 -6.72 0
v -9.92 -6.72 0
v -10.24 -7.04 0
v -10.56 -7.04 0
v -10.56 -6.72 0
v -10.24 -6.72 0
v -4.8 -7.36 0
v -5.12 -7.36 0
v -5.12 -7.04 0
v -4.8 -7.04 0
v -5.12 -7.36 0
v -5.44 -7.36 0
v -5.44 -7.04 0
v -5.12 -7.04 0
v -5.44 -7.36 0
v -5.76 -7.36 0
v -5.76 -7.04 0
v -5.44 -7.04 0
v -9.599999 -7.36 0
v -9.92 -7.36 0
v -9.92 -7.04 0
v -9.599999 -7.04 0
v -9.92 -7.36 0
v -10.24 -7.36 0
v -10.24 -7.04 0
v -9.92 -7.04 0
v -10.24 -7.36 0
v -10.56 -7.36 0
v -10.56 -7.04 0
v -10.24 -7.04 0
v -2.88 -8.639999 0
v -3.2 -8.639999 0
v -3.2 -8.32 0
v -2.88 -8.32 0
v -3.2 -8.639999 0
v -3.52 -8.639999 0
v -3.52 -8.32 0
v -3.2 -8.32 0
v -3.52 -8.639999 0
v -3.84 -8.639999 0
v -3.84 -8.32 0
v -3.52 -8.32 0
v -2.88 -8.96 0
v -3.2 -8.96 0
v -3.2 -8.639999 0
v -2.88 -8.639999 0
v -3.2 -8.96 0
v -3.52 -8.96 0
v -3.52 -8.639999 0
v -3.2 -8.639999 0
v -3.52 -8.96 0
v -3.84 -8.96 0
v -3.84 -8.639999 0
v -3.52 -8.639999 0
v -4.8 -8.96 0
v -5.12 -8.96 0
v -5.12 -8.639999 0
v -4.8 -8.639999 0
v -5.12 -8.96 0
v -5.44 -8.96 0
v -5.44 -8.639999 0
v -5.12 -8.639999 0
v -5.44 -8.96 0
v -5.76 -8.96 0
v -5.76 -8.639999 0
v -5.44 -8.639999 0
v -2.88 -9.28 0
v -3.2 -9.28 0
v -3.2 -8.96 0
v -2.88 -8.96 0
v -3.2 -9.28 0
v -3.52 -9.28 0
v -3.52 -8.96 0
v -3.2 -8.96 0
v -3.52 -9.28 0
v -3.84 -9.28 0
v -3.84 -8.96 0
v -3.52 -8.96 0
v -4.8 -9.28 0
v -5.12 -9.28 0
v -5.12 -8.96 0
v -4.8 -8.96 0
v -5.12 -9.28 0
v -5.44 -9.28 0
v -5.44 -8.96 0
v -5.12 -8.96 0
v -5.44 -9.28 0
v -5.76 -9.28 0
v -5.76 -8.96 0
v -5.44 -8.96 0
v -4.8 -9.599999 0
v -5.12 -9.599999 0
v -5.12 -9.28 0
v -4.8 -9.28 0
v -5.12 -9.599999 0
v -5.44 -9.599999 0
v -5.44 -9.28 0
v -5.12 -9.28 0
v -5.44 -9.599999 0
v -5.76 -9.599999 0
v -5.76 -9.28 0
v -5.44 -9.28 0
v -4.8 -9.92 0
v -5.12 -9.92 0
v -5.12 -9.599999 0
v -4.8 -9.599999 0
v -5.12 -9.92 0
v -5.44 -9.92 0
v -5.44 -9.599999 0
v -5.12 -9.599999 0
v -5.44 -9.92 0
v -5.76 -9.92 0
v -5.76 -9.599999 0
v -5.44 -9.599999 0
v -7.04 -11.52 0
v -7.36 -11.52 0
v -7.36 -11.2 0
v -7.04 -11.2 0
v -7.36 -11.52 0
v -7.68 -11.52 0
v -7.68 -11.2 0
v -7.36 -11.2 0
v -7.68 -11.52 0
v -8 -11.52 0
v -8 -11.2 0
v -7.68 -11.2 0
v -7.04 -11.84 0
v -7.36 -11.84 0
v -7.36 -11.52 0
v -7.04 -11.52 0
v -7.36 -11.84 0
v -7.68 -11.84 0
v -7.68 -11.52 0
v -7.36 -11.52 0
v -7.68 -11.84 0
v -8 -11.84 0
v -8 -11.52 0
v -7.68 -11.52 0
v -7.04 -12.16 0
v -7.36 -12.16 0
v -7.36 -11.84 0
v -7.04 -11.84 0
v -7.36 -12.16 0
v -7.68 -12.16 0
v -7.68 -11.84 0
v -7.36 -11.84 0
v -7.68 -12.16 0
v -8 -12.16 0
v -8 -11.84 0
v -7.68 -11.84 0
v -7.04 -12.48 0
v -7.36 -12.48 0
v -7.36 -12.16 0
v -7.04 -12.16 0
v -7.36 -12.48 0
v -7.68 -12.48 0
v -7.68 -12.16 0
v -7.36 -12.16 0
v -7.68 -12.48 0
v -8 -12.48 0
v -8 -12.16 0
v -7.68 -12.16 0

# Texture cooridinates (Count = 56)
vt 0 0.7142857
vt 0.1666667 0.7142857
vt 0.1666667 0.8571429
vt 0 0.8571429
vt 0.3333333 0.7142857
vt 0.3333333 0.8571429
vt 0.5 0.7142857
vt 0.5 0.8571429
vt 0 0.5714285
vt 0.1666667 0.5714285
vt 0.3333333 0.5714285
vt 0.5 0.5714285
vt 0.5 0.4285714
vt 0.6666667 0.4285714
vt 0.6666667 0.5714285
vt 0.8333333 0.4285714
vt 0.8333333 0.5714285
vt 0.5 0.2857143
vt 0.6666667 0.2857143
vt 0.8333333 0.2857143
vt 0.6666667 0.8571429
vt 0.6666667 1
vt 0.5 1
vt 0.8333333 0.8571429
vt 0.8333333 1
vt 1 0.8571429
vt 1 1
vt 0.5 0.1428571
vt 0.6666667 0.1428571
vt 0.8333333 0.1428571
vt 0.6666667 0.7142857
vt 0.8333333 0.7142857
vt 1 0.7142857
vt 0.5 0
vt 0.6666667 0
vt 0.8333333 0
vt 1 0.5714285
vt 0 0.4285714
vt 0.1666667 0.4285714
vt 0.3333333 0.4285714
vt 0 0.2857143
vt 0.1666667 0.2857143
vt 0.3333333 0.2857143
vt 0.1666667 1
vt 0 1
vt 0.3333333 1
vt 0 0.1428571
vt 0.1666667 0.1428571
vt 0.3333333 0.1428571
vt 0 0
vt 0.1666667 0
vt 0.3333333 0
vt 1 0.4285714
vt 1 0.2857143
vt 1 0.1428571
vt 1 0

# Normal
vn 0 0 -1

# Mesh description
g Town_mesh_0018

# Faces
f 1/1/1 2/2/1 3/3/1 4/4/1
f 5/2/1 6/5/1 7/6/1 8/3/1
f 9/5/1 10/7/1 11/8/1 12/6/1
f 13/9/1 14/10/1 15/2/1 16/1/1
f 17/10/1 18/11/1 19/5/1 20/2/1
f 21/11/1 22/12/1 23/7/1 24/5/1
f 25/13/1 26/14/1 27/15/1 28/12/1
f 29/14/1 30/16/1 31/17/1 32/15/1
f 33/18/1 34/19/1 35/14/1 36/13/1
f 37/19/1 38/20/1 39/16/1 40/14/1
f 41/8/1 42/21/1 43/22/1 44/23/1
f 45/21/1 46/24/1 47/25/1 48/22/1
f 49/24/1 50/26/1 51/27/1 52/25/1
f 53/28/1 54/29/1 55/19/1 56/18/1
f 57/29/1 58/30/1 59/20/1 60/19/1
f 61/7/1 62/31/1 63/21/1 64/8/1
f 65/31/1 66/32/1 67/24/1 68/21/1
f 69/32/1 70/33/1 71/26/1 72/24/1
f 73/34/1 74/35/1 75/29/1 76/28/1
f 77/35/1 78/36/1 79/30/1 80/29/1
f 81/12/1 82/15/1 83/31/1 84/7/1
f 85/15/1 86/17/1 87/32/1 88/31/1
f 89/17/1 90/37/1 91/33/1 92/32/1
f 93/38/1 94/39/1 95/10/1 96/9/1
f 97/39/1 98/40/1 99/11/1 100/10/1
f 101/40/1 102/13/1 103/12/1 104/11/1
f 105/41/1 106/42/1 107/39/1 108/38/1
f 109/42/1 110/43/1 111/40/1 112/39/1
f 113/43/1 114/18/1 115/13/1 116/40/1
f 117/8/1 118/21/1 119/22/1 120/23/1
f 121/21/1 122/24/1 123/25/1 124/22/1
f 125/24/1 126/26/1 127/27/1 128/25/1
f 129/4/1 130/3/1 131/44/1 132/45/1
f 133/3/1 134/6/1 135/46/1 136/44/1
f 137/6/1 138/8/1 139/23/1 140/46/1
f 141/47/1 142/48/1 143/42/1 144/41/1
f 145/48/1 146/49/1 147/43/1 148/42/1
f 149/49/1 150/28/1 151/18/1 152/43/1
f 153/7/1 154/31/1 155/21/1 156/8/1
f 157/31/1 158/32/1 159/24/1 160/21/1
f 161/32/1 162/33/1 163/26/1 164/24/1
f 165/1/1 166/2/1 167/3/1 168/4/1
f 169/2/1 170/5/1 171/6/1 172/3/1
f 173/5/1 174/7/1 175/8/1 176/6/1
f 177/50/1 178/51/1 179/48/1 180/47/1
f 181/51/1 182/52/1 183/49/1 184/48/1
f 185/52/1 186/34/1 187/28/1 188/49/1
f 189/12/1 190/15/1 191/31/1 192/7/1
f 193/15/1 194/17/1 195/32/1 196/31/1
f 197/17/1 198/37/1 199/33/1 200/32/1
f 201/9/1 202/10/1 203/2/1 204/1/1
f 205/10/1 206/11/1 207/5/1 208/2/1
f 209/11/1 210/12/1 211/7/1 212/5/1
f 213/13/1 214/14/1 215/15/1 216/12/1
f 217/14/1 218/16/1 219/17/1 220/15/1
f 221/16/1 222/53/1 223/37/1 224/17/1
f 225/4/1 226/3/1 227/44/1 228/45/1
f 229/3/1 230/6/1 231/46/1 232/44/1
f 233/6/1 234/8/1 235/23/1 236/46/1
f 237/18/1 238/19/1 239/14/1 240/13/1
f 241/19/1 242/20/1 243/16/1 244/14/1
f 245/20/1 246/54/1 247/53/1 248/16/1
f 249/1/1 250/2/1 251/3/1 252/4/1
f 253/2/1 254/5/1 255/6/1 256/3/1
f 257/5/1 258/7/1 259/8/1 260/6/1
f 261/28/1 262/29/1 263/19/1 264/18/1
f 265/29/1 266/30/1 267/20/1 268/19/1
f 269/30/1 270/55/1 271/54/1 272/20/1
f 273/9/1 274/10/1 275/2/1 276/1/1
f 277/10/1 278/11/1 279/5/1 280/2/1
f 281/11/1 282/12/1 283/7/1 284/5/1
f 285/34/1 286/35/1 287/29/1 288/28/1
f 289/35/1 290/36/1 291/30/1 292/29/1
f 293/36/1 294/56/1 295/55/1 296/30/1
f 297/4/1 298/3/1 299/44/1 300/45/1
f 301/3/1 302/6/1 303/46/1 304/44/1
f 305/6/1 306/8/1 307/23/1 308/46/1
f 309/1/1 310/2/1 311/3/1 312/4/1
f 313/2/1 314/5/1 315/6/1 316/3/1
f 317/5/1 318/7/1 319/8/1 320/6/1
f 321/13/1 322/14/1 323/15/1 324/12/1
f 325/14/1 326/16/1 327/17/1 328/15/1
f 329/16/1 330/53/1 331/37/1 332/17/1
f 333/9/1 334/10/1 335/2/1 336/1/1
f 337/10/1 338/11/1 339/5/1 340/2/1
f 341/11/1 342/12/1 343/7/1 344/5/1
f 345/18/1 346/19/1 347/14/1 348/13/1
f 349/19/1 350/20/1 351/16/1 352/14/1
f 353/20/1 354/54/1 355/53/1 356/16/1
f 357/28/1 358/29/1 359/19/1 360/18/1
f 361/29/1 362/30/1 363/20/1 364/19/1
f 365/30/1 366/55/1 367/54/1 368/20/1
f 369/34/1 370/35/1 371/29/1 372/28/1
f 373/35/1 374/36/1 375/30/1 376/29/1
f 377/36/1 378/56/1 379/55/1 380/30/1
f 381/38/1 382/39/1 383/10/1 384/9/1
f 385/39/1 386/40/1 387/11/1 388/10/1
f 389/40/1 390/13/1 391/12/1 392/11/1
f 393/41/1 394/42/1 395/39/1 396/38/1
f 397/42/1 398/43/1 399/40/1 400/39/1
f 401/43/1 402/18/1 403/13/1 404/40/1
f 405/47/1 406/48/1 407/42/1 408/41/1
f 409/48/1 410/49/1 411/43/1 412/42/1
f 413/49/1 414/28/1 415/18/1 416/43/1
f 417/50/1 418/51/1 419/48/1 420/47/1
f 421/51/1 422/52/1 423/49/1 424/48/1
f 425/52/1 426/34/1 427/28/1 428/49/1

