# Tiled2Unity generated file. Do not modify by hand.
# Wavefront file for 'Town_mesh_0029.obj'

# Vertices (Count = 604)
v -2.56 -0.64 0
v -2.88 -0.64 0
v -2.88 -0.32 0
v -2.56 -0.32 0
v -2.88 -0.64 0
v -3.2 -0.64 0
v -3.2 -0.32 0
v -2.88 -0.32 0
v -3.2 -0.64 0
v -3.52 -0.64 0
v -3.52 -0.32 0
v -3.2 -0.32 0
v -2.56 -0.96 0
v -2.88 -0.96 0
v -2.88 -0.64 0
v -2.56 -0.64 0
v -2.88 -0.96 0
v -3.2 -0.96 0
v -3.2 -0.64 0
v -2.88 -0.64 0
v -3.2 -0.96 0
v -3.52 -0.96 0
v -3.52 -0.64 0
v -3.2 -0.64 0
v -2.56 -1.28 0
v -2.88 -1.28 0
v -2.88 -0.96 0
v -2.56 -0.96 0
v -2.88 -1.28 0
v -3.2 -1.28 0
v -3.2 -0.96 0
v -2.88 -0.96 0
v -3.2 -1.28 0
v -3.52 -1.28 0
v -3.52 -0.96 0
v -3.2 -0.96 0
v -24.32 -1.6 0
v -24.64 -1.6 0
v -24.64 -1.28 0
v -24.32 -1.28 0
v -25.6 -1.6 0
v -25.92 -1.6 0
v -25.92 -1.28 0
v -25.6 -1.28 0
v -19.84 -3.2 0
v -20.16 -3.2 0
v -20.16 -2.88 0
v -19.84 -2.88 0
v -37.44 -4.8 0
v -37.76 -4.8 0
v -37.76 -4.48 0
v -37.44 -4.48 0
v -37.76 -4.8 0
v -38.08 -4.8 0
v -38.08 -4.48 0
v -37.76 -4.48 0
v -38.08 -4.8 0
v -38.4 -4.8 0
v -38.4 -4.48 0
v -38.08 -4.48 0
v -38.4 -4.8 0
v -38.72 -4.8 0
v -38.72 -4.48 0
v -38.4 -4.48 0
v -38.72 -4.8 0
v -39.04 -4.8 0
v -39.04 -4.48 0
v -38.72 -4.48 0
v -39.04 -4.8 0
v -39.36 -4.8 0
v -39.36 -4.48 0
v -39.04 -4.48 0
v -39.36 -4.8 0
v -39.68 -4.8 0
v -39.68 -4.48 0
v -39.36 -4.48 0
v -39.68 -4.8 0
v -40 -4.8 0
v -40 -4.48 0
v -39.68 -4.48 0
v -40 -4.8 0
v -40.32 -4.8 0
v -40.32 -4.48 0
v -40 -4.48 0
v -40.32 -4.8 0
v -40.64 -4.8 0
v -40.64 -4.48 0
v -40.32 -4.48 0
v -40.64 -4.8 0
v -40.96 -4.8 0
v -40.96 -4.48 0
v -40.64 -4.48 0
v -40.96 -4.8 0
v -41.28 -4.8 0
v -41.28 -4.48 0
v -40.96 -4.48 0
v -41.28 -4.8 0
v -41.6 -4.8 0
v -41.6 -4.48 0
v -41.28 -4.48 0
v -41.6 -4.8 0
v -41.92 -4.8 0
v -41.92 -4.48 0
v -41.6 -4.48 0
v -41.92 -4.8 0
v -42.24 -4.8 0
v -42.24 -4.48 0
v -41.92 -4.48 0
v -42.24 -4.8 0
v -42.56 -4.8 0
v -42.56 -4.48 0
v -42.24 -4.48 0
v -42.56 -4.8 0
v -42.88 -4.8 0
v -42.88 -4.48 0
v -42.56 -4.48 0
v -42.88 -4.8 0
v -43.2 -4.8 0
v -43.2 -4.48 0
v -42.88 -4.48 0
v -43.2 -4.8 0
v -43.52 -4.8 0
v -43.52 -4.48 0
v -43.2 -4.48 0
v -43.52 -4.8 0
v -43.84 -4.8 0
v -43.84 -4.48 0
v -43.52 -4.48 0
v -37.44 -5.12 0
v -37.76 -5.12 0
v -37.76 -4.8 0
v -37.44 -4.8 0
v -37.76 -5.12 0
v -38.08 -5.12 0
v -38.08 -4.8 0
v -37.76 -4.8 0
v -38.08 -5.12 0
v -38.4 -5.12 0
v -38.4 -4.8 0
v -38.08 -4.8 0
v -38.4 -5.12 0
v -38.72 -5.12 0
v -38.72 -4.8 0
v -38.4 -4.8 0
v -38.72 -5.12 0
v -39.04 -5.12 0
v -39.04 -4.8 0
v -38.72 -4.8 0
v -39.04 -5.12 0
v -39.36 -5.12 0
v -39.36 -4.8 0
v -39.04 -4.8 0
v -39.36 -5.12 0
v -39.68 -5.12 0
v -39.68 -4.8 0
v -39.36 -4.8 0
v -39.68 -5.12 0
v -40 -5.12 0
v -40 -4.8 0
v -39.68 -4.8 0
v -40 -5.12 0
v -40.32 -5.12 0
v -40.32 -4.8 0
v -40 -4.8 0
v -40.32 -5.12 0
v -40.64 -5.12 0
v -40.64 -4.8 0
v -40.32 -4.8 0
v -40.64 -5.12 0
v -40.96 -5.12 0
v -40.96 -4.8 0
v -40.64 -4.8 0
v -40.96 -5.12 0
v -41.28 -5.12 0
v -41.28 -4.8 0
v -40.96 -4.8 0
v -41.28 -5.12 0
v -41.6 -5.12 0
v -41.6 -4.8 0
v -41.28 -4.8 0
v -41.6 -5.12 0
v -41.92 -5.12 0
v -41.92 -4.8 0
v -41.6 -4.8 0
v -41.92 -5.12 0
v -42.24 -5.12 0
v -42.24 -4.8 0
v -41.92 -4.8 0
v -42.24 -5.12 0
v -42.56 -5.12 0
v -42.56 -4.8 0
v -42.24 -4.8 0
v -42.56 -5.12 0
v -42.88 -5.12 0
v -42.88 -4.8 0
v -42.56 -4.8 0
v -42.88 -5.12 0
v -43.2 -5.12 0
v -43.2 -4.8 0
v -42.88 -4.8 0
v -43.2 -5.12 0
v -43.52 -5.12 0
v -43.52 -4.8 0
v -43.2 -4.8 0
v -43.52 -5.12 0
v -43.84 -5.12 0
v -43.84 -4.8 0
v -43.52 -4.8 0
v -37.44 -5.44 0
v -37.76 -5.44 0
v -37.76 -5.12 0
v -37.44 -5.12 0
v -37.76 -5.44 0
v -38.08 -5.44 0
v -38.08 -5.12 0
v -37.76 -5.12 0
v -38.08 -5.44 0
v -38.4 -5.44 0
v -38.4 -5.12 0
v -38.08 -5.12 0
v -38.4 -5.44 0
v -38.72 -5.44 0
v -38.72 -5.12 0
v -38.4 -5.12 0
v -38.72 -5.44 0
v -39.04 -5.44 0
v -39.04 -5.12 0
v -38.72 -5.12 0
v -39.04 -5.44 0
v -39.36 -5.44 0
v -39.36 -5.12 0
v -39.04 -5.12 0
v -39.36 -5.44 0
v -39.68 -5.44 0
v -39.68 -5.12 0
v -39.36 -5.12 0
v -39.68 -5.44 0
v -40 -5.44 0
v -40 -5.12 0
v -39.68 -5.12 0
v -40 -5.44 0
v -40.32 -5.44 0
v -40.32 -5.12 0
v -40 -5.12 0
v -40.32 -5.44 0
v -40.64 -5.44 0
v -40.64 -5.12 0
v -40.32 -5.12 0
v -40.64 -5.44 0
v -40.96 -5.44 0
v -40.96 -5.12 0
v -40.64 -5.12 0
v -40.96 -5.44 0
v -41.28 -5.44 0
v -41.28 -5.12 0
v -40.96 -5.12 0
v -41.28 -5.44 0
v -41.6 -5.44 0
v -41.6 -5.12 0
v -41.28 -5.12 0
v -41.6 -5.44 0
v -41.92 -5.44 0
v -41.92 -5.12 0
v -41.6 -5.12 0
v -41.92 -5.44 0
v -42.24 -5.44 0
v -42.24 -5.12 0
v -41.92 -5.12 0
v -42.24 -5.44 0
v -42.56 -5.44 0
v -42.56 -5.12 0
v -42.24 -5.12 0
v -42.56 -5.44 0
v -42.88 -5.44 0
v -42.88 -5.12 0
v -42.56 -5.12 0
v -42.88 -5.44 0
v -43.2 -5.44 0
v -43.2 -5.12 0
v -42.88 -5.12 0
v -43.2 -5.44 0
v -43.52 -5.44 0
v -43.52 -5.12 0
v -43.2 -5.12 0
v -43.52 -5.44 0
v -43.84 -5.44 0
v -43.84 -5.12 0
v -43.52 -5.12 0
v -37.44 -5.76 0
v -37.76 -5.76 0
v -37.76 -5.44 0
v -37.44 -5.44 0
v -37.76 -5.76 0
v -38.08 -5.76 0
v -38.08 -5.44 0
v -37.76 -5.44 0
v -38.08 -5.76 0
v -38.4 -5.76 0
v -38.4 -5.44 0
v -38.08 -5.44 0
v -38.4 -5.76 0
v -38.72 -5.76 0
v -38.72 -5.44 0
v -38.4 -5.44 0
v -38.72 -5.76 0
v -39.04 -5.76 0
v -39.04 -5.44 0
v -38.72 -5.44 0
v -39.04 -5.76 0
v -39.36 -5.76 0
v -39.36 -5.44 0
v -39.04 -5.44 0
v -39.36 -5.76 0
v -39.68 -5.76 0
v -39.68 -5.44 0
v -39.36 -5.44 0
v -39.68 -5.76 0
v -40 -5.76 0
v -40 -5.44 0
v -39.68 -5.44 0
v -40 -5.76 0
v -40.32 -5.76 0
v -40.32 -5.44 0
v -40 -5.44 0
v -40.32 -5.76 0
v -40.64 -5.76 0
v -40.64 -5.44 0
v -40.32 -5.44 0
v -40.64 -5.76 0
v -40.96 -5.76 0
v -40.96 -5.44 0
v -40.64 -5.44 0
v -40.96 -5.76 0
v -41.28 -5.76 0
v -41.28 -5.44 0
v -40.96 -5.44 0
v -41.28 -5.76 0
v -41.6 -5.76 0
v -41.6 -5.44 0
v -41.28 -5.44 0
v -41.6 -5.76 0
v -41.92 -5.76 0
v -41.92 -5.44 0
v -41.6 -5.44 0
v -41.92 -5.76 0
v -42.24 -5.76 0
v -42.24 -5.44 0
v -41.92 -5.44 0
v -42.24 -5.76 0
v -42.56 -5.76 0
v -42.56 -5.44 0
v -42.24 -5.44 0
v -42.56 -5.76 0
v -42.88 -5.76 0
v -42.88 -5.44 0
v -42.56 -5.44 0
v -42.88 -5.76 0
v -43.2 -5.76 0
v -43.2 -5.44 0
v -42.88 -5.44 0
v -43.2 -5.76 0
v -43.52 -5.76 0
v -43.52 -5.44 0
v -43.2 -5.44 0
v -43.52 -5.76 0
v -43.84 -5.76 0
v -43.84 -5.44 0
v -43.52 -5.44 0
v -37.44 -6.08 0
v -37.76 -6.08 0
v -37.76 -5.76 0
v -37.44 -5.76 0
v -37.76 -6.08 0
v -38.08 -6.08 0
v -38.08 -5.76 0
v -37.76 -5.76 0
v -38.08 -6.08 0
v -38.4 -6.08 0
v -38.4 -5.76 0
v -38.08 -5.76 0
v -38.4 -6.08 0
v -38.72 -6.08 0
v -38.72 -5.76 0
v -38.4 -5.76 0
v -38.72 -6.08 0
v -39.04 -6.08 0
v -39.04 -5.76 0
v -38.72 -5.76 0
v -39.04 -6.08 0
v -39.36 -6.08 0
v -39.36 -5.76 0
v -39.04 -5.76 0
v -39.36 -6.08 0
v -39.68 -6.08 0
v -39.68 -5.76 0
v -39.36 -5.76 0
v -39.68 -6.08 0
v -40 -6.08 0
v -40 -5.76 0
v -39.68 -5.76 0
v -40 -6.08 0
v -40.32 -6.08 0
v -40.32 -5.76 0
v -40 -5.76 0
v -40.32 -6.08 0
v -40.64 -6.08 0
v -40.64 -5.76 0
v -40.32 -5.76 0
v -40.64 -6.08 0
v -40.96 -6.08 0
v -40.96 -5.76 0
v -40.64 -5.76 0
v -40.96 -6.08 0
v -41.28 -6.08 0
v -41.28 -5.76 0
v -40.96 -5.76 0
v -41.28 -6.08 0
v -41.6 -6.08 0
v -41.6 -5.76 0
v -41.28 -5.76 0
v -41.6 -6.08 0
v -41.92 -6.08 0
v -41.92 -5.76 0
v -41.6 -5.76 0
v -41.92 -6.08 0
v -42.24 -6.08 0
v -42.24 -5.76 0
v -41.92 -5.76 0
v -42.24 -6.08 0
v -42.56 -6.08 0
v -42.56 -5.76 0
v -42.24 -5.76 0
v -42.56 -6.08 0
v -42.88 -6.08 0
v -42.88 -5.76 0
v -42.56 -5.76 0
v -42.88 -6.08 0
v -43.2 -6.08 0
v -43.2 -5.76 0
v -42.88 -5.76 0
v -43.2 -6.08 0
v -43.52 -6.08 0
v -43.52 -5.76 0
v -43.2 -5.76 0
v -43.52 -6.08 0
v -43.84 -6.08 0
v -43.84 -5.76 0
v -43.52 -5.76 0
v -22.08 -8.639999 0
v -22.4 -8.639999 0
v -22.4 -8.32 0
v -22.08 -8.32 0
v -22.4 -8.639999 0
v -22.72 -8.639999 0
v -22.72 -8.32 0
v -22.4 -8.32 0
v -22.72 -8.639999 0
v -23.04 -8.639999 0
v -23.04 -8.32 0
v -22.72 -8.32 0
v -23.04 -8.639999 0
v -23.36 -8.639999 0
v -23.36 -8.32 0
v -23.04 -8.32 0
v -22.08 -8.96 0
v -22.4 -8.96 0
v -22.4 -8.639999 0
v -22.08 -8.639999 0
v -22.4 -8.96 0
v -22.72 -8.96 0
v -22.72 -8.639999 0
v -22.4 -8.639999 0
v -22.72 -8.96 0
v -23.04 -8.96 0
v -23.04 -8.639999 0
v -22.72 -8.639999 0
v -23.04 -8.96 0
v -23.36 -8.96 0
v -23.36 -8.639999 0
v -23.04 -8.639999 0
v -22.08 -9.28 0
v -22.4 -9.28 0
v -22.4 -8.96 0
v -22.08 -8.96 0
v -22.4 -9.28 0
v -22.72 -9.28 0
v -22.72 -8.96 0
v -22.4 -8.96 0
v -22.72 -9.28 0
v -23.04 -9.28 0
v -23.04 -8.96 0
v -22.72 -8.96 0
v -23.04 -9.28 0
v -23.36 -9.28 0
v -23.36 -8.96 0
v -23.04 -8.96 0
v -22.08 -9.599999 0
v -22.4 -9.599999 0
v -22.4 -9.28 0
v -22.08 -9.28 0
v -22.4 -9.599999 0
v -22.72 -9.599999 0
v -22.72 -9.28 0
v -22.4 -9.28 0
v -22.72 -9.599999 0
v -23.04 -9.599999 0
v -23.04 -9.28 0
v -22.72 -9.28 0
v -23.04 -9.599999 0
v -23.36 -9.599999 0
v -23.36 -9.28 0
v -23.04 -9.28 0
v -24.96 -10.24 0
v -25.28 -10.24 0
v -25.28 -9.92 0
v -24.96 -9.92 0
v -25.28 -10.24 0
v -25.6 -10.24 0
v -25.6 -9.92 0
v -25.28 -9.92 0
v -25.6 -10.24 0
v -25.92 -10.24 0
v -25.92 -9.92 0
v -25.6 -9.92 0
v -26.24 -11.84 0
v -26.56 -11.84 0
v -26.56 -11.52 0
v -26.24 -11.52 0
v -26.56 -11.84 0
v -26.88 -11.84 0
v -26.88 -11.52 0
v -26.56 -11.52 0
v -26.88 -11.84 0
v -27.2 -11.84 0
v -27.2 -11.52 0
v -26.88 -11.52 0
v -25.6 -12.16 0
v -25.92 -12.16 0
v -25.92 -11.84 0
v -25.6 -11.84 0
v -25.92 -12.16 0
v -26.24 -12.16 0
v -26.24 -11.84 0
v -25.92 -11.84 0
v -26.24 -12.16 0
v -26.56 -12.16 0
v -26.56 -11.84 0
v -26.24 -11.84 0
v -26.56 -12.16 0
v -26.88 -12.16 0
v -26.88 -11.84 0
v -26.56 -11.84 0
v -26.88 -12.16 0
v -27.2 -12.16 0
v -27.2 -11.84 0
v -26.88 -11.84 0
v -25.6 -12.48 0
v -25.92 -12.48 0
v -25.92 -12.16 0
v -25.6 -12.16 0
v -25.92 -12.48 0
v -26.24 -12.48 0
v -26.24 -12.16 0
v -25.92 -12.16 0
v -26.24 -12.48 0
v -26.56 -12.48 0
v -26.56 -12.16 0
v -26.24 -12.16 0
v -26.56 -12.48 0
v -26.88 -12.48 0
v -26.88 -12.16 0
v -26.56 -12.16 0
v -26.88 -12.48 0
v -27.2 -12.48 0
v -27.2 -12.16 0
v -26.88 -12.16 0
v -25.6 -12.8 0
v -25.92 -12.8 0
v -25.92 -12.48 0
v -25.6 -12.48 0
v -25.92 -12.8 0
v -26.24 -12.8 0
v -26.24 -12.48 0
v -25.92 -12.48 0
v -26.24 -12.8 0
v -26.56 -12.8 0
v -26.56 -12.48 0
v -26.24 -12.48 0
v -26.56 -12.8 0
v -26.88 -12.8 0
v -26.88 -12.48 0
v -26.56 -12.48 0
v -26.88 -12.8 0
v -27.2 -12.8 0
v -27.2 -12.48 0
v -26.88 -12.48 0
v -1.6 -14.4 0
v -1.92 -14.4 0
v -1.92 -14.08 0
v -1.6 -14.08 0
v -1.92 -29.76 0
v -2.24 -29.76 0
v -2.24 -29.44 0
v -1.92 -29.44 0

# Texture cooridinates (Count = 68)
vt 0.28125 0.59375
vt 0.3125 0.59375
vt 0.3125 0.625
vt 0.28125 0.625
vt 0.34375 0.59375
vt 0.34375 0.625
vt 0.375 0.59375
vt 0.375 0.625
vt 0.28125 0.5625
vt 0.3125 0.5625
vt 0.34375 0.5625
vt 0.375 0.5625
vt 0.28125 0.53125
vt 0.3125 0.53125
vt 0.34375 0.53125
vt 0.375 0.53125
vt 0.34375 0.875
vt 0.375 0.875
vt 0.375 0.90625
vt 0.34375 0.90625
vt 0.78125 0.4375
vt 0.8125 0.4375
vt 0.8125 0.46875
vt 0.78125 0.46875
vt 0.40625 0.5625
vt 0.40625 0.59375
vt 0.4375 0.5625
vt 0.4375 0.59375
vt 0.46875 0.5625
vt 0.46875 0.59375
vt 0.375 0.5
vt 0.40625 0.5
vt 0.40625 0.53125
vt 0.4375 0.5
vt 0.4375 0.53125
vt 0.46875 0.5
vt 0.46875 0.53125
vt 0.65625 0.46875
vt 0.6875 0.46875
vt 0.6875 0.5
vt 0.65625 0.5
vt 0.71875 0.46875
vt 0.71875 0.5
vt 0.75 0.46875
vt 0.75 0.5
vt 0.1875 0.5625
vt 0.21875 0.5625
vt 0.21875 0.59375
vt 0.1875 0.59375
vt 0.0625 0.5625
vt 0.09375 0.5625
vt 0.09375 0.59375
vt 0.0625 0.59375
vt 0.09375 0.625
vt 0.0625 0.625
vt 0 0.5625
vt 0.03125 0.5625
vt 0.03125 0.59375
vt 0 0.59375
vt 0.1875 0.53125
vt 0.21875 0.53125
vt 0 0.53125
vt 0.03125 0.53125
vt 0.0625 0.53125
vt 0.09375 0.53125
vt 0.84375 0.4375
vt 0.84375 0.46875
vt 0.75 0.4375

# Normal
vn 0 0 -1

# Mesh description
g Town_mesh_0029

# Faces
f 1/1/1 2/2/1 3/3/1 4/4/1
f 5/2/1 6/5/1 7/6/1 8/3/1
f 9/5/1 10/7/1 11/8/1 12/6/1
f 13/9/1 14/10/1 15/2/1 16/1/1
f 17/10/1 18/11/1 19/5/1 20/2/1
f 21/11/1 22/12/1 23/7/1 24/5/1
f 25/13/1 26/14/1 27/10/1 28/9/1
f 29/14/1 30/15/1 31/11/1 32/10/1
f 33/15/1 34/16/1 35/12/1 36/11/1
f 37/17/1 38/18/1 39/19/1 40/20/1
f 41/17/1 42/18/1 43/19/1 44/20/1
f 45/21/1 46/22/1 47/23/1 48/24/1
f 49/1/1 50/2/1 51/3/1 52/4/1
f 53/12/1 54/25/1 55/26/1 56/7/1
f 57/25/1 58/27/1 59/28/1 60/26/1
f 61/25/1 62/27/1 63/28/1 64/26/1
f 65/25/1 66/27/1 67/28/1 68/26/1
f 69/25/1 70/27/1 71/28/1 72/26/1
f 73/25/1 74/27/1 75/28/1 76/26/1
f 77/25/1 78/27/1 79/28/1 80/26/1
f 81/25/1 82/27/1 83/28/1 84/26/1
f 85/25/1 86/27/1 87/28/1 88/26/1
f 89/25/1 90/27/1 91/28/1 92/26/1
f 93/25/1 94/27/1 95/28/1 96/26/1
f 97/25/1 98/27/1 99/28/1 100/26/1
f 101/25/1 102/27/1 103/28/1 104/26/1
f 105/25/1 106/27/1 107/28/1 108/26/1
f 109/25/1 110/27/1 111/28/1 112/26/1
f 113/25/1 114/27/1 115/28/1 116/26/1
f 117/25/1 118/27/1 119/28/1 120/26/1
f 121/27/1 122/29/1 123/30/1 124/28/1
f 125/5/1 126/7/1 127/8/1 128/6/1
f 129/9/1 130/10/1 131/2/1 132/1/1
f 133/31/1 134/32/1 135/33/1 136/16/1
f 137/32/1 138/34/1 139/35/1 140/33/1
f 141/32/1 142/34/1 143/35/1 144/33/1
f 145/32/1 146/34/1 147/35/1 148/33/1
f 149/32/1 150/34/1 151/35/1 152/33/1
f 153/32/1 154/34/1 155/35/1 156/33/1
f 157/32/1 158/34/1 159/35/1 160/33/1
f 161/32/1 162/34/1 163/35/1 164/33/1
f 165/32/1 166/34/1 167/35/1 168/33/1
f 169/32/1 170/34/1 171/35/1 172/33/1
f 173/32/1 174/34/1 175/35/1 176/33/1
f 177/32/1 178/34/1 179/35/1 180/33/1
f 181/32/1 182/34/1 183/35/1 184/33/1
f 185/32/1 186/34/1 187/35/1 188/33/1
f 189/32/1 190/34/1 191/35/1 192/33/1
f 193/32/1 194/34/1 195/35/1 196/33/1
f 197/32/1 198/34/1 199/35/1 200/33/1
f 201/34/1 202/36/1 203/37/1 204/35/1
f 205/11/1 206/12/1 207/7/1 208/5/1
f 209/9/1 210/10/1 211/2/1 212/1/1
f 213/31/1 214/32/1 215/33/1 216/16/1
f 217/32/1 218/34/1 219/35/1 220/33/1
f 221/32/1 222/34/1 223/35/1 224/33/1
f 225/32/1 226/34/1 227/35/1 228/33/1
f 229/32/1 230/34/1 231/35/1 232/33/1
f 233/32/1 234/34/1 235/35/1 236/33/1
f 237/32/1 238/34/1 239/35/1 240/33/1
f 241/32/1 242/34/1 243/35/1 244/33/1
f 245/32/1 246/34/1 247/35/1 248/33/1
f 249/32/1 250/34/1 251/35/1 252/33/1
f 253/32/1 254/34/1 255/35/1 256/33/1
f 257/32/1 258/34/1 259/35/1 260/33/1
f 261/32/1 262/34/1 263/35/1 264/33/1
f 265/32/1 266/34/1 267/35/1 268/33/1
f 269/32/1 270/34/1 271/35/1 272/33/1
f 273/32/1 274/34/1 275/35/1 276/33/1
f 277/32/1 278/34/1 279/35/1 280/33/1
f 281/34/1 282/36/1 283/37/1 284/35/1
f 285/11/1 286/12/1 287/7/1 288/5/1
f 289/9/1 290/10/1 291/2/1 292/1/1
f 293/16/1 294/33/1 295/25/1 296/12/1
f 297/33/1 298/35/1 299/27/1 300/25/1
f 301/33/1 302/35/1 303/27/1 304/25/1
f 305/33/1 306/35/1 307/27/1 308/25/1
f 309/33/1 310/35/1 311/27/1 312/25/1
f 313/33/1 314/35/1 315/27/1 316/25/1
f 317/33/1 318/35/1 319/27/1 320/25/1
f 321/33/1 322/35/1 323/27/1 324/25/1
f 325/33/1 326/35/1 327/27/1 328/25/1
f 329/33/1 330/35/1 331/27/1 332/25/1
f 333/33/1 334/35/1 335/27/1 336/25/1
f 337/33/1 338/35/1 339/27/1 340/25/1
f 341/33/1 342/35/1 343/27/1 344/25/1
f 345/33/1 346/35/1 347/27/1 348/25/1
f 349/33/1 350/35/1 351/27/1 352/25/1
f 353/33/1 354/35/1 355/27/1 356/25/1
f 357/33/1 358/35/1 359/27/1 360/25/1
f 361/35/1 362/37/1 363/29/1 364/27/1
f 365/11/1 366/12/1 367/7/1 368/5/1
f 369/13/1 370/14/1 371/10/1 372/9/1
f 373/14/1 374/15/1 375/11/1 376/10/1
f 377/14/1 378/15/1 379/11/1 380/10/1
f 381/14/1 382/15/1 383/11/1 384/10/1
f 385/14/1 386/15/1 387/11/1 388/10/1
f 389/14/1 390/15/1 391/11/1 392/10/1
f 393/14/1 394/15/1 395/11/1 396/10/1
f 397/14/1 398/15/1 399/11/1 400/10/1
f 401/14/1 402/15/1 403/11/1 404/10/1
f 405/14/1 406/15/1 407/11/1 408/10/1
f 409/14/1 410/15/1 411/11/1 412/10/1
f 413/14/1 414/15/1 415/11/1 416/10/1
f 417/14/1 418/15/1 419/11/1 420/10/1
f 421/14/1 422/15/1 423/11/1 424/10/1
f 425/14/1 426/15/1 427/11/1 428/10/1
f 429/14/1 430/15/1 431/11/1 432/10/1
f 433/14/1 434/15/1 435/11/1 436/10/1
f 437/14/1 438/15/1 439/11/1 440/10/1
f 441/14/1 442/15/1 443/11/1 444/10/1
f 445/15/1 446/16/1 447/12/1 448/11/1
f 449/1/1 450/2/1 451/3/1 452/4/1
f 453/12/1 454/25/1 455/26/1 456/7/1
f 457/27/1 458/29/1 459/30/1 460/28/1
f 461/5/1 462/7/1 463/8/1 464/6/1
f 465/9/1 466/10/1 467/2/1 468/1/1
f 469/31/1 470/32/1 471/33/1 472/16/1
f 473/32/1 474/31/1 475/16/1 476/33/1
f 477/11/1 478/12/1 479/7/1 480/5/1
f 481/9/1 482/10/1 483/2/1 484/1/1
f 485/16/1 486/33/1 487/25/1 488/12/1
f 489/35/1 490/37/1 491/29/1 492/27/1
f 493/11/1 494/12/1 495/7/1 496/5/1
f 497/13/1 498/14/1 499/10/1 500/9/1
f 501/14/1 502/15/1 503/11/1 504/10/1
f 505/14/1 506/15/1 507/11/1 508/10/1
f 509/15/1 510/16/1 511/12/1 512/11/1
f 513/38/1 514/39/1 515/40/1 516/41/1
f 517/39/1 518/42/1 519/43/1 520/40/1
f 521/42/1 522/44/1 523/45/1 524/43/1
f 525/46/1 526/47/1 527/48/1 528/49/1
f 529/50/1 530/51/1 531/52/1 532/53/1
f 533/53/1 534/52/1 535/54/1 536/55/1
f 537/56/1 538/57/1 539/58/1 540/59/1
f 541/56/1 542/57/1 543/58/1 544/59/1
f 545/60/1 546/61/1 547/47/1 548/46/1
f 549/50/1 550/51/1 551/52/1 552/53/1
f 553/50/1 554/51/1 555/52/1 556/53/1
f 557/56/1 558/57/1 559/58/1 560/59/1
f 561/62/1 562/63/1 563/57/1 564/56/1
f 565/63/1 566/64/1 567/50/1 568/57/1
f 569/64/1 570/65/1 571/51/1 572/50/1
f 573/50/1 574/51/1 575/52/1 576/53/1
f 577/62/1 578/63/1 579/57/1 580/56/1
f 581/63/1 582/64/1 583/50/1 584/57/1
f 585/63/1 586/64/1 587/50/1 588/57/1
f 589/63/1 590/64/1 591/50/1 592/57/1
f 593/64/1 594/65/1 595/51/1 596/50/1
f 597/22/1 598/66/1 599/67/1 600/23/1
f 601/68/1 602/21/1 603/24/1 604/44/1

