# Tiled2Unity generated file. Do not modify by hand.
# Wavefront file for 'Town_mesh_0002.obj'

# Vertices (Count = 24)
v -31.04 -3.2 0
v -31.36 -3.2 0
v -31.36 -2.88 0
v -31.04 -2.88 0
v -31.36 -3.2 0
v -31.68 -3.2 0
v -31.68 -2.88 0
v -31.36 -2.88 0
v -31.68 -3.2 0
v -32 -3.2 0
v -32 -2.88 0
v -31.68 -2.88 0
v -32 -3.2 0
v -32.32 -3.2 0
v -32.32 -2.88 0
v -32 -2.88 0
v -32.32 -3.2 0
v -32.64 -3.2 0
v -32.64 -2.88 0
v -32.32 -2.88 0
v -32.64 -3.2 0
v -32.96 -3.2 0
v -32.96 -2.88 0
v -32.64 -2.88 0

# Texture cooridinates (Count = 4)
vt 0.75 0.6
vt 1 0.6
vt 1 0.8
vt 0.75 0.8

# Normal
vn 0 0 -1

# Mesh description
g Town_mesh_0002

# Faces
f 1/1/1 2/2/1 3/3/1 4/4/1
f 5/1/1 6/2/1 7/3/1 8/4/1
f 9/1/1 10/2/1 11/3/1 12/4/1
f 13/1/1 14/2/1 15/3/1 16/4/1
f 17/1/1 18/2/1 19/3/1 20/4/1
f 21/1/1 22/2/1 23/3/1 24/4/1

