# Tiled2Unity generated file. Do not modify by hand.
# Wavefront file for 'Town_mesh_0013.obj'

# Vertices (Count = 64)
v -8.32 -1.28 0
v -8.639999 -1.28 0
v -8.639999 -0.96 0
v -8.32 -0.96 0
v -9.599999 -1.28 0
v -9.92 -1.28 0
v -9.92 -0.96 0
v -9.599999 -0.96 0
v -8.32 -1.6 0
v -8.639999 -1.6 0
v -8.639999 -1.28 0
v -8.32 -1.28 0
v -9.599999 -1.6 0
v -9.92 -1.6 0
v -9.92 -1.28 0
v -9.599999 -1.28 0
v -0.96 -5.44 0
v -1.28 -5.44 0
v -1.28 -5.12 0
v -0.96 -5.12 0
v -1.28 -5.44 0
v -1.6 -5.44 0
v -1.6 -5.12 0
v -1.28 -5.12 0
v -0.96 -5.76 0
v -1.28 -5.76 0
v -1.28 -5.44 0
v -0.96 -5.44 0
v -1.28 -5.76 0
v -1.6 -5.76 0
v -1.6 -5.44 0
v -1.28 -5.44 0
v -0.64 -8.639999 0
v -0.96 -8.639999 0
v -0.96 -8.32 0
v -0.64 -8.32 0
v -2.24 -8.639999 0
v -2.56 -8.639999 0
v -2.56 -8.32 0
v -2.24 -8.32 0
v -0.64 -8.96 0
v -0.96 -8.96 0
v -0.96 -8.639999 0
v -0.64 -8.639999 0
v -2.24 -8.96 0
v -2.56 -8.96 0
v -2.56 -8.639999 0
v -2.24 -8.639999 0
v -0.64 -9.28 0
v -0.96 -9.28 0
v -0.96 -8.96 0
v -0.64 -8.96 0
v -2.24 -9.28 0
v -2.56 -9.28 0
v -2.56 -8.96 0
v -2.24 -8.96 0
v -0.64 -9.599999 0
v -0.96 -9.599999 0
v -0.96 -9.28 0
v -0.64 -9.28 0
v -2.24 -9.599999 0
v -2.56 -9.599999 0
v -2.56 -9.28 0
v -2.24 -9.28 0

# Texture cooridinates (Count = 12)
vt 0.8888889 0.8571429
vt 1 0.8571429
vt 1 1
vt 0.8888889 1
vt 0.8888889 0.7142857
vt 1 0.7142857
vt 0.3333333 0.8571429
vt 0.4444444 0.8571429
vt 0.4444444 1
vt 0.3333333 1
vt 0.3333333 0.7142857
vt 0.4444444 0.7142857

# Normal
vn 0 0 -1

# Mesh description
g Town_mesh_0013

# Faces
f 1/1/1 2/2/1 3/3/1 4/4/1
f 5/1/1 6/2/1 7/3/1 8/4/1
f 9/5/1 10/6/1 11/2/1 12/1/1
f 13/5/1 14/6/1 15/2/1 16/1/1
f 17/7/1 18/8/1 19/9/1 20/10/1
f 21/8/1 22/7/1 23/10/1 24/9/1
f 25/11/1 26/12/1 27/8/1 28/7/1
f 29/12/1 30/11/1 31/7/1 32/8/1
f 33/1/1 34/2/1 35/3/1 36/4/1
f 37/1/1 38/2/1 39/3/1 40/4/1
f 41/5/1 42/6/1 43/2/1 44/1/1
f 45/5/1 46/6/1 47/2/1 48/1/1
f 49/1/1 50/2/1 51/3/1 52/4/1
f 53/1/1 54/2/1 55/3/1 56/4/1
f 57/5/1 58/6/1 59/2/1 60/1/1
f 61/5/1 62/6/1 63/2/1 64/1/1

