# Tiled2Unity generated file. Do not modify by hand.
# Wavefront file for 'Town_mesh_0020.obj'

# Vertices (Count = 88)
v -8 -11.52 0
v -8.32 -11.52 0
v -8.32 -11.2 0
v -8 -11.2 0
v -8.32 -11.52 0
v -8.639999 -11.52 0
v -8.639999 -11.2 0
v -8.32 -11.2 0
v -8.639999 -11.52 0
v -8.96 -11.52 0
v -8.96 -11.2 0
v -8.639999 -11.2 0
v -8.96 -11.52 0
v -9.28 -11.52 0
v -9.28 -11.2 0
v -8.96 -11.2 0
v -9.28 -11.52 0
v -9.599999 -11.52 0
v -9.599999 -11.2 0
v -9.28 -11.2 0
v -8 -11.84 0
v -8.32 -11.84 0
v -8.32 -11.52 0
v -8 -11.52 0
v -8.32 -11.84 0
v -8.639999 -11.84 0
v -8.639999 -11.52 0
v -8.32 -11.52 0
v -8.639999 -11.84 0
v -8.96 -11.84 0
v -8.96 -11.52 0
v -8.639999 -11.52 0
v -8.96 -11.84 0
v -9.28 -11.84 0
v -9.28 -11.52 0
v -8.96 -11.52 0
v -9.28 -11.84 0
v -9.599999 -11.84 0
v -9.599999 -11.52 0
v -9.28 -11.52 0
v -9.599999 -11.84 0
v -9.92 -11.84 0
v -9.92 -11.52 0
v -9.599999 -11.52 0
v -9.92 -11.84 0
v -10.24 -11.84 0
v -10.24 -11.52 0
v -9.92 -11.52 0
v -8 -12.16 0
v -8.32 -12.16 0
v -8.32 -11.84 0
v -8 -11.84 0
v -8.32 -12.16 0
v -8.639999 -12.16 0
v -8.639999 -11.84 0
v -8.32 -11.84 0
v -8.639999 -12.16 0
v -8.96 -12.16 0
v -8.96 -11.84 0
v -8.639999 -11.84 0
v -8.96 -12.16 0
v -9.28 -12.16 0
v -9.28 -11.84 0
v -8.96 -11.84 0
v -9.28 -12.16 0
v -9.599999 -12.16 0
v -9.599999 -11.84 0
v -9.28 -11.84 0
v -8 -12.48 0
v -8.32 -12.48 0
v -8.32 -12.16 0
v -8 -12.16 0
v -8.32 -12.48 0
v -8.639999 -12.48 0
v -8.639999 -12.16 0
v -8.32 -12.16 0
v -8.639999 -12.48 0
v -8.96 -12.48 0
v -8.96 -12.16 0
v -8.639999 -12.16 0
v -8.96 -12.48 0
v -9.28 -12.48 0
v -9.28 -12.16 0
v -8.96 -12.16 0
v -9.28 -12.48 0
v -9.599999 -12.48 0
v -9.599999 -12.16 0
v -9.28 -12.16 0

# Texture cooridinates (Count = 16)
vt 0 0.4285714
vt 0.1111111 0.4285714
vt 0.1111111 0.5714285
vt 0 0.5714285
vt 0 0.2857143
vt 0.1111111 0.2857143
vt 0.2222222 0.4285714
vt 0.2222222 0.5714285
vt 0.2222222 0.2857143
vt 0.3333333 0.2857143
vt 0.3333333 0.4285714
vt 0.3333333 0.5714285
vt 0 0.1428571
vt 0.1111111 0.1428571
vt 0.2222222 0.1428571
vt 0.3333333 0.1428571

# Normal
vn 0 0 -1

# Mesh description
g Town_mesh_0020

# Faces
f 1/1/1 2/2/1 3/3/1 4/4/1
f 5/5/1 6/6/1 7/2/1 8/1/1
f 9/2/1 10/7/1 11/8/1 12/3/1
f 13/9/1 14/10/1 15/11/1 16/7/1
f 17/7/1 18/11/1 19/12/1 20/8/1
f 21/5/1 22/6/1 23/2/1 24/1/1
f 25/5/1 26/6/1 27/2/1 28/1/1
f 29/2/1 30/7/1 31/8/1 32/3/1
f 33/9/1 34/10/1 35/11/1 36/7/1
f 37/9/1 38/10/1 39/11/1 40/7/1
f 41/1/1 42/2/1 43/3/1 44/4/1
f 45/5/1 46/6/1 47/2/1 48/1/1
f 49/5/1 50/6/1 51/2/1 52/1/1
f 53/13/1 54/14/1 55/6/1 56/5/1
f 57/14/1 58/15/1 59/9/1 60/6/1
f 61/15/1 62/16/1 63/10/1 64/9/1
f 65/9/1 66/10/1 67/11/1 68/7/1
f 69/13/1 70/14/1 71/6/1 72/5/1
f 73/14/1 74/15/1 75/9/1 76/6/1
f 77/14/1 78/15/1 79/9/1 80/6/1
f 81/14/1 82/15/1 83/9/1 84/6/1
f 85/15/1 86/16/1 87/10/1 88/9/1

