# Tiled2Unity generated file. Do not modify by hand.
# Wavefront file for 'Town_mesh_0004.obj'

# Vertices (Count = 24)
v -0.32 -5.76 0
v -0.64 -5.76 0
v -0.64 -5.44 0
v -0.32 -5.44 0
v -0.64 -5.76 0
v -0.96 -5.76 0
v -0.96 -5.44 0
v -0.64 -5.44 0
v -0.96 -5.76 0
v -1.28 -5.76 0
v -1.28 -5.44 0
v -0.96 -5.44 0
v -1.28 -5.76 0
v -1.6 -5.76 0
v -1.6 -5.44 0
v -1.28 -5.44 0
v -1.6 -5.76 0
v -1.92 -5.76 0
v -1.92 -5.44 0
v -1.6 -5.44 0
v -1.92 -5.76 0
v -2.24 -5.76 0
v -2.24 -5.44 0
v -1.92 -5.44 0

# Texture cooridinates (Count = 4)
vt 0.65625 0.25
vt 0.6875 0.25
vt 0.6875 0.28125
vt 0.65625 0.28125

# Normal
vn 0 0 -1

# Mesh description
g Town_mesh_0004

# Faces
f 1/1/1 2/2/1 3/3/1 4/4/1
f 5/1/1 6/2/1 7/3/1 8/4/1
f 9/1/1 10/2/1 11/3/1 12/4/1
f 13/1/1 14/2/1 15/3/1 16/4/1
f 17/1/1 18/2/1 19/3/1 20/4/1
f 21/1/1 22/2/1 23/3/1 24/4/1

