# Tiled2Unity generated file. Do not modify by hand.
# Wavefront file for 'Town_mesh_0014.obj'

# Vertices (Count = 124)
v -3.52 -1.6 0
v -3.84 -1.6 0
v -3.84 -1.28 0
v -3.52 -1.28 0
v -3.84 -1.6 0
v -4.16 -1.6 0
v -4.16 -1.28 0
v -3.84 -1.28 0
v -4.16 -1.6 0
v -4.48 -1.6 0
v -4.48 -1.28 0
v -4.16 -1.28 0
v -4.48 -1.6 0
v -4.8 -1.6 0
v -4.8 -1.28 0
v -4.48 -1.28 0
v -4.8 -1.6 0
v -5.12 -1.6 0
v -5.12 -1.28 0
v -4.8 -1.28 0
v -5.12 -1.6 0
v -5.44 -1.6 0
v -5.44 -1.28 0
v -5.12 -1.28 0
v -0.64 -1.92 0
v -0.96 -1.92 0
v -0.96 -1.6 0
v -0.64 -1.6 0
v -0.96 -1.92 0
v -1.28 -1.92 0
v -1.28 -1.6 0
v -0.96 -1.6 0
v -1.28 -1.92 0
v -1.6 -1.92 0
v -1.6 -1.6 0
v -1.28 -1.6 0
v -1.6 -1.92 0
v -1.92 -1.92 0
v -1.92 -1.6 0
v -1.6 -1.6 0
v -1.92 -1.92 0
v -2.24 -1.92 0
v -2.24 -1.6 0
v -1.92 -1.6 0
v -3.52 -1.92 0
v -3.84 -1.92 0
v -3.84 -1.6 0
v -3.52 -1.6 0
v -3.84 -1.92 0
v -4.16 -1.92 0
v -4.16 -1.6 0
v -3.84 -1.6 0
v -4.16 -1.92 0
v -4.48 -1.92 0
v -4.48 -1.6 0
v -4.16 -1.6 0
v -4.48 -1.92 0
v -4.8 -1.92 0
v -4.8 -1.6 0
v -4.48 -1.6 0
v -4.8 -1.92 0
v -5.12 -1.92 0
v -5.12 -1.6 0
v -4.8 -1.6 0
v -5.12 -1.92 0
v -5.44 -1.92 0
v -5.44 -1.6 0
v -5.12 -1.6 0
v -0.64 -2.24 0
v -0.96 -2.24 0
v -0.96 -1.92 0
v -0.64 -1.92 0
v -0.96 -2.24 0
v -1.28 -2.24 0
v -1.28 -1.92 0
v -0.96 -1.92 0
v -1.28 -2.24 0
v -1.6 -2.24 0
v -1.6 -1.92 0
v -1.28 -1.92 0
v -1.6 -2.24 0
v -1.92 -2.24 0
v -1.92 -1.92 0
v -1.6 -1.92 0
v -1.92 -2.24 0
v -2.24 -2.24 0
v -2.24 -1.92 0
v -1.92 -1.92 0
v -4.16 -2.24 0
v -4.48 -2.24 0
v -4.48 -1.92 0
v -4.16 -1.92 0
v -4.48 -2.24 0
v -4.8 -2.24 0
v -4.8 -1.92 0
v -4.48 -1.92 0
v -4.8 -2.24 0
v -5.12 -2.24 0
v -5.12 -1.92 0
v -4.8 -1.92 0
v -0.96 -2.56 0
v -1.28 -2.56 0
v -1.28 -2.24 0
v -0.96 -2.24 0
v -6.72 -10.24 0
v -7.04 -10.24 0
v -7.04 -9.92 0
v -6.72 -9.92 0
v -9.92 -13.12 0
v -10.24 -13.12 0
v -10.24 -12.8 0
v -9.92 -12.8 0
v -10.56 -13.12 0
v -10.88 -13.12 0
v -10.88 -12.8 0
v -10.56 -12.8 0
v -9.92 -13.44 0
v -10.24 -13.44 0
v -10.24 -13.12 0
v -9.92 -13.12 0
v -10.56 -13.44 0
v -10.88 -13.44 0
v -10.88 -13.12 0
v -10.56 -13.12 0

# Texture cooridinates (Count = 29)
vt 0.5 0.9857143
vt 0.625 0.9857143
vt 0.625 1
vt 0.5 1
vt 0.75 0.9857143
vt 0.75 1
vt 0.875 0.9857143
vt 0.875 1
vt 1 0.9857143
vt 1 1
vt 0.5 0.9571428
vt 0.625 0.9571428
vt 0.625 0.9714286
vt 0.5 0.9714286
vt 0.75 0.9714286
vt 0.875 0.9714286
vt 1 0.9714286
vt 0.5 0.9428571
vt 0.625 0.9428571
vt 0.75 0.9571428
vt 0.875 0.9571428
vt 1 0.9571428
vt 0 0
vt 0.125 0
vt 0.125 0.01428574
vt 0 0.01428574
vt 0.375 0.9571428
vt 0.375 0.9714286
vt 0.375 0.9428571

# Normal
vn 0 0 -1

# Mesh description
g Town_mesh_0014

# Faces
f 1/1/1 2/2/1 3/3/1 4/4/1
f 5/1/1 6/2/1 7/3/1 8/4/1
f 9/2/1 10/5/1 11/6/1 12/3/1
f 13/5/1 14/7/1 15/8/1 16/6/1
f 17/7/1 18/9/1 19/10/1 20/8/1
f 21/1/1 22/2/1 23/3/1 24/4/1
f 25/2/1 26/5/1 27/6/1 28/3/1
f 29/5/1 30/7/1 31/8/1 32/6/1
f 33/7/1 34/9/1 35/10/1 36/8/1
f 37/11/1 38/12/1 39/13/1 40/14/1
f 41/11/1 42/12/1 43/13/1 44/14/1
f 45/14/1 46/13/1 47/2/1 48/1/1
f 49/14/1 50/13/1 51/2/1 52/1/1
f 53/13/1 54/15/1 55/5/1 56/2/1
f 57/15/1 58/16/1 59/7/1 60/5/1
f 61/16/1 62/17/1 63/9/1 64/7/1
f 65/14/1 66/13/1 67/2/1 68/1/1
f 69/13/1 70/15/1 71/5/1 72/2/1
f 73/15/1 74/16/1 75/7/1 76/5/1
f 77/16/1 78/17/1 79/9/1 80/7/1
f 81/18/1 82/19/1 83/12/1 84/11/1
f 85/18/1 86/19/1 87/12/1 88/11/1
f 89/12/1 90/20/1 91/15/1 92/13/1
f 93/20/1 94/21/1 95/16/1 96/15/1
f 97/21/1 98/22/1 99/17/1 100/16/1
f 101/20/1 102/21/1 103/16/1 104/15/1
f 105/23/1 106/24/1 107/25/1 108/26/1
f 109/27/1 110/11/1 111/14/1 112/28/1
f 113/11/1 114/12/1 115/13/1 116/14/1
f 117/29/1 118/18/1 119/11/1 120/27/1
f 121/18/1 122/19/1 123/12/1 124/11/1

