# Tiled2Unity generated file. Do not modify by hand.
# Wavefront file for 'Town_mesh_0027.obj'

# Vertices (Count = 256)
v -6.72 -0.32 0
v -7.04 -0.32 0
v -7.04 0 0
v -6.72 0 0
v -7.04 -0.32 0
v -7.36 -0.32 0
v -7.36 0 0
v -7.04 0 0
v -7.36 -0.32 0
v -7.68 -0.32 0
v -7.68 0 0
v -7.36 0 0
v -7.68 -0.32 0
v -8 -0.32 0
v -8 0 0
v -7.68 0 0
v -8 -0.32 0
v -8.32 -0.32 0
v -8.32 0 0
v -8 0 0
v -8.32 -0.32 0
v -8.639999 -0.32 0
v -8.639999 0 0
v -8.32 0 0
v -8.639999 -0.32 0
v -8.96 -0.32 0
v -8.96 0 0
v -8.639999 0 0
v -6.72 -0.64 0
v -7.04 -0.64 0
v -7.04 -0.32 0
v -6.72 -0.32 0
v -7.04 -0.64 0
v -7.36 -0.64 0
v -7.36 -0.32 0
v -7.04 -0.32 0
v -7.36 -0.64 0
v -7.68 -0.64 0
v -7.68 -0.32 0
v -7.36 -0.32 0
v -7.68 -0.64 0
v -8 -0.64 0
v -8 -0.32 0
v -7.68 -0.32 0
v -8 -0.64 0
v -8.32 -0.64 0
v -8.32 -0.32 0
v -8 -0.32 0
v -8.32 -0.64 0
v -8.639999 -0.64 0
v -8.639999 -0.32 0
v -8.32 -0.32 0
v -8.639999 -0.64 0
v -8.96 -0.64 0
v -8.96 -0.32 0
v -8.639999 -0.32 0
v -6.72 -0.96 0
v -7.04 -0.96 0
v -7.04 -0.64 0
v -6.72 -0.64 0
v -7.04 -0.96 0
v -7.36 -0.96 0
v -7.36 -0.64 0
v -7.04 -0.64 0
v -7.36 -0.96 0
v -7.68 -0.96 0
v -7.68 -0.64 0
v -7.36 -0.64 0
v -7.68 -0.96 0
v -8 -0.96 0
v -8 -0.64 0
v -7.68 -0.64 0
v -8 -0.96 0
v -8.32 -0.96 0
v -8.32 -0.64 0
v -8 -0.64 0
v -8.32 -0.96 0
v -8.639999 -0.96 0
v -8.639999 -0.64 0
v -8.32 -0.64 0
v -8.639999 -0.96 0
v -8.96 -0.96 0
v -8.96 -0.64 0
v -8.639999 -0.64 0
v -6.72 -1.28 0
v -7.04 -1.28 0
v -7.04 -0.96 0
v -6.72 -0.96 0
v -7.04 -1.28 0
v -7.36 -1.28 0
v -7.36 -0.96 0
v -7.04 -0.96 0
v -7.36 -1.28 0
v -7.68 -1.28 0
v -7.68 -0.96 0
v -7.36 -0.96 0
v -7.68 -1.28 0
v -8 -1.28 0
v -8 -0.96 0
v -7.68 -0.96 0
v -8 -1.28 0
v -8.32 -1.28 0
v -8.32 -0.96 0
v -8 -0.96 0
v -8.32 -1.28 0
v -8.639999 -1.28 0
v -8.639999 -0.96 0
v -8.32 -0.96 0
v -8.639999 -1.28 0
v -8.96 -1.28 0
v -8.96 -0.96 0
v -8.639999 -0.96 0
v -6.72 -1.6 0
v -7.04 -1.6 0
v -7.04 -1.28 0
v -6.72 -1.28 0
v -7.04 -1.6 0
v -7.36 -1.6 0
v -7.36 -1.28 0
v -7.04 -1.28 0
v -7.36 -1.6 0
v -7.68 -1.6 0
v -7.68 -1.28 0
v -7.36 -1.28 0
v -7.68 -1.6 0
v -8 -1.6 0
v -8 -1.28 0
v -7.68 -1.28 0
v -8 -1.6 0
v -8.32 -1.6 0
v -8.32 -1.28 0
v -8 -1.28 0
v -8.32 -1.6 0
v -8.639999 -1.6 0
v -8.639999 -1.28 0
v -8.32 -1.28 0
v -8.639999 -1.6 0
v -8.96 -1.6 0
v -8.96 -1.28 0
v -8.639999 -1.28 0
v -6.72 -1.92 0
v -7.04 -1.92 0
v -7.04 -1.6 0
v -6.72 -1.6 0
v -7.04 -1.92 0
v -7.36 -1.92 0
v -7.36 -1.6 0
v -7.04 -1.6 0
v -7.36 -1.92 0
v -7.68 -1.92 0
v -7.68 -1.6 0
v -7.36 -1.6 0
v -7.68 -1.92 0
v -8 -1.92 0
v -8 -1.6 0
v -7.68 -1.6 0
v -8 -1.92 0
v -8.32 -1.92 0
v -8.32 -1.6 0
v -8 -1.6 0
v -8.32 -1.92 0
v -8.639999 -1.92 0
v -8.639999 -1.6 0
v -8.32 -1.6 0
v -8.639999 -1.92 0
v -8.96 -1.92 0
v -8.96 -1.6 0
v -8.639999 -1.6 0
v -24 -11.52 0
v -24.32 -11.52 0
v -24.32 -11.2 0
v -24 -11.2 0
v -24.32 -11.52 0
v -24.64 -11.52 0
v -24.64 -11.2 0
v -24.32 -11.2 0
v -24.64 -11.52 0
v -24.96 -11.52 0
v -24.96 -11.2 0
v -24.64 -11.2 0
v -24.96 -11.52 0
v -25.28 -11.52 0
v -25.28 -11.2 0
v -24.96 -11.2 0
v -25.28 -11.52 0
v -25.6 -11.52 0
v -25.6 -11.2 0
v -25.28 -11.2 0
v -24 -11.84 0
v -24.32 -11.84 0
v -24.32 -11.52 0
v -24 -11.52 0
v -24.32 -11.84 0
v -24.64 -11.84 0
v -24.64 -11.52 0
v -24.32 -11.52 0
v -24.64 -11.84 0
v -24.96 -11.84 0
v -24.96 -11.52 0
v -24.64 -11.52 0
v -24.96 -11.84 0
v -25.28 -11.84 0
v -25.28 -11.52 0
v -24.96 -11.52 0
v -25.28 -11.84 0
v -25.6 -11.84 0
v -25.6 -11.52 0
v -25.28 -11.52 0
v -25.6 -11.84 0
v -25.92 -11.84 0
v -25.92 -11.52 0
v -25.6 -11.52 0
v -25.92 -11.84 0
v -26.24 -11.84 0
v -26.24 -11.52 0
v -25.92 -11.52 0
v -24 -12.16 0
v -24.32 -12.16 0
v -24.32 -11.84 0
v -24 -11.84 0
v -24.32 -12.16 0
v -24.64 -12.16 0
v -24.64 -11.84 0
v -24.32 -11.84 0
v -24.64 -12.16 0
v -24.96 -12.16 0
v -24.96 -11.84 0
v -24.64 -11.84 0
v -24.96 -12.16 0
v -25.28 -12.16 0
v -25.28 -11.84 0
v -24.96 -11.84 0
v -25.28 -12.16 0
v -25.6 -12.16 0
v -25.6 -11.84 0
v -25.28 -11.84 0
v -24 -12.48 0
v -24.32 -12.48 0
v -24.32 -12.16 0
v -24 -12.16 0
v -24.32 -12.48 0
v -24.64 -12.48 0
v -24.64 -12.16 0
v -24.32 -12.16 0
v -24.64 -12.48 0
v -24.96 -12.48 0
v -24.96 -12.16 0
v -24.64 -12.16 0
v -24.96 -12.48 0
v -25.28 -12.48 0
v -25.28 -12.16 0
v -24.96 -12.16 0
v -25.28 -12.48 0
v -25.6 -12.48 0
v -25.6 -12.16 0
v -25.28 -12.16 0

# Texture cooridinates (Count = 16)
vt 0 0.2857143
vt 0.1111111 0.2857143
vt 0.1111111 0.4285714
vt 0 0.4285714
vt 0.2222222 0.4285714
vt 0.2222222 0.5714285
vt 0.1111111 0.5714285
vt 0.2222222 0.2857143
vt 0.3333333 0.2857143
vt 0.3333333 0.4285714
vt 0 0.1428571
vt 0.1111111 0.1428571
vt 0.2222222 0.1428571
vt 0.3333333 0.1428571
vt 0 0.5714285
vt 0.3333333 0.5714285

# Normal
vn 0 0 -1

# Mesh description
g Town_mesh_0027

# Faces
f 1/1/1 2/2/1 3/3/1 4/4/1
f 5/1/1 6/2/1 7/3/1 8/4/1
f 9/1/1 10/2/1 11/3/1 12/4/1
f 13/3/1 14/5/1 15/6/1 16/7/1
f 17/8/1 18/9/1 19/10/1 20/5/1
f 21/8/1 22/9/1 23/10/1 24/5/1
f 25/8/1 26/9/1 27/10/1 28/5/1
f 29/1/1 30/2/1 31/3/1 32/4/1
f 33/1/1 34/2/1 35/3/1 36/4/1
f 37/1/1 38/2/1 39/3/1 40/4/1
f 41/3/1 42/5/1 43/6/1 44/7/1
f 45/8/1 46/9/1 47/10/1 48/5/1
f 49/8/1 50/9/1 51/10/1 52/5/1
f 53/8/1 54/9/1 55/10/1 56/5/1
f 57/1/1 58/2/1 59/3/1 60/4/1
f 61/1/1 62/2/1 63/3/1 64/4/1
f 65/1/1 66/2/1 67/3/1 68/4/1
f 69/2/1 70/8/1 71/5/1 72/3/1
f 73/8/1 74/9/1 75/10/1 76/5/1
f 77/8/1 78/9/1 79/10/1 80/5/1
f 81/8/1 82/9/1 83/10/1 84/5/1
f 85/1/1 86/2/1 87/3/1 88/4/1
f 89/1/1 90/2/1 91/3/1 92/4/1
f 93/11/1 94/12/1 95/2/1 96/1/1
f 97/12/1 98/13/1 99/8/1 100/2/1
f 101/13/1 102/14/1 103/9/1 104/8/1
f 105/8/1 106/9/1 107/10/1 108/5/1
f 109/8/1 110/9/1 111/10/1 112/5/1
f 113/1/1 114/2/1 115/3/1 116/4/1
f 117/11/1 118/12/1 119/2/1 120/1/1
f 121/12/1 122/13/1 123/8/1 124/2/1
f 125/12/1 126/13/1 127/8/1 128/2/1
f 129/12/1 130/13/1 131/8/1 132/2/1
f 133/13/1 134/14/1 135/9/1 136/8/1
f 137/8/1 138/9/1 139/10/1 140/5/1
f 141/11/1 142/12/1 143/2/1 144/1/1
f 145/12/1 146/13/1 147/8/1 148/2/1
f 149/12/1 150/13/1 151/8/1 152/2/1
f 153/12/1 154/13/1 155/8/1 156/2/1
f 157/12/1 158/13/1 159/8/1 160/2/1
f 161/12/1 162/13/1 163/8/1 164/2/1
f 165/13/1 166/14/1 167/9/1 168/8/1
f 169/4/1 170/3/1 171/7/1 172/15/1
f 173/1/1 174/2/1 175/3/1 176/4/1
f 177/3/1 178/5/1 179/6/1 180/7/1
f 181/8/1 182/9/1 183/10/1 184/5/1
f 185/5/1 186/10/1 187/16/1 188/6/1
f 189/1/1 190/2/1 191/3/1 192/4/1
f 193/1/1 194/2/1 195/3/1 196/4/1
f 197/3/1 198/5/1 199/6/1 200/7/1
f 201/8/1 202/9/1 203/10/1 204/5/1
f 205/8/1 206/9/1 207/10/1 208/5/1
f 209/4/1 210/3/1 211/7/1 212/15/1
f 213/1/1 214/2/1 215/3/1 216/4/1
f 217/1/1 218/2/1 219/3/1 220/4/1
f 221/11/1 222/12/1 223/2/1 224/1/1
f 225/12/1 226/13/1 227/8/1 228/2/1
f 229/13/1 230/14/1 231/9/1 232/8/1
f 233/8/1 234/9/1 235/10/1 236/5/1
f 237/11/1 238/12/1 239/2/1 240/1/1
f 241/12/1 242/13/1 243/8/1 244/2/1
f 245/12/1 246/13/1 247/8/1 248/2/1
f 249/12/1 250/13/1 251/8/1 252/2/1
f 253/13/1 254/14/1 255/9/1 256/8/1

