# Tiled2Unity generated file. Do not modify by hand.
# Wavefront file for 'Town_mesh_0003.obj'

# Vertices (Count = 636)
v -6.72 -4.48 0
v -7.04 -4.48 0
v -7.04 -4.16 0
v -6.72 -4.16 0
v -7.04 -4.48 0
v -7.36 -4.48 0
v -7.36 -4.16 0
v -7.04 -4.16 0
v -7.36 -4.48 0
v -7.68 -4.48 0
v -7.68 -4.16 0
v -7.36 -4.16 0
v -7.68 -4.48 0
v -8 -4.48 0
v -8 -4.16 0
v -7.68 -4.16 0
v -8 -4.48 0
v -8.32 -4.48 0
v -8.32 -4.16 0
v -8 -4.16 0
v -8.32 -4.48 0
v -8.639999 -4.48 0
v -8.639999 -4.16 0
v -8.32 -4.16 0
v -8.639999 -4.48 0
v -8.96 -4.48 0
v -8.96 -4.16 0
v -8.639999 -4.16 0
v -8.96 -4.48 0
v -9.28 -4.48 0
v -9.28 -4.16 0
v -8.96 -4.16 0
v -6.4 -4.8 0
v -6.72 -4.8 0
v -6.72 -4.48 0
v -6.4 -4.48 0
v -6.72 -4.8 0
v -7.04 -4.8 0
v -7.04 -4.48 0
v -6.72 -4.48 0
v -7.04 -4.8 0
v -7.36 -4.8 0
v -7.36 -4.48 0
v -7.04 -4.48 0
v -7.36 -4.8 0
v -7.68 -4.8 0
v -7.68 -4.48 0
v -7.36 -4.48 0
v -7.68 -4.8 0
v -8 -4.8 0
v -8 -4.48 0
v -7.68 -4.48 0
v -8 -4.8 0
v -8.32 -4.8 0
v -8.32 -4.48 0
v -8 -4.48 0
v -8.32 -4.8 0
v -8.639999 -4.8 0
v -8.639999 -4.48 0
v -8.32 -4.48 0
v -8.639999 -4.8 0
v -8.96 -4.8 0
v -8.96 -4.48 0
v -8.639999 -4.48 0
v -8.96 -4.8 0
v -9.28 -4.8 0
v -9.28 -4.48 0
v -8.96 -4.48 0
v -9.28 -4.8 0
v -9.599999 -4.8 0
v -9.599999 -4.48 0
v -9.28 -4.48 0
v -9.599999 -4.8 0
v -9.92 -4.8 0
v -9.92 -4.48 0
v -9.599999 -4.48 0
v -9.92 -4.8 0
v -10.24 -4.8 0
v -10.24 -4.48 0
v -9.92 -4.48 0
v -6.08 -5.12 0
v -6.4 -5.12 0
v -6.4 -4.8 0
v -6.08 -4.8 0
v -6.4 -5.12 0
v -6.72 -5.12 0
v -6.72 -4.8 0
v -6.4 -4.8 0
v -6.72 -5.12 0
v -7.04 -5.12 0
v -7.04 -4.8 0
v -6.72 -4.8 0
v -7.04 -5.12 0
v -7.36 -5.12 0
v -7.36 -4.8 0
v -7.04 -4.8 0
v -7.36 -5.12 0
v -7.68 -5.12 0
v -7.68 -4.8 0
v -7.36 -4.8 0
v -7.68 -5.12 0
v -8 -5.12 0
v -8 -4.8 0
v -7.68 -4.8 0
v -8 -5.12 0
v -8.32 -5.12 0
v -8.32 -4.8 0
v -8 -4.8 0
v -8.32 -5.12 0
v -8.639999 -5.12 0
v -8.639999 -4.8 0
v -8.32 -4.8 0
v -8.639999 -5.12 0
v -8.96 -5.12 0
v -8.96 -4.8 0
v -8.639999 -4.8 0
v -8.96 -5.12 0
v -9.28 -5.12 0
v -9.28 -4.8 0
v -8.96 -4.8 0
v -9.28 -5.12 0
v -9.599999 -5.12 0
v -9.599999 -4.8 0
v -9.28 -4.8 0
v -9.599999 -5.12 0
v -9.92 -5.12 0
v -9.92 -4.8 0
v -9.599999 -4.8 0
v -9.92 -5.12 0
v -10.24 -5.12 0
v -10.24 -4.8 0
v -9.92 -4.8 0
v -10.24 -5.12 0
v -10.56 -5.12 0
v -10.56 -4.8 0
v -10.24 -4.8 0
v -6.08 -5.44 0
v -6.4 -5.44 0
v -6.4 -5.12 0
v -6.08 -5.12 0
v -6.4 -5.44 0
v -6.72 -5.44 0
v -6.72 -5.12 0
v -6.4 -5.12 0
v -6.72 -5.44 0
v -7.04 -5.44 0
v -7.04 -5.12 0
v -6.72 -5.12 0
v -7.04 -5.44 0
v -7.36 -5.44 0
v -7.36 -5.12 0
v -7.04 -5.12 0
v -7.36 -5.44 0
v -7.68 -5.44 0
v -7.68 -5.12 0
v -7.36 -5.12 0
v -7.68 -5.44 0
v -8 -5.44 0
v -8 -5.12 0
v -7.68 -5.12 0
v -8 -5.44 0
v -8.32 -5.44 0
v -8.32 -5.12 0
v -8 -5.12 0
v -8.32 -5.44 0
v -8.639999 -5.44 0
v -8.639999 -5.12 0
v -8.32 -5.12 0
v -8.639999 -5.44 0
v -8.96 -5.44 0
v -8.96 -5.12 0
v -8.639999 -5.12 0
v -8.96 -5.44 0
v -9.28 -5.44 0
v -9.28 -5.12 0
v -8.96 -5.12 0
v -9.28 -5.44 0
v -9.599999 -5.44 0
v -9.599999 -5.12 0
v -9.28 -5.12 0
v -9.599999 -5.44 0
v -9.92 -5.44 0
v -9.92 -5.12 0
v -9.599999 -5.12 0
v -9.92 -5.44 0
v -10.24 -5.44 0
v -10.24 -5.12 0
v -9.92 -5.12 0
v -10.24 -5.44 0
v -10.56 -5.44 0
v -10.56 -5.12 0
v -10.24 -5.12 0
v -10.56 -5.44 0
v -10.88 -5.44 0
v -10.88 -5.12 0
v -10.56 -5.12 0
v -10.88 -5.44 0
v -11.2 -5.44 0
v -11.2 -5.12 0
v -10.88 -5.12 0
v -5.76 -5.76 0
v -6.08 -5.76 0
v -6.08 -5.44 0
v -5.76 -5.44 0
v -6.08 -5.76 0
v -6.4 -5.76 0
v -6.4 -5.44 0
v -6.08 -5.44 0
v -6.4 -5.76 0
v -6.72 -5.76 0
v -6.72 -5.44 0
v -6.4 -5.44 0
v -6.72 -5.76 0
v -7.04 -5.76 0
v -7.04 -5.44 0
v -6.72 -5.44 0
v -7.04 -5.76 0
v -7.36 -5.76 0
v -7.36 -5.44 0
v -7.04 -5.44 0
v -7.36 -5.76 0
v -7.68 -5.76 0
v -7.68 -5.44 0
v -7.36 -5.44 0
v -7.68 -5.76 0
v -8 -5.76 0
v -8 -5.44 0
v -7.68 -5.44 0
v -8 -5.76 0
v -8.32 -5.76 0
v -8.32 -5.44 0
v -8 -5.44 0
v -8.32 -5.76 0
v -8.639999 -5.76 0
v -8.639999 -5.44 0
v -8.32 -5.44 0
v -8.639999 -5.76 0
v -8.96 -5.76 0
v -8.96 -5.44 0
v -8.639999 -5.44 0
v -8.96 -5.76 0
v -9.28 -5.76 0
v -9.28 -5.44 0
v -8.96 -5.44 0
v -9.28 -5.76 0
v -9.599999 -5.76 0
v -9.599999 -5.44 0
v -9.28 -5.44 0
v -9.599999 -5.76 0
v -9.92 -5.76 0
v -9.92 -5.44 0
v -9.599999 -5.44 0
v -9.92 -5.76 0
v -10.24 -5.76 0
v -10.24 -5.44 0
v -9.92 -5.44 0
v -10.24 -5.76 0
v -10.56 -5.76 0
v -10.56 -5.44 0
v -10.24 -5.44 0
v -10.56 -5.76 0
v -10.88 -5.76 0
v -10.88 -5.44 0
v -10.56 -5.44 0
v -10.88 -5.76 0
v -11.2 -5.76 0
v -11.2 -5.44 0
v -10.88 -5.44 0
v -5.76 -6.08 0
v -6.08 -6.08 0
v -6.08 -5.76 0
v -5.76 -5.76 0
v -6.08 -6.08 0
v -6.4 -6.08 0
v -6.4 -5.76 0
v -6.08 -5.76 0
v -6.4 -6.08 0
v -6.72 -6.08 0
v -6.72 -5.76 0
v -6.4 -5.76 0
v -6.72 -6.08 0
v -7.04 -6.08 0
v -7.04 -5.76 0
v -6.72 -5.76 0
v -7.04 -6.08 0
v -7.36 -6.08 0
v -7.36 -5.76 0
v -7.04 -5.76 0
v -7.36 -6.08 0
v -7.68 -6.08 0
v -7.68 -5.76 0
v -7.36 -5.76 0
v -7.68 -6.08 0
v -8 -6.08 0
v -8 -5.76 0
v -7.68 -5.76 0
v -8 -6.08 0
v -8.32 -6.08 0
v -8.32 -5.76 0
v -8 -5.76 0
v -8.32 -6.08 0
v -8.639999 -6.08 0
v -8.639999 -5.76 0
v -8.32 -5.76 0
v -8.639999 -6.08 0
v -8.96 -6.08 0
v -8.96 -5.76 0
v -8.639999 -5.76 0
v -8.96 -6.08 0
v -9.28 -6.08 0
v -9.28 -5.76 0
v -8.96 -5.76 0
v -9.28 -6.08 0
v -9.599999 -6.08 0
v -9.599999 -5.76 0
v -9.28 -5.76 0
v -9.599999 -6.08 0
v -9.92 -6.08 0
v -9.92 -5.76 0
v -9.599999 -5.76 0
v -9.92 -6.08 0
v -10.24 -6.08 0
v -10.24 -5.76 0
v -9.92 -5.76 0
v -10.24 -6.08 0
v -10.56 -6.08 0
v -10.56 -5.76 0
v -10.24 -5.76 0
v -10.56 -6.08 0
v -10.88 -6.08 0
v -10.88 -5.76 0
v -10.56 -5.76 0
v -10.88 -6.08 0
v -11.2 -6.08 0
v -11.2 -5.76 0
v -10.88 -5.76 0
v -5.76 -6.4 0
v -6.08 -6.4 0
v -6.08 -6.08 0
v -5.76 -6.08 0
v -6.08 -6.4 0
v -6.4 -6.4 0
v -6.4 -6.08 0
v -6.08 -6.08 0
v -6.4 -6.4 0
v -6.72 -6.4 0
v -6.72 -6.08 0
v -6.4 -6.08 0
v -6.72 -6.4 0
v -7.04 -6.4 0
v -7.04 -6.08 0
v -6.72 -6.08 0
v -7.04 -6.4 0
v -7.36 -6.4 0
v -7.36 -6.08 0
v -7.04 -6.08 0
v -7.36 -6.4 0
v -7.68 -6.4 0
v -7.68 -6.08 0
v -7.36 -6.08 0
v -7.68 -6.4 0
v -8 -6.4 0
v -8 -6.08 0
v -7.68 -6.08 0
v -8 -6.4 0
v -8.32 -6.4 0
v -8.32 -6.08 0
v -8 -6.08 0
v -8.32 -6.4 0
v -8.639999 -6.4 0
v -8.639999 -6.08 0
v -8.32 -6.08 0
v -8.639999 -6.4 0
v -8.96 -6.4 0
v -8.96 -6.08 0
v -8.639999 -6.08 0
v -8.96 -6.4 0
v -9.28 -6.4 0
v -9.28 -6.08 0
v -8.96 -6.08 0
v -9.28 -6.4 0
v -9.599999 -6.4 0
v -9.599999 -6.08 0
v -9.28 -6.08 0
v -9.599999 -6.4 0
v -9.92 -6.4 0
v -9.92 -6.08 0
v -9.599999 -6.08 0
v -9.92 -6.4 0
v -10.24 -6.4 0
v -10.24 -6.08 0
v -9.92 -6.08 0
v -10.24 -6.4 0
v -10.56 -6.4 0
v -10.56 -6.08 0
v -10.24 -6.08 0
v -10.56 -6.4 0
v -10.88 -6.4 0
v -10.88 -6.08 0
v -10.56 -6.08 0
v -10.88 -6.4 0
v -11.2 -6.4 0
v -11.2 -6.08 0
v -10.88 -6.08 0
v -5.76 -6.72 0
v -6.08 -6.72 0
v -6.08 -6.4 0
v -5.76 -6.4 0
v -6.08 -6.72 0
v -6.4 -6.72 0
v -6.4 -6.4 0
v -6.08 -6.4 0
v -6.4 -6.72 0
v -6.72 -6.72 0
v -6.72 -6.4 0
v -6.4 -6.4 0
v -6.72 -6.72 0
v -7.04 -6.72 0
v -7.04 -6.4 0
v -6.72 -6.4 0
v -7.04 -6.72 0
v -7.36 -6.72 0
v -7.36 -6.4 0
v -7.04 -6.4 0
v -7.36 -6.72 0
v -7.68 -6.72 0
v -7.68 -6.4 0
v -7.36 -6.4 0
v -7.68 -6.72 0
v -8 -6.72 0
v -8 -6.4 0
v -7.68 -6.4 0
v -8 -6.72 0
v -8.32 -6.72 0
v -8.32 -6.4 0
v -8 -6.4 0
v -8.32 -6.72 0
v -8.639999 -6.72 0
v -8.639999 -6.4 0
v -8.32 -6.4 0
v -8.639999 -6.72 0
v -8.96 -6.72 0
v -8.96 -6.4 0
v -8.639999 -6.4 0
v -8.96 -6.72 0
v -9.28 -6.72 0
v -9.28 -6.4 0
v -8.96 -6.4 0
v -9.28 -6.72 0
v -9.599999 -6.72 0
v -9.599999 -6.4 0
v -9.28 -6.4 0
v -9.599999 -6.72 0
v -9.92 -6.72 0
v -9.92 -6.4 0
v -9.599999 -6.4 0
v -9.92 -6.72 0
v -10.24 -6.72 0
v -10.24 -6.4 0
v -9.92 -6.4 0
v -10.24 -6.72 0
v -10.56 -6.72 0
v -10.56 -6.4 0
v -10.24 -6.4 0
v -5.76 -7.04 0
v -6.08 -7.04 0
v -6.08 -6.72 0
v -5.76 -6.72 0
v -6.08 -7.04 0
v -6.4 -7.04 0
v -6.4 -6.72 0
v -6.08 -6.72 0
v -6.4 -7.04 0
v -6.72 -7.04 0
v -6.72 -6.72 0
v -6.4 -6.72 0
v -6.72 -7.04 0
v -7.04 -7.04 0
v -7.04 -6.72 0
v -6.72 -6.72 0
v -7.04 -7.04 0
v -7.36 -7.04 0
v -7.36 -6.72 0
v -7.04 -6.72 0
v -7.36 -7.04 0
v -7.68 -7.04 0
v -7.68 -6.72 0
v -7.36 -6.72 0
v -7.68 -7.04 0
v -8 -7.04 0
v -8 -6.72 0
v -7.68 -6.72 0
v -8 -7.04 0
v -8.32 -7.04 0
v -8.32 -6.72 0
v -8 -6.72 0
v -8.32 -7.04 0
v -8.639999 -7.04 0
v -8.639999 -6.72 0
v -8.32 -6.72 0
v -8.639999 -7.04 0
v -8.96 -7.04 0
v -8.96 -6.72 0
v -8.639999 -6.72 0
v -8.96 -7.04 0
v -9.28 -7.04 0
v -9.28 -6.72 0
v -8.96 -6.72 0
v -9.28 -7.04 0
v -9.599999 -7.04 0
v -9.599999 -6.72 0
v -9.28 -6.72 0
v -9.599999 -7.04 0
v -9.92 -7.04 0
v -9.92 -6.72 0
v -9.599999 -6.72 0
v -5.76 -7.36 0
v -6.08 -7.36 0
v -6.08 -7.04 0
v -5.76 -7.04 0
v -6.08 -7.36 0
v -6.4 -7.36 0
v -6.4 -7.04 0
v -6.08 -7.04 0
v -6.4 -7.36 0
v -6.72 -7.36 0
v -6.72 -7.04 0
v -6.4 -7.04 0
v -6.72 -7.36 0
v -7.04 -7.36 0
v -7.04 -7.04 0
v -6.72 -7.04 0
v -7.04 -7.36 0
v -7.36 -7.36 0
v -7.36 -7.04 0
v -7.04 -7.04 0
v -7.36 -7.36 0
v -7.68 -7.36 0
v -7.68 -7.04 0
v -7.36 -7.04 0
v -7.68 -7.36 0
v -8 -7.36 0
v -8 -7.04 0
v -7.68 -7.04 0
v -8 -7.36 0
v -8.32 -7.36 0
v -8.32 -7.04 0
v -8 -7.04 0
v -8.32 -7.36 0
v -8.639999 -7.36 0
v -8.639999 -7.04 0
v -8.32 -7.04 0
v -8.639999 -7.36 0
v -8.96 -7.36 0
v -8.96 -7.04 0
v -8.639999 -7.04 0
v -8.96 -7.36 0
v -9.28 -7.36 0
v -9.28 -7.04 0
v -8.96 -7.04 0
v -9.28 -7.36 0
v -9.599999 -7.36 0
v -9.599999 -7.04 0
v -9.28 -7.04 0
v -5.76 -7.68 0
v -6.08 -7.68 0
v -6.08 -7.36 0
v -5.76 -7.36 0
v -6.08 -7.68 0
v -6.4 -7.68 0
v -6.4 -7.36 0
v -6.08 -7.36 0
v -6.4 -7.68 0
v -6.72 -7.68 0
v -6.72 -7.36 0
v -6.4 -7.36 0
v -6.72 -7.68 0
v -7.04 -7.68 0
v -7.04 -7.36 0
v -6.72 -7.36 0
v -7.04 -7.68 0
v -7.36 -7.68 0
v -7.36 -7.36 0
v -7.04 -7.36 0
v -7.36 -7.68 0
v -7.68 -7.68 0
v -7.68 -7.36 0
v -7.36 -7.36 0
v -7.68 -7.68 0
v -8 -7.68 0
v -8 -7.36 0
v -7.68 -7.36 0
v -8 -7.68 0
v -8.32 -7.68 0
v -8.32 -7.36 0
v -8 -7.36 0
v -8.32 -7.68 0
v -8.639999 -7.68 0
v -8.639999 -7.36 0
v -8.32 -7.36 0
v -8.639999 -7.68 0
v -8.96 -7.68 0
v -8.96 -7.36 0
v -8.639999 -7.36 0
v -8.96 -7.68 0
v -9.28 -7.68 0
v -9.28 -7.36 0
v -8.96 -7.36 0
v -9.28 -7.68 0
v -9.599999 -7.68 0
v -9.599999 -7.36 0
v -9.28 -7.36 0
v -7.36 -8 0
v -7.68 -8 0
v -7.68 -7.68 0
v -7.36 -7.68 0
v -7.68 -8 0
v -8 -8 0
v -8 -7.68 0
v -7.68 -7.68 0
v -8 -8 0
v -8.32 -8 0
v -8.32 -7.68 0
v -8 -7.68 0
v -8.32 -8 0
v -8.639999 -8 0
v -8.639999 -7.68 0
v -8.32 -7.68 0
v -8.639999 -8 0
v -8.96 -8 0
v -8.96 -7.68 0
v -8.639999 -7.68 0
v -8.96 -8 0
v -9.28 -8 0
v -9.28 -7.68 0
v -8.96 -7.68 0

# Texture cooridinates (Count = 22)
vt 0 0.5
vt 0.3333333 0.5
vt 0.3333333 0.6666666
vt 0 0.6666666
vt 0.6666667 0.5
vt 0.6666667 0.6666666
vt 1 0.5
vt 1 0.6666666
vt 1 0.8333333
vt 0.6666667 0.8333333
vt 0.3333333 0.3333333
vt 0.6666667 0.3333333
vt 0.3333333 0.8333333
vt 0 0.3333333
vt 1 0.3333333
vt 0.6666667 1
vt 0.3333333 1
vt 0.3333333 0.1666667
vt 0.6666667 0.1666667
vt 1 0.1666667
vt 0 0.1666667
vt 1 1

# Normal
vn 0 0 -1

# Mesh description
g Town_mesh_0003

# Faces
f 1/1/1 2/2/1 3/3/1 4/4/1
f 5/2/1 6/5/1 7/6/1 8/3/1
f 9/2/1 10/5/1 11/6/1 12/3/1
f 13/2/1 14/5/1 15/6/1 16/3/1
f 17/2/1 18/5/1 19/6/1 20/3/1
f 21/2/1 22/5/1 23/6/1 24/3/1
f 25/2/1 26/5/1 27/6/1 28/3/1
f 29/5/1 30/7/1 31/8/1 32/6/1
f 33/1/1 34/2/1 35/3/1 36/4/1
f 37/6/1 38/8/1 39/9/1 40/10/1
f 41/11/1 42/12/1 43/5/1 44/2/1
f 45/11/1 46/12/1 47/5/1 48/2/1
f 49/11/1 50/12/1 51/5/1 52/2/1
f 53/11/1 54/12/1 55/5/1 56/2/1
f 57/11/1 58/12/1 59/5/1 60/2/1
f 61/11/1 62/12/1 63/5/1 64/2/1
f 65/3/1 66/6/1 67/10/1 68/13/1
f 69/2/1 70/5/1 71/6/1 72/3/1
f 73/2/1 74/5/1 75/6/1 76/3/1
f 77/5/1 78/7/1 79/8/1 80/6/1
f 81/1/1 82/2/1 83/3/1 84/4/1
f 85/6/1 86/8/1 87/9/1 88/10/1
f 89/11/1 90/12/1 91/5/1 92/2/1
f 93/11/1 94/12/1 95/5/1 96/2/1
f 97/11/1 98/12/1 99/5/1 100/2/1
f 101/11/1 102/12/1 103/5/1 104/2/1
f 105/11/1 106/12/1 107/5/1 108/2/1
f 109/11/1 110/12/1 111/5/1 112/2/1
f 113/11/1 114/12/1 115/5/1 116/2/1
f 117/11/1 118/12/1 119/5/1 120/2/1
f 121/11/1 122/12/1 123/5/1 124/2/1
f 125/11/1 126/12/1 127/5/1 128/2/1
f 129/3/1 130/6/1 131/10/1 132/13/1
f 133/5/1 134/7/1 135/8/1 136/6/1
f 137/14/1 138/11/1 139/2/1 140/1/1
f 141/11/1 142/12/1 143/5/1 144/2/1
f 145/11/1 146/12/1 147/5/1 148/2/1
f 149/11/1 150/12/1 151/5/1 152/2/1
f 153/11/1 154/12/1 155/5/1 156/2/1
f 157/11/1 158/12/1 159/5/1 160/2/1
f 161/11/1 162/12/1 163/5/1 164/2/1
f 165/11/1 166/12/1 167/5/1 168/2/1
f 169/11/1 170/12/1 171/5/1 172/2/1
f 173/11/1 174/12/1 175/5/1 176/2/1
f 177/11/1 178/12/1 179/5/1 180/2/1
f 181/11/1 182/12/1 183/5/1 184/2/1
f 185/11/1 186/12/1 187/5/1 188/2/1
f 189/3/1 190/6/1 191/10/1 192/13/1
f 193/2/1 194/5/1 195/6/1 196/3/1
f 197/5/1 198/7/1 199/8/1 200/6/1
f 201/1/1 202/2/1 203/3/1 204/4/1
f 205/6/1 206/8/1 207/9/1 208/10/1
f 209/11/1 210/12/1 211/5/1 212/2/1
f 213/11/1 214/12/1 215/5/1 216/2/1
f 217/11/1 218/12/1 219/5/1 220/2/1
f 221/11/1 222/12/1 223/5/1 224/2/1
f 225/11/1 226/12/1 227/5/1 228/2/1
f 229/11/1 230/12/1 231/5/1 232/2/1
f 233/11/1 234/12/1 235/5/1 236/2/1
f 237/11/1 238/12/1 239/5/1 240/2/1
f 241/11/1 242/12/1 243/5/1 244/2/1
f 245/11/1 246/12/1 247/5/1 248/2/1
f 249/11/1 250/12/1 251/5/1 252/2/1
f 253/11/1 254/12/1 255/5/1 256/2/1
f 257/11/1 258/12/1 259/5/1 260/2/1
f 261/11/1 262/12/1 263/5/1 264/2/1
f 265/12/1 266/15/1 267/7/1 268/5/1
f 269/14/1 270/11/1 271/2/1 272/1/1
f 273/11/1 274/12/1 275/5/1 276/2/1
f 277/11/1 278/12/1 279/5/1 280/2/1
f 281/11/1 282/12/1 283/5/1 284/2/1
f 285/11/1 286/12/1 287/5/1 288/2/1
f 289/11/1 290/12/1 291/5/1 292/2/1
f 293/11/1 294/12/1 295/5/1 296/2/1
f 297/11/1 298/12/1 299/5/1 300/2/1
f 301/11/1 302/12/1 303/5/1 304/2/1
f 305/11/1 306/12/1 307/5/1 308/2/1
f 309/11/1 310/12/1 311/5/1 312/2/1
f 313/11/1 314/12/1 315/5/1 316/2/1
f 317/11/1 318/12/1 319/5/1 320/2/1
f 321/11/1 322/12/1 323/5/1 324/2/1
f 325/11/1 326/12/1 327/5/1 328/2/1
f 329/11/1 330/12/1 331/5/1 332/2/1
f 333/12/1 334/15/1 335/7/1 336/5/1
f 337/14/1 338/11/1 339/2/1 340/1/1
f 341/11/1 342/12/1 343/5/1 344/2/1
f 345/11/1 346/12/1 347/5/1 348/2/1
f 349/11/1 350/12/1 351/5/1 352/2/1
f 353/11/1 354/12/1 355/5/1 356/2/1
f 357/11/1 358/12/1 359/5/1 360/2/1
f 361/11/1 362/12/1 363/5/1 364/2/1
f 365/11/1 366/12/1 367/5/1 368/2/1
f 369/11/1 370/12/1 371/5/1 372/2/1
f 373/11/1 374/12/1 375/5/1 376/2/1
f 377/11/1 378/12/1 379/5/1 380/2/1
f 381/11/1 382/12/1 383/5/1 384/2/1
f 385/11/1 386/12/1 387/5/1 388/2/1
f 389/11/1 390/12/1 391/5/1 392/2/1
f 393/13/1 394/10/1 395/16/1 396/17/1
f 397/18/1 398/19/1 399/12/1 400/11/1
f 401/19/1 402/20/1 403/15/1 404/12/1
f 405/14/1 406/11/1 407/2/1 408/1/1
f 409/11/1 410/12/1 411/5/1 412/2/1
f 413/11/1 414/12/1 415/5/1 416/2/1
f 417/11/1 418/12/1 419/5/1 420/2/1
f 421/11/1 422/12/1 423/5/1 424/2/1
f 425/11/1 426/12/1 427/5/1 428/2/1
f 429/11/1 430/12/1 431/5/1 432/2/1
f 433/11/1 434/12/1 435/5/1 436/2/1
f 437/11/1 438/12/1 439/5/1 440/2/1
f 441/11/1 442/12/1 443/5/1 444/2/1
f 445/11/1 446/12/1 447/5/1 448/2/1
f 449/11/1 450/12/1 451/5/1 452/2/1
f 453/13/1 454/10/1 455/16/1 456/17/1
f 457/18/1 458/19/1 459/12/1 460/11/1
f 461/19/1 462/20/1 463/15/1 464/12/1
f 465/14/1 466/11/1 467/2/1 468/1/1
f 469/11/1 470/12/1 471/5/1 472/2/1
f 473/11/1 474/12/1 475/5/1 476/2/1
f 477/11/1 478/12/1 479/5/1 480/2/1
f 481/11/1 482/12/1 483/5/1 484/2/1
f 485/11/1 486/12/1 487/5/1 488/2/1
f 489/11/1 490/12/1 491/5/1 492/2/1
f 493/11/1 494/12/1 495/5/1 496/2/1
f 497/11/1 498/12/1 499/5/1 500/2/1
f 501/11/1 502/12/1 503/5/1 504/2/1
f 505/11/1 506/12/1 507/5/1 508/2/1
f 509/13/1 510/10/1 511/16/1 512/17/1
f 513/19/1 514/20/1 515/15/1 516/12/1
f 517/14/1 518/11/1 519/2/1 520/1/1
f 521/11/1 522/12/1 523/5/1 524/2/1
f 525/11/1 526/12/1 527/5/1 528/2/1
f 529/11/1 530/12/1 531/5/1 532/2/1
f 533/11/1 534/12/1 535/5/1 536/2/1
f 537/11/1 538/12/1 539/5/1 540/2/1
f 541/11/1 542/12/1 543/5/1 544/2/1
f 545/11/1 546/12/1 547/5/1 548/2/1
f 549/11/1 550/12/1 551/5/1 552/2/1
f 553/11/1 554/12/1 555/5/1 556/2/1
f 557/11/1 558/12/1 559/5/1 560/2/1
f 561/12/1 562/15/1 563/7/1 564/5/1
f 565/21/1 566/18/1 567/11/1 568/14/1
f 569/18/1 570/19/1 571/12/1 572/11/1
f 573/18/1 574/19/1 575/12/1 576/11/1
f 577/18/1 578/19/1 579/12/1 580/11/1
f 581/18/1 582/19/1 583/12/1 584/11/1
f 585/10/1 586/9/1 587/22/1 588/16/1
f 589/11/1 590/12/1 591/5/1 592/2/1
f 593/11/1 594/12/1 595/5/1 596/2/1
f 597/11/1 598/12/1 599/5/1 600/2/1
f 601/11/1 602/12/1 603/5/1 604/2/1
f 605/13/1 606/10/1 607/16/1 608/17/1
f 609/19/1 610/20/1 611/15/1 612/12/1
f 613/21/1 614/18/1 615/11/1 616/14/1
f 617/18/1 618/19/1 619/12/1 620/11/1
f 621/18/1 622/19/1 623/12/1 624/11/1
f 625/18/1 626/19/1 627/12/1 628/11/1
f 629/18/1 630/19/1 631/12/1 632/11/1
f 633/19/1 634/20/1 635/15/1 636/12/1

