# Tiled2Unity generated file. Do not modify by hand.
# Wavefront file for 'Town_mesh_0031.obj'

# Vertices (Count = 48)
v -0.96 -12.16 0
v -1.28 -12.16 0
v -1.28 -11.84 0
v -0.96 -11.84 0
v -1.28 -12.16 0
v -1.6 -12.16 0
v -1.6 -11.84 0
v -1.28 -11.84 0
v -1.6 -12.16 0
v -1.92 -12.16 0
v -1.92 -11.84 0
v -1.6 -11.84 0
v 0 -12.8 0
v -0.32 -12.8 0
v -0.32 -12.48 0
v 0 -12.48 0
v -0.32 -12.8 0
v -0.64 -12.8 0
v -0.64 -12.48 0
v -0.32 -12.48 0
v -0.64 -12.8 0
v -0.96 -12.8 0
v -0.96 -12.48 0
v -0.64 -12.48 0
v 0 -14.4 0
v -0.32 -14.4 0
v -0.32 -14.08 0
v 0 -14.08 0
v -0.32 -14.4 0
v -0.64 -14.4 0
v -0.64 -14.08 0
v -0.32 -14.08 0
v -0.64 -14.4 0
v -0.96 -14.4 0
v -0.96 -14.08 0
v -0.64 -14.08 0
v -0.32 -15.04 0
v -0.64 -15.04 0
v -0.64 -14.72 0
v -0.32 -14.72 0
v -0.64 -15.04 0
v -0.96 -15.04 0
v -0.96 -14.72 0
v -0.64 -14.72 0
v -0.96 -15.04 0
v -1.28 -15.04 0
v -1.28 -14.72 0
v -0.96 -14.72 0

# Texture cooridinates (Count = 8)
vt 0.5 0.96875
vt 0.53125 0.96875
vt 0.53125 1
vt 0.5 1
vt 0.5625 0.96875
vt 0.5625 1
vt 0.59375 0.96875
vt 0.59375 1

# Normal
vn 0 0 -1

# Mesh description
g Town_mesh_0031

# Faces
f 1/1/1 2/2/1 3/3/1 4/4/1
f 5/2/1 6/5/1 7/6/1 8/3/1
f 9/5/1 10/7/1 11/8/1 12/6/1
f 13/1/1 14/2/1 15/3/1 16/4/1
f 17/2/1 18/5/1 19/6/1 20/3/1
f 21/5/1 22/7/1 23/8/1 24/6/1
f 25/1/1 26/2/1 27/3/1 28/4/1
f 29/2/1 30/5/1 31/6/1 32/3/1
f 33/5/1 34/7/1 35/8/1 36/6/1
f 37/1/1 38/2/1 39/3/1 40/4/1
f 41/2/1 42/5/1 43/6/1 44/3/1
f 45/5/1 46/7/1 47/8/1 48/6/1

