# Tiled2Unity generated file. Do not modify by hand.
# Wavefront file for 'Town_mesh_0011.obj'

# Vertices (Count = 24)
v -16.64 -6.08 0
v -16.96 -6.08 0
v -16.96 -5.76 0
v -16.64 -5.76 0
v -16.96 -6.08 0
v -17.28 -6.08 0
v -17.28 -5.76 0
v -16.96 -5.76 0
v -17.28 -6.08 0
v -17.6 -6.08 0
v -17.6 -5.76 0
v -17.28 -5.76 0
v -17.6 -6.08 0
v -17.92 -6.08 0
v -17.92 -5.76 0
v -17.6 -5.76 0
v -17.92 -6.08 0
v -18.24 -6.08 0
v -18.24 -5.76 0
v -17.92 -5.76 0
v -18.24 -6.08 0
v -18.56 -6.08 0
v -18.56 -5.76 0
v -18.24 -5.76 0

# Texture cooridinates (Count = 4)
vt 0.65625 0.25
vt 0.6875 0.25
vt 0.6875 0.28125
vt 0.65625 0.28125

# Normal
vn 0 0 -1

# Mesh description
g Town_mesh_0011

# Faces
f 1/1/1 2/2/1 3/3/1 4/4/1
f 5/1/1 6/2/1 7/3/1 8/4/1
f 9/1/1 10/2/1 11/3/1 12/4/1
f 13/1/1 14/2/1 15/3/1 16/4/1
f 17/1/1 18/2/1 19/3/1 20/4/1
f 21/1/1 22/2/1 23/3/1 24/4/1

