# Tiled2Unity generated file. Do not modify by hand.
# Wavefront file for 'Town_mesh_0005.obj'

# Vertices (Count = 400)
v -3.84 -11.84 0
v -4.16 -11.84 0
v -4.16 -11.52 0
v -3.84 -11.52 0
v -4.16 -11.84 0
v -4.48 -11.84 0
v -4.48 -11.52 0
v -4.16 -11.52 0
v -4.48 -11.84 0
v -4.8 -11.84 0
v -4.8 -11.52 0
v -4.48 -11.52 0
v -4.8 -11.84 0
v -5.12 -11.84 0
v -5.12 -11.52 0
v -4.8 -11.52 0
v -3.84 -12.16 0
v -4.16 -12.16 0
v -4.16 -11.84 0
v -3.84 -11.84 0
v -4.16 -12.16 0
v -4.48 -12.16 0
v -4.48 -11.84 0
v -4.16 -11.84 0
v -4.48 -12.16 0
v -4.8 -12.16 0
v -4.8 -11.84 0
v -4.48 -11.84 0
v -4.8 -12.16 0
v -5.12 -12.16 0
v -5.12 -11.84 0
v -4.8 -11.84 0
v -0.64 -12.48 0
v -0.96 -12.48 0
v -0.96 -12.16 0
v -0.64 -12.16 0
v -0.96 -12.48 0
v -1.28 -12.48 0
v -1.28 -12.16 0
v -0.96 -12.16 0
v -1.28 -12.48 0
v -1.6 -12.48 0
v -1.6 -12.16 0
v -1.28 -12.16 0
v -1.6 -12.48 0
v -1.92 -12.48 0
v -1.92 -12.16 0
v -1.6 -12.16 0
v -1.92 -12.48 0
v -2.24 -12.48 0
v -2.24 -12.16 0
v -1.92 -12.16 0
v -2.24 -12.48 0
v -2.56 -12.48 0
v -2.56 -12.16 0
v -2.24 -12.16 0
v -2.56 -12.48 0
v -2.88 -12.48 0
v -2.88 -12.16 0
v -2.56 -12.16 0
v -2.88 -12.48 0
v -3.2 -12.48 0
v -3.2 -12.16 0
v -2.88 -12.16 0
v -3.2 -12.48 0
v -3.52 -12.48 0
v -3.52 -12.16 0
v -3.2 -12.16 0
v -3.52 -12.48 0
v -3.84 -12.48 0
v -3.84 -12.16 0
v -3.52 -12.16 0
v -3.84 -12.48 0
v -4.16 -12.48 0
v -4.16 -12.16 0
v -3.84 -12.16 0
v -4.16 -12.48 0
v -4.48 -12.48 0
v -4.48 -12.16 0
v -4.16 -12.16 0
v -4.48 -12.48 0
v -4.8 -12.48 0
v -4.8 -12.16 0
v -4.48 -12.16 0
v -4.8 -12.48 0
v -5.12 -12.48 0
v -5.12 -12.16 0
v -4.8 -12.16 0
v -0.64 -12.8 0
v -0.96 -12.8 0
v -0.96 -12.48 0
v -0.64 -12.48 0
v -0.96 -12.8 0
v -1.28 -12.8 0
v -1.28 -12.48 0
v -0.96 -12.48 0
v -1.28 -12.8 0
v -1.6 -12.8 0
v -1.6 -12.48 0
v -1.28 -12.48 0
v -1.6 -12.8 0
v -1.92 -12.8 0
v -1.92 -12.48 0
v -1.6 -12.48 0
v -1.92 -12.8 0
v -2.24 -12.8 0
v -2.24 -12.48 0
v -1.92 -12.48 0
v -2.24 -12.8 0
v -2.56 -12.8 0
v -2.56 -12.48 0
v -2.24 -12.48 0
v -2.56 -12.8 0
v -2.88 -12.8 0
v -2.88 -12.48 0
v -2.56 -12.48 0
v -2.88 -12.8 0
v -3.2 -12.8 0
v -3.2 -12.48 0
v -2.88 -12.48 0
v -3.2 -12.8 0
v -3.52 -12.8 0
v -3.52 -12.48 0
v -3.2 -12.48 0
v -3.52 -12.8 0
v -3.84 -12.8 0
v -3.84 -12.48 0
v -3.52 -12.48 0
v -3.84 -12.8 0
v -4.16 -12.8 0
v -4.16 -12.48 0
v -3.84 -12.48 0
v -4.16 -12.8 0
v -4.48 -12.8 0
v -4.48 -12.48 0
v -4.16 -12.48 0
v -4.48 -12.8 0
v -4.8 -12.8 0
v -4.8 -12.48 0
v -4.48 -12.48 0
v -0.64 -13.12 0
v -0.96 -13.12 0
v -0.96 -12.8 0
v -0.64 -12.8 0
v -0.96 -13.12 0
v -1.28 -13.12 0
v -1.28 -12.8 0
v -0.96 -12.8 0
v -1.28 -13.12 0
v -1.6 -13.12 0
v -1.6 -12.8 0
v -1.28 -12.8 0
v -1.6 -13.12 0
v -1.92 -13.12 0
v -1.92 -12.8 0
v -1.6 -12.8 0
v -1.92 -13.12 0
v -2.24 -13.12 0
v -2.24 -12.8 0
v -1.92 -12.8 0
v -2.24 -13.12 0
v -2.56 -13.12 0
v -2.56 -12.8 0
v -2.24 -12.8 0
v -2.56 -13.12 0
v -2.88 -13.12 0
v -2.88 -12.8 0
v -2.56 -12.8 0
v -2.88 -13.12 0
v -3.2 -13.12 0
v -3.2 -12.8 0
v -2.88 -12.8 0
v -3.2 -13.12 0
v -3.52 -13.12 0
v -3.52 -12.8 0
v -3.2 -12.8 0
v -3.52 -13.12 0
v -3.84 -13.12 0
v -3.84 -12.8 0
v -3.52 -12.8 0
v -3.84 -13.12 0
v -4.16 -13.12 0
v -4.16 -12.8 0
v -3.84 -12.8 0
v -4.16 -13.12 0
v -4.48 -13.12 0
v -4.48 -12.8 0
v -4.16 -12.8 0
v -4.48 -13.12 0
v -4.8 -13.12 0
v -4.8 -12.8 0
v -4.48 -12.8 0
v -0.64 -13.44 0
v -0.96 -13.44 0
v -0.96 -13.12 0
v -0.64 -13.12 0
v -0.96 -13.44 0
v -1.28 -13.44 0
v -1.28 -13.12 0
v -0.96 -13.12 0
v -1.28 -13.44 0
v -1.6 -13.44 0
v -1.6 -13.12 0
v -1.28 -13.12 0
v -1.6 -13.44 0
v -1.92 -13.44 0
v -1.92 -13.12 0
v -1.6 -13.12 0
v -1.92 -13.44 0
v -2.24 -13.44 0
v -2.24 -13.12 0
v -1.92 -13.12 0
v -2.24 -13.44 0
v -2.56 -13.44 0
v -2.56 -13.12 0
v -2.24 -13.12 0
v -2.56 -13.44 0
v -2.88 -13.44 0
v -2.88 -13.12 0
v -2.56 -13.12 0
v -2.88 -13.44 0
v -3.2 -13.44 0
v -3.2 -13.12 0
v -2.88 -13.12 0
v -3.2 -13.44 0
v -3.52 -13.44 0
v -3.52 -13.12 0
v -3.2 -13.12 0
v -3.52 -13.44 0
v -3.84 -13.44 0
v -3.84 -13.12 0
v -3.52 -13.12 0
v -3.84 -13.44 0
v -4.16 -13.44 0
v -4.16 -13.12 0
v -3.84 -13.12 0
v -4.16 -13.44 0
v -4.48 -13.44 0
v -4.48 -13.12 0
v -4.16 -13.12 0
v -4.48 -13.44 0
v -4.8 -13.44 0
v -4.8 -13.12 0
v -4.48 -13.12 0
v -0.64 -13.76 0
v -0.96 -13.76 0
v -0.96 -13.44 0
v -0.64 -13.44 0
v -0.96 -13.76 0
v -1.28 -13.76 0
v -1.28 -13.44 0
v -0.96 -13.44 0
v -1.28 -13.76 0
v -1.6 -13.76 0
v -1.6 -13.44 0
v -1.28 -13.44 0
v -1.6 -13.76 0
v -1.92 -13.76 0
v -1.92 -13.44 0
v -1.6 -13.44 0
v -1.92 -13.76 0
v -2.24 -13.76 0
v -2.24 -13.44 0
v -1.92 -13.44 0
v -2.24 -13.76 0
v -2.56 -13.76 0
v -2.56 -13.44 0
v -2.24 -13.44 0
v -2.56 -13.76 0
v -2.88 -13.76 0
v -2.88 -13.44 0
v -2.56 -13.44 0
v -2.88 -13.76 0
v -3.2 -13.76 0
v -3.2 -13.44 0
v -2.88 -13.44 0
v -3.2 -13.76 0
v -3.52 -13.76 0
v -3.52 -13.44 0
v -3.2 -13.44 0
v -3.52 -13.76 0
v -3.84 -13.76 0
v -3.84 -13.44 0
v -3.52 -13.44 0
v -3.84 -13.76 0
v -4.16 -13.76 0
v -4.16 -13.44 0
v -3.84 -13.44 0
v -4.16 -13.76 0
v -4.48 -13.76 0
v -4.48 -13.44 0
v -4.16 -13.44 0
v -4.48 -13.76 0
v -4.8 -13.76 0
v -4.8 -13.44 0
v -4.48 -13.44 0
v -0.64 -14.08 0
v -0.96 -14.08 0
v -0.96 -13.76 0
v -0.64 -13.76 0
v -0.96 -14.08 0
v -1.28 -14.08 0
v -1.28 -13.76 0
v -0.96 -13.76 0
v -1.28 -14.08 0
v -1.6 -14.08 0
v -1.6 -13.76 0
v -1.28 -13.76 0
v -1.6 -14.08 0
v -1.92 -14.08 0
v -1.92 -13.76 0
v -1.6 -13.76 0
v -1.92 -14.08 0
v -2.24 -14.08 0
v -2.24 -13.76 0
v -1.92 -13.76 0
v -2.24 -14.08 0
v -2.56 -14.08 0
v -2.56 -13.76 0
v -2.24 -13.76 0
v -2.56 -14.08 0
v -2.88 -14.08 0
v -2.88 -13.76 0
v -2.56 -13.76 0
v -2.88 -14.08 0
v -3.2 -14.08 0
v -3.2 -13.76 0
v -2.88 -13.76 0
v -3.2 -14.08 0
v -3.52 -14.08 0
v -3.52 -13.76 0
v -3.2 -13.76 0
v -3.52 -14.08 0
v -3.84 -14.08 0
v -3.84 -13.76 0
v -3.52 -13.76 0
v -3.84 -14.08 0
v -4.16 -14.08 0
v -4.16 -13.76 0
v -3.84 -13.76 0
v -4.16 -14.08 0
v -4.48 -14.08 0
v -4.48 -13.76 0
v -4.16 -13.76 0
v -4.48 -14.08 0
v -4.8 -14.08 0
v -4.8 -13.76 0
v -4.48 -13.76 0
v -0.64 -14.4 0
v -0.96 -14.4 0
v -0.96 -14.08 0
v -0.64 -14.08 0
v -0.96 -14.4 0
v -1.28 -14.4 0
v -1.28 -14.08 0
v -0.96 -14.08 0
v -1.28 -14.4 0
v -1.6 -14.4 0
v -1.6 -14.08 0
v -1.28 -14.08 0
v -1.6 -14.4 0
v -1.92 -14.4 0
v -1.92 -14.08 0
v -1.6 -14.08 0
v -1.92 -14.4 0
v -2.24 -14.4 0
v -2.24 -14.08 0
v -1.92 -14.08 0
v -2.24 -14.4 0
v -2.56 -14.4 0
v -2.56 -14.08 0
v -2.24 -14.08 0
v -2.56 -14.4 0
v -2.88 -14.4 0
v -2.88 -14.08 0
v -2.56 -14.08 0
v -2.88 -14.4 0
v -3.2 -14.4 0
v -3.2 -14.08 0
v -2.88 -14.08 0
v -3.2 -14.4 0
v -3.52 -14.4 0
v -3.52 -14.08 0
v -3.2 -14.08 0
v -3.52 -14.4 0
v -3.84 -14.4 0
v -3.84 -14.08 0
v -3.52 -14.08 0
v -3.84 -14.4 0
v -4.16 -14.4 0
v -4.16 -14.08 0
v -3.84 -14.08 0
v -4.16 -14.4 0
v -4.48 -14.4 0
v -4.48 -14.08 0
v -4.16 -14.08 0
v -4.48 -14.4 0
v -4.8 -14.4 0
v -4.8 -14.08 0
v -4.48 -14.08 0

# Texture cooridinates (Count = 21)
vt 0 0.5
vt 0.3333333 0.5
vt 0.3333333 0.6666666
vt 0 0.6666666
vt 0.6666667 0.6666666
vt 1 0.6666666
vt 1 0.8333333
vt 0.6666667 0.8333333
vt 0.3333333 0.3333333
vt 0.6666667 0.3333333
vt 0.6666667 0.5
vt 1 0.3333333
vt 1 0.5
vt 0 0.3333333
vt 0.3333333 0.8333333
vt 0.6666667 1
vt 0.3333333 1
vt 0.6666667 0.1666667
vt 1 0.1666667
vt 0 0.1666667
vt 0.3333333 0.1666667

# Normal
vn 0 0 -1

# Mesh description
g Town_mesh_0005

# Faces
f 1/1/1 2/2/1 3/3/1 4/4/1
f 5/5/1 6/6/1 7/7/1 8/8/1
f 9/9/1 10/10/1 11/11/1 12/2/1
f 13/10/1 14/12/1 15/13/1 16/11/1
f 17/14/1 18/9/1 19/2/1 20/1/1
f 21/9/1 22/10/1 23/11/1 24/2/1
f 25/9/1 26/10/1 27/11/1 28/2/1
f 29/10/1 30/12/1 31/13/1 32/11/1
f 33/1/1 34/2/1 35/3/1 36/4/1
f 37/2/1 38/11/1 39/5/1 40/3/1
f 41/2/1 42/11/1 43/5/1 44/3/1
f 45/2/1 46/11/1 47/5/1 48/3/1
f 49/2/1 50/11/1 51/5/1 52/3/1
f 53/2/1 54/11/1 55/5/1 56/3/1
f 57/2/1 58/11/1 59/5/1 60/3/1
f 61/2/1 62/11/1 63/5/1 64/3/1
f 65/2/1 66/11/1 67/5/1 68/3/1
f 69/2/1 70/11/1 71/5/1 72/3/1
f 73/5/1 74/6/1 75/7/1 76/8/1
f 77/9/1 78/10/1 79/11/1 80/2/1
f 81/15/1 82/8/1 83/16/1 84/17/1
f 85/18/1 86/19/1 87/12/1 88/10/1
f 89/14/1 90/9/1 91/2/1 92/1/1
f 93/9/1 94/10/1 95/11/1 96/2/1
f 97/9/1 98/10/1 99/11/1 100/2/1
f 101/9/1 102/10/1 103/11/1 104/2/1
f 105/9/1 106/10/1 107/11/1 108/2/1
f 109/9/1 110/10/1 111/11/1 112/2/1
f 113/9/1 114/10/1 115/11/1 116/2/1
f 117/9/1 118/10/1 119/11/1 120/2/1
f 121/9/1 122/10/1 123/11/1 124/2/1
f 125/9/1 126/10/1 127/11/1 128/2/1
f 129/9/1 130/10/1 131/11/1 132/2/1
f 133/9/1 134/10/1 135/11/1 136/2/1
f 137/10/1 138/12/1 139/13/1 140/11/1
f 141/14/1 142/9/1 143/2/1 144/1/1
f 145/9/1 146/10/1 147/11/1 148/2/1
f 149/9/1 150/10/1 151/11/1 152/2/1
f 153/9/1 154/10/1 155/11/1 156/2/1
f 157/9/1 158/10/1 159/11/1 160/2/1
f 161/9/1 162/10/1 163/11/1 164/2/1
f 165/9/1 166/10/1 167/11/1 168/2/1
f 169/9/1 170/10/1 171/11/1 172/2/1
f 173/9/1 174/10/1 175/11/1 176/2/1
f 177/9/1 178/10/1 179/11/1 180/2/1
f 181/9/1 182/10/1 183/11/1 184/2/1
f 185/9/1 186/10/1 187/11/1 188/2/1
f 189/10/1 190/12/1 191/13/1 192/11/1
f 193/14/1 194/9/1 195/2/1 196/1/1
f 197/9/1 198/10/1 199/11/1 200/2/1
f 201/9/1 202/10/1 203/11/1 204/2/1
f 205/9/1 206/10/1 207/11/1 208/2/1
f 209/9/1 210/10/1 211/11/1 212/2/1
f 213/9/1 214/10/1 215/11/1 216/2/1
f 217/9/1 218/10/1 219/11/1 220/2/1
f 221/9/1 222/10/1 223/11/1 224/2/1
f 225/9/1 226/10/1 227/11/1 228/2/1
f 229/9/1 230/10/1 231/11/1 232/2/1
f 233/9/1 234/10/1 235/11/1 236/2/1
f 237/9/1 238/10/1 239/11/1 240/2/1
f 241/10/1 242/12/1 243/13/1 244/11/1
f 245/14/1 246/9/1 247/2/1 248/1/1
f 249/9/1 250/10/1 251/11/1 252/2/1
f 253/9/1 254/10/1 255/11/1 256/2/1
f 257/9/1 258/10/1 259/11/1 260/2/1
f 261/9/1 262/10/1 263/11/1 264/2/1
f 265/9/1 266/10/1 267/11/1 268/2/1
f 269/9/1 270/10/1 271/11/1 272/2/1
f 273/9/1 274/10/1 275/11/1 276/2/1
f 277/9/1 278/10/1 279/11/1 280/2/1
f 281/9/1 282/10/1 283/11/1 284/2/1
f 285/9/1 286/10/1 287/11/1 288/2/1
f 289/9/1 290/10/1 291/11/1 292/2/1
f 293/10/1 294/12/1 295/13/1 296/11/1
f 297/14/1 298/9/1 299/2/1 300/1/1
f 301/9/1 302/10/1 303/11/1 304/2/1
f 305/9/1 306/10/1 307/11/1 308/2/1
f 309/9/1 310/10/1 311/11/1 312/2/1
f 313/9/1 314/10/1 315/11/1 316/2/1
f 317/9/1 318/10/1 319/11/1 320/2/1
f 321/9/1 322/10/1 323/11/1 324/2/1
f 325/9/1 326/10/1 327/11/1 328/2/1
f 329/9/1 330/10/1 331/11/1 332/2/1
f 333/9/1 334/10/1 335/11/1 336/2/1
f 337/9/1 338/10/1 339/11/1 340/2/1
f 341/9/1 342/10/1 343/11/1 344/2/1
f 345/10/1 346/12/1 347/13/1 348/11/1
f 349/20/1 350/21/1 351/9/1 352/14/1
f 353/21/1 354/18/1 355/10/1 356/9/1
f 357/21/1 358/18/1 359/10/1 360/9/1
f 361/21/1 362/18/1 363/10/1 364/9/1
f 365/21/1 366/18/1 367/10/1 368/9/1
f 369/21/1 370/18/1 371/10/1 372/9/1
f 373/21/1 374/18/1 375/10/1 376/9/1
f 377/21/1 378/18/1 379/10/1 380/9/1
f 381/21/1 382/18/1 383/10/1 384/9/1
f 385/21/1 386/18/1 387/10/1 388/9/1
f 389/21/1 390/18/1 391/10/1 392/9/1
f 393/21/1 394/18/1 395/10/1 396/9/1
f 397/18/1 398/19/1 399/12/1 400/10/1

