# Tiled2Unity generated file. Do not modify by hand.
# Wavefront file for 'Town_mesh_0008.obj'

# Vertices (Count = 384)
v -5.76 -0.64 0
v -6.08 -0.64 0
v -6.08 -0.32 0
v -5.76 -0.32 0
v -6.08 -0.64 0
v -6.4 -0.64 0
v -6.4 -0.32 0
v -6.08 -0.32 0
v -6.4 -0.64 0
v -6.72 -0.64 0
v -6.72 -0.32 0
v -6.4 -0.32 0
v -5.76 -0.96 0
v -6.08 -0.96 0
v -6.08 -0.64 0
v -5.76 -0.64 0
v -6.08 -0.96 0
v -6.4 -0.96 0
v -6.4 -0.64 0
v -6.08 -0.64 0
v -6.4 -0.96 0
v -6.72 -0.96 0
v -6.72 -0.64 0
v -6.4 -0.64 0
v -5.76 -1.28 0
v -6.08 -1.28 0
v -6.08 -0.96 0
v -5.76 -0.96 0
v -6.08 -1.28 0
v -6.4 -1.28 0
v -6.4 -0.96 0
v -6.08 -0.96 0
v -6.4 -1.28 0
v -6.72 -1.28 0
v -6.72 -0.96 0
v -6.4 -0.96 0
v -10.56 -1.6 0
v -10.88 -1.6 0
v -10.88 -1.28 0
v -10.56 -1.28 0
v -10.88 -1.6 0
v -11.2 -1.6 0
v -11.2 -1.28 0
v -10.88 -1.28 0
v -6.72 -1.92 0
v -7.04 -1.92 0
v -7.04 -1.6 0
v -6.72 -1.6 0
v -7.04 -1.92 0
v -7.36 -1.92 0
v -7.36 -1.6 0
v -7.04 -1.6 0
v -7.36 -1.92 0
v -7.68 -1.92 0
v -7.68 -1.6 0
v -7.36 -1.6 0
v -10.56 -1.92 0
v -10.88 -1.92 0
v -10.88 -1.6 0
v -10.56 -1.6 0
v -10.88 -1.92 0
v -11.2 -1.92 0
v -11.2 -1.6 0
v -10.88 -1.6 0
v -6.72 -2.24 0
v -7.04 -2.24 0
v -7.04 -1.92 0
v -6.72 -1.92 0
v -7.04 -2.24 0
v -7.36 -2.24 0
v -7.36 -1.92 0
v -7.04 -1.92 0
v -7.36 -2.24 0
v -7.68 -2.24 0
v -7.68 -1.92 0
v -7.36 -1.92 0
v -10.56 -2.24 0
v -10.88 -2.24 0
v -10.88 -1.92 0
v -10.56 -1.92 0
v -10.88 -2.24 0
v -11.2 -2.24 0
v -11.2 -1.92 0
v -10.88 -1.92 0
v -6.72 -2.56 0
v -7.04 -2.56 0
v -7.04 -2.24 0
v -6.72 -2.24 0
v -7.04 -2.56 0
v -7.36 -2.56 0
v -7.36 -2.24 0
v -7.04 -2.24 0
v -7.36 -2.56 0
v -7.68 -2.56 0
v -7.68 -2.24 0
v -7.36 -2.24 0
v -5.44 -4.16 0
v -5.76 -4.16 0
v -5.76 -3.84 0
v -5.44 -3.84 0
v -5.76 -4.16 0
v -6.08 -4.16 0
v -6.08 -3.84 0
v -5.76 -3.84 0
v -6.08 -4.16 0
v -6.4 -4.16 0
v -6.4 -3.84 0
v -6.08 -3.84 0
v -5.44 -4.48 0
v -5.76 -4.48 0
v -5.76 -4.16 0
v -5.44 -4.16 0
v -5.76 -4.48 0
v -6.08 -4.48 0
v -6.08 -4.16 0
v -5.76 -4.16 0
v -6.08 -4.48 0
v -6.4 -4.48 0
v -6.4 -4.16 0
v -6.08 -4.16 0
v -10.24 -4.48 0
v -10.56 -4.48 0
v -10.56 -4.16 0
v -10.24 -4.16 0
v -10.56 -4.48 0
v -10.88 -4.48 0
v -10.88 -4.16 0
v -10.56 -4.16 0
v -10.88 -4.48 0
v -11.2 -4.48 0
v -11.2 -4.16 0
v -10.88 -4.16 0
v -3.2 -4.8 0
v -3.52 -4.8 0
v -3.52 -4.48 0
v -3.2 -4.48 0
v -3.52 -4.8 0
v -3.84 -4.8 0
v -3.84 -4.48 0
v -3.52 -4.48 0
v -3.84 -4.8 0
v -4.16 -4.8 0
v -4.16 -4.48 0
v -3.84 -4.48 0
v -5.44 -4.8 0
v -5.76 -4.8 0
v -5.76 -4.48 0
v -5.44 -4.48 0
v -5.76 -4.8 0
v -6.08 -4.8 0
v -6.08 -4.48 0
v -5.76 -4.48 0
v -6.08 -4.8 0
v -6.4 -4.8 0
v -6.4 -4.48 0
v -6.08 -4.48 0
v -10.24 -4.8 0
v -10.56 -4.8 0
v -10.56 -4.48 0
v -10.24 -4.48 0
v -10.56 -4.8 0
v -10.88 -4.8 0
v -10.88 -4.48 0
v -10.56 -4.48 0
v -10.88 -4.8 0
v -11.2 -4.8 0
v -11.2 -4.48 0
v -10.88 -4.48 0
v -3.2 -5.12 0
v -3.52 -5.12 0
v -3.52 -4.8 0
v -3.2 -4.8 0
v -3.52 -5.12 0
v -3.84 -5.12 0
v -3.84 -4.8 0
v -3.52 -4.8 0
v -3.84 -5.12 0
v -4.16 -5.12 0
v -4.16 -4.8 0
v -3.84 -4.8 0
v -10.24 -5.12 0
v -10.56 -5.12 0
v -10.56 -4.8 0
v -10.24 -4.8 0
v -10.56 -5.12 0
v -10.88 -5.12 0
v -10.88 -4.8 0
v -10.56 -4.8 0
v -10.88 -5.12 0
v -11.2 -5.12 0
v -11.2 -4.8 0
v -10.88 -4.8 0
v -3.2 -5.44 0
v -3.52 -5.44 0
v -3.52 -5.12 0
v -3.2 -5.12 0
v -3.52 -5.44 0
v -3.84 -5.44 0
v -3.84 -5.12 0
v -3.52 -5.12 0
v -3.84 -5.44 0
v -4.16 -5.44 0
v -4.16 -5.12 0
v -3.84 -5.12 0
v -4.8 -7.36 0
v -5.12 -7.36 0
v -5.12 -7.04 0
v -4.8 -7.04 0
v -5.12 -7.36 0
v -5.44 -7.36 0
v -5.44 -7.04 0
v -5.12 -7.04 0
v -5.44 -7.36 0
v -5.76 -7.36 0
v -5.76 -7.04 0
v -5.44 -7.04 0
v -9.599999 -7.36 0
v -9.92 -7.36 0
v -9.92 -7.04 0
v -9.599999 -7.04 0
v -9.92 -7.36 0
v -10.24 -7.36 0
v -10.24 -7.04 0
v -9.92 -7.04 0
v -10.24 -7.36 0
v -10.56 -7.36 0
v -10.56 -7.04 0
v -10.24 -7.04 0
v -4.8 -7.68 0
v -5.12 -7.68 0
v -5.12 -7.36 0
v -4.8 -7.36 0
v -5.12 -7.68 0
v -5.44 -7.68 0
v -5.44 -7.36 0
v -5.12 -7.36 0
v -5.44 -7.68 0
v -5.76 -7.68 0
v -5.76 -7.36 0
v -5.44 -7.36 0
v -9.599999 -7.68 0
v -9.92 -7.68 0
v -9.92 -7.36 0
v -9.599999 -7.36 0
v -9.92 -7.68 0
v -10.24 -7.68 0
v -10.24 -7.36 0
v -9.92 -7.36 0
v -10.24 -7.68 0
v -10.56 -7.68 0
v -10.56 -7.36 0
v -10.24 -7.36 0
v -4.8 -8 0
v -5.12 -8 0
v -5.12 -7.68 0
v -4.8 -7.68 0
v -5.12 -8 0
v -5.44 -8 0
v -5.44 -7.68 0
v -5.12 -7.68 0
v -5.44 -8 0
v -5.76 -8 0
v -5.76 -7.68 0
v -5.44 -7.68 0
v -9.599999 -8 0
v -9.92 -8 0
v -9.92 -7.68 0
v -9.599999 -7.68 0
v -9.92 -8 0
v -10.24 -8 0
v -10.24 -7.68 0
v -9.92 -7.68 0
v -10.24 -8 0
v -10.56 -8 0
v -10.56 -7.68 0
v -10.24 -7.68 0
v -2.88 -9.28 0
v -3.2 -9.28 0
v -3.2 -8.96 0
v -2.88 -8.96 0
v -3.2 -9.28 0
v -3.52 -9.28 0
v -3.52 -8.96 0
v -3.2 -8.96 0
v -3.52 -9.28 0
v -3.84 -9.28 0
v -3.84 -8.96 0
v -3.52 -8.96 0
v -2.88 -9.599999 0
v -3.2 -9.599999 0
v -3.2 -9.28 0
v -2.88 -9.28 0
v -3.2 -9.599999 0
v -3.52 -9.599999 0
v -3.52 -9.28 0
v -3.2 -9.28 0
v -3.52 -9.599999 0
v -3.84 -9.599999 0
v -3.84 -9.28 0
v -3.52 -9.28 0
v -2.88 -9.92 0
v -3.2 -9.92 0
v -3.2 -9.599999 0
v -2.88 -9.599999 0
v -3.2 -9.92 0
v -3.52 -9.92 0
v -3.52 -9.599999 0
v -3.2 -9.599999 0
v -3.52 -9.92 0
v -3.84 -9.92 0
v -3.84 -9.599999 0
v -3.52 -9.599999 0
v -4.8 -9.92 0
v -5.12 -9.92 0
v -5.12 -9.599999 0
v -4.8 -9.599999 0
v -5.12 -9.92 0
v -5.44 -9.92 0
v -5.44 -9.599999 0
v -5.12 -9.599999 0
v -5.44 -9.92 0
v -5.76 -9.92 0
v -5.76 -9.599999 0
v -5.44 -9.599999 0
v -4.8 -10.24 0
v -5.12 -10.24 0
v -5.12 -9.92 0
v -4.8 -9.92 0
v -5.12 -10.24 0
v -5.44 -10.24 0
v -5.44 -9.92 0
v -5.12 -9.92 0
v -5.44 -10.24 0
v -5.76 -10.24 0
v -5.76 -9.92 0
v -5.44 -9.92 0
v -4.8 -10.56 0
v -5.12 -10.56 0
v -5.12 -10.24 0
v -4.8 -10.24 0
v -5.12 -10.56 0
v -5.44 -10.56 0
v -5.44 -10.24 0
v -5.12 -10.24 0
v -5.44 -10.56 0
v -5.76 -10.56 0
v -5.76 -10.24 0
v -5.44 -10.24 0
v -7.04 -12.16 0
v -7.36 -12.16 0
v -7.36 -11.84 0
v -7.04 -11.84 0
v -7.36 -12.16 0
v -7.68 -12.16 0
v -7.68 -11.84 0
v -7.36 -11.84 0
v -7.68 -12.16 0
v -8 -12.16 0
v -8 -11.84 0
v -7.68 -11.84 0
v -7.04 -12.48 0
v -7.36 -12.48 0
v -7.36 -12.16 0
v -7.04 -12.16 0
v -7.36 -12.48 0
v -7.68 -12.48 0
v -7.68 -12.16 0
v -7.36 -12.16 0
v -7.68 -12.48 0
v -8 -12.48 0
v -8 -12.16 0
v -7.68 -12.16 0
v -7.04 -12.8 0
v -7.36 -12.8 0
v -7.36 -12.48 0
v -7.04 -12.48 0
v -7.36 -12.8 0
v -7.68 -12.8 0
v -7.68 -12.48 0
v -7.36 -12.48 0
v -7.68 -12.8 0
v -8 -12.8 0
v -8 -12.48 0
v -7.68 -12.48 0

# Texture cooridinates (Count = 28)
vt 0 0.6666666
vt 0.1666667 0.6666666
vt 0.1666667 1
vt 0 1
vt 0.3333333 0.6666666
vt 0.3333333 1
vt 0.5 0.6666666
vt 0.5 1
vt 0 0.3333333
vt 0.1666667 0.3333333
vt 0.3333333 0.3333333
vt 0.5 0.3333333
vt 0 0
vt 0.1666667 0
vt 0.3333333 0
vt 0.5 0
vt 0.6666667 0.6666666
vt 0.6666667 1
vt 0.8333333 0.6666666
vt 0.8333333 1
vt 0.6666667 0.3333333
vt 0.8333333 0.3333333
vt 0.6666667 0
vt 0.8333333 0
vt 1 0.6666666
vt 1 1
vt 1 0.3333333
vt 1 0

# Normal
vn 0 0 -1

# Mesh description
g Town_mesh_0008

# Faces
f 1/1/1 2/2/1 3/3/1 4/4/1
f 5/2/1 6/5/1 7/6/1 8/3/1
f 9/5/1 10/7/1 11/8/1 12/6/1
f 13/9/1 14/10/1 15/2/1 16/1/1
f 17/10/1 18/11/1 19/5/1 20/2/1
f 21/11/1 22/12/1 23/7/1 24/5/1
f 25/13/1 26/14/1 27/10/1 28/9/1
f 29/14/1 30/15/1 31/11/1 32/10/1
f 33/15/1 34/16/1 35/12/1 36/11/1
f 37/7/1 38/17/1 39/18/1 40/8/1
f 41/17/1 42/19/1 43/20/1 44/18/1
f 45/1/1 46/2/1 47/3/1 48/4/1
f 49/2/1 50/5/1 51/6/1 52/3/1
f 53/5/1 54/7/1 55/8/1 56/6/1
f 57/12/1 58/21/1 59/17/1 60/7/1
f 61/21/1 62/22/1 63/19/1 64/17/1
f 65/9/1 66/10/1 67/2/1 68/1/1
f 69/10/1 70/11/1 71/5/1 72/2/1
f 73/11/1 74/12/1 75/7/1 76/5/1
f 77/16/1 78/23/1 79/21/1 80/12/1
f 81/23/1 82/24/1 83/22/1 84/21/1
f 85/13/1 86/14/1 87/10/1 88/9/1
f 89/14/1 90/15/1 91/11/1 92/10/1
f 93/15/1 94/16/1 95/12/1 96/11/1
f 97/7/1 98/17/1 99/18/1 100/8/1
f 101/17/1 102/19/1 103/20/1 104/18/1
f 105/19/1 106/25/1 107/26/1 108/20/1
f 109/12/1 110/21/1 111/17/1 112/7/1
f 113/21/1 114/22/1 115/19/1 116/17/1
f 117/22/1 118/27/1 119/25/1 120/19/1
f 121/1/1 122/2/1 123/3/1 124/4/1
f 125/2/1 126/5/1 127/6/1 128/3/1
f 129/5/1 130/7/1 131/8/1 132/6/1
f 133/1/1 134/2/1 135/3/1 136/4/1
f 137/2/1 138/5/1 139/6/1 140/3/1
f 141/5/1 142/7/1 143/8/1 144/6/1
f 145/16/1 146/23/1 147/21/1 148/12/1
f 149/23/1 150/24/1 151/22/1 152/21/1
f 153/24/1 154/28/1 155/27/1 156/22/1
f 157/9/1 158/10/1 159/2/1 160/1/1
f 161/10/1 162/11/1 163/5/1 164/2/1
f 165/11/1 166/12/1 167/7/1 168/5/1
f 169/9/1 170/10/1 171/2/1 172/1/1
f 173/10/1 174/11/1 175/5/1 176/2/1
f 177/11/1 178/12/1 179/7/1 180/5/1
f 181/13/1 182/14/1 183/10/1 184/9/1
f 185/14/1 186/15/1 187/11/1 188/10/1
f 189/15/1 190/16/1 191/12/1 192/11/1
f 193/13/1 194/14/1 195/10/1 196/9/1
f 197/14/1 198/15/1 199/11/1 200/10/1
f 201/15/1 202/16/1 203/12/1 204/11/1
f 205/1/1 206/2/1 207/3/1 208/4/1
f 209/2/1 210/5/1 211/6/1 212/3/1
f 213/5/1 214/7/1 215/8/1 216/6/1
f 217/7/1 218/17/1 219/18/1 220/8/1
f 221/17/1 222/19/1 223/20/1 224/18/1
f 225/19/1 226/25/1 227/26/1 228/20/1
f 229/9/1 230/10/1 231/2/1 232/1/1
f 233/10/1 234/11/1 235/5/1 236/2/1
f 237/11/1 238/12/1 239/7/1 240/5/1
f 241/12/1 242/21/1 243/17/1 244/7/1
f 245/21/1 246/22/1 247/19/1 248/17/1
f 249/22/1 250/27/1 251/25/1 252/19/1
f 253/13/1 254/14/1 255/10/1 256/9/1
f 257/14/1 258/15/1 259/11/1 260/10/1
f 261/15/1 262/16/1 263/12/1 264/11/1
f 265/16/1 266/23/1 267/21/1 268/12/1
f 269/23/1 270/24/1 271/22/1 272/21/1
f 273/24/1 274/28/1 275/27/1 276/22/1
f 277/1/1 278/2/1 279/3/1 280/4/1
f 281/2/1 282/5/1 283/6/1 284/3/1
f 285/5/1 286/7/1 287/8/1 288/6/1
f 289/9/1 290/10/1 291/2/1 292/1/1
f 293/10/1 294/11/1 295/5/1 296/2/1
f 297/11/1 298/12/1 299/7/1 300/5/1
f 301/13/1 302/14/1 303/10/1 304/9/1
f 305/14/1 306/15/1 307/11/1 308/10/1
f 309/15/1 310/16/1 311/12/1 312/11/1
f 313/7/1 314/17/1 315/18/1 316/8/1
f 317/17/1 318/19/1 319/20/1 320/18/1
f 321/19/1 322/25/1 323/26/1 324/20/1
f 325/12/1 326/21/1 327/17/1 328/7/1
f 329/21/1 330/22/1 331/19/1 332/17/1
f 333/22/1 334/27/1 335/25/1 336/19/1
f 337/16/1 338/23/1 339/21/1 340/12/1
f 341/23/1 342/24/1 343/22/1 344/21/1
f 345/24/1 346/28/1 347/27/1 348/22/1
f 349/7/1 350/17/1 351/18/1 352/8/1
f 353/17/1 354/19/1 355/20/1 356/18/1
f 357/19/1 358/25/1 359/26/1 360/20/1
f 361/12/1 362/21/1 363/17/1 364/7/1
f 365/21/1 366/22/1 367/19/1 368/17/1
f 369/22/1 370/27/1 371/25/1 372/19/1
f 373/16/1 374/23/1 375/21/1 376/12/1
f 377/23/1 378/24/1 379/22/1 380/21/1
f 381/24/1 382/28/1 383/27/1 384/22/1

