# Tiled2Unity generated file. Do not modify by hand.
# Wavefront file for 'Forest_mesh_0008.obj'

# Vertices (Count = 240)
v -1.92 -0.32 0
v -2.24 -0.32 0
v -2.24 0 0
v -1.92 0 0
v -2.24 -0.32 0
v -2.56 -0.32 0
v -2.56 0 0
v -2.24 0 0
v -2.56 -0.32 0
v -2.88 -0.32 0
v -2.88 0 0
v -2.56 0 0
v -5.44 -0.32 0
v -5.76 -0.32 0
v -5.76 0 0
v -5.44 0 0
v -5.76 -0.32 0
v -6.08 -0.32 0
v -6.08 0 0
v -5.76 0 0
v -6.08 -0.32 0
v -6.4 -0.32 0
v -6.4 0 0
v -6.08 0 0
v -0.32 -0.96 0
v -0.64 -0.96 0
v -0.64 -0.64 0
v -0.32 -0.64 0
v -0.64 -0.96 0
v -0.96 -0.96 0
v -0.96 -0.64 0
v -0.64 -0.64 0
v -0.96 -0.96 0
v -1.28 -0.96 0
v -1.28 -0.64 0
v -0.96 -0.64 0
v -6.4 -1.92 0
v -6.72 -1.92 0
v -6.72 -1.6 0
v -6.4 -1.6 0
v -6.72 -1.92 0
v -7.04 -1.92 0
v -7.04 -1.6 0
v -6.72 -1.6 0
v -7.04 -1.92 0
v -7.36 -1.92 0
v -7.36 -1.6 0
v -7.04 -1.6 0
v -3.84 -2.24 0
v -4.16 -2.24 0
v -4.16 -1.92 0
v -3.84 -1.92 0
v -4.16 -2.24 0
v -4.48 -2.24 0
v -4.48 -1.92 0
v -4.16 -1.92 0
v -4.48 -2.24 0
v -4.8 -2.24 0
v -4.8 -1.92 0
v -4.48 -1.92 0
v -10.56 -2.24 0
v -10.88 -2.24 0
v -10.88 -1.92 0
v -10.56 -1.92 0
v -10.88 -2.24 0
v -11.2 -2.24 0
v -11.2 -1.92 0
v -10.88 -1.92 0
v -11.2 -2.24 0
v -11.52 -2.24 0
v -11.52 -1.92 0
v -11.2 -1.92 0
v -13.12 -2.24 0
v -13.44 -2.24 0
v -13.44 -1.92 0
v -13.12 -1.92 0
v -13.44 -2.24 0
v -13.76 -2.24 0
v -13.76 -1.92 0
v -13.44 -1.92 0
v -13.76 -2.24 0
v -14.08 -2.24 0
v -14.08 -1.92 0
v -13.76 -1.92 0
v -18.24 -2.24 0
v -18.56 -2.24 0
v -18.56 -1.92 0
v -18.24 -1.92 0
v -18.56 -2.24 0
v -18.88 -2.24 0
v -18.88 -1.92 0
v -18.56 -1.92 0
v -18.88 -2.24 0
v -19.2 -2.24 0
v -19.2 -1.92 0
v -18.88 -1.92 0
v -2.56 -2.56 0
v -2.88 -2.56 0
v -2.88 -2.24 0
v -2.56 -2.24 0
v -2.88 -2.56 0
v -3.2 -2.56 0
v -3.2 -2.24 0
v -2.88 -2.24 0
v -3.2 -2.56 0
v -3.52 -2.56 0
v -3.52 -2.24 0
v -3.2 -2.24 0
v -16.64 -2.56 0
v -16.96 -2.56 0
v -16.96 -2.24 0
v -16.64 -2.24 0
v -16.96 -2.56 0
v -17.28 -2.56 0
v -17.28 -2.24 0
v -16.96 -2.24 0
v -17.28 -2.56 0
v -17.6 -2.56 0
v -17.6 -2.24 0
v -17.28 -2.24 0
v -14.4 -3.2 0
v -14.72 -3.2 0
v -14.72 -2.88 0
v -14.4 -2.88 0
v -14.72 -3.2 0
v -15.04 -3.2 0
v -15.04 -2.88 0
v -14.72 -2.88 0
v -15.04 -3.2 0
v -15.36 -3.2 0
v -15.36 -2.88 0
v -15.04 -2.88 0
v -11.84 -3.52 0
v -12.16 -3.52 0
v -12.16 -3.2 0
v -11.84 -3.2 0
v -12.16 -3.52 0
v -12.48 -3.52 0
v -12.48 -3.2 0
v -12.16 -3.2 0
v -12.48 -3.52 0
v -12.8 -3.52 0
v -12.8 -3.2 0
v -12.48 -3.2 0
v -17.92 -3.52 0
v -18.24 -3.52 0
v -18.24 -3.2 0
v -17.92 -3.2 0
v -18.24 -3.52 0
v -18.56 -3.52 0
v -18.56 -3.2 0
v -18.24 -3.2 0
v -18.56 -3.52 0
v -18.88 -3.52 0
v -18.88 -3.2 0
v -18.56 -3.2 0
v -9.28 -4.16 0
v -9.599999 -4.16 0
v -9.599999 -3.84 0
v -9.28 -3.84 0
v -9.599999 -4.16 0
v -9.92 -4.16 0
v -9.92 -3.84 0
v -9.599999 -3.84 0
v -9.92 -4.16 0
v -10.24 -4.16 0
v -10.24 -3.84 0
v -9.92 -3.84 0
v -16.96 -4.16 0
v -17.28 -4.16 0
v -17.28 -3.84 0
v -16.96 -3.84 0
v -17.28 -4.16 0
v -17.6 -4.16 0
v -17.6 -3.84 0
v -17.28 -3.84 0
v -17.6 -4.16 0
v -17.92 -4.16 0
v -17.92 -3.84 0
v -17.6 -3.84 0
v -18.24 -4.8 0
v -18.56 -4.8 0
v -18.56 -4.48 0
v -18.24 -4.48 0
v -18.56 -4.8 0
v -18.88 -4.8 0
v -18.88 -4.48 0
v -18.56 -4.48 0
v -18.88 -4.8 0
v -19.2 -4.8 0
v -19.2 -4.48 0
v -18.88 -4.48 0
v -1.28 -5.12 0
v -1.6 -5.12 0
v -1.6 -4.8 0
v -1.28 -4.8 0
v -1.6 -5.12 0
v -1.92 -5.12 0
v -1.92 -4.8 0
v -1.6 -4.8 0
v -1.92 -5.12 0
v -2.24 -5.12 0
v -2.24 -4.8 0
v -1.92 -4.8 0
v -5.12 -5.12 0
v -5.44 -5.12 0
v -5.44 -4.8 0
v -5.12 -4.8 0
v -5.44 -5.12 0
v -5.76 -5.12 0
v -5.76 -4.8 0
v -5.44 -4.8 0
v -5.76 -5.12 0
v -6.08 -5.12 0
v -6.08 -4.8 0
v -5.76 -4.8 0
v -14.4 -5.44 0
v -14.72 -5.44 0
v -14.72 -5.12 0
v -14.4 -5.12 0
v -14.72 -5.44 0
v -15.04 -5.44 0
v -15.04 -5.12 0
v -14.72 -5.12 0
v -15.04 -5.44 0
v -15.36 -5.44 0
v -15.36 -5.12 0
v -15.04 -5.12 0
v -12.16 -5.76 0
v -12.48 -5.76 0
v -12.48 -5.44 0
v -12.16 -5.44 0
v -12.48 -5.76 0
v -12.8 -5.76 0
v -12.8 -5.44 0
v -12.48 -5.44 0
v -12.8 -5.76 0
v -13.12 -5.76 0
v -13.12 -5.44 0
v -12.8 -5.44 0

# Texture cooridinates (Count = 8)
vt 0.5 0.96875
vt 0.53125 0.96875
vt 0.53125 1
vt 0.5 1
vt 0.5625 0.96875
vt 0.5625 1
vt 0.59375 0.96875
vt 0.59375 1

# Normal
vn 0 0 -1

# Mesh description
g Forest_mesh_0008

# Faces
f 1/1/1 2/2/1 3/3/1 4/4/1
f 5/2/1 6/5/1 7/6/1 8/3/1
f 9/5/1 10/7/1 11/8/1 12/6/1
f 13/1/1 14/2/1 15/3/1 16/4/1
f 17/2/1 18/5/1 19/6/1 20/3/1
f 21/5/1 22/7/1 23/8/1 24/6/1
f 25/7/1 26/5/1 27/6/1 28/8/1
f 29/5/1 30/2/1 31/3/1 32/6/1
f 33/2/1 34/1/1 35/4/1 36/3/1
f 37/1/1 38/2/1 39/3/1 40/4/1
f 41/2/1 42/5/1 43/6/1 44/3/1
f 45/5/1 46/7/1 47/8/1 48/6/1
f 49/7/1 50/5/1 51/6/1 52/8/1
f 53/5/1 54/2/1 55/3/1 56/6/1
f 57/2/1 58/1/1 59/4/1 60/3/1
f 61/1/1 62/2/1 63/3/1 64/4/1
f 65/2/1 66/5/1 67/6/1 68/3/1
f 69/5/1 70/7/1 71/8/1 72/6/1
f 73/1/1 74/2/1 75/3/1 76/4/1
f 77/2/1 78/5/1 79/6/1 80/3/1
f 81/5/1 82/7/1 83/8/1 84/6/1
f 85/7/1 86/5/1 87/6/1 88/8/1
f 89/5/1 90/2/1 91/3/1 92/6/1
f 93/2/1 94/1/1 95/4/1 96/3/1
f 97/7/1 98/5/1 99/6/1 100/8/1
f 101/5/1 102/2/1 103/3/1 104/6/1
f 105/2/1 106/1/1 107/4/1 108/3/1
f 109/1/1 110/2/1 111/3/1 112/4/1
f 113/2/1 114/5/1 115/6/1 116/3/1
f 117/5/1 118/7/1 119/8/1 120/6/1
f 121/7/1 122/5/1 123/6/1 124/8/1
f 125/5/1 126/2/1 127/3/1 128/6/1
f 129/2/1 130/1/1 131/4/1 132/3/1
f 133/1/1 134/2/1 135/3/1 136/4/1
f 137/2/1 138/5/1 139/6/1 140/3/1
f 141/5/1 142/7/1 143/8/1 144/6/1
f 145/7/1 146/5/1 147/6/1 148/8/1
f 149/5/1 150/2/1 151/3/1 152/6/1
f 153/2/1 154/1/1 155/4/1 156/3/1
f 157/1/1 158/2/1 159/3/1 160/4/1
f 161/2/1 162/5/1 163/6/1 164/3/1
f 165/5/1 166/7/1 167/8/1 168/6/1
f 169/1/1 170/2/1 171/3/1 172/4/1
f 173/2/1 174/5/1 175/6/1 176/3/1
f 177/5/1 178/7/1 179/8/1 180/6/1
f 181/1/1 182/2/1 183/3/1 184/4/1
f 185/2/1 186/5/1 187/6/1 188/3/1
f 189/5/1 190/7/1 191/8/1 192/6/1
f 193/7/1 194/5/1 195/6/1 196/8/1
f 197/5/1 198/2/1 199/3/1 200/6/1
f 201/2/1 202/1/1 203/4/1 204/3/1
f 205/1/1 206/2/1 207/3/1 208/4/1
f 209/2/1 210/5/1 211/6/1 212/3/1
f 213/5/1 214/7/1 215/8/1 216/6/1
f 217/1/1 218/2/1 219/3/1 220/4/1
f 221/2/1 222/5/1 223/6/1 224/3/1
f 225/5/1 226/7/1 227/8/1 228/6/1
f 229/7/1 230/5/1 231/6/1 232/8/1
f 233/5/1 234/2/1 235/3/1 236/6/1
f 237/2/1 238/1/1 239/4/1 240/3/1

