# Tiled2Unity generated file. Do not modify by hand.
# Wavefront file for 'Forest_mesh_0007.obj'

# Vertices (Count = 24)
v -12.16 -0.96 0
v -12.48 -0.96 0
v -12.48 -0.64 0
v -12.16 -0.64 0
v -17.92 -2.56 0
v -18.24 -2.56 0
v -18.24 -2.24 0
v -17.92 -2.24 0
v -4.8 -2.88 0
v -5.12 -2.88 0
v -5.12 -2.56 0
v -4.8 -2.56 0
v -9.599999 -3.84 0
v -9.92 -3.84 0
v -9.92 -3.52 0
v -9.599999 -3.52 0
v 0 -5.44 0
v -0.32 -5.44 0
v -0.32 -5.12 0
v 0 -5.12 0
v -15.36 -6.4 0
v -15.68 -6.4 0
v -15.68 -6.08 0
v -15.36 -6.08 0

# Texture cooridinates (Count = 4)
vt 0.9 0.6666666
vt 1 0.6666666
vt 1 0.8333333
vt 0.9 0.8333333

# Normal
vn 0 0 -1

# Mesh description
g Forest_mesh_0007

# Faces
f 1/1/1 2/2/1 3/3/1 4/4/1
f 5/1/1 6/2/1 7/3/1 8/4/1
f 9/1/1 10/2/1 11/3/1 12/4/1
f 13/2/1 14/1/1 15/4/1 16/3/1
f 17/1/1 18/2/1 19/3/1 20/4/1
f 21/2/1 22/1/1 23/4/1 24/3/1

